<?xml version="1.0" encoding="utf-8"?>
<!-- Generator: Adobe Illustrator 19.0.0, SVG Export Plug-In . SVG Version: 6.00 Build 0)  -->
<svg version="1.1" id="Layer_1" xmlns="http://www.w3.org/2000/svg" xmlns:xlink="http://www.w3.org/1999/xlink" x="0px" y="0px"
	 viewBox="414 366 1440 61" style="enable-background:new 414 366 1440 61;" xml:space="preserve">
<style type="text/css">
	.st0{fill:#9B7C4B;}
</style>
<path class="st0" d="M414,390.2V427h166.3c12.3,0.6,23.8,0.5,34.9,0H1854v-29.3c-30.8-14.2-79.2-31.5-138.5-30
	c-37.9,1-61.2,9.2-86.2,18.1c-20.9,7.4-42.9,15.1-75.6,19.5c-46.4,6.1-72.1-0.3-103.8-8.1c-24.1-6-51.7-12.8-94.4-15.6
	c-53.8-3.5-81,2.7-116.1,10.7c-26.6,6.1-57.7,13.2-108.2,17.9c-80.6,7.5-118,0.4-155.6-6.9c-35.9-6.9-72-13.8-146.3-7.9
	c-50,4-87.4,11.4-121.1,18.1c-31.8,6.3-60.3,12-93.1,13.5h-34.9c-12.9-0.6-26.7-1.8-41.7-3.9C484.9,415.7,442,401.2,414,390.2z"/>
</svg>
