<?xml version="1.0" encoding="utf-8"?>
<!-- Generator: Adobe Illustrator 19.0.0, SVG Export Plug-In . SVG Version: 6.00 Build 0)  -->
<svg version="1.1" id="Layer_1" xmlns="http://www.w3.org/2000/svg" xmlns:xlink="http://www.w3.org/1999/xlink" x="0px" y="0px"
	 viewBox="-137 367 337 60" style="enable-background:new -137 367 337 60;" xml:space="preserve">
<style type="text/css">
	.st0{fill:#FFFFFF;}
</style>
<path class="st0" d="M-137,367v60h336.5v-60H-137z M193.6,421.1h-324.7v-48.2h324.7V421.1z"/>
<g>
	<g>
		<path class="st0" d="M-110.4,410.7v-27.6h11.9c2.5,0,4.6,0.4,6.4,1.2c1.8,0.8,3.2,1.9,4.1,3.4c1,1.5,1.5,3.3,1.5,5.4
			c0,2-0.5,3.8-1.5,5.3c-1,1.5-2.3,2.6-4.1,3.4c-1.8,0.8-3.9,1.2-6.4,1.2h-8.4l2.8-2.9v10.5H-110.4z M-104,400.9l-2.8-3h8
			c2,0,3.4-0.4,4.4-1.3c1-0.8,1.5-2,1.5-3.5c0-1.5-0.5-2.7-1.5-3.5c-1-0.8-2.4-1.3-4.4-1.3h-8l2.8-3V400.9z"/>
		<path class="st0" d="M-82.4,410.7v-21.2h5.9v6l-0.8-1.7c0.6-1.5,1.6-2.6,3-3.4c1.4-0.8,3.1-1.2,5.1-1.2v5.7c-0.3,0-0.5,0-0.7-0.1
			c-0.2,0-0.4,0-0.7,0c-1.7,0-3,0.5-4.1,1.4c-1,1-1.6,2.4-1.6,4.5v10H-82.4z"/>
		<path class="st0" d="M-55.2,411c-2.4,0-4.5-0.5-6.4-1.4c-1.8-0.9-3.2-2.2-4.2-3.9c-1-1.6-1.5-3.5-1.5-5.6c0-2.1,0.5-4,1.5-5.7
			s2.3-2.9,4-3.9c1.7-0.9,3.6-1.4,5.8-1.4c2.1,0,3.9,0.4,5.6,1.3c1.7,0.9,3,2.1,4,3.8c1,1.6,1.5,3.6,1.5,5.9c0,0.2,0,0.5,0,0.8
			c0,0.3-0.1,0.6-0.1,0.8h-17.2v-3.6h14l-2.4,1.1c0-1.1-0.2-2.1-0.7-2.9c-0.4-0.8-1.1-1.5-1.9-1.9c-0.8-0.5-1.7-0.7-2.8-0.7
			c-1.1,0-2,0.2-2.8,0.7c-0.8,0.5-1.4,1.1-1.9,1.9c-0.4,0.8-0.7,1.8-0.7,2.9v0.9c0,1.2,0.3,2.2,0.8,3.1s1.2,1.5,2.2,2
			c0.9,0.5,2,0.7,3.3,0.7c1.1,0,2.1-0.2,3-0.5c0.9-0.3,1.6-0.9,2.3-1.5l3.3,3.5c-1,1.1-2.2,1.9-3.7,2.5
			C-51.6,410.7-53.3,411-55.2,411z"/>
		<path class="st0" d="M-13.8,389.2c1.7,0,3.2,0.3,4.5,1c1.3,0.7,2.3,1.7,3.1,3.1c0.7,1.4,1.1,3.1,1.1,5.3v12.1h-6.1v-11.2
			c0-1.7-0.4-3-1.1-3.8c-0.7-0.8-1.7-1.2-3-1.2c-0.9,0-1.7,0.2-2.4,0.6c-0.7,0.4-1.3,1-1.7,1.8c-0.4,0.8-0.6,1.9-0.6,3.1v10.6h-6.1
			v-11.2c0-1.7-0.3-3-1-3.8c-0.7-0.8-1.7-1.2-3-1.2c-0.9,0-1.7,0.2-2.4,0.6c-0.7,0.4-1.3,1-1.7,1.8c-0.4,0.8-0.6,1.9-0.6,3.1v10.6
			h-6.1v-21.2h5.9v5.8l-1.1-1.7c0.7-1.4,1.8-2.5,3.1-3.3s2.9-1.1,4.6-1.1c1.9,0,3.6,0.5,5.1,1.5c1.5,1,2.4,2.5,2.9,4.5l-2.2-0.6
			c0.7-1.7,1.8-3,3.4-3.9C-17.6,389.6-15.8,389.2-13.8,389.2z"/>
		<path class="st0" d="M3.5,386.5c-1.1,0-2-0.3-2.8-1c-0.7-0.7-1.1-1.5-1.1-2.4c0-1,0.4-1.8,1.1-2.4c0.7-0.7,1.6-1,2.8-1
			c1.1,0,2,0.3,2.8,0.9c0.7,0.6,1.1,1.4,1.1,2.4c0,1-0.3,1.9-1,2.5C5.6,386.2,4.6,386.5,3.5,386.5z M0.4,410.7v-21.2h6.1v21.2H0.4z"
			/>
		<path class="st0" d="M22.8,411c-2.4,0-4.5-0.5-6.4-1.4c-1.8-0.9-3.2-2.2-4.2-3.9c-1-1.6-1.5-3.5-1.5-5.6c0-2.1,0.5-4,1.5-5.7
			s2.3-2.9,4-3.9c1.7-0.9,3.6-1.4,5.8-1.4c2.1,0,3.9,0.4,5.6,1.3c1.7,0.9,3,2.1,4,3.8c1,1.6,1.5,3.6,1.5,5.9c0,0.2,0,0.5,0,0.8
			c0,0.3-0.1,0.6-0.1,0.8H15.7v-3.6h14l-2.4,1.1c0-1.1-0.2-2.1-0.7-2.9c-0.4-0.8-1.1-1.5-1.9-1.9c-0.8-0.5-1.7-0.7-2.8-0.7
			c-1.1,0-2,0.2-2.8,0.7c-0.8,0.5-1.4,1.1-1.9,1.9c-0.4,0.8-0.7,1.8-0.7,2.9v0.9c0,1.2,0.3,2.2,0.8,3.1s1.2,1.5,2.2,2
			c0.9,0.5,2,0.7,3.3,0.7c1.1,0,2.1-0.2,3-0.5c0.9-0.3,1.6-0.9,2.3-1.5l3.3,3.5c-1,1.1-2.2,1.9-3.7,2.5
			C26.4,410.7,24.7,411,22.8,411z"/>
		<path class="st0" d="M37.1,410.7v-21.2H43v6l-0.8-1.7c0.6-1.5,1.6-2.6,3-3.4c1.4-0.8,3.1-1.2,5.1-1.2v5.7c-0.3,0-0.5,0-0.7-0.1
			c-0.2,0-0.4,0-0.7,0c-1.7,0-3,0.5-4.1,1.4c-1,1-1.6,2.4-1.6,4.5v10H37.1z"/>
		<path class="st0" d="M72.3,411c-1.8,0-3.6-0.2-5.2-0.7c-1.7-0.4-3-1-4-1.6l2-4.4c1,0.6,2.1,1.1,3.4,1.5c1.3,0.4,2.6,0.6,3.9,0.6
			c1.4,0,2.4-0.2,3-0.5c0.6-0.3,0.9-0.8,0.9-1.4c0-0.5-0.2-0.9-0.7-1.1c-0.5-0.2-1.1-0.4-1.8-0.6c-0.8-0.1-1.6-0.3-2.5-0.4
			c-0.9-0.1-1.8-0.3-2.7-0.5c-0.9-0.2-1.8-0.6-2.5-1c-0.8-0.4-1.4-1-1.8-1.8c-0.5-0.8-0.7-1.7-0.7-3c0-1.3,0.4-2.5,1.2-3.5
			s1.9-1.8,3.4-2.4c1.5-0.6,3.2-0.9,5.3-0.9c1.4,0,2.9,0.2,4.4,0.5c1.5,0.3,2.7,0.8,3.7,1.4l-2,4.4c-1-0.6-2.1-1-3.1-1.2
			c-1-0.2-2-0.3-3-0.3c-1.4,0-2.4,0.2-3,0.6c-0.6,0.4-0.9,0.8-0.9,1.4c0,0.5,0.2,0.9,0.7,1.2c0.5,0.3,1.1,0.5,1.8,0.6
			c0.8,0.2,1.6,0.3,2.5,0.4c0.9,0.1,1.8,0.3,2.7,0.5c0.9,0.2,1.8,0.6,2.5,1c0.7,0.4,1.4,1,1.8,1.8c0.5,0.7,0.7,1.7,0.7,2.9
			c0,1.3-0.4,2.5-1.2,3.5c-0.8,1-1.9,1.8-3.4,2.4C76.3,410.7,74.5,411,72.3,411z"/>
		<path class="st0" d="M95.1,411c-1.8,0-3.3-0.3-4.7-1c-1.4-0.7-2.4-1.7-3.2-3.1s-1.1-3.2-1.1-5.4v-12h6.1v11.1
			c0,1.8,0.4,3.1,1.1,3.9c0.7,0.8,1.8,1.2,3.2,1.2c0.9,0,1.8-0.2,2.5-0.6c0.7-0.4,1.3-1,1.7-1.9c0.4-0.9,0.6-1.9,0.6-3.2v-10.5h6.1
			v21.2h-5.8v-5.8l1.1,1.7c-0.7,1.5-1.8,2.6-3.1,3.3C98.2,410.6,96.7,411,95.1,411z"/>
		<path class="st0" d="M120.3,411c-1.8,0-3.6-0.2-5.2-0.7c-1.7-0.4-3-1-4-1.6l2-4.4c1,0.6,2.1,1.1,3.4,1.5c1.3,0.4,2.6,0.6,3.9,0.6
			c1.4,0,2.4-0.2,3-0.5c0.6-0.3,0.9-0.8,0.9-1.4c0-0.5-0.2-0.9-0.7-1.1c-0.5-0.2-1.1-0.4-1.8-0.6c-0.8-0.1-1.6-0.3-2.5-0.4
			c-0.9-0.1-1.8-0.3-2.7-0.5c-0.9-0.2-1.8-0.6-2.5-1c-0.8-0.4-1.4-1-1.8-1.8c-0.5-0.8-0.7-1.7-0.7-3c0-1.3,0.4-2.5,1.2-3.5
			s1.9-1.8,3.4-2.4c1.5-0.6,3.2-0.9,5.3-0.9c1.4,0,2.9,0.2,4.4,0.5c1.5,0.3,2.7,0.8,3.7,1.4l-2,4.4c-1-0.6-2.1-1-3.1-1.2
			c-1-0.2-2-0.3-3-0.3c-1.4,0-2.4,0.2-3,0.6c-0.6,0.4-0.9,0.8-0.9,1.4c0,0.5,0.2,0.9,0.7,1.2c0.5,0.3,1.1,0.5,1.8,0.6
			c0.8,0.2,1.6,0.3,2.5,0.4c0.9,0.1,1.8,0.3,2.7,0.5c0.9,0.2,1.8,0.6,2.5,1c0.7,0.4,1.4,1,1.8,1.8c0.5,0.7,0.7,1.7,0.7,2.9
			c0,1.3-0.4,2.5-1.2,3.5c-0.8,1-1.9,1.8-3.4,2.4C124.2,410.7,122.4,411,120.3,411z"/>
		<path class="st0" d="M147,389.2c1.7,0,3.2,0.3,4.5,1c1.3,0.7,2.4,1.7,3.1,3.1c0.8,1.4,1.1,3.1,1.1,5.3v12.1h-6.1v-11.2
			c0-1.7-0.4-3-1.1-3.8c-0.7-0.8-1.8-1.2-3.2-1.2c-1,0-1.8,0.2-2.6,0.6c-0.8,0.4-1.4,1-1.8,1.9c-0.4,0.8-0.6,1.9-0.6,3.2v10.5h-6.1
			v-29.2h6.1v13.9l-1.4-1.8c0.8-1.4,1.9-2.5,3.3-3.3C143.5,389.5,145.1,389.2,147,389.2z"/>
		<path class="st0" d="M164.4,386.5c-1.1,0-2-0.3-2.8-1c-0.7-0.7-1.1-1.5-1.1-2.4c0-1,0.4-1.8,1.1-2.4c0.7-0.7,1.6-1,2.8-1
			c1.1,0,2,0.3,2.8,0.9c0.7,0.6,1.1,1.4,1.1,2.4c0,1-0.3,1.9-1,2.5C166.4,386.2,165.5,386.5,164.4,386.5z M161.3,410.7v-21.2h6.1
			v21.2H161.3z"/>
	</g>
</g>
</svg>
