<?xml version="1.0" encoding="utf-8"?>
<!-- Generator: Adobe Illustrator 19.0.0, SVG Export Plug-In . SVG Version: 6.00 Build 0)  -->
<svg version="1.1" id="Layer_1" xmlns="http://www.w3.org/2000/svg" xmlns:xlink="http://www.w3.org/1999/xlink" x="0px" y="0px"
	 viewBox="-221 306 169 182" style="enable-background:new -221 306 169 182;" xml:space="preserve">
<style type="text/css">
	.st0{fill:#F8F8F8;}
	.st1{fill:#6E8FBD;}
	.st2{fill:#0E1860;}
</style>
<circle class="st0" cx="-151.8" cy="359.3" r="44.3"/>
<g>
	<path class="st1" d="M1176.5,778.6l-6.2-1.1c-12.3-3.3-20.3,1.1-20.4,1.2c-0.1,0-0.1,0.1-0.2,0.2c0,0.1,0,0.2,0.1,0.3
		c0.1,0.1,5.7,5.2,13,5.8c3.9,0.3,7.6-1.3,10.1-2.9c2.2-1.4,3.5-2.7,3.7-2.8c0.1-0.1,0.1-0.2,0.1-0.3
		C1176.8,778.7,1176.7,778.7,1176.5,778.6z"/>
	<g>
		<path class="st2" d="M1173.1,782c-2.5,1.6-6.1,3.2-10.1,2.9c-7.3-0.6-13-5.7-13-5.8c-0.1-0.1-0.1-0.2-0.1-0.3s0.1-0.2,0.2-0.2
			s8.1-4.4,20.4-1.2l6.2,1.1c0.1,0,0.2,0.1,0.2,0.2s0,0.2-0.1,0.3C1176.6,779.3,1175.2,780.6,1173.1,782z M1150.7,779
			c1.3,1.1,6.2,4.8,12.3,5.3c5.9,0.5,11.3-3.8,12.8-5.2l-5.6-1C1159.7,775.3,1152.5,778.2,1150.7,779z"/>
	</g>
</g>
<path d="M-126.4,440.4c-3.2,1.5-7.7,1.2-9,5.8c0,0,0,0.1,0,0.1c0,0-0.1,0-0.1,0.1c-1.6,1.9-3.4,3.7-5.2,5.4l0.3-2.9
	c0-0.3,0.1-0.6,0.1-1l0.1-0.9h0c0.3-2.9,0.5-5.8,0.7-8.7c0.1-0.1,0.1-0.1,0.1-0.2c1.5-3.1,3.6-5.6,6.3-7.5c0.2,0.1,0.4,0.1,0.5,0
	c2.4,0.7,4.8-1.8,6.3-3.7c0.7-1,2.7-4.6,0.6-5c-0.6-0.1-1.4,0.1-2,0.2c-0.9,0.1-1.7,0.2-2.6,0.3c-1.1,0.2-2.1,0.4-3,1.3
	c-1.5,1.5-1.7,3.9-0.8,5.7c-2.1,1.5-3.9,3.4-5.4,5.7c0-1.3,0.1-2.7,0.1-4c0-2.5,0-5,0-7.5c1.1-2.3,2.4-4.2,4.1-5.9
	c0.1,0,0.1,0,0.2-0.1c2.4-1.5,5-1.9,7-4.2c1.5-1.8,2.4-4.1,2.6-6.6c0.1-0.7-0.7-1-1.1-0.7c-2.5,1.6-5.5,2.9-7.7,5
	c-1.3,1.2-1.8,3-1.5,4.9c0,0,0,0,0,0c-1.4,1.3-2.6,2.9-3.7,4.6c0-4.6,0-9.2,0-13.8c0,0,0-0.1,0-0.1c0.2-0.3,0.4-0.5,0.5-0.8
	c0,0,0,0,0,0c0,0,0.1-0.1,0.1-0.1l3.5-4.6c0.6-0.7,1.4-1.5,1.8-2.5c3.1-0.8,6.1-2.5,6.5-6.6c0.1-0.7-0.6-1-1.1-0.7
	c-1.6,1-3,1.1-4.7,1.8c-0.8,0.3-1.6,0.9-1.9,1.9c-0.2,0.5,0,1.1-0.1,1.6c-0.1,1.3-0.6,2-1.3,2.9c-1,1.3-2.1,2.7-3.1,4
	c0,0,0-0.1-0.1-0.1c-0.1-0.2-0.3-0.3-0.4-0.5c0-4.7,0-9.5,0-14.2c0.4-0.3,0.7-0.6,0.9-1c0,0,0-0.1,0-0.1c0,0,0,0,0-0.1
	c0.9-2.6,3.3-4,4.3-6.5c0-0.1,0-0.1,0.1-0.2c2.9,3.7,6.8-5.5,7.5-7.8c0.2-0.6-0.4-1.2-0.9-1c-2.7,1.1-6.8,1.8-7.6,5.6
	c-0.2,1.1-0.1,2.2-0.7,3.3c-0.5,0.9-1.2,1.7-1.9,2.5c-0.8,0.9-1.4,1.8-1.9,2.9c0-5,0-10-0.1-15c0.1,0,0.2-0.1,0.2-0.2
	c0.3-0.6,0.5-1.2,0.8-1.8c0.1-0.2,0.3-0.5,0.3-0.7c0.8-1.9,1.8-3.3,3.2-4.8c0.2-0.3,0.5-0.5,0.6-0.7c0.3-0.3,0.9-0.4,1.2-0.6
	c0.5-0.3,1-0.7,1.4-1.1c0.9-0.7,1.8-1.5,2.6-2.4c1.6-1.9,2.7-4.2,2.8-6.8c0-0.7-0.8-1.2-1.2-0.6c-2,2.9-7.2,1.7-7.9,6.2
	c-0.1,0.4,0.1,0.9,0,1.3c0.3,1,0.2,2-0.1,3.1c-0.4,0.4-0.8,0.7-1.2,1.1c-1.2,1.3-2.2,2.9-2.9,4.7c0,0.1,0,0.1,0,0.2
	c0-4-0.1-7.9-0.1-11.9c1.6-0.9,2.8-2.8,3.1-4.7c0.2-1.1-0.1-1.8-0.5-2.8c-0.8-2-1.4-3.9-1.8-6c-0.2-0.8-1.2-0.8-1.4,0
	c-0.6,2.7-2.6,4.4-2.8,7.2c-0.3,2.4,0.4,4.6,1.7,6.5c0.1,0.1,0.2,0.2,0.3,0.3c0,3.8,0.1,7.6,0.1,11.5c-1.1-1.8-2.1-3.6-3.2-5.4
	c3-3.9-4.1-8.3-6.3-9.9c-0.5-0.4-1.2,0.3-1.1,0.9c0.6,2.5,0.8,5.7,1.9,8c0.3,0.8,0.9,1.4,1.6,1.8c0.2,0.1,0.5,0.2,0.8,0.2
	c0.5,0,1.4-0.5,1.8-0.2c0,0,0.1,0,0.1,0c1.5,2.5,3,5,4.5,7.5c0,5.1,0.1,10.2,0.1,15.2c-1.3-2.6-2.9-5-5.3-6.3c0-3.5-1.8-6.7-4.6-8.1
	c-0.5-0.2-1.1,0-1.1,0.7c0,2.3-0.4,5.2,1,7.1c1,1.4,2.5,2,4.1,1.7c2.6,1.4,4,4.3,5.3,7c0.1,0.3,0.4,0.4,0.6,0.4c0,4.2,0,8.3,0,12.5
	c-1.1-1.2-2.3-2.2-3.6-3.1c0-3.7-2.8-6-5.4-7.8c-0.5-0.3-1.1,0.1-1.1,0.7c0.1,2.4-0.3,5.5,1.3,7.5c1.2,1.5,3.1,2,4.8,1.3
	c0,0,0,0,0.1-0.1c1.4,1,2.7,2.3,3.9,3.7c0,6.5,0,13,0,19.6c-1.9-2.5-3.6-5.1-5.1-7.9c-0.2-3.9-2.7-6.9-6.1-7.3
	c-0.5-0.1-0.8,0.6-0.7,1.1c0.8,3.6,2.4,7.9,6.1,8.1c1.7,3,3.6,5.9,5.8,8.6c0,1.3,0,2.6,0,3.9c0,2.7-0.1,5.3-0.3,8
	c0-0.2-1.2-1.2-1.4-1.4c-0.6-0.5-1.1-1.1-1.7-1.6c-1.4-1.3-2.2-2.4-2.8-4.5c-0.3-1-0.8-1.9-1.3-2.7c-1.2-1.6-2.7-2.8-4.3-3.8
	c-0.6-0.4-1.1,0.3-1.1,0.9c0.2,1.4-0.6,2.8-0.6,4.2c0,1.2,0.5,2.2,1.3,3c1.5,1.4,3.3,2,5.2,1.6c0,0,0.1,0.1,0.1,0.1
	c2.2,1.9,4.2,3.9,6.2,6c0.1,0.1,0.1,0.1,0.2,0.2c-0.2,2.6-0.4,5.1-0.7,7.7l-0.9,5.5c-1.3-1-2.6-2-3.6-3.3c-1.2-1.5-1.5-3.3-2.5-4.9
	c-1.2-1.8-4.4-2.9-6.3-2.5c-1.2,0.2-2.3,1.1-1.6,2.5c0.6,1.2,2.5,2.1,3.4,2.8c1.4,0.9,2.8,1.6,4.3,2.2c0.3,0.1,0.6,0,0.7-0.3
	c1.4,2.1,3.3,3.7,5.3,5.2L-145,467l2.5,1.2l1.5-13.7c0.3-0.5,0.6-0.9,1.1-1.3c0,0,0,0,0-0.1c1.9-1.7,3.7-3.5,5.4-5.5c0,0,0,0,0,0
	c1.6,0.3,3.2,0,4.6-1.2c1.5-1.2,2.1-3.8,3.9-4.5C-125.2,441.6-125.5,440-126.4,440.4z M-131.3,424.4c1.4-0.5,3.1-0.5,4.5-0.7
	c0.3,0,0.6-0.1,0.9-0.1c-0.4,0.3-0.6,0.7-0.7,1.2c-0.3,0.7-0.8,1.3-1.3,1.8c-1.1,1.2-2.7,3-4.4,2.4c-0.1,0-0.1,0-0.2,0
	C-133.6,427.4-133.1,425.2-131.3,424.4z M-130.5,410.6l3.5-2.2c-0.5,2-1.5,3.7-3,4.9c-1.3,1-2.7,1.5-4.2,2.1
	C-134.5,412.8-132.2,411.8-130.5,410.6z M-132.2,395.3c0.2-0.2,0.4-0.3,0.6-0.5c0.3-0.2,0.6-0.3,1-0.5c0.7-0.3,1.5-0.5,2.2-0.8
	c-0.4,0.9-1.1,1.6-1.8,2.1c-0.2,0.1-2.6,1.3-2.7,1.2C-133.1,396.3-132.7,395.8-132.2,395.3z M-132.1,376c1.1-0.8,2.5-1.3,3.8-1.8
	c-1.1,2.7-3.5,7.4-4.8,5c-0.1-0.2-0.2-0.3-0.4-0.3C-133.3,377.8-133.1,376.8-132.1,376z M-133.5,356.7c0.5-0.9,1.4-1.1,2.2-1.4
	c0.7-0.2,0.9-0.1,1.6-0.4c0.8-0.2,1.3-0.5,1.7-0.8c-0.9,3-3.2,4.9-5.6,6.6c-0.1-0.4-0.3-1-0.4-1.7
	C-133.9,358.4-134,357.5-133.5,356.7z M-145.3,361.6c-0.2,0.1-0.3,0.1-0.5,0.1c-0.6,0-1.3,0.3-1.9-0.1c-0.5-0.3-0.7-1.5-0.8-2
	c-0.3-1.4-0.6-2.9-1-4.4c0.1,0.3,1.5,1.1,1.8,1.4c0.7,0.5,1.3,1.1,1.9,1.8c0.4,0.5,0.9,1.1,1,1.8
	C-144.7,360.9-144.9,361.4-145.3,361.6z M-150.2,374c1.7,1.3,2.7,3.5,2.8,5.9C-150.1,380-150.3,376.6-150.2,374z M-148.7,397.1
	c-0.6-1.1-0.6-2.8-0.6-4.4c1.9,1.4,3.7,3.1,3.6,5.9C-146.8,398.8-148.1,398.3-148.7,397.1z M-150.8,409.9c2.1,0.8,3.4,2.9,3.6,5.4
	C-149.3,414.7-150.2,412.2-150.8,409.9z M-152.6,429.1c-0.2-1.1,0.2-2.3,0.4-3.5c2,1.4,3.9,3.3,4.2,6
	C-149.8,432-152.2,431.1-152.6,429.1z M-154.4,444.5c-0.9-1.8,3.1,0,3.4,0.3c0.9,0.7,1.2,1.8,1.7,2.7c0,0.1,0.1,0.1,0.1,0.1
	C-150.7,447-153.7,445.8-154.4,444.5z M-141,353.8c-0.6-1-0.5-2-0.5-2.8c0-1.2,0.3-2.5,0.8-3.6c0.4-0.8,0.8-1.4,1.2-2.2
	c0.3,1,0.6,1.9,0.9,2.9c0.5,1.2,0.7,1.5,0.6,2.9c-0.1,1.2-0.5,2-0.6,2.2c-0.4,0.7-0.8,1.5-1.3,1.5
	C-140.5,354.8-140.8,354.1-141,353.8z M-133.8,446.1c0.8-2,2.8-2.6,4.7-3.2C-130.3,444.9-131.6,446.3-133.8,446.1z"/>
</svg>
