<?xml version="1.0" encoding="utf-8"?>
<!-- Generator: Adobe Illustrator 19.0.0, SVG Export Plug-In . SVG Version: 6.00 Build 0)  -->
<svg version="1.1" id="Layer_1" xmlns="http://www.w3.org/2000/svg" xmlns:xlink="http://www.w3.org/1999/xlink" x="0px" y="0px"
	 viewBox="-239 364 131.3 65" style="enable-background:new -239 364 131.3 65;" xml:space="preserve">
<style type="text/css">
	.st0{fill:#FFFFFF;}
</style>
<path id="XMLID_3430_" class="st0" d="M-231.3,405c0.3-0.4,0-1-0.1-1.3c-0.4-1.1-1.1-2.3-1-3.5c0.3-2.6,3.4-4.5,5.5-5.6
	c3.2-1.7,6.3-3.4,9.7-4.8c3.2-1.3,6.6-2.4,10-2.6c2.1-0.1,4.6,0.2,6.5,1.2c3,1.5,2.5,4.3,0.4,6.5c-4.2,4.6-11.2,7.4-17.3,8.3
	c-1.2,0.2-2.5,0.3-3.6-0.2s-2-1.7-1.7-2.9c0.1-0.5,0.5-1,0.6-1.5c0.2-0.5,0.1-1.2-0.4-1.4c-0.6-0.3-1.3,0.4-1.5,1.1
	c-0.6,1.7,0,3.6,1.2,5s2.9,2.2,4.6,2.6c4.3,1.1,8.2,0,12.1-1.9c2.2-1,4.3-2.1,6.5-4.2c3.2-3.1,4.8-8.6,2.1-12.4
	c-2.6-3.6-7.5-3.8-11.5-3.4c-1.1,0.1-2.1,0.3-3.2,0.5c-3.7,0.7-6.7,2-9.6,3.2c-2.4,1-3.9,1.9-4.4,2.1c0,0-3.6,2-7.1,5.2
	c-0.3,0.3-1.2,1.1-2.1,2.5c-0.4,0.6-0.6,1-0.8,1.6c-0.3,1.4,0.2,2.6,0.4,3.1c0.8,1.8,2.6,3.3,3.9,3.1
	C-231.9,405.4-231.5,405.3-231.3,405z"/>
<path id="XMLID_3476_" class="st0" d="M-181.2,409.6c0.2,0,0.5,0.2,1,0.7c0.3,0.3,0.4,0.4,0.7,0.6c0,0,0.4,0.2,0.8,0.3
	c3.2,0.7,6.5-0.1,9.7-0.6c8.7-1.3,18-1.5,26.7-0.6c4.5,0.5,11.9,4.1,11.9,8c0,1.3-0.8,2.5-1.8,3.4c-0.4-0.9-1.1-2.2-2.5-3.5
	c-2-2-4.4-2.7-5.9-3.1c-10.7-2.7-21.9-2-32.9-0.9c-2,0.2-4,0.4-6,0c-0.8-0.2-1.6-0.4-2.1-1C-182.1,412.1-182.5,409.8-181.2,409.6z"
	/>
<g id="XMLID_3468_">
	<path id="XMLID_3473_" class="st0" d="M-155.5,402.8c-0.1,0.1-0.3,0.2-0.4,0c-0.1-0.1-0.1-0.3,0-0.4c0.1-0.2,0.1-0.4,0.2-0.7
		c0.3-0.8,0.7-1.6,1-2.4c1-2.2,2.3-4.2,3.6-6.2c0.7-1,0.9-1,0-2.3c-0.7-1.1-1.2-1.1-2.1-0.6c-1,0.5-1.9,1.2-2.7,2
		c-1.6,1.4-3,2.9-4.4,4.5c-0.2,0.2-0.5,0.5-0.7,0.8c0-0.2,0.1-0.4,0.2-0.5c0.3-0.6,0.7-1.2,1-1.8c0.5-0.9,1.1-1.8,1.6-2.8
		c0.3-0.5,0.2-0.9-0.2-1.3c-0.1-0.1-0.2-0.2-0.3-0.3c-1-0.7-2.1-0.8-3.2-0.1c-0.9,0.6-1.7,1.3-2.5,2.1c-1.4,1.5-2.8,3.1-4.1,4.8
		c-0.1,0.1-0.2,0.2-0.3,0.3c0-0.3,0.1-0.5,0.2-0.7c0.7-1.4,1.5-2.8,2.3-4.2c0.2-0.3,0.3-0.5,0.2-0.9c-0.2-0.8-0.6-1.5-1.1-2.1
		c-0.3-0.3-0.5-0.2-0.8,0.1c-0.3,0.3-0.4,0.6-0.6,0.9c-0.9,1.3-1.6,2.8-2.3,4.2c-0.4,0.8-0.8,1.6-1.4,2.3c-1.3,1.6-2.7,3.3-4.3,4.5
		c-0.8,0.6-1.6,1.2-2.6,1.6c-0.4,0.2-0.8,0.3-1.3,0.2c-0.6,0-0.9-0.4-1.1-1c-0.1-0.4-0.1-0.8-0.1-1.2c0-0.5,0-0.5,0.4-0.6
		c2.5-0.3,4.7-1.5,6.5-3.7c0.9-1.1,1.5-2.3,1.4-3.8c0-1.2-0.4-2.2-1.4-2.9c-0.6-0.4-1.3-0.5-2.1-0.4c-1.2,0.2-2.3,0.8-3.1,1.7
		c-2.1,2.2-3.7,4.9-4.5,8.1c-0.1,0.3-0.2,0.6-0.4,0.8c-0.6,0.6-1.2,1.2-1.8,1.8c-0.8,0.8-1.6,1.5-2.4,2.1c-0.2,0.1-0.4,0.3-0.6,0.3
		c-0.4,0.1-0.7-0.1-0.8-0.6c0-0.2,0-0.5,0.1-0.7c0.1-0.8,0.4-1.5,0.6-2.2c0.7-2.3,1.7-4.3,3.2-6.1c0.2-0.2,0.3-0.5,0.5-0.7
		c0.2-0.3,0.2-0.6,0.1-0.9c-0.1-0.3-0.2-0.4-0.3-0.6c-0.3-0.4-0.5-0.4-0.8-0.1s-0.6,0.5-0.9,0.8c-0.5,0.4-1.1,0.4-1.6,0.2
		c-0.6-0.2-0.7-0.4-0.4-1c0.1-0.2,0.1-0.3,0.2-0.5c0.2-0.6,0.3-1.1,0.2-1.7c-0.1-0.4-0.2-0.6-0.5-0.8c-0.4-0.2-0.8-0.2-1.2,0
		c-0.7,0.3-1.2,0.9-1.6,1.5c-0.9,1.1-0.9,2.8-0.1,3.6c0.1,0.1,0.1,0.2,0,0.3c-0.1,0.1-0.1,0.1-0.2,0.2c-0.2,0.2-2.7,3.5-4.1,5.2
		c-0.7,0.8-1.4,4-0.9,3.5c0.3-0.4,2.6-3.5,4.4-5.8c0.6-0.8,1.2-1.6,1.8-2.4c0.1-0.2,0.2-0.3,0.4-0.3c0.6,0.1,1.1,0.2,1.7,0.2
		c0,0.1,0,0.2,0,0.2c-1.4,2.3-2.5,4.8-3.4,7.4c-0.3,0.9-0.4,1.8-0.4,2.8c0,0.8,0.5,1.3,1.1,1.6c0.5,0.2,1,0.1,1.5,0
		c1.1-0.3,2-1.1,2.9-1.8c1.1-0.9,2.1-1.9,3.1-2.9c0.1-0.1,0.2-0.3,0.4-0.2c0,0.7,0,1.3,0.2,1.9c0.3,1.3,1,2.1,2.2,2.2
		c0.7,0.1,1.5,0,2.2-0.2c1.4-0.5,2.5-1.3,3.6-2.3c0.9-0.9,1.8-1.8,2.7-2.9c0.1-0.1,0.2-0.3,0.4-0.3c-0.1,0.2-0.1,0.4-0.1,0.6
		c-0.3,1-0.4,2.1-0.2,3.2c0.1,0.6,0.3,1.1,0.7,1.4c0.6,0.5,1.3,0.2,1.3-0.7c0.1-0.8,0.3-1.6,0.7-2.2c0.8-1.6,1.8-2.9,2.8-4.4
		c1.3-1.9,2.8-3.6,4.3-5.3c0.5-0.6,1.1-1.1,1.7-1.6c0.1-0.1,0.3-0.3,0.6-0.3c-0.2,0.3-0.3,0.5-0.4,0.7c-1.1,1.9-2.1,3.8-3,5.8
		c-0.7,1.6-1.1,3.2-1,5c0,0.7,0.2,1.3,0.6,1.8c0.5,0.5,1.1,0.3,1.3-0.4c0.1-0.4,0.2-0.7,0.3-1.1c0.5-1.2,1.2-2.3,1.9-3.3
		c2-2.6,4.2-4.9,6.4-7.2c0.3-0.3,0.6-0.6,0.9-0.8c0.1-0.1,0.2-0.2,0.3-0.1c0,0.1-0.1,0.1-0.1,0.2c-0.8,1.3-1.6,2.7-2.4,4
		c-0.8,1.4-1.5,2.8-2.1,4.4c-0.3,0.8-0.6,1.6-0.5,2.5c0.2,1.7,1.1,2.4,2.5,1.8c0,0,0.1,0,0.1-0.1c0.7-0.4,1.3-0.8,1.9-1.4
		c1-1,2-2,3-3.1c0.1-0.1,0.2-0.3,0.5-0.3l0.3-2.3c-1,1.2-2,2.3-3.1,3.3C-154.6,402.1-155,402.5-155.5,402.8z M-181.2,399
		c0.6-2.2,1.6-4.1,3.1-5.7c0.5-0.5,1.1-0.9,1.7-1.2c0.3-0.1,0.7-0.3,1,0.1c0.3,0.3,0.2,0.7,0.1,1.1c-0.1,0.5-0.3,0.9-0.6,1.3
		c-1.3,2.1-2.9,3.7-4.9,4.8c-0.2,0.1-0.4,0.2-0.6,0.2C-181.3,399.4-181.2,399.2-181.2,399z"/>
	<path id="XMLID_3470_" class="st0" d="M-110.4,387.6c-0.3-1.3-0.8-2.6-1.6-3.7c-2.2-3-5.9-4.5-9.6-5.1c-7.7-1.4-15.9,0.5-22.3,5.1
		c-0.8,0.5-1.6,1.2-1.7,2.1c-0.2,1.2,1,2.5,2.2,2.4s2.3-1.3,2.2-2.6c0-0.6-0.2-1.2,0.1-1.7c0.2-0.3,0.4-0.3,1.2-0.8
		c0.6-0.4,0.9-0.6,1.1-0.7c3.2-2,7.1-2.4,10.8-2.4c6-0.1,17.3,2.2,15.7,10.5c-0.4,2.2-1.7,4.2-3.4,5.6c-1.2,1-2.7,1.7-4.1,2.6
		c-1.5,0.9-3,1.8-4.6,2.7c-0.1,0.1-0.2,0.1-0.4,0.1c-0.4,0-0.5-0.6-0.5-1c0.5-3,1.7-6,3.6-8.5c0.3-0.5,0.7-0.9,0.9-1.4
		c0.2-0.5,0.1-1.2-0.3-1.6c-0.1-0.1-0.2-0.1-0.3-0.2c-0.3,0-0.5,0.2-0.7,0.4c-0.6,0.6-1.5,1.1-2.3,0.9c-0.3-0.1-0.5-0.3-0.6-0.5
		c0-0.1,0-0.3,0.1-0.4c0.2-0.6,0.5-1.2,0.5-1.9c0-0.7-0.3-1.4-1-1.5c-0.5-0.1-1,0.2-1.4,0.5c-0.7,0.6-1.4,1.3-1.7,2.2
		c-0.3,0.9-0.3,1.9,0.3,2.7c0.1,0.1,0.2,0.2,0.2,0.3c0,0.1-0.1,0.2-0.1,0.3c-0.7,0.9-1.3,1.8-2,2.6c-1.7,2.3-3.5,4.7-5.7,6.5
		c-0.9,0.7-1.8,1.4-2.9,1.7c-0.5,0.1-1,0.2-1.4,0c-0.7-0.4-0.8-1.4-0.7-2.3c0-0.1,0-0.3,0.1-0.4c0.1-0.1,0.3-0.1,0.4-0.2
		c2.9-0.4,5.5-2.1,7-4.5c0.6-1,1.1-2.2,1-3.5c-0.1-1.2-0.8-2.4-1.9-2.9c-0.9-0.4-1.9-0.3-2.8,0.1s-1.6,1-2.3,1.7
		c-2.9,3-4.6,7.1-4.8,11.2c-0.1,1.3,0.1,2.8,1.1,3.6c0.9,0.7,2.1,0.7,3.2,0.4c1.7-0.5,3.2-1.7,4.5-2.9c3.2-3.2,5.6-7.2,8.4-10.7
		c0.1-0.1,0.2-0.2,0.3-0.2c0.2-0.1,0.3,0,0.5,0c0.5,0.1,0.9,0.2,1.4,0.3c-1.1,1.9-2.1,3.9-2.9,5.9c-0.5,1.3-1,2.6-1,4
		c0,0.8,0.2,1.8,0.9,2.2c0.9,0.5,2,0,2.9-0.6c2.3-1.5,4.7-3,7-4.5c2-1.3,4.6-2.6,6-4.6S-109.9,390.1-110.4,387.6z M-140.5,397.9
		c0.6-2.3,1.7-4.3,3.2-5.9c0.5-0.6,1.1-1,1.8-1.2c0.4-0.1,0.7-0.3,1,0.1c0.3,0.3,0.2,0.8,0.1,1.1c-0.1,0.5-0.3,0.9-0.6,1.4
		c-1.3,2.1-2.9,3.9-5,5c-0.2,0.1-0.4,0.2-0.6,0.2C-140.6,398.3-140.5,398.1-140.5,397.9z"/>
	<path id="XMLID_3469_" class="st0" d="M-141.2,394.1c-1,1.3-2,2.6-3,3.8c-1,1.3-2.1,2.5-3.3,3.7c-0.3,0.3-0.6,0.6-1,0.7
		c-0.5,0.2-0.7,0.1-0.7-0.5c0-0.4,0.1-0.8,0.2-1.2c0.9-3.1,2.2-5.8,4-8.3c0.6-0.8,0.6-1.3-0.1-2.1c-0.2-0.2-0.4-0.5-0.7-0.6
		c-0.3-0.2-0.6-0.2-0.9,0.1c-0.5,0.5-0.9,1.1-1.3,1.7c-1.1,1.8-2,3.7-2.8,5.6c-0.7,1.5-1.6,5.7-1.6,6c-0.1,0.5,0,1.1,0.1,1.6
		c0.2,0.8,0.6,1.2,1.3,1.4c0.6,0.1,1.2-0.1,1.8-0.4c0.6-0.4,1.1-0.8,1.6-1.3c0.9-0.9,1.7-1.8,2.5-2.8c1.6-1.9,3-4,4.5-6
		L-141.2,394.1z"/>
</g>
<path id="XMLID_3466_" class="st0" d="M-183.9,380.7c-0.2,0-0.3,0.1-0.5,0.2c-0.1,0.1-0.3,0.3-0.4,0.4c-0.3,0.2-0.6,0.2-0.9,0.1
	c-1.4-0.5-2.9-1.4-4.2-2.1c-1.9-1-3.5,1.8-1.7,2.8c0.8,0.4,1.6,0.8,2.4,1.2c-1,0.5-2,0.9-3,1.4c-1.9,0.9-0.3,3.7,1.6,2.8
	c1.8-0.8,3.6-1.6,5.3-2.4c0.3-0.2,2.3,0.9,2.7,1.1c0.5,0.2,2.7,1.4,2.8,0.5c0.1-1.3-1-2.4-1.8-3.3c-0.4-0.4-0.9-0.8-1.2-1.3
	C-183.1,381.6-183.3,380.9-183.9,380.7L-183.9,380.7z"/>
<path id="XMLID_3465_" class="st0" d="M-156.8,385.4c-0.3,1.2-1.6,1.6-2.6,1.2c-0.7-0.2-1.3-0.7-1.9-1.2c-0.2-0.2-0.5-0.4-0.7-0.6
	c-3.3-3.2-5.7-7.1-7.6-11.6c-0.1-0.1-0.1-0.3-0.2-0.4c-0.5-1.1-1-2.4-1-3.5c0-0.4,0.2-0.8,0.4-1.1c0.9-1.1,2.4-1.1,3.7-1.3
	c0.3-0.1,0.7-0.1,1-0.1c0.5,0,0.9,0.1,1.4,0.7c0.2,0.2,0.4,0.5,0.5,0.8c0.1,0.5,0.2,1,0.2,1.5s0.1,0.9,0.1,1.4
	c0.2,1,0.4,2.1,0.8,3.1c0.7,2.1,1.6,4.2,2.6,6.1c0.5,1,1.1,1.9,1.7,2.8c0.1,0.2,0.5,0.6,0.8,1C-157.1,384.6-156.7,385.2-156.8,385.4
	z"/>
<path id="XMLID_3464_" class="st0" d="M-161,386.9c0,0.2-0.3,0.4-0.4,0.5c-0.3,0.3-0.7,0.4-1.1,0.5c-0.8,0.2-1.7,0.1-2.5-0.2
	c-1-0.3-2.1-0.8-3.1-1.4c-0.4-0.3-0.8-0.6-1.2-1c-1.1-1.1-2.3-2.8-4.3-5.4c0,0-0.5-0.6-1.6-2.6l0,0c-0.3-0.6-0.7-1.3-1.1-2.1
	c-0.1-0.3-0.3-0.6-0.4-0.9c-0.2-0.5-0.4-1.1-0.3-1.7c0.1-0.5,0.3-0.8,0.6-1.2c0.6-0.9,1.4-1.2,2-1.4c0.7-0.3,1-0.4,1.4-0.3
	c0.3,0.1,0.5,0.3,0.7,0.6c0.6,0.7,0.8,1.8,0.9,1.9c0.1,0.3,0.3,0.7,0.5,1.1c0.4,0.8,0.9,1.8,1.4,2.8c0.6,1.1,1.3,2.5,2.5,4.2
	c0.8,1.2,1.5,2,2.9,3.7c0.2,0.2,0.4,0.5,0.6,0.7c0.4,0.4,0.7,0.8,1.2,1c0.1,0,0.4,0.2,0.9,0.5C-161.2,386.5-161,386.6-161,386.9z"/>
<path id="XMLID_3463_" class="st0" d="M-168,388.2c-1.2,0.2-2.5,0.3-3.8,0.1c-2-0.3-3.9-2.3-5.5-4c-0.2-0.2-0.4-0.4-0.5-0.6
	c-0.6-0.6-1.3-1.3-2-2.1c-0.7-0.9-1.3-1.8-1.5-2.9c0-0.2-0.1-0.5-0.1-0.7c0-0.7,0.3-1.2,0.6-1.6c0.5-0.8,1.1-1.6,1.9-1.7
	c0.6-0.1,1,0.2,1.4,0.7c0.3,0.3,0.5,0.7,0.7,1.2c0.2,0.6,0.5,1.2,0.6,1.6c0,0.1,0.1,0.2,0.1,0.3c0.8,1.9,1.8,3.6,3,5.1
	c0.5,0.7,1.1,1.2,1.7,1.8C-170.4,386.3-169.1,387.1-168,388.2z"/>
<path id="XMLID_3462_" class="st0" d="M-151.6,383.2c-0.3,0.6-0.8,1-1.5,0.9c-0.2,0-0.5-0.1-0.8-0.2c-0.8-0.5-1.6-1.1-2.3-1.8
	c-1.9-1.8-3.3-4.1-3.7-6.8c-0.3-2.1,3-2.1,3.3,0c0-0.2,0-0.3,0-0.3s0.1,0.6,0.2,0.7c0.1,0.5,0.3,0.9,0.5,1.3
	c0.6,1.3,1.6,2.4,2.7,3.3c0.3,0.3,0.7,0.5,1,0.7C-151.3,381.6-151.2,382.5-151.6,383.2z"/>
<circle id="XMLID_3461_" class="st0" cx="-150.3" cy="372.2" r="1.9"/>
<path id="XMLID_3460_" class="st0" d="M-141.1,368.1c-3.4-1.3-7-2.2-10.5-2.7c-1.2-0.1-2.4-0.2-3.6-0.1c-1.4,0-2.9,0.1-4.3,0.3
	c-0.5,0-1,0.1-1.4,0.2c-0.3,0-0.5,0.1-0.8,0.1c-0.1,0-0.3,0-0.4,0.1c-0.4,0.1-0.5,0.4-0.5,0.7c0,0.4,0.1,0.8,0.3,1.2
	c0.2,0.4,0.5,1,1,1.1c0.3,0.1,0.5,0,0.8,0c0.4-0.1,0.8-0.1,1.1-0.2c1.5-0.2,3.1-0.3,4.6-0.2c1.5,0.1,3.1,0.2,4.6,0.5
	s3.1,0.6,4.6,1.1c0.6,0.2,1.2,0.4,1.7,0.5c-2.2,4-5.5,7.5-9.1,10c-0.1,0-0.1,0.1-0.2,0.1l0,0c-0.9,0.6-1.8,1.1-2.7,1.6
	c0.7,0.7,1.5,1.3,2.3,1.8c0.3,0.2,0.5,0.2,0.8,0.2c0.1-0.1,0.3-0.2,0.4-0.3c0.3-0.2,0.7-0.4,1-0.7c4.7-3.2,8.9-7.8,11.2-13
	C-139.6,369.4-140,368.5-141.1,368.1z"/>
<g id="XMLID_3440_">
	<path id="XMLID_3458_" class="st0" d="M-164.6,417.3L-164.6,417.3c-0.1,0.4-0.2,0.7-0.3,1c-0.1,0-0.1,0-0.2-0.1
		c0.2-0.1,0.2-0.2,0.2-0.3c0-0.1-0.1-0.1,0-0.2c0,0,0,0,0.1-0.1C-164.8,417.6-164.6,417.5-164.6,417.3L-164.6,417.3z"/>
	<path id="XMLID_3457_" class="st0" d="M-142.8,421.4c0,0.2,0,0.4,0,0.6l0,0l0,0l0,0l0,0l0,0l0,0c0,0,0,0,0-0.1c0,0,0,0,0-0.1v-0.1
		l0,0l0,0l0,0l0,0l0,0l0,0V421.4C-142.7,421.5-142.7,421.5-142.8,421.4C-142.7,421.5-142.7,421.5-142.8,421.4L-142.8,421.4
		C-142.7,421.4-142.7,421.4-142.8,421.4C-142.7,421.4-142.7,421.4-142.8,421.4L-142.8,421.4C-142.7,421.3-142.7,421.3-142.8,421.4
		l0.1-0.2l0,0v-0.1l0,0l0,0l0,0l0,0l0,0l0,0l0,0l0,0l0,0l0,0l0,0l0,0l0,0c0,0,0,0-0.1,0c0,0.1,0.1,0.1,0.1,0.2s0,0.1,0,0.2
		C-142.7,421.3-142.8,421.4-142.8,421.4z"/>
	<path id="XMLID_3454_" class="st0" d="M-167.1,424.4C-167.1,424.3-167.1,424.3-167.1,424.4L-167.1,424.4c-0.1-0.1-0.1-0.1-0.2-0.1
		h-0.1l0,0c0,0,0,0-0.1,0h-0.1h0.1l0,0h-0.1c0,0,0,0-0.1,0l0,0l0,0h-0.1c-0.1,0-0.2,0-0.2,0l0,0l0,0l0,0l0,0l0,0c0,0-0.1,0-0.2,0
		c-0.1,0-0.1,0-0.2,0l0,0l0,0l0,0l0,0h-0.1l0,0l0,0c0.2-0.5,0.3-1,0.3-1.4c0-1-0.4-1.3-1.1-1.8c-1-0.7-1.3-1.3-1-2.6
		c0.1-0.4,0.3-0.8,0.5-1.1c0.1-0.1,0.4-0.4,0.8-0.4c0.7,0,0.4,0.4,0,0.7l0,0l-0.6,0.2l0,0l0,0v0.1l0,0l0,0c0,0,0,0,0,0.1
		s0,0.1,0,0.1l-0.1,0.1c0,0,0,0-0.1,0l0,0c0.1,0,0.2,0.1,0.4,0.1h0.1c0.1,0,0.1,0,0.2,0h0.1l0,0l0,0c0.1,0,0.2-0.1,0.3-0.1
		s0.2-0.1,0.3-0.2c0.3-0.2,0.7-0.5,1.1-0.7l0.1-0.1l0,0c0,0,0,0,0.1-0.1c0.2-0.2,0.3-0.4,0.3-0.5l-0.2-0.4c-0.1-0.1-0.3-0.2-0.6-0.3
		h-0.1h-0.1h-0.1c0,0-0.1,0-0.2,0h-0.1h-0.1c0,0,0,0-0.1,0h-0.1c-0.1,0-0.1,0-0.1,0l0,0c0,0,0,0-0.1,0h-0.1h-0.1l0,0l0,0
		c-0.7,0.1-1.4,0.5-1.8,1c-0.3,0.4-0.7,0.8-0.9,1.4l0,0c-0.2,0.4-0.3,0.9-0.3,1.4l0.1,0.1v0.1c0,0,0.1,0.1,0,0.1v0.1
		c0.1,0.1,0.1,0.2,0.1,0.2l0.1,0.1c0,0,0,0.1,0.1,0.1l0.1,0.1c0,0.1,0,0.2,0.1,0.4l0.1,0.1c0,0,0,0,0,0.1l0,0l0,0v0.1l0.1,0.1
		c0,0,0,0,0,0.1s0.1,0.1,0.1,0.2l0.1,0.1l0,0c0,0.1,0.1,0.1,0.1,0.2l0.1,0.1l0.1,0.1l0,0l0.1,0.1c0,0,0,0.1,0.1,0.1l0.1,0.1l0,0l0,0
		l0.1,0.1c0,0,0.1,0,0.1,0.1c0,0,0.1,0,0.2,0.1c0,0,0,0,0,0.1c0,0,0,0,0.1,0l0,0l0,0c0.1,0.3,0.1,0.8-0.1,1.4c0,0.1-0.1,0.2-0.1,0.3
		l0,0l0,0l0,0l0,0v0.1l0,0c0,0,0,0.1-0.1,0.2c0.1-0.1,0.2-0.1,0.2-0.1l0,0l0,0c0,0,0.1,0,0.1,0.1c-0.3,0.2-0.4,0.3-0.3,0.4l-0.1,0.1
		l-0.1,0.1l0,0h-0.1l-0.1,0.1c0,0,0,0-0.1,0c0,0,0,0-0.1,0l-0.1,0.1l-0.1,0.1l0,0v-0.1v-0.1c-0.1,0.1-0.2,0.2-0.2,0.2l0,0l0,0h-0.1
		c0.1-0.1,0.2-0.2,0.3-0.3c0,0,0,0,0-0.1v-0.1v-0.1l0.1-0.1l0,0h0.1l0.1-0.1c0,0,0,0,0-0.1s-0.1-0.1,0-0.2l0,0
		c-0.4,0.2-0.9,0.4-1.3,0.6c-0.1,0-0.1,0.1-0.2,0.1c-0.2,0.1-0.3,0.2-0.4,0.3c-0.1,0.1-0.2,0.3-0.2,0.4s0,0.1,0.1,0.2
		c0.1,0.1,0.1,0.1,0.2,0.2c0,0,0.1,0,0.1,0.1l0,0l0,0l0,0h0.1c0.1,0,0.1,0,0.2,0l0,0c0,0,0,0,0.1,0c0,0,0,0,0.1,0h0.1c0,0,0,0,0.1,0
		h0.1l0,0l0,0h0.1h0.1h0.1h0.1h0.1h0.1c0.1,0,0.1,0,0.2,0h0.1l0,0c0.1-0.1,0.2-0.1,0.3-0.2h-0.1c0,0,0,0,0.1,0
		c0.4-0.2,0.8-0.5,1.1-0.9l0.1-0.1c0-0.1,0.1-0.1,0.1-0.2c0.2,0,0.5-0.1,0.7-0.1l0,0c0.1,0,0.2,0,0.2-0.1l0,0h0.1c0.1,0,0.2,0,0.3,0
		c0.2,0,0.4-0.1,0.6-0.2l0,0l0,0c0-0.1,0-0.2,0.1-0.3C-167.2,424.5-167.2,424.5-167.1,424.4C-167.2,424.4-167.2,424.4-167.1,424.4
		C-167.2,424.4-167.1,424.4-167.1,424.4z M-169.6,425.5c-0.1,0.1-0.2,0.1-0.2,0C-169.8,425.5-169.7,425.5-169.6,425.5
		C-169.5,425.4-169.5,425.4-169.6,425.5C-169.5,425.5-169.5,425.5-169.6,425.5z"/>
	<g id="XMLID_3448_">
		<path id="XMLID_3453_" class="st0" d="M-142.5,417.6L-142.5,417.6L-142.5,417.6L-142.5,417.6z"/>
		<path id="XMLID_3449_" class="st0" d="M-140.9,416.7c-0.2-0.1-0.5,0.1-1,0.3c0,0-0.2,0-0.3,0.1c0,0-0.1,0.1-0.2,0.2l-0.1,0.1l0,0
			l0,0l0,0c0,0,0,0.1,0.1,0.2l0,0c0,0-0.1,0-0.1,0.1l0,0l0,0c0,0,0,0-0.1,0.1l0,0l0,0l0,0l0,0l0,0c0,0,0,0-0.1,0l0,0v0.1
			c0,0.1,0,0.1,0,0.1c0,0.1-0.1,0.2-0.1,0.3l0,0c0,0.1,0,0.2,0,0.4c0,0.2,0,0.5,0,0.6c0,0.2,0,0.3,0,0.4s0,0.2,0,0.2
			c0,0.1,0,0.3,0,0.5s0,0.5,0,0.9c0,0.2,0,0.4,0,0.5l0,0l0,0l0,0l0,0l0,0l0,0l0,0l0,0l0,0l0,0l0,0c0,0,0,0,0,0.1l0,0v0.1l0,0l0,0
			l0,0l0,0l0,0l0,0l0,0l0,0l0,0l0,0l0,0l0,0l0,0v0.1c0,0.1,0,0.2-0.1,0.3l-0.2,0.1v0.1v0.4c0,0.1,0,0.3,0,0.4c0,0.2,0,0.3,0,0.4
			s0.1,0.2,0.1,0.3v0.1c0,0,0,0,0,0.1c-0.1,0.4-0.1,0.7-0.1,1l0,0c0,0.1,0,0.3,0.2,0.4c0.2,0.1,0.2,0,0.3-0.1l0.1,0.1l0.1,0.1v-0.1
			l0,0c0.1,0.1,0.2,0.3,0.2,0.4l0,0l0,0l0,0c0,0,0,0.1,0.1,0.1l0,0l0,0l0,0h0.1h0.1c0.1,0,0.1,0,0.1,0s0,0,0.1-0.1
			c0-0.1,0.1-0.1,0.1-0.1s0-0.1,0-0.2s0-0.1,0-0.2s0-0.2,0-0.3c-0.1-0.5-0.1-0.8,0-0.9c0.1-0.2,0.1-0.4,0-0.6c0-0.1,0-0.1,0-0.1
			v-0.4v-0.1c0,0,0.1-0.1,0-0.3l0,0c0-0.1,0-0.2,0.1-0.3c0.1-0.3,0.1-0.6,0.2-1.1c0.1-0.5,0.2-1.1,0.3-1.9
			C-140.7,418.4-140.4,416.8-140.9,416.7z M-142.7,422.5c0-0.1,0-0.2,0-0.2c0-0.6,0-1.2,0-1.8c0,0.2,0,0.4,0,0.6c0,0,0,0,0,0.1v0.1
			v0.1v0.1c0,0.2,0,0.3,0,0.3v0.1C-142.7,422.1-142.7,422.3-142.7,422.5C-142.6,422.4-142.6,422.4-142.7,422.5
			C-142.7,422.4-142.7,422.4-142.7,422.5c0.1,0,0.1,0.1,0.1,0.3c0,0.1,0,0.2,0,0.4v0.2l0,0l0,0l0,0l0,0l0,0l0,0c0-0.1,0-0.3,0-0.4
			C-142.7,422.9-142.7,422.7-142.7,422.5z M-142.8,422.2L-142.8,422.2c0,0.1,0,0.1,0,0.2C-142.8,422.3-142.8,422.2-142.8,422.2z"/>
	</g>
	<path id="XMLID_3447_" class="st0" d="M-160.1,420.3c0-0.1,0.1-0.2,0.1-0.2c0.2-0.4,0.5-2.3,0.6-2.8c0,0,0-0.1,0-0.2
		c-0.1-0.1-0.2,0-0.4-0.1c-0.1-0.1-0.2-0.2-0.2-0.2c-0.1,0-0.1,0.1-0.1,0.1c-0.1,0-0.1,0-0.2,0c-0.1,0-0.2,0.1-0.5,0.5
		c-0.2,0.2-0.2,0.2-0.2,0.3c-0.1,0.2-0.1,0.5-0.2,0.5c-0.1,1.4-0.5,5.2-2,5.8c-0.1,0-0.3,0.1-0.6,0.1c-0.8-0.2-1.1-1.3-1.3-2.1
		c-0.2-1.3-0.1-2.6,0.3-3.8c0.1-0.3,0.2-0.6,0.3-0.9v-0.1c0-0.4-1.4-0.2-1.5,0.3c-0.1,0.4-0.3,0.9-0.4,1.4l0,0
		c-0.1,0.2-0.1,0.3-0.1,0.3s0,0,0,0.1s0,0.1,0,0.2l-0.1,0.1c0,0,0,0.1,0,0.2c-0.3,2.4,0,5.3,2.7,5.4c1,0,1.6-0.2,2.1-0.7
		c0,0.1,0,0.2,0,0.2c0.1,0.1,0.2,0.2,0.3,0.2c0,0.1,0,0.2,0,0.3c0.1,0.1,0.2,0.2,0.2,0.3c-0.1,0-0.1-0.1-0.2-0.1l0,0
		c0.2,0.4,1.5,0,1.5-0.5v-0.1c-0.2-0.4-0.3-0.9-0.3-1.2c0-0.2,0-0.4,0-0.6c0,0,0.1-0.2,0.1-0.3c0-0.1,0-0.1,0-0.2
		c0-0.3,0.1-0.3,0.1-0.8c0-0.2,0-0.2,0-0.3c0-0.1-0.1-0.2,0-0.2c0-0.1,0.2-0.1,0.2-0.2s-0.1-0.1-0.1-0.2s-0.1-0.2-0.1-0.3
		C-160.1,420.4-160.1,420.4-160.1,420.3C-160.2,420.4-160.2,420.3-160.1,420.3z"/>
	<path id="XMLID_3444_" class="st0" d="M-152.3,424.4C-152.3,424.3-152.3,424.3-152.3,424.4L-152.3,424.4c-0.1-0.1-0.1-0.1-0.2-0.1
		h-0.1l0,0c0,0,0,0-0.1,0h-0.1h-0.1l0,0h-0.1c0,0,0,0-0.1,0l0,0l0,0h-0.1c-0.1,0-0.2,0-0.2,0l0,0l0,0l0,0l0,0l0,0c0,0-0.1,0-0.2,0
		c-0.1,0-0.1,0-0.2,0l0,0l0,0l0,0l0,0h-0.1l0,0l0,0c0.2-0.5,0.3-1,0.3-1.4c0-1-0.4-1.3-1.1-1.8c-1-0.7-1.3-1.3-1-2.6
		c0.1-0.4,0.3-0.8,0.5-1.1c0.1-0.1,0.4-0.4,0.8-0.4c0.7,0,0.4,0.4,0,0.7l0,0l-0.6,0.2l0,0l0,0v0.1l0,0l0,0c0,0,0,0,0,0.1
		s0,0.1,0,0.1l-0.1,0.1c0,0,0,0-0.1,0l0,0c0.1,0,0.2,0.1,0.4,0.1h0.1c0.1,0,0.1,0,0.2,0h0.1l0,0l0,0c0.1,0,0.2-0.1,0.3-0.1
		s0.2-0.1,0.3-0.2c0.3-0.2,0.7-0.5,1.1-0.7l0.1-0.1l0,0c0,0,0,0,0.1-0.1c0.2-0.2,0.3-0.4,0.3-0.5l-0.2-0.4c-0.1-0.1-0.3-0.2-0.6-0.3
		h-0.1h-0.1h-0.1c0,0-0.1,0-0.2,0h-0.1h-0.1c0,0,0,0-0.1,0h-0.1c-0.1,0-0.1,0-0.1,0l0,0c0,0,0,0-0.1,0h-0.1h-0.1l0,0l0,0
		c-0.7,0.1-1.4,0.5-1.8,1c-0.3,0.4-0.7,0.8-0.9,1.4l0,0c-0.2,0.4-0.3,0.9-0.3,1.4l0.1,0.1v0.1c0,0,0.1,0.1,0,0.1v0.1
		c0.1,0.1,0.1,0.2,0.1,0.2l0.1,0.1c0,0,0,0.1,0.1,0.1l0.1,0.1c0,0.1,0,0.2,0.1,0.4l0.1,0.1c0,0,0,0,0,0.1l0,0l0,0v0.1l0.1,0.1
		c0,0,0,0,0,0.1s0.1,0.1,0.1,0.2l0.1,0.1l0,0c0,0.1,0.1,0.1,0.1,0.2l0.1,0.1l0.1,0.1l0,0l0.1,0.1c0,0,0,0.1,0.1,0.1l0.1,0.1l0,0l0,0
		l0.1,0.1c0,0,0.1,0,0.1,0.1c0,0,0.1,0,0.2,0.1c0,0,0,0,0,0.1c0,0,0,0,0.1,0l0,0l0,0c0.1,0.3,0.1,0.8-0.1,1.4c0,0.1-0.1,0.2-0.1,0.3
		l0,0l0,0l0,0l0,0v0.1l0,0c0,0,0,0.1-0.1,0.2c0.1-0.1,0.2-0.1,0.2-0.1l0,0l0,0c0,0,0.1,0,0.1,0.1c-0.3,0.2-0.4,0.3-0.3,0.4l-0.1,0.1
		l-0.1,0.1l0,0h-0.1l-0.1,0.1c0,0,0,0-0.1,0c0,0,0,0-0.1,0l-0.1,0.1l-0.1,0.1l0,0v-0.1v-0.1c-0.1,0.1-0.2,0.2-0.2,0.2l0,0l0,0h-0.1
		c0.1-0.1,0.2-0.2,0.3-0.3c0,0,0,0,0-0.1v-0.1v-0.1l0.1-0.1l0,0h0.1l0.1-0.1c0,0,0,0,0-0.1s-0.1-0.1,0-0.2l0,0
		c-0.4,0.2-0.9,0.4-1.3,0.6c-0.1,0-0.1,0.1-0.2,0.1c-0.2,0.1-0.3,0.2-0.4,0.3c-0.1,0.1-0.2,0.3-0.2,0.4s0,0.1,0.1,0.2
		c0.1,0.1,0.1,0.1,0.2,0.2c0.1,0.1,0.2,0.1,0.3,0.1l0,0c0.5,0.3,1.4,0.1,1.8-0.1c0.4-0.2,0.8-0.5,1.1-0.9l0.1-0.1
		c0-0.1,0.1-0.1,0.1-0.2c0.2,0,0.5-0.1,0.7-0.1l0,0c0.1,0,0.2,0,0.2-0.1l0,0h0.1c0.1,0,0.2,0,0.3,0c0.2,0,0.4-0.1,0.6-0.2l0,0l0,0
		c0-0.1,0-0.2,0.1-0.3C-152.4,424.5-152.4,424.5-152.3,424.4C-152.3,424.4-152.4,424.4-152.3,424.4L-152.3,424.4z M-154.8,425.5
		c-0.1,0.1-0.2,0.1-0.2,0C-155,425.5-154.9,425.5-154.8,425.5C-154.7,425.4-154.7,425.4-154.8,425.5
		C-154.7,425.5-154.7,425.5-154.8,425.5z"/>
	<path id="XMLID_3443_" class="st0" d="M-144.4,417.4c-0.1-0.1-0.2-0.2-0.2-0.4l0,0c0-0.1,0-0.2,0-0.2l0,0l0,0l0,0h-0.1
		c0,0-0.1,0-0.1-0.1h-0.1h-0.1h-0.3c0,0-0.1,0-0.2,0h-0.1l0,0v0.1l0,0v0.1v0.1c0,0,0,0,0,0.1l0,0c-0.1,0.2-0.1,0.4-0.1,0.6l0,0
		c0,0,0,0.1-0.1,0.1c0,0.1-0.1,0.1-0.1,0.2c0,0-0.1,0.1-0.1,0.2s0.1,0.1,0.1,0.1l0,0c0,0,0,0,0,0.1v0.1l0,0l0,0
		c0,0.2-0.1,0.3-0.1,0.6c0,0.1,0,0.2-0.1,0.3v0.1c0,0.1-0.1,0.4-0.2,0.9c0,0.1,0,0.2-0.1,0.5c0,0.1,0,0.2,0,0.3l0,0l0,0l0,0l0,0
		h-0.1h-0.1l0,0c0.1-0.1,0-0.1-0.1-0.1v0.1c-0.1,0-0.1,0-0.1,0s0,0-0.1,0h-0.1h-0.1h-0.1h-0.1c-0.1,0-0.2,0-0.3,0
		c-0.1,0-0.2,0-0.3,0c-0.1,0-0.2,0-0.3,0h-0.4h-0.1h-0.1c-0.2,0-0.4,0.1-0.7,0.1h-0.1c0-0.2,0-0.4,0-0.7c0-0.1,0-0.2,0-0.3l0,0l0,0
		c0-0.1,0-0.2,0-0.2v-0.6V419c0-0.3,0-0.4,0-0.4v-1.5V417c0,0,0,0,0-0.1l0,0l0,0l0,0l0,0l0,0c0,0-0.1,0-0.1-0.1c0,0,0,0-0.1,0
		c-0.1,0-0.1,0-0.2,0h-0.1h-0.1h-0.1l0,0l0,0l0,0h-0.1h-0.1c-0.1,0-0.2,0.1-0.3,0.2s-0.2,0.2-0.2,0.2l0,0c0,0.2-0.1,0.3-0.1,0.3
		s0,0.1,0,0.2c0,0,0,0.1,0,0.2v0.1l0,0c0,0.1,0,0.1,0,0.1c0,0.1,0,0.2,0,0.3v1.1c0,0,0,0.1,0,0.2c0,0.2,0,0.3,0,0.3s0,0,0,0.1v0.1
		c0,0,0,0,0,0.1c0,0,0,0.1,0,0.2s0,0.2,0,0.2v0.6c0,0.2,0,0.3,0,0.4s0,0.2,0,0.2s0,0.1,0,0.3c0,0,0,0.1,0,0.2c0,0,0,0,0,0.1
		s0,0.1,0,0.2s0,0.1,0,0.2c0,0,0,0.1,0.1,0.2l0,0c0,0.1,0,0.2,0,0.2l0,0l0,0c0,0,0,0,0,0.1v0.1c0.1,0.1,0.1,0.2,0.1,0.3v1.5v0.1l0,0
		c0,0.1,0,0.1,0,0.2v0.1c0,0.1,0,0.1,0,0.1v0.2c0,0,0,0,0,0.1v0.1l0,0l0,0l0,0l0,0l0,0v0.1v0.1l0,0l0,0v0.1l0,0l0,0l0,0v0.1v0.1
		c0,0,0,0,0,0.1l0,0h0.1c0,0,0,0,0.1,0.1v0.1l0,0l0,0l0,0h0.1h0.1c0,0,0.1,0,0.1-0.1h0.1l0,0c0,0,0,0,0.1-0.1l0.1-0.1
		c0,0,0.1-0.1,0.1-0.2c0,0,0-0.1,0.1-0.2c0,0,0,0,0-0.1v-0.1V426c0,0,0-0.1,0.1-0.2c0-0.1,0-0.1,0-0.2c0,0,0,0,0-0.1v-0.1
		c0-0.1,0-0.1,0-0.2v-0.1c0-0.1,0-0.1,0-0.2s0-0.4,0-0.6c0-0.1,0-0.1,0-0.2V424v-1.3c0,0,0,0,0.1,0l0,0c0.1,0,0.1,0,0.1,0h0.1
		l0.1-0.1c0,0,0,0,0-0.1c0.1,0,0.2-0.1,0.3-0.1h0.1h0.1h0.1h0.1c0.1,0,0.1,0,0.2,0h0.4c0.1,0,0.2,0,0.2,0c0.1,0,0.1,0,0.2,0h0.2
		c0.1,0,0.1,0,0.1,0h0.1h0.1h0.1h0.1l0,0h0.1l0.1-0.1c0,0,0,0,0.1,0l0,0l0,0c0,0.2,0,0.3-0.1,0.4c0,0,0,0.1,0,0.2v0.3
		c0,0.1,0,0.4-0.1,0.6v0.4c0,0,0.1,0.1,0.1,0.2v0.1v0.3v0.3c0,0,0,0.1-0.1,0.1v0.7v0.1c0,0,0,0.1,0,0.2s0.1,0.2,0.1,0.4
		c0,0.1,0,0.2,0,0.3c0-0.1,0.1-0.1,0.1-0.2c0,0.1,0,0.2,0.1,0.2l0,0l0,0l0,0v0.1l0,0c0,0,0,0,0,0.1s0.1,0.1,0.1,0.1l0,0
		c0,0,0,0,0,0.1c0,0,0,0.1,0.1,0.1c0.1,0.1,0.1,0.1,0.2,0.1h0.1c0.1,0,0.1,0,0.1,0h0.1l0,0l0,0h0.1c0.1,0,0.1,0,0.1-0.1l0,0l0,0
		c0,0,0,0,0.1,0l0,0l0,0l0,0l0,0v-0.1v-0.1c0,0,0-0.1,0-0.3c0-0.1,0-0.2,0-0.3c0-0.1,0-0.4,0-0.7v-0.1v-0.2v-0.3v-0.6v-0.1
		c0-0.1,0-0.1,0-0.2v-0.1l0,0l0,0l0,0v-0.1c0,0,0,0,0-0.1l0,0l0,0V424v-0.2c0-0.1,0-0.2,0-0.3v-0.1l0,0v-0.2c0,0,0,0,0-0.1l0,0l0,0
		c0,0,0.1-0.2,0.1-0.6v-0.1l0,0v-0.2l0,0V422v-0.1c0,0,0,0,0-0.1c0,0,0,0,0-0.1c0,0,0,0,0-0.1l0,0l0,0l0,0c0,0,0,0,0-0.1v-0.1
		c0-0.1,0-0.1,0-0.1v-0.2v-0.2l0,0l0,0v-0.1l0,0l0,0v-0.1L-144.4,417.4L-144.4,417.4z"/>
	<path id="XMLID_3442_" class="st0" d="M-145.7,418v-0.1C-145.8,417.9-145.8,417.9-145.7,418C-145.8,417.9-145.8,417.9-145.7,418
		C-145.8,418-145.8,418-145.7,418L-145.7,418z"/>
	<path id="XMLID_3441_" class="st0" d="M-145.7,418.9L-145.7,418.9L-145.7,418.9L-145.7,418.9z"/>
</g>
<path id="XMLID_3431_" class="st0" d="M-212.4,390.3c0.2,0,0.5,0.5,0.5,0.6c0.3,0.6,0.2,1.1,0.2,1.4c-0.3,2.2-0.6,3.2-0.6,3.2
	c-0.8,2.7-0.7,2.5-0.8,2.7c-0.9,2.7-2.2,5.4-2.9,7.1c-1.7,3.7-2.9,6.5-3.4,10c-0.3,2.2-0.5,4.1,0.5,5.5c0.4,0.6,1.2,1.2,1,1.8
	c-0.2,0.5-1,0.6-1.5,0.7c-0.8,0.1-1.4,0.1-1.8,0c-0.4-0.1-1.4-0.4-2.1-1.2c-0.4-0.5-0.7-1-0.8-1.9c-0.4-2.2,0.4-4.2,0.6-4.9
	c2-5.1,3-7,3-7c1.2-2.3,4.8-9.2,6.3-12.5c0.6-1.4,1-2.1,1.2-3.1C-212.8,391.5-212.8,390.4-212.4,390.3z"/>
</svg>
