<?xml version="1.0" encoding="utf-8"?>
<!-- Generator: Adobe Illustrator 19.0.0, SVG Export Plug-In . SVG Version: 6.00 Build 0)  -->
<svg version="1.1" id="Layer_1" xmlns="http://www.w3.org/2000/svg" xmlns:xlink="http://www.w3.org/1999/xlink" x="0px" y="0px"
	 viewBox="-239 364 131.3 65" style="enable-background:new -239 364 131.3 65;" xml:space="preserve">
<style type="text/css">
	.st0{fill:#EB2026;}
	.st1{fill:none;}
</style>
<g>
	<path id="XMLID_3465_" class="st0" d="M-157.2,388.5c-0.3,1.2-1.6,1.6-2.6,1.2c-0.7-0.2-1.3-0.7-1.9-1.2c-0.2-0.2-0.5-0.4-0.7-0.6
		c-3.3-3.2-5.7-7.1-7.6-11.6c-0.1-0.1-0.1-0.3-0.2-0.4c-0.5-1.1-1-2.4-1-3.5c0-0.4,0.2-0.8,0.4-1.1c0.9-1.1,2.4-1.1,3.7-1.3
		c0.3-0.1,0.7-0.1,1-0.1c0.5,0,0.9,0.1,1.4,0.7c0.2,0.2,0.4,0.5,0.5,0.8c0.1,0.5,0.2,1,0.2,1.5s0.1,0.9,0.1,1.4
		c0.2,1,0.4,2.1,0.8,3.1c0.7,2.1,1.6,4.2,2.6,6.1c0.5,1,1.1,1.9,1.7,2.8c0.1,0.2,0.5,0.6,0.8,1
		C-157.5,387.7-157.1,388.3-157.2,388.5z"/>
	<path id="XMLID_3464_" class="st0" d="M-161.4,390c0,0.2-0.3,0.4-0.4,0.5c-0.3,0.3-0.7,0.4-1.1,0.5c-0.8,0.2-1.7,0.1-2.5-0.2
		c-1-0.3-2.1-0.8-3.1-1.4c-0.4-0.3-0.8-0.6-1.2-1c-1.1-1.1-2.3-2.8-4.3-5.4c0,0-0.5-0.6-1.6-2.6l0,0c-0.3-0.6-0.7-1.3-1.1-2.1
		c-0.1-0.3-0.3-0.6-0.4-0.9c-0.2-0.5-0.4-1.1-0.3-1.7c0.1-0.5,0.3-0.8,0.6-1.2c0.6-0.9,1.4-1.2,2-1.4c0.7-0.3,1-0.4,1.4-0.3
		c0.3,0.1,0.5,0.3,0.7,0.6c0.6,0.7,0.8,1.8,0.9,1.9c0.1,0.3,0.3,0.7,0.5,1.1c0.4,0.8,0.9,1.8,1.4,2.8c0.6,1.1,1.3,2.5,2.5,4.2
		c0.8,1.2,1.5,2,2.9,3.7c0.2,0.2,0.4,0.5,0.6,0.7c0.4,0.4,0.7,0.8,1.2,1c0.1,0,0.4,0.2,0.9,0.5C-161.6,389.6-161.4,389.7-161.4,390z
		"/>
	<path id="XMLID_3463_" class="st0" d="M-168.4,391.3c-1.2,0.2-2.5,0.3-3.8,0.1c-2-0.3-3.9-2.3-5.5-4c-0.2-0.2-0.4-0.4-0.5-0.6
		c-0.6-0.6-1.3-1.3-2-2.1c-0.7-0.9-1.3-1.8-1.5-2.9c0-0.2-0.1-0.5-0.1-0.7c0-0.7,0.3-1.2,0.6-1.6c0.5-0.8,1.1-1.6,1.9-1.7
		c0.6-0.1,1,0.2,1.4,0.7c0.3,0.3,0.5,0.7,0.7,1.2c0.2,0.6,0.5,1.2,0.6,1.6c0,0.1,0.1,0.2,0.1,0.3c0.8,1.9,1.8,3.6,3,5.1
		c0.5,0.7,1.1,1.2,1.7,1.8C-170.8,389.4-169.5,390.2-168.4,391.3z"/>
</g>
<g>
	<path id="XMLID_3466_" d="M-184.3,383.8c-0.2,0-0.3,0.1-0.5,0.2c-0.1,0.1-0.3,0.3-0.4,0.4c-0.3,0.2-0.6,0.2-0.9,0.1
		c-1.4-0.5-2.9-1.4-4.2-2.1c-1.9-1-3.5,1.8-1.7,2.8c0.8,0.4,1.6,0.8,2.4,1.2c-1,0.5-2,0.9-3,1.4c-1.9,0.9-0.3,3.7,1.6,2.8
		c1.8-0.8,3.6-1.6,5.3-2.4c0.3-0.2,2.3,0.9,2.7,1.1c0.5,0.2,2.7,1.4,2.8,0.5c0.1-1.3-1-2.4-1.8-3.3c-0.4-0.4-0.9-0.8-1.2-1.3
		C-183.5,384.7-183.7,384-184.3,383.8L-184.3,383.8z"/>
	<path id="XMLID_3462_" d="M-152,386.3c-0.3,0.6-0.8,1-1.5,0.9c-0.2,0-0.5-0.1-0.8-0.2c-0.8-0.5-1.6-1.1-2.3-1.8
		c-1.9-1.8-3.3-4.1-3.7-6.8c-0.3-2.1,3-2.1,3.3,0c0-0.2,0-0.3,0-0.3s0.1,0.6,0.2,0.7c0.1,0.5,0.3,0.9,0.5,1.3
		c0.6,1.3,1.6,2.4,2.7,3.3c0.3,0.3,0.7,0.5,1,0.7C-151.7,384.7-151.6,385.6-152,386.3z"/>
	<circle id="XMLID_3461_" cx="-150.7" cy="375.3" r="1.9"/>
	<path id="XMLID_3460_" d="M-141.5,371.2c-3.4-1.3-7-2.2-10.5-2.7c-1.2-0.1-2.4-0.2-3.6-0.1c-1.4,0-2.9,0.1-4.3,0.3
		c-0.5,0-1,0.1-1.4,0.2c-0.3,0-0.5,0.1-0.8,0.1c-0.1,0-0.3,0-0.4,0.1c-0.4,0.1-0.5,0.4-0.5,0.7c0,0.4,0.1,0.8,0.3,1.2
		c0.2,0.4,0.5,1,1,1.1c0.3,0.1,0.5,0,0.8,0c0.4-0.1,0.8-0.1,1.1-0.2c1.5-0.2,3.1-0.3,4.6-0.2c1.5,0.1,3.1,0.2,4.6,0.5
		s3.1,0.6,4.6,1.1c0.6,0.2,1.2,0.4,1.7,0.5c-2.2,4-5.5,7.5-9.1,10c-0.1,0-0.1,0.1-0.2,0.1l0,0c-0.9,0.6-1.8,1.1-2.7,1.6
		c0.7,0.7,1.5,1.3,2.3,1.8c0.3,0.2,0.5,0.2,0.8,0.2c0.1-0.1,0.3-0.2,0.4-0.3c0.3-0.2,0.7-0.4,1-0.7c4.7-3.2,8.9-7.8,11.2-13
		C-140,372.5-140.4,371.6-141.5,371.2z"/>
	<g>
		<path id="XMLID_3430_" d="M-231.7,408.1c0.3-0.4,0-1-0.1-1.3c-0.4-1.1-1.1-2.3-1-3.5c0.3-2.6,3.4-4.5,5.5-5.6
			c3.2-1.7,6.3-3.4,9.7-4.8c3.2-1.3,6.6-2.4,10-2.6c2.1-0.1,4.6,0.2,6.5,1.2c3,1.5,2.5,4.3,0.4,6.5c-4.2,4.6-11.2,7.4-17.3,8.3
			c-1.2,0.2-2.5,0.3-3.6-0.2s-2-1.7-1.7-2.9c0.1-0.5,0.5-1,0.6-1.5c0.2-0.5,0.1-1.2-0.4-1.4c-0.6-0.3-1.3,0.4-1.5,1.1
			c-0.6,1.7,0,3.6,1.2,5s2.9,2.2,4.6,2.6c4.3,1.1,8.2,0,12.1-1.9c2.2-1,4.3-2.1,6.5-4.2c3.2-3.1,4.8-8.6,2.1-12.4
			c-2.6-3.6-7.5-3.8-11.5-3.4c-1.1,0.1-2.1,0.3-3.2,0.5c-3.7,0.7-6.7,2-9.6,3.2c-2.4,1-3.9,1.9-4.4,2.1c0,0-3.6,2-7.1,5.2
			c-0.3,0.3-1.2,1.1-2.1,2.5c-0.4,0.6-0.6,1-0.8,1.6c-0.3,1.4,0.2,2.6,0.4,3.1c0.8,1.8,2.6,3.3,3.9,3.1
			C-232.3,408.5-231.9,408.4-231.7,408.1z"/>
		<path id="XMLID_3476_" d="M-181.6,412.7c0.2,0,0.5,0.2,1,0.7c0.3,0.3,0.4,0.4,0.7,0.6c0,0,0.4,0.2,0.8,0.3
			c3.2,0.7,6.5-0.1,9.7-0.6c8.7-1.3,18-1.5,26.7-0.6c4.5,0.5,11.9,4.1,11.9,8c0,1.3-0.8,2.5-1.8,3.4c-0.4-0.9-1.1-2.2-2.5-3.5
			c-2-2-4.4-2.7-5.9-3.1c-10.7-2.7-21.9-2-32.9-0.9c-2,0.2-4,0.4-6,0c-0.8-0.2-1.6-0.4-2.1-1C-182.5,415.2-182.9,412.9-181.6,412.7z
			"/>
		<g id="XMLID_3468_">
			<path id="XMLID_3473_" d="M-155.9,405.9c-0.1,0.1-0.3,0.2-0.4,0c-0.1-0.1-0.1-0.3,0-0.4c0.1-0.2,0.1-0.4,0.2-0.7
				c0.3-0.8,0.7-1.6,1-2.4c1-2.2,2.3-4.2,3.6-6.2c0.7-1,0.9-1,0-2.3c-0.7-1.1-1.2-1.1-2.1-0.6c-1,0.5-1.9,1.2-2.7,2
				c-1.6,1.4-3,2.9-4.4,4.5c-0.2,0.2-0.5,0.5-0.7,0.8c0-0.2,0.1-0.4,0.2-0.5c0.3-0.6,0.7-1.2,1-1.8c0.5-0.9,1.1-1.8,1.6-2.8
				c0.3-0.5,0.2-0.9-0.2-1.3c-0.1-0.1-0.2-0.2-0.3-0.3c-1-0.7-2.1-0.8-3.2-0.1c-0.9,0.6-1.7,1.3-2.5,2.1c-1.4,1.5-2.8,3.1-4.1,4.8
				c-0.1,0.1-0.2,0.2-0.3,0.3c0-0.3,0.1-0.5,0.2-0.7c0.7-1.4,1.5-2.8,2.3-4.2c0.2-0.3,0.3-0.5,0.2-0.9c-0.2-0.8-0.6-1.5-1.1-2.1
				c-0.3-0.3-0.5-0.2-0.8,0.1c-0.3,0.3-0.4,0.6-0.6,0.9c-0.9,1.3-1.6,2.8-2.3,4.2c-0.4,0.8-0.8,1.6-1.4,2.3
				c-1.3,1.6-2.7,3.3-4.3,4.5c-0.8,0.6-1.6,1.2-2.6,1.6c-0.4,0.2-0.8,0.3-1.3,0.2c-0.6,0-0.9-0.4-1.1-1c-0.1-0.4-0.1-0.8-0.1-1.2
				c0-0.5,0-0.5,0.4-0.6c2.5-0.3,4.7-1.5,6.5-3.7c0.9-1.1,1.5-2.3,1.4-3.8c0-1.2-0.4-2.2-1.4-2.9c-0.6-0.4-1.3-0.5-2.1-0.4
				c-1.2,0.2-2.3,0.8-3.1,1.7c-2.1,2.2-3.7,4.9-4.5,8.1c-0.1,0.3-0.2,0.6-0.4,0.8c-0.6,0.6-1.2,1.2-1.8,1.8
				c-0.8,0.8-1.6,1.5-2.4,2.1c-0.2,0.1-0.4,0.3-0.6,0.3c-0.4,0.1-0.7-0.1-0.8-0.6c0-0.2,0-0.5,0.1-0.7c0.1-0.8,0.4-1.5,0.6-2.2
				c0.7-2.3,1.7-4.3,3.2-6.1c0.2-0.2,0.3-0.5,0.5-0.7c0.2-0.3,0.2-0.6,0.1-0.9c-0.1-0.3-0.2-0.4-0.3-0.6c-0.3-0.4-0.5-0.4-0.8-0.1
				s-0.6,0.5-0.9,0.8c-0.5,0.4-1.1,0.4-1.6,0.2c-0.6-0.2-0.7-0.4-0.4-1c0.1-0.2,0.1-0.3,0.2-0.5c0.2-0.6,0.3-1.1,0.2-1.7
				c-0.1-0.4-0.2-0.6-0.5-0.8c-0.4-0.2-0.8-0.2-1.2,0c-0.7,0.3-1.2,0.9-1.6,1.5c-0.9,1.1-0.9,2.8-0.1,3.6c0.1,0.1,0.1,0.2,0,0.3
				c-0.1,0.1-0.1,0.1-0.2,0.2c-0.2,0.2-2.7,3.5-4.1,5.2c-0.7,0.8-1.4,4-0.9,3.5c0.3-0.4,2.6-3.5,4.4-5.8c0.6-0.8,1.2-1.6,1.8-2.4
				c0.1-0.2,0.2-0.3,0.4-0.3c0.6,0.1,1.1,0.2,1.7,0.2c0,0.1,0,0.2,0,0.2c-1.4,2.3-2.5,4.8-3.4,7.4c-0.3,0.9-0.4,1.8-0.4,2.8
				c0,0.8,0.5,1.3,1.1,1.6c0.5,0.2,1,0.1,1.5,0c1.1-0.3,2-1.1,2.9-1.8c1.1-0.9,2.1-1.9,3.1-2.9c0.1-0.1,0.2-0.3,0.4-0.2
				c0,0.7,0,1.3,0.2,1.9c0.3,1.3,1,2.1,2.2,2.2c0.7,0.1,1.5,0,2.2-0.2c1.4-0.5,2.5-1.3,3.6-2.3c0.9-0.9,1.8-1.8,2.7-2.9
				c0.1-0.1,0.2-0.3,0.4-0.3c-0.1,0.2-0.1,0.4-0.1,0.6c-0.3,1-0.4,2.1-0.2,3.2c0.1,0.6,0.3,1.1,0.7,1.4c0.6,0.5,1.3,0.2,1.3-0.7
				c0.1-0.8,0.3-1.6,0.7-2.2c0.8-1.6,1.8-2.9,2.8-4.4c1.3-1.9,2.8-3.6,4.3-5.3c0.5-0.6,1.1-1.1,1.7-1.6c0.1-0.1,0.3-0.3,0.6-0.3
				c-0.2,0.3-0.3,0.5-0.4,0.7c-1.1,1.9-2.1,3.8-3,5.8c-0.7,1.6-1.1,3.2-1,5c0,0.7,0.2,1.3,0.6,1.8c0.5,0.5,1.1,0.3,1.3-0.4
				c0.1-0.4,0.2-0.7,0.3-1.1c0.5-1.2,1.2-2.3,1.9-3.3c2-2.6,4.2-4.9,6.4-7.2c0.3-0.3,0.6-0.6,0.9-0.8c0.1-0.1,0.2-0.2,0.3-0.1
				c0,0.1-0.1,0.1-0.1,0.2c-0.8,1.3-1.6,2.7-2.4,4c-0.8,1.4-1.5,2.8-2.1,4.4c-0.3,0.8-0.6,1.6-0.5,2.5c0.2,1.7,1.1,2.4,2.5,1.8
				c0,0,0.1,0,0.1-0.1c0.7-0.4,1.3-0.8,1.9-1.4c1-1,2-2,3-3.1c0.1-0.1,0.2-0.3,0.5-0.3l0.3-2.3c-1,1.2-2,2.3-3.1,3.3
				C-155,405.2-155.4,405.6-155.9,405.9z M-181.6,402.1c0.6-2.2,1.6-4.1,3.1-5.7c0.5-0.5,1.1-0.9,1.7-1.2c0.3-0.1,0.7-0.3,1,0.1
				c0.3,0.3,0.2,0.7,0.1,1.1c-0.1,0.5-0.3,0.9-0.6,1.3c-1.3,2.1-2.9,3.7-4.9,4.8c-0.2,0.1-0.4,0.2-0.6,0.2
				C-181.7,402.5-181.6,402.3-181.6,402.1z"/>
			<path id="XMLID_3470_" d="M-110.8,390.7c-0.3-1.3-0.8-2.6-1.6-3.7c-2.2-3-5.9-4.5-9.6-5.1c-7.7-1.4-15.9,0.5-22.3,5.1
				c-0.8,0.5-1.6,1.2-1.7,2.1c-0.2,1.2,1,2.5,2.2,2.4s2.3-1.3,2.2-2.6c0-0.6-0.2-1.2,0.1-1.7c0.2-0.3,0.4-0.3,1.2-0.8
				c0.6-0.4,0.9-0.6,1.1-0.7c3.2-2,7.1-2.4,10.8-2.4c6-0.1,17.3,2.2,15.7,10.5c-0.4,2.2-1.7,4.2-3.4,5.6c-1.2,1-2.7,1.7-4.1,2.6
				c-1.5,0.9-3,1.8-4.6,2.7c-0.1,0.1-0.2,0.1-0.4,0.1c-0.4,0-0.5-0.6-0.5-1c0.5-3,1.7-6,3.6-8.5c0.3-0.5,0.7-0.9,0.9-1.4
				c0.2-0.5,0.1-1.2-0.3-1.6c-0.1-0.1-0.2-0.1-0.3-0.2c-0.3,0-0.5,0.2-0.7,0.4c-0.6,0.6-1.5,1.1-2.3,0.9c-0.3-0.1-0.5-0.3-0.6-0.5
				c0-0.1,0-0.3,0.1-0.4c0.2-0.6,0.5-1.2,0.5-1.9c0-0.7-0.3-1.4-1-1.5c-0.5-0.1-1,0.2-1.4,0.5c-0.7,0.6-1.4,1.3-1.7,2.2
				c-0.3,0.9-0.3,1.9,0.3,2.7c0.1,0.1,0.2,0.2,0.2,0.3c0,0.1-0.1,0.2-0.1,0.3c-0.7,0.9-1.3,1.8-2,2.6c-1.7,2.3-3.5,4.7-5.7,6.5
				c-0.9,0.7-1.8,1.4-2.9,1.7c-0.5,0.1-1,0.2-1.4,0c-0.7-0.4-0.8-1.4-0.7-2.3c0-0.1,0-0.3,0.1-0.4s0.3-0.1,0.4-0.2
				c2.9-0.4,5.5-2.1,7-4.5c0.6-1,1.1-2.2,1-3.5c-0.1-1.2-0.8-2.4-1.9-2.9c-0.9-0.4-1.9-0.3-2.8,0.1s-1.6,1-2.3,1.7
				c-2.9,3-4.6,7.1-4.8,11.2c-0.1,1.3,0.1,2.8,1.1,3.6c0.9,0.7,2.1,0.7,3.2,0.4c1.7-0.5,3.2-1.7,4.5-2.9c3.2-3.2,5.6-7.2,8.4-10.7
				c0.1-0.1,0.2-0.2,0.3-0.2c0.2-0.1,0.3,0,0.5,0c0.5,0.1,0.9,0.2,1.4,0.3c-1.1,1.9-2.1,3.9-2.9,5.9c-0.5,1.3-1,2.6-1,4
				c0,0.8,0.2,1.8,0.9,2.2c0.9,0.5,2,0,2.9-0.6c2.3-1.5,4.7-3,7-4.5c2-1.3,4.6-2.6,6-4.6S-110.3,393.2-110.8,390.7z M-140.9,401
				c0.6-2.3,1.7-4.3,3.2-5.9c0.5-0.6,1.1-1,1.8-1.2c0.4-0.1,0.7-0.3,1,0.1c0.3,0.3,0.2,0.8,0.1,1.1c-0.1,0.5-0.3,0.9-0.6,1.4
				c-1.3,2.1-2.9,3.9-5,5c-0.2,0.1-0.4,0.2-0.6,0.2C-141,401.4-140.9,401.2-140.9,401z"/>
			<path id="XMLID_3469_" d="M-141.6,397.2c-1,1.3-2,2.6-3,3.8c-1,1.3-2.1,2.5-3.3,3.7c-0.3,0.3-0.6,0.6-1,0.7
				c-0.5,0.2-0.7,0.1-0.7-0.5c0-0.4,0.1-0.8,0.2-1.2c0.9-3.1,2.2-5.8,4-8.3c0.6-0.8,0.6-1.3-0.1-2.1c-0.2-0.2-0.4-0.5-0.7-0.6
				c-0.3-0.2-0.6-0.2-0.9,0.1c-0.5,0.5-0.9,1.1-1.3,1.7c-1.1,1.8-2,3.7-2.8,5.6c-0.7,1.5-1.6,5.7-1.6,6c-0.1,0.5,0,1.1,0.1,1.6
				c0.2,0.8,0.6,1.2,1.3,1.4c0.6,0.1,1.2-0.1,1.8-0.4c0.6-0.4,1.1-0.8,1.6-1.3c0.9-0.9,1.7-1.8,2.5-2.8c1.6-1.9,3-4,4.5-6
				L-141.6,397.2z"/>
		</g>
		<path id="XMLID_3431_" d="M-212.8,393.4c0.2,0,0.5,0.5,0.5,0.6c0.3,0.6,0.2,1.1,0.2,1.4c-0.3,2.2-0.6,3.2-0.6,3.2
			c-0.8,2.7-0.7,2.5-0.8,2.7c-0.9,2.7-2.2,5.4-2.9,7.1c-1.7,3.7-2.9,6.5-3.4,10c-0.3,2.2-0.5,4.1,0.5,5.5c0.4,0.6,1.2,1.2,1,1.8
			c-0.2,0.5-1,0.6-1.5,0.7c-0.8,0.1-1.4,0.1-1.8,0c-0.4-0.1-1.4-0.4-2.1-1.2c-0.4-0.5-0.7-1-0.8-1.9c-0.4-2.2,0.4-4.2,0.6-4.9
			c2-5.1,3-7,3-7c1.2-2.3,4.8-9.2,6.3-12.5c0.6-1.4,1-2.1,1.2-3.1C-213.2,394.6-213.2,393.5-212.8,393.4z"/>
	</g>
</g>
<rect x="-239" y="367" class="st1" width="131.3" height="65"/>
</svg>
