<?xml version="1.0" encoding="utf-8"?>
<!-- Generator: Adobe Illustrator 19.0.0, SVG Export Plug-In . SVG Version: 6.00 Build 0)  -->
<svg version="1.1" id="Layer_1" xmlns="http://www.w3.org/2000/svg" xmlns:xlink="http://www.w3.org/1999/xlink" x="0px" y="0px"
	 viewBox="-246 290 262.2 213" style="enable-background:new -246 290 262.2 213;" xml:space="preserve">
<style type="text/css">
	.st0{fill:#FFFFFF;}
</style>
<g>
	<path id="XMLID_3430_" class="st0" d="M-233.9,411.2c0.6-0.8,0-2.1-0.2-2.7c-0.8-2.3-2.3-4.7-2.1-7.2c0.6-5.3,7-9.2,11.3-11.5
		c6.6-3.5,12.9-7,19.9-9.9c6.6-2.7,13.6-4.9,20.5-5.3c4.3-0.2,9.4,0.4,13.3,2.5c6.2,3.1,5.1,8.8,0.8,13.3c-8.6,9.4-23,15.2-35.5,17
		c-2.5,0.4-5.1,0.6-7.4-0.4c-2.3-1-4.1-3.5-3.5-6c0.2-1,1-2.1,1.2-3.1c0.4-1,0.2-2.5-0.8-2.9c-1.2-0.6-2.7,0.8-3.1,2.3
		c-1.2,3.5,0,7.4,2.5,10.3c2.5,2.9,6,4.5,9.4,5.3c8.8,2.3,16.8,0,24.8-3.9c4.5-2.1,8.8-4.3,13.3-8.6c6.6-6.4,9.9-17.7,4.3-25.5
		c-5.3-7.4-15.4-7.8-23.6-7c-2.3,0.2-4.3,0.6-6.6,1c-7.6,1.4-13.8,4.1-19.7,6.6c-4.9,2.1-8,3.9-9,4.3c0,0-7.4,4.1-14.6,10.7
		c-0.6,0.6-2.5,2.3-4.3,5.1c-0.8,1.2-1.2,2.1-1.6,3.3c-0.6,2.9,0.4,5.3,0.8,6.4c1.6,3.7,5.3,6.8,8,6.4
		C-235.1,412-234.3,411.8-233.9,411.2z"/>
	<path id="XMLID_3476_" class="st0" d="M-131,420.6c0.4,0,1,0.4,2.1,1.4c0.6,0.6,0.8,0.8,1.4,1.2c0,0,0.8,0.4,1.6,0.6
		c6.6,1.4,13.3-0.2,19.9-1.2c17.9-2.7,37-3.1,54.8-1.2c9.2,1,24.4,8.4,24.4,16.4c0,2.7-1.6,5.1-3.7,7c-0.8-1.8-2.3-4.5-5.1-7.2
		c-4.1-4.1-9-5.5-12.1-6.4c-22-5.5-45-4.1-67.6-1.8c-4.1,0.4-8.2,0.8-12.3,0c-1.6-0.4-3.3-0.8-4.3-2.1
		C-132.9,425.8-133.7,421.1-131,420.6z"/>
	<g id="XMLID_3468_">
		<path id="XMLID_3473_" class="st0" d="M-78.2,406.7c-0.2,0.2-0.6,0.4-0.8,0c-0.2-0.2-0.2-0.6,0-0.8c0.2-0.4,0.2-0.8,0.4-1.4
			c0.6-1.6,1.4-3.3,2.1-4.9c2.1-4.5,4.7-8.6,7.4-12.7c1.4-2.1,1.8-2.1,0-4.7c-1.4-2.3-2.5-2.3-4.3-1.2c-2.1,1-3.9,2.5-5.5,4.1
			c-3.3,2.9-6.2,6-9,9.2c-0.4,0.4-1,1-1.4,1.6c0-0.4,0.2-0.8,0.4-1c0.6-1.2,1.4-2.5,2.1-3.7c1-1.8,2.3-3.7,3.3-5.7
			c0.6-1,0.4-1.8-0.4-2.7c-0.2-0.2-0.4-0.4-0.6-0.6c-2.1-1.4-4.3-1.6-6.6-0.2c-1.8,1.2-3.5,2.7-5.1,4.3c-2.9,3.1-5.7,6.4-8.4,9.9
			c-0.2,0.2-0.4,0.4-0.6,0.6c0-0.6,0.2-1,0.4-1.4c1.4-2.9,3.1-5.7,4.7-8.6c0.4-0.6,0.6-1,0.4-1.8c-0.4-1.6-1.2-3.1-2.3-4.3
			c-0.6-0.6-1-0.4-1.6,0.2c-0.6,0.6-0.8,1.2-1.2,1.8c-1.8,2.7-3.3,5.7-4.7,8.6c-0.8,1.6-1.6,3.3-2.9,4.7c-2.7,3.3-5.5,6.8-8.8,9.2
			c-1.6,1.2-3.3,2.5-5.3,3.3c-0.8,0.4-1.6,0.6-2.7,0.4c-1.2,0-1.8-0.8-2.3-2.1c-0.2-0.8-0.2-1.6-0.2-2.5c0-1,0-1,0.8-1.2
			c5.1-0.6,9.7-3.1,13.3-7.6c1.8-2.3,3.1-4.7,2.9-7.8c0-2.5-0.8-4.5-2.9-6c-1.2-0.8-2.7-1-4.3-0.8c-2.5,0.4-4.7,1.6-6.4,3.5
			c-4.3,4.5-7.6,10.1-9.2,16.6c-0.2,0.6-0.4,1.2-0.8,1.6c-1.2,1.2-2.5,2.5-3.7,3.7c-1.6,1.6-3.3,3.1-4.9,4.3
			c-0.4,0.2-0.8,0.6-1.2,0.6c-0.8,0.2-1.4-0.2-1.6-1.2c0-0.4,0-1,0.2-1.4c0.2-1.6,0.8-3.1,1.2-4.5c1.4-4.7,3.5-8.8,6.6-12.5
			c0.4-0.4,0.6-1,1-1.4c0.4-0.6,0.4-1.2,0.2-1.8c-0.2-0.6-0.4-0.8-0.6-1.2c-0.6-0.8-1-0.8-1.6-0.2c-0.6,0.6-1.2,1-1.8,1.6
			c-1,0.8-2.3,0.8-3.3,0.4c-1.2-0.4-1.4-0.8-0.8-2.1c0.2-0.4,0.2-0.6,0.4-1c0.4-1.2,0.6-2.3,0.4-3.5c-0.2-0.8-0.4-1.2-1-1.6
			c-0.8-0.4-1.6-0.4-2.5,0c-1.4,0.6-2.5,1.8-3.3,3.1c-1.8,2.3-1.8,5.7-0.2,7.4c0.2,0.2,0.2,0.4,0,0.6c-0.2,0.2-0.2,0.2-0.4,0.4
			c-0.4,0.4-5.5,7.2-8.4,10.7c-1.4,1.6-2.9,8.2-1.8,7.2c0.6-0.8,5.3-7.2,9-11.9c1.2-1.6,2.5-3.3,3.7-4.9c0.2-0.4,0.4-0.6,0.8-0.6
			c1.2,0.2,2.3,0.4,3.5,0.4c0,0.2,0,0.4,0,0.4c-2.9,4.7-5.1,9.9-7,15.2c-0.6,1.8-0.8,3.7-0.8,5.7c0,1.6,1,2.7,2.3,3.3
			c1,0.4,2.1,0.2,3.1,0c2.3-0.6,4.1-2.3,6-3.7c2.3-1.8,4.3-3.9,6.4-6c0.2-0.2,0.4-0.6,0.8-0.4c0,1.4,0,2.7,0.4,3.9
			c0.6,2.7,2.1,4.3,4.5,4.5c1.4,0.2,3.1,0,4.5-0.4c2.9-1,5.1-2.7,7.4-4.7c1.8-1.8,3.7-3.7,5.5-6c0.2-0.2,0.4-0.6,0.8-0.6
			c-0.2,0.4-0.2,0.8-0.2,1.2c-0.6,2.1-0.8,4.3-0.4,6.6c0.2,1.2,0.6,2.3,1.4,2.9c1.2,1,2.7,0.4,2.7-1.4c0.2-1.6,0.6-3.3,1.4-4.5
			c1.6-3.3,3.7-6,5.7-9c2.7-3.9,5.7-7.4,8.8-10.9c1-1.2,2.3-2.3,3.5-3.3c0.2-0.2,0.6-0.6,1.2-0.6c-0.4,0.6-0.6,1-0.8,1.4
			c-2.3,3.9-4.3,7.8-6.2,11.9c-1.4,3.3-2.3,6.6-2.1,10.3c0,1.4,0.4,2.7,1.2,3.7c1,1,2.3,0.6,2.7-0.8c0.2-0.8,0.4-1.4,0.6-2.3
			c1-2.5,2.5-4.7,3.9-6.8c4.1-5.3,8.6-10.1,13.1-14.8c0.6-0.6,1.2-1.2,1.8-1.6c0.2-0.2,0.4-0.4,0.6-0.2c0,0.2-0.2,0.2-0.2,0.4
			c-1.6,2.7-3.3,5.5-4.9,8.2c-1.6,2.9-3.1,5.7-4.3,9c-0.6,1.6-1.2,3.3-1,5.1c0.4,3.5,2.3,4.9,5.1,3.7c0,0,0.2,0,0.2-0.2
			c1.4-0.8,2.7-1.6,3.9-2.9c2.1-2.1,4.1-4.1,6.2-6.4c0.2-0.2,0.4-0.6,1-0.6l0.6-4.7c-2.1,2.5-4.1,4.7-6.4,6.8
			C-76.4,405.2-77.2,406.1-78.2,406.7z M-131,398.9c1.2-4.5,3.3-8.4,6.4-11.7c1-1,2.3-1.8,3.5-2.5c0.6-0.2,1.4-0.6,2.1,0.2
			c0.6,0.6,0.4,1.4,0.2,2.3c-0.2,1-0.6,1.8-1.2,2.7c-2.7,4.3-6,7.6-10.1,9.9c-0.4,0.2-0.8,0.4-1.2,0.4
			C-131.2,399.7-131,399.3-131,398.9z"/>
		<path id="XMLID_3470_" class="st0" d="M14.4,375.5c-0.6-2.7-1.6-5.3-3.3-7.6c-4.5-6.2-12.1-9.2-19.7-10.5
			c-15.8-2.9-32.6,1-45.8,10.5c-1.6,1-3.3,2.5-3.5,4.3c-0.4,2.5,2.1,5.1,4.5,4.9s4.7-2.7,4.5-5.3c0-1.2-0.4-2.5,0.2-3.5
			c0.4-0.6,0.8-0.6,2.5-1.6c1.2-0.8,1.8-1.2,2.3-1.4c6.6-4.1,14.6-4.9,22.2-4.9c12.3-0.2,35.5,4.5,32.2,21.6
			c-0.8,4.5-3.5,8.6-7,11.5c-2.5,2.1-5.5,3.5-8.4,5.3c-3.1,1.8-6.2,3.7-9.4,5.5c-0.2,0.2-0.4,0.2-0.8,0.2c-0.8,0-1-1.2-1-2.1
			c1-6.2,3.5-12.3,7.4-17.5c0.6-1,1.4-1.8,1.8-2.9c0.4-1,0.2-2.5-0.6-3.3c-0.2-0.2-0.4-0.2-0.6-0.4c-0.6,0-1,0.4-1.4,0.8
			c-1.2,1.2-3.1,2.3-4.7,1.8c-0.6-0.2-1-0.6-1.2-1c0-0.2,0-0.6,0.2-0.8c0.4-1.2,1-2.5,1-3.9c0-1.4-0.6-2.9-2.1-3.1
			c-1-0.2-2.1,0.4-2.9,1c-1.4,1.2-2.9,2.7-3.5,4.5c-0.6,1.8-0.6,3.9,0.6,5.5c0.2,0.2,0.4,0.4,0.4,0.6c0,0.2-0.2,0.4-0.2,0.6
			c-1.4,1.8-2.7,3.7-4.1,5.3c-3.5,4.7-7.2,9.7-11.7,13.3c-1.8,1.4-3.7,2.9-6,3.5c-1,0.2-2.1,0.4-2.9,0c-1.4-0.8-1.6-2.9-1.4-4.7
			c0-0.2,0-0.6,0.2-0.8c0.2-0.2,0.6-0.2,0.8-0.4c6-0.8,11.3-4.3,14.4-9.2c1.2-2.1,2.3-4.5,2.1-7.2c-0.2-2.5-1.6-4.9-3.9-6
			c-1.8-0.8-3.9-0.6-5.7,0.2c-1.8,0.8-3.3,2.1-4.7,3.5c-6,6.2-9.4,14.6-9.9,23c-0.2,2.7,0.2,5.7,2.3,7.4c1.8,1.4,4.3,1.4,6.6,0.8
			c3.5-1,6.6-3.5,9.2-6c6.6-6.6,11.5-14.8,17.2-22c0.2-0.2,0.4-0.4,0.6-0.4c0.4-0.2,0.6,0,1,0c1,0.2,1.8,0.4,2.9,0.6
			c-2.3,3.9-4.3,8-6,12.1c-1,2.7-2.1,5.3-2.1,8.2c0,1.6,0.4,3.7,1.8,4.5c1.8,1,4.1,0,6-1.2c4.7-3.1,9.7-6.2,14.4-9.2
			c4.1-2.7,9.4-5.3,12.3-9.4S15.4,380.6,14.4,375.5z M-47.4,396.6c1.2-4.7,3.5-8.8,6.6-12.1c1-1.2,2.3-2.1,3.7-2.5
			c0.8-0.2,1.4-0.6,2.1,0.2c0.6,0.6,0.4,1.6,0.2,2.3c-0.2,1-0.6,1.8-1.2,2.9c-2.7,4.3-6,8-10.3,10.3c-0.4,0.2-0.8,0.4-1.2,0.4
			C-47.6,397.4-47.4,397-47.4,396.6z"/>
		<path id="XMLID_3469_" class="st0" d="M-48.9,388.8c-2.1,2.7-4.1,5.3-6.2,7.8c-2.1,2.7-4.3,5.1-6.8,7.6c-0.6,0.6-1.2,1.2-2.1,1.4
			c-1,0.4-1.4,0.2-1.4-1c0-0.8,0.2-1.6,0.4-2.5c1.8-6.4,4.5-11.9,8.2-17c1.2-1.6,1.2-2.7-0.2-4.3c-0.4-0.4-0.8-1-1.4-1.2
			c-0.6-0.4-1.2-0.4-1.8,0.2c-1,1-1.8,2.3-2.7,3.5c-2.3,3.7-4.1,7.6-5.7,11.5c-1.4,3.1-3.3,11.7-3.3,12.3c-0.2,1,0,2.3,0.2,3.3
			c0.4,1.6,1.2,2.5,2.7,2.9c1.2,0.2,2.5-0.2,3.7-0.8c1.2-0.8,2.3-1.6,3.3-2.7c1.8-1.8,3.5-3.7,5.1-5.7c3.3-3.9,6.2-8.2,9.2-12.3
			L-48.9,388.8z"/>
	</g>
	<path id="XMLID_3466_" class="st0" d="M-136.5,361.3c-0.4,0-0.6,0.2-1,0.4c-0.2,0.2-0.6,0.6-0.8,0.8c-0.6,0.4-1.2,0.4-1.8,0.2
		c-2.9-1-6-2.9-8.6-4.3c-3.9-2.1-7.2,3.7-3.5,5.7c1.6,0.8,3.3,1.6,4.9,2.5c-2.1,1-4.1,1.8-6.2,2.9c-3.9,1.8-0.6,7.6,3.3,5.7
		c3.7-1.6,7.4-3.3,10.9-4.9c0.6-0.4,4.7,1.8,5.5,2.3c1,0.4,5.5,2.9,5.7,1c0.2-2.7-2.1-4.9-3.7-6.8c-0.8-0.8-1.8-1.6-2.5-2.7
		C-134.9,363.2-135.3,361.7-136.5,361.3L-136.5,361.3z"/>
	<path id="XMLID_3465_" class="st0" d="M-80.9,371c-0.6,2.5-3.3,3.3-5.3,2.5c-1.4-0.4-2.7-1.4-3.9-2.5c-0.4-0.4-1-0.8-1.4-1.2
		c-6.8-6.6-11.7-14.6-15.6-23.8c-0.2-0.2-0.2-0.6-0.4-0.8c-1-2.3-2.1-4.9-2.1-7.2c0-0.8,0.4-1.6,0.8-2.3c1.8-2.3,4.9-2.3,7.6-2.7
		c0.6-0.2,1.4-0.2,2.1-0.2c1,0,1.8,0.2,2.9,1.4c0.4,0.4,0.8,1,1,1.6c0.2,1,0.4,2.1,0.4,3.1c0,1,0.2,1.8,0.2,2.9
		c0.4,2.1,0.8,4.3,1.6,6.4c1.4,4.3,3.3,8.6,5.3,12.5c1,2.1,2.3,3.9,3.5,5.7c0.2,0.4,1,1.2,1.6,2.1C-81.5,369.3-80.7,370.5-80.9,371z
		"/>
	<path id="XMLID_3464_" class="st0" d="M-89.5,374c0,0.4-0.6,0.8-0.8,1c-0.6,0.6-1.4,0.8-2.3,1c-1.6,0.4-3.5,0.2-5.1-0.4
		c-2.1-0.6-4.3-1.6-6.4-2.9c-0.8-0.6-1.6-1.2-2.5-2.1c-2.3-2.3-4.7-5.7-8.8-11.1c0,0-1-1.2-3.3-5.3l0,0c-0.6-1.2-1.4-2.7-2.3-4.3
		c-0.2-0.6-0.6-1.2-0.8-1.8c-0.4-1-0.8-2.3-0.6-3.5c0.2-1,0.6-1.6,1.2-2.5c1.2-1.8,2.9-2.5,4.1-2.9c1.4-0.6,2.1-0.8,2.9-0.6
		c0.6,0.2,1,0.6,1.4,1.2c1.2,1.4,1.6,3.7,1.8,3.9c0.2,0.6,0.6,1.4,1,2.3c0.8,1.6,1.8,3.7,2.9,5.7c1.2,2.3,2.7,5.1,5.1,8.6
		c1.6,2.5,3.1,4.1,6,7.6c0.4,0.4,0.8,1,1.2,1.4c0.8,0.8,1.4,1.6,2.5,2.1c0.2,0,0.8,0.4,1.8,1C-89.9,373.2-89.5,373.4-89.5,374z"/>
	<path id="XMLID_3463_" class="st0" d="M-103.9,376.7c-2.5,0.4-5.1,0.6-7.8,0.2c-4.1-0.6-8-4.7-11.3-8.2c-0.4-0.4-0.8-0.8-1-1.2
		c-1.2-1.2-2.7-2.7-4.1-4.3c-1.4-1.8-2.7-3.7-3.1-6c0-0.4-0.2-1-0.2-1.4c0-1.4,0.6-2.5,1.2-3.3c1-1.6,2.3-3.3,3.9-3.5
		c1.2-0.2,2.1,0.4,2.9,1.4c0.6,0.6,1,1.4,1.4,2.5c0.4,1.2,1,2.5,1.2,3.3c0,0.2,0.2,0.4,0.2,0.6c1.6,3.9,3.7,7.4,6.2,10.5
		c1,1.4,2.3,2.5,3.5,3.7C-108.8,372.8-106.2,374.4-103.9,376.7z"/>
	<path id="XMLID_3462_" class="st0" d="M-70.2,366.4c-0.6,1.2-1.6,2.1-3.1,1.8c-0.4,0-1-0.2-1.6-0.4c-1.6-1-3.3-2.3-4.7-3.7
		c-3.9-3.7-6.8-8.4-7.6-14c-0.6-4.3,6.2-4.3,6.8,0c0-0.4,0-0.6,0-0.6s0.2,1.2,0.4,1.4c0.2,1,0.6,1.8,1,2.7c1.2,2.7,3.3,4.9,5.5,6.8
		c0.6,0.6,1.4,1,2.1,1.4C-69.6,363.2-69.4,365-70.2,366.4z"/>
	<circle id="XMLID_3461_" class="st0" cx="-67.6" cy="343.9" r="3.9"/>
	<path id="XMLID_3460_" class="st0" d="M-48.7,335.4c-7-2.7-14.4-4.5-21.6-5.5c-2.5-0.2-4.9-0.4-7.4-0.2c-2.9,0-6,0.2-8.8,0.6
		c-1,0-2.1,0.2-2.9,0.4c-0.6,0-1,0.2-1.6,0.2c-0.2,0-0.6,0-0.8,0.2c-0.8,0.2-1,0.8-1,1.4c0,0.8,0.2,1.6,0.6,2.5
		c0.4,0.8,1,2.1,2.1,2.3c0.6,0.2,1,0,1.6,0c0.8-0.2,1.6-0.2,2.3-0.4c3.1-0.4,6.4-0.6,9.4-0.4c3.1,0.2,6.4,0.4,9.4,1
		c3.1,0.6,6.4,1.2,9.4,2.3c1.2,0.4,2.5,0.8,3.5,1c-4.5,8.2-11.3,15.4-18.7,20.5c-0.2,0-0.2,0.2-0.4,0.2l0,0
		c-1.8,1.2-3.7,2.3-5.5,3.3c1.4,1.4,3.1,2.7,4.7,3.7c0.6,0.4,1,0.4,1.6,0.4c0.2-0.2,0.6-0.4,0.8-0.6c0.6-0.4,1.4-0.8,2.1-1.4
		c9.7-6.6,18.3-16,23-26.7C-45.6,338.1-46.4,336.3-48.7,335.4z"/>
	<g id="XMLID_3440_">
		<path id="XMLID_3458_" class="st0" d="M-96.9,436.5L-96.9,436.5c-0.2,0.8-0.4,1.4-0.6,2.1c-0.2,0-0.2,0-0.4-0.2
			c0.4-0.2,0.4-0.4,0.4-0.6c0-0.2-0.2-0.2,0-0.4c0,0,0,0,0.2-0.2C-97.3,437.1-96.9,436.9-96.9,436.5L-96.9,436.5z"/>
		<path id="XMLID_3457_" class="st0" d="M-52.2,444.9c0,0.4,0,0.8,0,1.2l0,0l0,0l0,0l0,0l0,0l0,0c0,0,0,0,0-0.2c0,0,0,0,0-0.2v-0.2
			l0,0l0,0l0,0l0,0l0,0l0,0V444.9C-51.9,445.1-51.9,445.1-52.2,444.9C-51.9,445.1-51.9,445.1-52.2,444.9L-52.2,444.9
			C-51.9,444.9-51.9,444.9-52.2,444.9C-51.9,444.9-51.9,444.9-52.2,444.9L-52.2,444.9C-51.9,444.7-51.9,444.7-52.2,444.9l0.2-0.4
			l0,0v-0.2l0,0l0,0l0,0l0,0l0,0l0,0l0,0l0,0l0,0l0,0l0,0l0,0l0,0c0,0,0,0-0.2,0c0,0.2,0.2,0.2,0.2,0.4s0,0.2,0,0.4
			C-51.9,444.7-52.2,444.9-52.2,444.9z"/>
		<path id="XMLID_3454_" class="st0" d="M-102.1,451C-102.1,450.8-102.1,450.8-102.1,451L-102.1,451c-0.2-0.2-0.2-0.2-0.4-0.2h-0.2
			l0,0c0,0,0,0-0.2,0h-0.2h0.2l0,0h-0.2c0,0,0,0-0.2,0l0,0l0,0h-0.2c-0.2,0-0.4,0-0.4,0l0,0l0,0l0,0l0,0l0,0c0,0-0.2,0-0.4,0
			c-0.2,0-0.2,0-0.4,0l0,0l0,0l0,0l0,0h-0.2l0,0l0,0c0.4-1,0.6-2.1,0.6-2.9c0-2.1-0.8-2.7-2.3-3.7c-2.1-1.4-2.7-2.7-2.1-5.3
			c0.2-0.8,0.6-1.6,1-2.3c0.2-0.2,0.8-0.8,1.6-0.8c1.4,0,0.8,0.8,0,1.4l0,0l-1.2,0.4l0,0l0,0v0.2l0,0l0,0c0,0,0,0,0,0.2s0,0.2,0,0.2
			l-0.2,0.2c0,0,0,0-0.2,0l0,0c0.2,0,0.4,0.2,0.8,0.2h0.2c0.2,0,0.2,0,0.4,0h0.2l0,0l0,0c0.2,0,0.4-0.2,0.6-0.2s0.4-0.2,0.6-0.4
			c0.6-0.4,1.4-1,2.3-1.4l0.2-0.2l0,0c0,0,0,0,0.2-0.2c0.4-0.4,0.6-0.8,0.6-1l-0.4-0.8c-0.2-0.2-0.6-0.4-1.2-0.6h-0.2h-0.2h-0.2
			c0,0-0.2,0-0.4,0h-0.2h-0.2c0,0,0,0-0.2,0h-0.2c-0.2,0-0.2,0-0.2,0l0,0c0,0,0,0-0.2,0h-0.2h-0.2l0,0l0,0c-1.4,0.2-2.9,1-3.7,2.1
			c-0.6,0.8-1.4,1.6-1.8,2.9l0,0c-0.4,0.8-0.6,1.8-0.6,2.9l0.2,0.2v0.2c0,0,0.2,0.2,0,0.2v0.2c0.2,0.2,0.2,0.4,0.2,0.4l0.2,0.2
			c0,0,0,0.2,0.2,0.2l0.2,0.2c0,0.2,0,0.4,0.2,0.8l0.2,0.2c0,0,0,0,0,0.2l0,0l0,0v0.2l0.2,0.2c0,0,0,0,0,0.2s0.2,0.2,0.2,0.4
			l0.2,0.2l0,0c0,0.2,0.2,0.2,0.2,0.4l0.2,0.2l0.2,0.2l0,0l0.2,0.2c0,0,0,0.2,0.2,0.2l0.2,0.2l0,0l0,0l0.2,0.2c0,0,0.2,0,0.2,0.2
			c0,0,0.2,0,0.4,0.2c0,0,0,0,0,0.2c0,0,0,0,0.2,0l0,0l0,0c0.2,0.6,0.2,1.6-0.2,2.9c0,0.2-0.2,0.4-0.2,0.6l0,0l0,0l0,0l0,0v0.2l0,0
			c0,0,0,0.2-0.2,0.4c0.2-0.2,0.4-0.2,0.4-0.2l0,0l0,0c0,0,0.2,0,0.2,0.2c-0.6,0.4-0.8,0.6-0.6,0.8l-0.2,0.2l-0.2,0.2l0,0h-0.2
			l-0.2,0.2c0,0,0,0-0.2,0c0,0,0,0-0.2,0l-0.2,0.2l-0.2,0.2l0,0v-0.2v-0.2c-0.2,0.2-0.4,0.4-0.4,0.4l0,0l0,0h-0.2
			c0.2-0.2,0.4-0.4,0.6-0.6c0,0,0,0,0-0.2v-0.2v-0.2l0.2-0.2l0,0h0.2l0.2-0.2c0,0,0,0,0-0.2s-0.2-0.2,0-0.4l0,0
			c-0.8,0.4-1.8,0.8-2.7,1.2c-0.2,0-0.2,0.2-0.4,0.2c-0.4,0.2-0.6,0.4-0.8,0.6c-0.2,0.2-0.4,0.6-0.4,0.8s0,0.2,0.2,0.4
			s0.2,0.2,0.4,0.4c0,0,0.2,0,0.2,0.2l0,0l0,0l0,0h0.2c0.2,0,0.2,0,0.4,0l0,0c0,0,0,0,0.2,0c0,0,0,0,0.2,0h0.2c0,0,0,0,0.2,0h0.2
			l0,0l0,0h0.2h0.2h0.2h0.2h0.2h0.2c0.2,0,0.2,0,0.4,0h0.2l0,0c0.2-0.2,0.4-0.2,0.6-0.4h-0.2c0,0,0,0,0.2,0c0.8-0.4,1.6-1,2.3-1.8
			l0.2-0.2c0-0.2,0.2-0.2,0.2-0.4c0.4,0,1-0.2,1.4-0.2l0,0c0.2,0,0.4,0,0.4-0.2l0,0h0.2c0.2,0,0.4,0,0.6,0c0.4,0,0.8-0.2,1.2-0.4
			l0,0l0,0c0-0.2,0-0.4,0.2-0.6C-102.3,451.2-102.3,451.2-102.1,451C-102.3,451-102.3,451-102.1,451C-102.3,451-102.1,451-102.1,451
			z M-107.2,453.3c-0.2,0.2-0.4,0.2-0.4,0C-107.6,453.3-107.4,453.3-107.2,453.3C-107,453.1-107,453.1-107.2,453.3
			C-107,453.3-107,453.3-107.2,453.3z"/>
		<g id="XMLID_3448_">
			<path id="XMLID_3453_" class="st0" d="M-51.5,437.1L-51.5,437.1L-51.5,437.1L-51.5,437.1z"/>
			<path id="XMLID_3449_" class="st0" d="M-48.3,435.2c-0.4-0.2-1,0.2-2.1,0.6c0,0-0.4,0-0.6,0.2c0,0-0.2,0.2-0.4,0.4l-0.2,0.2l0,0
				l0,0l0,0c0,0,0,0.2,0.2,0.4l0,0c0,0-0.2,0-0.2,0.2l0,0l0,0c0,0,0,0-0.2,0.2l0,0l0,0l0,0l0,0l0,0c0,0,0,0-0.2,0l0,0v0.2
				c0,0.2,0,0.2,0,0.2c0,0.2-0.2,0.4-0.2,0.6l0,0c0,0.2,0,0.4,0,0.8c0,0.4,0,1,0,1.2c0,0.4,0,0.6,0,0.8s0,0.4,0,0.4c0,0.2,0,0.6,0,1
				s0,1,0,1.8c0,0.4,0,0.8,0,1l0,0l0,0l0,0l0,0l0,0l0,0l0,0l0,0l0,0l0,0l0,0c0,0,0,0,0,0.2l0,0v0.2l0,0l0,0l0,0l0,0l0,0l0,0l0,0l0,0
				l0,0l0,0l0,0l0,0l0,0v0.2c0,0.2,0,0.4-0.2,0.6l-0.4,0.2v0.2v0.8c0,0.2,0,0.6,0,0.8c0,0.4,0,0.6,0,0.8s0.2,0.4,0.2,0.6v0.2
				c0,0,0,0,0,0.2c-0.2,0.8-0.2,1.4-0.2,2.1l0,0c0,0.2,0,0.6,0.4,0.8c0.4,0.2,0.4,0,0.6-0.2l0.2,0.2l0.2,0.2v-0.2l0,0
				c0.2,0.2,0.4,0.6,0.4,0.8l0,0l0,0l0,0c0,0,0,0.2,0.2,0.2l0,0l0,0l0,0h0.2h0.2c0.2,0,0.2,0,0.2,0s0,0,0.2-0.2
				c0-0.2,0.2-0.2,0.2-0.2s0-0.2,0-0.4s0-0.2,0-0.4s0-0.4,0-0.6c-0.2-1-0.2-1.6,0-1.8c0.2-0.4,0.2-0.8,0-1.2c0-0.2,0-0.2,0-0.2v-0.8
				v-0.2c0,0,0.2-0.2,0-0.6l0,0c0-0.2,0-0.4,0.2-0.6c0.2-0.6,0.2-1.2,0.4-2.3c0.2-1,0.4-2.3,0.6-3.9
				C-47.8,438.7-47.2,435.4-48.3,435.2z M-51.9,447.1c0-0.2,0-0.4,0-0.4c0-1.2,0-2.5,0-3.7c0,0.4,0,0.8,0,1.2c0,0,0,0,0,0.2v0.2v0.2
				v0.2c0,0.4,0,0.6,0,0.6v0.2C-51.9,446.3-51.9,446.7-51.9,447.1C-51.7,446.9-51.7,446.9-51.9,447.1
				C-51.9,446.9-51.9,446.9-51.9,447.1c0.2,0,0.2,0.2,0.2,0.6c0,0.2,0,0.4,0,0.8v0.4l0,0l0,0l0,0l0,0l0,0l0,0c0-0.2,0-0.6,0-0.8
				C-51.9,448-51.9,447.5-51.9,447.1z M-52.2,446.5L-52.2,446.5c0,0.2,0,0.2,0,0.4C-52.2,446.7-52.2,446.5-52.2,446.5z"/>
		</g>
		<path id="XMLID_3447_" class="st0" d="M-87.7,442.6c0-0.2,0.2-0.4,0.2-0.4c0.4-0.8,1-4.7,1.2-5.7c0,0,0-0.2,0-0.4
			c-0.2-0.2-0.4,0-0.8-0.2c-0.2-0.2-0.4-0.4-0.4-0.4c-0.2,0-0.2,0.2-0.2,0.2c-0.2,0-0.2,0-0.4,0c-0.2,0-0.4,0.2-1,1
			c-0.4,0.4-0.4,0.4-0.4,0.6c-0.2,0.4-0.2,1-0.4,1c-0.2,2.9-1,10.7-4.1,11.9c-0.2,0-0.6,0.2-1.2,0.2c-1.6-0.4-2.3-2.7-2.7-4.3
			c-0.4-2.7-0.2-5.3,0.6-7.8c0.2-0.6,0.4-1.2,0.6-1.8v-0.2c0-0.8-2.9-0.4-3.1,0.6c-0.2,0.8-0.6,1.8-0.8,2.9l0,0
			c-0.2,0.4-0.2,0.6-0.2,0.6s0,0,0,0.2s0,0.2,0,0.4l-0.2,0.2c0,0,0,0.2,0,0.4c-0.6,4.9,0,10.9,5.5,11.1c2.1,0,3.3-0.4,4.3-1.4
			c0,0.2,0,0.4,0,0.4c0.2,0.2,0.4,0.4,0.6,0.4c0,0.2,0,0.4,0,0.6c0.2,0.2,0.4,0.4,0.4,0.6c-0.2,0-0.2-0.2-0.4-0.2l0,0
			c0.4,0.8,3.1,0,3.1-1v-0.2c-0.4-0.8-0.6-1.8-0.6-2.5c0-0.4,0-0.8,0-1.2c0,0,0.2-0.4,0.2-0.6c0-0.2,0-0.2,0-0.4
			c0-0.6,0.2-0.6,0.2-1.6c0-0.4,0-0.4,0-0.6c0-0.2-0.2-0.4,0-0.4c0-0.2,0.4-0.2,0.4-0.4s-0.2-0.2-0.2-0.4s-0.2-0.4-0.2-0.6
			C-87.7,442.8-87.7,442.8-87.7,442.6C-87.9,442.8-87.9,442.6-87.7,442.6z"/>
		<path id="XMLID_3444_" class="st0" d="M-71.7,451C-71.7,450.8-71.7,450.8-71.7,451L-71.7,451c-0.2-0.2-0.2-0.2-0.4-0.2h-0.2l0,0
			c0,0,0,0-0.2,0h-0.2h-0.2l0,0h-0.2c0,0,0,0-0.2,0l0,0l0,0h-0.2c-0.2,0-0.4,0-0.4,0l0,0l0,0l0,0l0,0l0,0c0,0-0.2,0-0.4,0
			c-0.2,0-0.2,0-0.4,0l0,0l0,0l0,0l0,0h-0.2l0,0l0,0c0.4-1,0.6-2.1,0.6-2.9c0-2.1-0.8-2.7-2.3-3.7c-2.1-1.4-2.7-2.7-2.1-5.3
			c0.2-0.8,0.6-1.6,1-2.3c0.2-0.2,0.8-0.8,1.6-0.8c1.4,0,0.8,0.8,0,1.4l0,0l-1.2,0.4l0,0l0,0v0.2l0,0l0,0c0,0,0,0,0,0.2s0,0.2,0,0.2
			l-0.2,0.2c0,0,0,0-0.2,0l0,0c0.2,0,0.4,0.2,0.8,0.2h0.2c0.2,0,0.2,0,0.4,0h0.2l0,0l0,0c0.2,0,0.4-0.2,0.6-0.2s0.4-0.2,0.6-0.4
			c0.6-0.4,1.4-1,2.3-1.4l0.2-0.2l0,0c0,0,0,0,0.2-0.2c0.4-0.4,0.6-0.8,0.6-1l-0.4-0.8c-0.2-0.2-0.6-0.4-1.2-0.6h-0.2h-0.2h-0.2
			c0,0-0.2,0-0.4,0h-0.2h-0.2c0,0,0,0-0.2,0h-0.2c-0.2,0-0.2,0-0.2,0l0,0c0,0,0,0-0.2,0h-0.2h-0.2l0,0l0,0c-1.4,0.2-2.9,1-3.7,2.1
			c-0.6,0.8-1.4,1.6-1.8,2.9l0,0c-0.4,0.8-0.6,1.8-0.6,2.9l0.2,0.2v0.2c0,0,0.2,0.2,0,0.2v0.2c0.2,0.2,0.2,0.4,0.2,0.4l0.2,0.2
			c0,0,0,0.2,0.2,0.2l0.2,0.2c0,0.2,0,0.4,0.2,0.8l0.2,0.2c0,0,0,0,0,0.2l0,0l0,0v0.2l0.2,0.2c0,0,0,0,0,0.2s0.2,0.2,0.2,0.4
			l0.2,0.2l0,0c0,0.2,0.2,0.2,0.2,0.4l0.2,0.2l0.2,0.2l0,0l0.2,0.2c0,0,0,0.2,0.2,0.2l0.2,0.2l0,0l0,0l0.2,0.2c0,0,0.2,0,0.2,0.2
			c0,0,0.2,0,0.4,0.2c0,0,0,0,0,0.2c0,0,0,0,0.2,0l0,0l0,0c0.2,0.6,0.2,1.6-0.2,2.9c0,0.2-0.2,0.4-0.2,0.6l0,0l0,0l0,0l0,0v0.2l0,0
			c0,0,0,0.2-0.2,0.4c0.2-0.2,0.4-0.2,0.4-0.2l0,0l0,0c0,0,0.2,0,0.2,0.2c-0.6,0.4-0.8,0.6-0.6,0.8l-0.2,0.2l-0.2,0.2l0,0h-0.2
			l-0.2,0.2c0,0,0,0-0.2,0c0,0,0,0-0.2,0l-0.2,0.2l-0.2,0.2l0,0v-0.2v-0.2c-0.2,0.2-0.4,0.4-0.4,0.4l0,0l0,0h-0.2
			c0.2-0.2,0.4-0.4,0.6-0.6c0,0,0,0,0-0.2v-0.2v-0.2l0.2-0.2l0,0h0.2l0.2-0.2c0,0,0,0,0-0.2s-0.2-0.2,0-0.4l0,0
			c-0.8,0.4-1.8,0.8-2.7,1.2c-0.2,0-0.2,0.2-0.4,0.2c-0.4,0.2-0.6,0.4-0.8,0.6c-0.2,0.2-0.4,0.6-0.4,0.8s0,0.2,0.2,0.4
			s0.2,0.2,0.4,0.4c0.2,0.2,0.4,0.2,0.6,0.2l0,0c1,0.6,2.9,0.2,3.7-0.2c0.8-0.4,1.6-1,2.3-1.8l0.2-0.2c0-0.2,0.2-0.2,0.2-0.4
			c0.4,0,1-0.2,1.4-0.2l0,0c0.2,0,0.4,0,0.4-0.2l0,0h0.2c0.2,0,0.4,0,0.6,0c0.4,0,0.8-0.2,1.2-0.4l0,0l0,0c0-0.2,0-0.4,0.2-0.6
			C-71.9,451.2-71.9,451.2-71.7,451C-71.7,451-71.9,451-71.7,451L-71.7,451z M-76.8,453.3c-0.2,0.2-0.4,0.2-0.4,0
			C-77.2,453.3-77,453.3-76.8,453.3C-76.6,453.1-76.6,453.1-76.8,453.3C-76.6,453.3-76.6,453.3-76.8,453.3z"/>
		<path id="XMLID_3443_" class="st0" d="M-55.4,436.7c-0.2-0.2-0.4-0.4-0.4-0.8l0,0c0-0.2,0-0.4,0-0.4l0,0l0,0l0,0h-0.2
			c0,0-0.2,0-0.2-0.2h-0.2h-0.2h-0.6c0,0-0.2,0-0.4,0h-0.2l0,0v0.2l0,0v0.2v0.2c0,0,0,0,0,0.2l0,0c-0.2,0.4-0.2,0.8-0.2,1.2l0,0
			c0,0,0,0.2-0.2,0.2c0,0.2-0.2,0.2-0.2,0.4c0,0-0.2,0.2-0.2,0.4s0.2,0.2,0.2,0.2l0,0c0,0,0,0,0,0.2v0.2l0,0l0,0
			c0,0.4-0.2,0.6-0.2,1.2c0,0.2,0,0.4-0.2,0.6v0.2c0,0.2-0.2,0.8-0.4,1.8c0,0.2,0,0.4-0.2,1c0,0.2,0,0.4,0,0.6l0,0l0,0l0,0l0,0h-0.2
			H-60l0,0c0.2-0.2,0-0.2-0.2-0.2v0.2c-0.2,0-0.2,0-0.2,0s0,0-0.2,0h-0.2H-61h-0.2h-0.2c-0.2,0-0.4,0-0.6,0s-0.4,0-0.6,0
			s-0.4,0-0.6,0h-0.8h-0.2h-0.2c-0.4,0-0.8,0.2-1.4,0.2h-0.2c0-0.4,0-0.8,0-1.4c0-0.2,0-0.4,0-0.6l0,0l0,0c0-0.2,0-0.4,0-0.4V441v-1
			c0-0.6,0-0.8,0-0.8V436v-0.2c0,0,0,0,0-0.2l0,0l0,0l0,0l0,0l0,0c0,0-0.2,0-0.2-0.2c0,0,0,0-0.2,0c-0.2,0-0.2,0-0.4,0h-0.2h-0.2
			h-0.2l0,0l0,0l0,0h-0.2H-68c-0.2,0-0.4,0.2-0.6,0.4s-0.4,0.4-0.4,0.4l0,0c0,0.4-0.2,0.6-0.2,0.6s0,0.2,0,0.4c0,0,0,0.2,0,0.4v0.2
			l0,0c0,0.2,0,0.2,0,0.2c0,0.2,0,0.4,0,0.6v2.3c0,0,0,0.2,0,0.4c0,0.4,0,0.6,0,0.6s0,0,0,0.2v0.2c0,0,0,0,0,0.2c0,0,0,0.2,0,0.4
			s0,0.4,0,0.4v1.2c0,0.4,0,0.6,0,0.8s0,0.4,0,0.4s0,0.2,0,0.6c0,0,0,0.2,0,0.4c0,0,0,0,0,0.2s0,0.2,0,0.4s0,0.2,0,0.4
			c0,0,0,0.2,0.2,0.4l0,0c0,0.2,0,0.4,0,0.4l0,0l0,0c0,0,0,0,0,0.2v0.2c0.2,0.2,0.2,0.4,0.2,0.6v3.1v0.2l0,0c0,0.2,0,0.2,0,0.4v0.2
			c0,0.2,0,0.2,0,0.2v0.4c0,0,0,0,0,0.2v0.2l0,0l0,0l0,0l0,0l0,0v0.2v0.2l0,0l0,0v0.2l0,0l0,0l0,0v0.2v0.2c0,0,0,0,0,0.2l0,0h0.2
			c0,0,0,0,0.2,0.2v0.2l0,0l0,0l0,0h0.2h0.2c0,0,0.2,0,0.2-0.2h0.2l0,0c0,0,0,0,0.2-0.2l0.2-0.2c0,0,0.2-0.2,0.2-0.4
			c0,0,0-0.2,0.2-0.4c0,0,0,0,0-0.2v-0.2v-0.2c0,0,0-0.2,0.2-0.4c0-0.2,0-0.2,0-0.4c0,0,0,0,0-0.2v-0.2c0-0.2,0-0.2,0-0.4v-0.2
			c0-0.2,0-0.2,0-0.4s0-0.8,0-1.2c0-0.2,0-0.2,0-0.4v-0.2v-2.7c0,0,0,0,0.2,0l0,0c0.2,0,0.2,0,0.2,0h0.2l0.2-0.2c0,0,0,0,0-0.2
			c0.2,0,0.4-0.2,0.6-0.2h0.2h0.2h0.2h0.2c0.2,0,0.2,0,0.4,0h0.8c0.2,0,0.4,0,0.4,0c0.2,0,0.2,0,0.4,0h0.4c0.2,0,0.2,0,0.2,0h0.2
			h0.2h0.2h0.2l0,0h0.2l0.2-0.2c0,0,0,0,0.2,0l0,0l0,0c0,0.4,0,0.6-0.2,0.8c0,0,0,0.2,0,0.4v0.6c0,0.2,0,0.8-0.2,1.2v0.8
			c0,0,0.2,0.2,0.2,0.4v0.2v0.6v0.6c0,0,0,0.2-0.2,0.2v1.4v0.2c0,0,0,0.2,0,0.4s0.2,0.4,0.2,0.8c0,0.2,0,0.4,0,0.6
			c0-0.2,0.2-0.2,0.2-0.4c0,0.2,0,0.4,0.2,0.4l0,0l0,0l0,0v0.2l0,0c0,0,0,0,0,0.2s0.2,0.2,0.2,0.2l0,0c0,0,0,0,0,0.2
			c0,0,0,0.2,0.2,0.2c0.2,0.2,0.2,0.2,0.4,0.2h0.2c0.2,0,0.2,0,0.2,0h0.2l0,0l0,0h0.2c0.2,0,0.2,0,0.2-0.2l0,0l0,0c0,0,0,0,0.2,0
			l0,0l0,0l0,0l0,0V457v-0.2c0,0,0-0.2,0-0.6c0-0.2,0-0.4,0-0.6c0-0.2,0-0.8,0-1.4v-0.2v-0.4v-0.6v-1.2v-0.2c0-0.2,0-0.2,0-0.4v-0.2
			l0,0l0,0l0,0v-0.2c0,0,0,0,0-0.2l0,0l0,0v-0.2v-0.4c0-0.2,0-0.4,0-0.6V449l0,0v-0.4c0,0,0,0,0-0.2l0,0l0,0c0,0,0.2-0.4,0.2-1.2
			v-0.2l0,0v-0.4l0,0v-0.4v-0.2c0,0,0,0,0-0.2c0,0,0,0,0-0.2c0,0,0,0,0-0.2l0,0l0,0l0,0c0,0,0,0,0-0.2v-0.2c0-0.2,0-0.2,0-0.2v-0.4
			v-0.4l0,0l0,0v-0.2l0,0l0,0v-0.2L-55.4,436.7L-55.4,436.7z"/>
		<path id="XMLID_3442_" class="st0" d="M-58.1,437.9v-0.2C-58.3,437.7-58.3,437.7-58.1,437.9C-58.3,437.7-58.3,437.7-58.1,437.9
			C-58.3,437.9-58.3,437.9-58.1,437.9L-58.1,437.9z"/>
		<path id="XMLID_3441_" class="st0" d="M-58.1,439.7L-58.1,439.7L-58.1,439.7L-58.1,439.7z"/>
	</g>
	<path id="XMLID_3431_" class="st0" d="M-195.1,381c0.4,0,1,1,1,1.2c0.6,1.2,0.4,2.3,0.4,2.9c-0.6,4.5-1.2,6.6-1.2,6.6
		c-1.6,5.5-1.4,5.1-1.6,5.5c-1.8,5.5-4.5,11.1-6,14.6c-3.5,7.6-6,13.3-7,20.5c-0.6,4.5-1,8.4,1,11.3c0.8,1.2,2.5,2.5,2.1,3.7
		c-0.4,1-2.1,1.2-3.1,1.4c-1.6,0.2-2.9,0.2-3.7,0c-0.8-0.2-2.9-0.8-4.3-2.5c-0.8-1-1.4-2.1-1.6-3.9c-0.8-4.5,0.8-8.6,1.2-10.1
		c4.1-10.5,6.2-14.4,6.2-14.4c2.5-4.7,9.9-18.9,12.9-25.7c1.2-2.9,2.1-4.3,2.5-6.4C-195.9,383.5-195.9,381.2-195.1,381z"/>
</g>
</svg>
