<?xml version="1.0" encoding="utf-8"?>
<!-- Generator: Adobe Illustrator 19.0.0, SVG Export Plug-In . SVG Version: 6.00 Build 0)  -->
<svg version="1.1" id="Layer_1" xmlns="http://www.w3.org/2000/svg" xmlns:xlink="http://www.w3.org/1999/xlink" x="0px" y="0px"
	 viewBox="-239 364 131.3 65" style="enable-background:new -239 364 131.3 65;" xml:space="preserve">
<style type="text/css">
	.st0{fill:#EB2026;}
	.st1{fill:#111111;}
	.st2{fill:none;}
</style>
<path id="XMLID_3465_" class="st0" d="M-157.2,385.5c-0.3,1.2-1.6,1.6-2.6,1.2c-0.7-0.2-1.3-0.7-1.9-1.2c-0.2-0.2-0.5-0.4-0.7-0.6
	c-3.3-3.2-5.7-7.1-7.6-11.6c-0.1-0.1-0.1-0.3-0.2-0.4c-0.5-1.1-1-2.4-1-3.5c0-0.4,0.2-0.8,0.4-1.1c0.9-1.1,2.4-1.1,3.7-1.3
	c0.3-0.1,0.7-0.1,1-0.1c0.5,0,0.9,0.1,1.4,0.7c0.2,0.2,0.4,0.5,0.5,0.8c0.1,0.5,0.2,1,0.2,1.5s0.1,0.9,0.1,1.4
	c0.2,1,0.4,2.1,0.8,3.1c0.7,2.1,1.6,4.2,2.6,6.1c0.5,1,1.1,1.9,1.7,2.8c0.1,0.2,0.5,0.6,0.8,1C-157.5,384.7-157.1,385.3-157.2,385.5
	z"/>
<path id="XMLID_3464_" class="st0" d="M-161.4,387c0,0.2-0.3,0.4-0.4,0.5c-0.3,0.3-0.7,0.4-1.1,0.5c-0.8,0.2-1.7,0.1-2.5-0.2
	c-1-0.3-2.1-0.8-3.1-1.4c-0.4-0.3-0.8-0.6-1.2-1c-1.1-1.1-2.3-2.8-4.3-5.4c0,0-0.5-0.6-1.6-2.6l0,0c-0.3-0.6-0.7-1.3-1.1-2.1
	c-0.1-0.3-0.3-0.6-0.4-0.9c-0.2-0.5-0.4-1.1-0.3-1.7c0.1-0.5,0.3-0.8,0.6-1.2c0.6-0.9,1.4-1.2,2-1.4c0.7-0.3,1-0.4,1.4-0.3
	c0.3,0.1,0.5,0.3,0.7,0.6c0.6,0.7,0.8,1.8,0.9,1.9c0.1,0.3,0.3,0.7,0.5,1.1c0.4,0.8,0.9,1.8,1.4,2.8c0.6,1.1,1.3,2.5,2.5,4.2
	c0.8,1.2,1.5,2,2.9,3.7c0.2,0.2,0.4,0.5,0.6,0.7c0.4,0.4,0.7,0.8,1.2,1c0.1,0,0.4,0.2,0.9,0.5C-161.6,386.6-161.4,386.7-161.4,387z"
	/>
<path id="XMLID_3463_" class="st0" d="M-168.4,388.3c-1.2,0.2-2.5,0.3-3.8,0.1c-2-0.3-3.9-2.3-5.5-4c-0.2-0.2-0.4-0.4-0.5-0.6
	c-0.6-0.6-1.3-1.3-2-2.1c-0.7-0.9-1.3-1.8-1.5-2.9c0-0.2-0.1-0.5-0.1-0.7c0-0.7,0.3-1.2,0.6-1.6c0.5-0.8,1.1-1.6,1.9-1.7
	c0.6-0.1,1,0.2,1.4,0.7c0.3,0.3,0.5,0.7,0.7,1.2c0.2,0.6,0.5,1.2,0.6,1.6c0,0.1,0.1,0.2,0.1,0.3c0.8,1.9,1.8,3.6,3,5.1
	c0.5,0.7,1.1,1.2,1.7,1.8C-170.8,386.4-169.5,387.2-168.4,388.3z"/>
<g id="XMLID_3440_">
	<path id="XMLID_3458_" class="st0" d="M-165,417.4L-165,417.4c-0.1,0.4-0.2,0.7-0.3,1c-0.1,0-0.1,0-0.2-0.1
		c0.2-0.1,0.2-0.2,0.2-0.3c0-0.1-0.1-0.1,0-0.2c0,0,0,0,0.1-0.1C-165.2,417.7-165,417.6-165,417.4L-165,417.4z"/>
	<path id="XMLID_3457_" class="st0" d="M-143.2,421.5c0,0.2,0,0.4,0,0.6l0,0l0,0l0,0l0,0l0,0l0,0c0,0,0,0,0-0.1c0,0,0,0,0-0.1v-0.1
		l0,0l0,0l0,0l0,0l0,0l0,0V421.5C-143.1,421.6-143.1,421.6-143.2,421.5C-143.1,421.6-143.1,421.6-143.2,421.5L-143.2,421.5
		C-143.1,421.5-143.1,421.5-143.2,421.5C-143.1,421.5-143.1,421.5-143.2,421.5L-143.2,421.5C-143.1,421.4-143.1,421.4-143.2,421.5
		l0.1-0.2l0,0v-0.1l0,0l0,0l0,0l0,0l0,0l0,0l0,0l0,0l0,0l0,0l0,0l0,0l0,0c0,0,0,0-0.1,0c0,0.1,0.1,0.1,0.1,0.2s0,0.1,0,0.2
		C-143.1,421.4-143.2,421.5-143.2,421.5z"/>
	<path id="XMLID_3454_" class="st0" d="M-167.5,424.5C-167.5,424.4-167.5,424.4-167.5,424.5L-167.5,424.5c-0.1-0.1-0.1-0.1-0.2-0.1
		h-0.1l0,0c0,0,0,0-0.1,0h-0.1h0.1l0,0h-0.1c0,0,0,0-0.1,0l0,0l0,0h-0.1c-0.1,0-0.2,0-0.2,0l0,0l0,0l0,0l0,0l0,0c0,0-0.1,0-0.2,0
		c-0.1,0-0.1,0-0.2,0l0,0l0,0l0,0l0,0h-0.1l0,0l0,0c0.2-0.5,0.3-1,0.3-1.4c0-1-0.4-1.3-1.1-1.8c-1-0.7-1.3-1.3-1-2.6
		c0.1-0.4,0.3-0.8,0.5-1.1c0.1-0.1,0.4-0.4,0.8-0.4c0.7,0,0.4,0.4,0,0.7l0,0l-0.6,0.2l0,0l0,0v0.1l0,0l0,0c0,0,0,0,0,0.1
		s0,0.1,0,0.1l-0.1,0.1c0,0,0,0-0.1,0l0,0c0.1,0,0.2,0.1,0.4,0.1h0.1c0.1,0,0.1,0,0.2,0h0.1l0,0l0,0c0.1,0,0.2-0.1,0.3-0.1
		s0.2-0.1,0.3-0.2c0.3-0.2,0.7-0.5,1.1-0.7l0.1-0.1l0,0c0,0,0,0,0.1-0.1c0.2-0.2,0.3-0.4,0.3-0.5l-0.2-0.4c-0.1-0.1-0.3-0.2-0.6-0.3
		h-0.1h-0.1h-0.1c0,0-0.1,0-0.2,0h-0.1h-0.1c0,0,0,0-0.1,0h-0.1c-0.1,0-0.1,0-0.1,0l0,0c0,0,0,0-0.1,0h-0.1h-0.1l0,0l0,0
		c-0.7,0.1-1.4,0.5-1.8,1c-0.3,0.4-0.7,0.8-0.9,1.4l0,0c-0.2,0.4-0.3,0.9-0.3,1.4l0.1,0.1v0.1c0,0,0.1,0.1,0,0.1v0.1
		c0.1,0.1,0.1,0.2,0.1,0.2l0.1,0.1c0,0,0,0.1,0.1,0.1l0.1,0.1c0,0.1,0,0.2,0.1,0.4l0.1,0.1c0,0,0,0,0,0.1l0,0l0,0v0.1l0.1,0.1
		c0,0,0,0,0,0.1s0.1,0.1,0.1,0.2l0.1,0.1l0,0c0,0.1,0.1,0.1,0.1,0.2l0.1,0.1l0.1,0.1l0,0l0.1,0.1c0,0,0,0.1,0.1,0.1l0.1,0.1l0,0l0,0
		l0.1,0.1c0,0,0.1,0,0.1,0.1c0,0,0.1,0,0.2,0.1c0,0,0,0,0,0.1c0,0,0,0,0.1,0l0,0l0,0c0.1,0.3,0.1,0.8-0.1,1.4c0,0.1-0.1,0.2-0.1,0.3
		l0,0l0,0l0,0l0,0v0.1l0,0c0,0,0,0.1-0.1,0.2c0.1-0.1,0.2-0.1,0.2-0.1l0,0l0,0c0,0,0.1,0,0.1,0.1c-0.3,0.2-0.4,0.3-0.3,0.4l-0.1,0.1
		l-0.1,0.1l0,0h-0.1l-0.1,0.1c0,0,0,0-0.1,0c0,0,0,0-0.1,0l-0.1,0.1l-0.1,0.1l0,0v-0.1v-0.1c-0.1,0.1-0.2,0.2-0.2,0.2l0,0l0,0h-0.1
		c0.1-0.1,0.2-0.2,0.3-0.3c0,0,0,0,0-0.1v-0.1v-0.1l0.1-0.1l0,0h0.1l0.1-0.1c0,0,0,0,0-0.1s-0.1-0.1,0-0.2l0,0
		c-0.4,0.2-0.9,0.4-1.3,0.6c-0.1,0-0.1,0.1-0.2,0.1c-0.2,0.1-0.3,0.2-0.4,0.3c-0.1,0.1-0.2,0.3-0.2,0.4s0,0.1,0.1,0.2
		s0.1,0.1,0.2,0.2c0,0,0.1,0,0.1,0.1l0,0l0,0l0,0h0.1c0.1,0,0.1,0,0.2,0l0,0c0,0,0,0,0.1,0c0,0,0,0,0.1,0h0.1c0,0,0,0,0.1,0h0.1l0,0
		l0,0h0.1h0.1h0.1h0.1h0.1h0.1c0.1,0,0.1,0,0.2,0h0.1l0,0c0.1-0.1,0.2-0.1,0.3-0.2h-0.1c0,0,0,0,0.1,0c0.4-0.2,0.8-0.5,1.1-0.9
		l0.1-0.1c0-0.1,0.1-0.1,0.1-0.2c0.2,0,0.5-0.1,0.7-0.1l0,0c0.1,0,0.2,0,0.2-0.1l0,0h0.1c0.1,0,0.2,0,0.3,0c0.2,0,0.4-0.1,0.6-0.2
		l0,0l0,0c0-0.1,0-0.2,0.1-0.3C-167.6,424.6-167.6,424.6-167.5,424.5C-167.6,424.5-167.6,424.5-167.5,424.5
		C-167.6,424.5-167.5,424.5-167.5,424.5z M-170,425.6c-0.1,0.1-0.2,0.1-0.2,0C-170.2,425.6-170.1,425.6-170,425.6
		C-169.9,425.5-169.9,425.5-170,425.6C-169.9,425.6-169.9,425.6-170,425.6z"/>
	<g id="XMLID_3448_">
		<path id="XMLID_3453_" class="st0" d="M-142.9,417.7L-142.9,417.7L-142.9,417.7L-142.9,417.7z"/>
		<path id="XMLID_3449_" class="st0" d="M-141.3,416.8c-0.2-0.1-0.5,0.1-1,0.3c0,0-0.2,0-0.3,0.1c0,0-0.1,0.1-0.2,0.2l-0.1,0.1l0,0
			l0,0l0,0c0,0,0,0.1,0.1,0.2l0,0c0,0-0.1,0-0.1,0.1l0,0l0,0c0,0,0,0-0.1,0.1l0,0l0,0l0,0l0,0l0,0c0,0,0,0-0.1,0l0,0v0.1
			c0,0.1,0,0.1,0,0.1c0,0.1-0.1,0.2-0.1,0.3l0,0c0,0.1,0,0.2,0,0.4c0,0.2,0,0.5,0,0.6c0,0.2,0,0.3,0,0.4s0,0.2,0,0.2
			c0,0.1,0,0.3,0,0.5s0,0.5,0,0.9c0,0.2,0,0.4,0,0.5l0,0l0,0l0,0l0,0l0,0l0,0l0,0l0,0l0,0l0,0l0,0c0,0,0,0,0,0.1l0,0v0.1l0,0l0,0
			l0,0l0,0l0,0l0,0l0,0l0,0l0,0l0,0l0,0l0,0l0,0v0.1c0,0.1,0,0.2-0.1,0.3l-0.2,0.1v0.1v0.4c0,0.1,0,0.3,0,0.4c0,0.2,0,0.3,0,0.4
			s0.1,0.2,0.1,0.3v0.1c0,0,0,0,0,0.1c-0.1,0.4-0.1,0.7-0.1,1l0,0c0,0.1,0,0.3,0.2,0.4s0.2,0,0.3-0.1l0.1,0.1l0.1,0.1v-0.1l0,0
			c0.1,0.1,0.2,0.3,0.2,0.4l0,0l0,0l0,0c0,0,0,0.1,0.1,0.1l0,0l0,0l0,0h0.1h0.1c0.1,0,0.1,0,0.1,0s0,0,0.1-0.1
			c0-0.1,0.1-0.1,0.1-0.1s0-0.1,0-0.2s0-0.1,0-0.2s0-0.2,0-0.3c-0.1-0.5-0.1-0.8,0-0.9c0.1-0.2,0.1-0.4,0-0.6c0-0.1,0-0.1,0-0.1
			v-0.4v-0.1c0,0,0.1-0.1,0-0.3l0,0c0-0.1,0-0.2,0.1-0.3c0.1-0.3,0.1-0.6,0.2-1.1c0.1-0.5,0.2-1.1,0.3-1.9
			C-141.1,418.5-140.8,416.9-141.3,416.8z M-143.1,422.6c0-0.1,0-0.2,0-0.2c0-0.6,0-1.2,0-1.8c0,0.2,0,0.4,0,0.6c0,0,0,0,0,0.1v0.1
			v0.1v0.1c0,0.2,0,0.3,0,0.3v0.1C-143.1,422.2-143.1,422.4-143.1,422.6C-143,422.5-143,422.5-143.1,422.6
			C-143.1,422.5-143.1,422.5-143.1,422.6c0.1,0,0.1,0.1,0.1,0.3c0,0.1,0,0.2,0,0.4v0.2l0,0l0,0l0,0l0,0l0,0l0,0c0-0.1,0-0.3,0-0.4
			C-143.1,423-143.1,422.8-143.1,422.6z M-143.2,422.3L-143.2,422.3c0,0.1,0,0.1,0,0.2C-143.2,422.4-143.2,422.3-143.2,422.3z"/>
	</g>
	<path id="XMLID_3447_" class="st0" d="M-160.5,420.4c0-0.1,0.1-0.2,0.1-0.2c0.2-0.4,0.5-2.3,0.6-2.8c0,0,0-0.1,0-0.2
		c-0.1-0.1-0.2,0-0.4-0.1c-0.1-0.1-0.2-0.2-0.2-0.2c-0.1,0-0.1,0.1-0.1,0.1c-0.1,0-0.1,0-0.2,0c-0.1,0-0.2,0.1-0.5,0.5
		c-0.2,0.2-0.2,0.2-0.2,0.3c-0.1,0.2-0.1,0.5-0.2,0.5c-0.1,1.4-0.5,5.2-2,5.8c-0.1,0-0.3,0.1-0.6,0.1c-0.8-0.2-1.1-1.3-1.3-2.1
		c-0.2-1.3-0.1-2.6,0.3-3.8c0.1-0.3,0.2-0.6,0.3-0.9v-0.1c0-0.4-1.4-0.2-1.5,0.3c-0.1,0.4-0.3,0.9-0.4,1.4l0,0
		c-0.1,0.2-0.1,0.3-0.1,0.3s0,0,0,0.1s0,0.1,0,0.2l-0.1,0.1c0,0,0,0.1,0,0.2c-0.3,2.4,0,5.3,2.7,5.4c1,0,1.6-0.2,2.1-0.7
		c0,0.1,0,0.2,0,0.2c0.1,0.1,0.2,0.2,0.3,0.2c0,0.1,0,0.2,0,0.3c0.1,0.1,0.2,0.2,0.2,0.3c-0.1,0-0.1-0.1-0.2-0.1l0,0
		c0.2,0.4,1.5,0,1.5-0.5v-0.1c-0.2-0.4-0.3-0.9-0.3-1.2c0-0.2,0-0.4,0-0.6c0,0,0.1-0.2,0.1-0.3c0-0.1,0-0.1,0-0.2
		c0-0.3,0.1-0.3,0.1-0.8c0-0.2,0-0.2,0-0.3c0-0.1-0.1-0.2,0-0.2c0-0.1,0.2-0.1,0.2-0.2s-0.1-0.1-0.1-0.2s-0.1-0.2-0.1-0.3
		C-160.5,420.5-160.5,420.5-160.5,420.4C-160.6,420.5-160.6,420.4-160.5,420.4z"/>
	<path id="XMLID_3444_" class="st0" d="M-152.7,424.5C-152.7,424.4-152.7,424.4-152.7,424.5L-152.7,424.5c-0.1-0.1-0.1-0.1-0.2-0.1
		h-0.1l0,0c0,0,0,0-0.1,0h-0.1h-0.1l0,0h-0.1c0,0,0,0-0.1,0l0,0l0,0h-0.1c-0.1,0-0.2,0-0.2,0l0,0l0,0l0,0l0,0l0,0c0,0-0.1,0-0.2,0
		c-0.1,0-0.1,0-0.2,0l0,0l0,0l0,0l0,0h-0.1l0,0l0,0c0.2-0.5,0.3-1,0.3-1.4c0-1-0.4-1.3-1.1-1.8c-1-0.7-1.3-1.3-1-2.6
		c0.1-0.4,0.3-0.8,0.5-1.1c0.1-0.1,0.4-0.4,0.8-0.4c0.7,0,0.4,0.4,0,0.7l0,0l-0.6,0.2l0,0l0,0v0.1l0,0l0,0c0,0,0,0,0,0.1
		s0,0.1,0,0.1l-0.1,0.1c0,0,0,0-0.1,0l0,0c0.1,0,0.2,0.1,0.4,0.1h0.1c0.1,0,0.1,0,0.2,0h0.1l0,0l0,0c0.1,0,0.2-0.1,0.3-0.1
		s0.2-0.1,0.3-0.2c0.3-0.2,0.7-0.5,1.1-0.7l0.1-0.1l0,0c0,0,0,0,0.1-0.1c0.2-0.2,0.3-0.4,0.3-0.5l-0.2-0.4c-0.1-0.1-0.3-0.2-0.6-0.3
		h-0.1h-0.1h-0.1c0,0-0.1,0-0.2,0h-0.1h-0.1c0,0,0,0-0.1,0h-0.1c-0.1,0-0.1,0-0.1,0l0,0c0,0,0,0-0.1,0h-0.1h-0.1l0,0l0,0
		c-0.7,0.1-1.4,0.5-1.8,1c-0.3,0.4-0.7,0.8-0.9,1.4l0,0c-0.2,0.4-0.3,0.9-0.3,1.4l0.1,0.1v0.1c0,0,0.1,0.1,0,0.1v0.1
		c0.1,0.1,0.1,0.2,0.1,0.2l0.1,0.1c0,0,0,0.1,0.1,0.1l0.1,0.1c0,0.1,0,0.2,0.1,0.4l0.1,0.1c0,0,0,0,0,0.1l0,0l0,0v0.1l0.1,0.1
		c0,0,0,0,0,0.1s0.1,0.1,0.1,0.2l0.1,0.1l0,0c0,0.1,0.1,0.1,0.1,0.2l0.1,0.1l0.1,0.1l0,0l0.1,0.1c0,0,0,0.1,0.1,0.1l0.1,0.1l0,0l0,0
		l0.1,0.1c0,0,0.1,0,0.1,0.1c0,0,0.1,0,0.2,0.1c0,0,0,0,0,0.1c0,0,0,0,0.1,0l0,0l0,0c0.1,0.3,0.1,0.8-0.1,1.4c0,0.1-0.1,0.2-0.1,0.3
		l0,0l0,0l0,0l0,0v0.1l0,0c0,0,0,0.1-0.1,0.2c0.1-0.1,0.2-0.1,0.2-0.1l0,0l0,0c0,0,0.1,0,0.1,0.1c-0.3,0.2-0.4,0.3-0.3,0.4l-0.1,0.1
		l-0.1,0.1l0,0h-0.1l-0.1,0.1c0,0,0,0-0.1,0c0,0,0,0-0.1,0l-0.1,0.1l-0.1,0.1l0,0v-0.1v-0.1c-0.1,0.1-0.2,0.2-0.2,0.2l0,0l0,0h-0.1
		c0.1-0.1,0.2-0.2,0.3-0.3c0,0,0,0,0-0.1v-0.1v-0.1l0.1-0.1l0,0h0.1l0.1-0.1c0,0,0,0,0-0.1s-0.1-0.1,0-0.2l0,0
		c-0.4,0.2-0.9,0.4-1.3,0.6c-0.1,0-0.1,0.1-0.2,0.1c-0.2,0.1-0.3,0.2-0.4,0.3c-0.1,0.1-0.2,0.3-0.2,0.4s0,0.1,0.1,0.2
		s0.1,0.1,0.2,0.2c0.1,0.1,0.2,0.1,0.3,0.1l0,0c0.5,0.3,1.4,0.1,1.8-0.1c0.4-0.2,0.8-0.5,1.1-0.9l0.1-0.1c0-0.1,0.1-0.1,0.1-0.2
		c0.2,0,0.5-0.1,0.7-0.1l0,0c0.1,0,0.2,0,0.2-0.1l0,0h0.1c0.1,0,0.2,0,0.3,0c0.2,0,0.4-0.1,0.6-0.2l0,0l0,0c0-0.1,0-0.2,0.1-0.3
		C-152.8,424.6-152.8,424.6-152.7,424.5C-152.7,424.5-152.8,424.5-152.7,424.5L-152.7,424.5z M-155.2,425.6c-0.1,0.1-0.2,0.1-0.2,0
		C-155.4,425.6-155.3,425.6-155.2,425.6C-155.1,425.5-155.1,425.5-155.2,425.6C-155.1,425.6-155.1,425.6-155.2,425.6z"/>
	<path id="XMLID_3443_" class="st0" d="M-144.8,417.5c-0.1-0.1-0.2-0.2-0.2-0.4l0,0c0-0.1,0-0.2,0-0.2l0,0l0,0l0,0h-0.1
		c0,0-0.1,0-0.1-0.1h-0.1h-0.1h-0.3c0,0-0.1,0-0.2,0h-0.1l0,0v0.1l0,0v0.1v0.1c0,0,0,0,0,0.1l0,0c-0.1,0.2-0.1,0.4-0.1,0.6l0,0
		c0,0,0,0.1-0.1,0.1c0,0.1-0.1,0.1-0.1,0.2c0,0-0.1,0.1-0.1,0.2s0.1,0.1,0.1,0.1l0,0c0,0,0,0,0,0.1v0.1l0,0l0,0
		c0,0.2-0.1,0.3-0.1,0.6c0,0.1,0,0.2-0.1,0.3v0.1c0,0.1-0.1,0.4-0.2,0.9c0,0.1,0,0.2-0.1,0.5c0,0.1,0,0.2,0,0.3l0,0l0,0l0,0l0,0
		h-0.1h-0.1l0,0c0.1-0.1,0-0.1-0.1-0.1v0.1c-0.1,0-0.1,0-0.1,0s0,0-0.1,0h-0.1h-0.1h-0.1h-0.1c-0.1,0-0.2,0-0.3,0s-0.2,0-0.3,0
		s-0.2,0-0.3,0h-0.4h-0.1h-0.1c-0.2,0-0.4,0.1-0.7,0.1h-0.1c0-0.2,0-0.4,0-0.7c0-0.1,0-0.2,0-0.3l0,0l0,0c0-0.1,0-0.2,0-0.2v-0.6
		v-0.5c0-0.3,0-0.4,0-0.4v-1.5v-0.1c0,0,0,0,0-0.1l0,0l0,0l0,0l0,0l0,0c0,0-0.1,0-0.1-0.1c0,0,0,0-0.1,0s-0.1,0-0.2,0h-0.1h-0.1
		h-0.1l0,0l0,0l0,0h-0.1h-0.1c-0.1,0-0.2,0.1-0.3,0.2s-0.2,0.2-0.2,0.2l0,0c0,0.2-0.1,0.3-0.1,0.3s0,0.1,0,0.2c0,0,0,0.1,0,0.2v0.1
		l0,0c0,0.1,0,0.1,0,0.1c0,0.1,0,0.2,0,0.3v1.1c0,0,0,0.1,0,0.2c0,0.2,0,0.3,0,0.3s0,0,0,0.1v0.1c0,0,0,0,0,0.1c0,0,0,0.1,0,0.2
		s0,0.2,0,0.2v0.6c0,0.2,0,0.3,0,0.4s0,0.2,0,0.2s0,0.1,0,0.3c0,0,0,0.1,0,0.2c0,0,0,0,0,0.1s0,0.1,0,0.2s0,0.1,0,0.2
		c0,0,0,0.1,0.1,0.2l0,0c0,0.1,0,0.2,0,0.2l0,0l0,0c0,0,0,0,0,0.1v0.1c0.1,0.1,0.1,0.2,0.1,0.3v1.5v0.1l0,0c0,0.1,0,0.1,0,0.2v0.1
		c0,0.1,0,0.1,0,0.1v0.2c0,0,0,0,0,0.1v0.1l0,0l0,0l0,0l0,0l0,0v0.1v0.1l0,0l0,0v0.1l0,0l0,0l0,0v0.1v0.1c0,0,0,0,0,0.1l0,0h0.1
		c0,0,0,0,0.1,0.1v0.1l0,0l0,0l0,0h0.1h0.1c0,0,0.1,0,0.1-0.1h0.1l0,0c0,0,0,0,0.1-0.1l0.1-0.1c0,0,0.1-0.1,0.1-0.2
		c0,0,0-0.1,0.1-0.2c0,0,0,0,0-0.1v-0.1v-0.1c0,0,0-0.1,0.1-0.2c0-0.1,0-0.1,0-0.2c0,0,0,0,0-0.1v-0.1c0-0.1,0-0.1,0-0.2v-0.1
		c0-0.1,0-0.1,0-0.2s0-0.4,0-0.6c0-0.1,0-0.1,0-0.2v-0.1v-1.3c0,0,0,0,0.1,0l0,0c0.1,0,0.1,0,0.1,0h0.1l0.1-0.1c0,0,0,0,0-0.1
		c0.1,0,0.2-0.1,0.3-0.1h0.1h0.1h0.1h0.1c0.1,0,0.1,0,0.2,0h0.4c0.1,0,0.2,0,0.2,0c0.1,0,0.1,0,0.2,0h0.2c0.1,0,0.1,0,0.1,0h0.1h0.1
		h0.1h0.1l0,0h0.1l0.1-0.1c0,0,0,0,0.1,0l0,0l0,0c0,0.2,0,0.3-0.1,0.4c0,0,0,0.1,0,0.2v0.3c0,0.1,0,0.4-0.1,0.6v0.4
		c0,0,0.1,0.1,0.1,0.2v0.1v0.3v0.3c0,0,0,0.1-0.1,0.1v0.7v0.1c0,0,0,0.1,0,0.2s0.1,0.2,0.1,0.4c0,0.1,0,0.2,0,0.3
		c0-0.1,0.1-0.1,0.1-0.2c0,0.1,0,0.2,0.1,0.2l0,0l0,0l0,0v0.1l0,0c0,0,0,0,0,0.1s0.1,0.1,0.1,0.1l0,0c0,0,0,0,0,0.1
		c0,0,0,0.1,0.1,0.1c0.1,0.1,0.1,0.1,0.2,0.1h0.1c0.1,0,0.1,0,0.1,0h0.1l0,0l0,0h0.1c0.1,0,0.1,0,0.1-0.1l0,0l0,0c0,0,0,0,0.1,0l0,0
		l0,0l0,0l0,0v-0.1v-0.1c0,0,0-0.1,0-0.3c0-0.1,0-0.2,0-0.3c0-0.1,0-0.4,0-0.7v-0.1v-0.2v-0.3v-0.6v-0.1c0-0.1,0-0.1,0-0.2v-0.1l0,0
		l0,0l0,0v-0.1c0,0,0,0,0-0.1l0,0l0,0v-0.1v-0.2c0-0.1,0-0.2,0-0.3v-0.1l0,0v-0.2c0,0,0,0,0-0.1l0,0l0,0c0,0,0.1-0.2,0.1-0.6v-0.1
		l0,0v-0.2l0,0v-0.2V422c0,0,0,0,0-0.1c0,0,0,0,0-0.1c0,0,0,0,0-0.1l0,0l0,0l0,0c0,0,0,0,0-0.1v-0.1c0-0.1,0-0.1,0-0.1v-0.2V421l0,0
		l0,0v-0.1l0,0l0,0v-0.1L-144.8,417.5L-144.8,417.5z"/>
	<path id="XMLID_3442_" class="st0" d="M-146.1,418.1V418C-146.2,418-146.2,418-146.1,418.1C-146.2,418-146.2,418-146.1,418.1
		C-146.2,418.1-146.2,418.1-146.1,418.1L-146.1,418.1z"/>
	<path id="XMLID_3441_" class="st0" d="M-146.1,419L-146.1,419L-146.1,419L-146.1,419z"/>
</g>
<g>
	<path id="XMLID_3466_" class="st1" d="M-184.3,380.8c-0.2,0-0.3,0.1-0.5,0.2c-0.1,0.1-0.3,0.3-0.4,0.4c-0.3,0.2-0.6,0.2-0.9,0.1
		c-1.4-0.5-2.9-1.4-4.2-2.1c-1.9-1-3.5,1.8-1.7,2.8c0.8,0.4,1.6,0.8,2.4,1.2c-1,0.5-2,0.9-3,1.4c-1.9,0.9-0.3,3.7,1.6,2.8
		c1.8-0.8,3.6-1.6,5.3-2.4c0.3-0.2,2.3,0.9,2.7,1.1c0.5,0.2,2.7,1.4,2.8,0.5c0.1-1.3-1-2.4-1.8-3.3c-0.4-0.4-0.9-0.8-1.2-1.3
		C-183.5,381.7-183.7,381-184.3,380.8L-184.3,380.8z"/>
	<path id="XMLID_3462_" class="st1" d="M-152,383.3c-0.3,0.6-0.8,1-1.5,0.9c-0.2,0-0.5-0.1-0.8-0.2c-0.8-0.5-1.6-1.1-2.3-1.8
		c-1.9-1.8-3.3-4.1-3.7-6.8c-0.3-2.1,3-2.1,3.3,0c0-0.2,0-0.3,0-0.3s0.1,0.6,0.2,0.7c0.1,0.5,0.3,0.9,0.5,1.3
		c0.6,1.3,1.6,2.4,2.7,3.3c0.3,0.3,0.7,0.5,1,0.7C-151.7,381.7-151.6,382.6-152,383.3z"/>
	<circle id="XMLID_3461_" class="st1" cx="-150.7" cy="372.3" r="1.9"/>
	<path id="XMLID_3460_" class="st1" d="M-141.5,368.2c-3.4-1.3-7-2.2-10.5-2.7c-1.2-0.1-2.4-0.2-3.6-0.1c-1.4,0-2.9,0.1-4.3,0.3
		c-0.5,0-1,0.1-1.4,0.2c-0.3,0-0.5,0.1-0.8,0.1c-0.1,0-0.3,0-0.4,0.1c-0.4,0.1-0.5,0.4-0.5,0.7c0,0.4,0.1,0.8,0.3,1.2
		c0.2,0.4,0.5,1,1,1.1c0.3,0.1,0.5,0,0.8,0c0.4-0.1,0.8-0.1,1.1-0.2c1.5-0.2,3.1-0.3,4.6-0.2c1.5,0.1,3.1,0.2,4.6,0.5
		s3.1,0.6,4.6,1.1c0.6,0.2,1.2,0.4,1.7,0.5c-2.2,4-5.5,7.5-9.1,10c-0.1,0-0.1,0.1-0.2,0.1l0,0c-0.9,0.6-1.8,1.1-2.7,1.6
		c0.7,0.7,1.5,1.3,2.3,1.8c0.3,0.2,0.5,0.2,0.8,0.2c0.1-0.1,0.3-0.2,0.4-0.3c0.3-0.2,0.7-0.4,1-0.7c4.7-3.2,8.9-7.8,11.2-13
		C-140,369.5-140.4,368.6-141.5,368.2z"/>
	<g>
		<path id="XMLID_3430_" class="st1" d="M-231.7,405.1c0.3-0.4,0-1-0.1-1.3c-0.4-1.1-1.1-2.3-1-3.5c0.3-2.6,3.4-4.5,5.5-5.6
			c3.2-1.7,6.3-3.4,9.7-4.8c3.2-1.3,6.6-2.4,10-2.6c2.1-0.1,4.6,0.2,6.5,1.2c3,1.5,2.5,4.3,0.4,6.5c-4.2,4.6-11.2,7.4-17.3,8.3
			c-1.2,0.2-2.5,0.3-3.6-0.2s-2-1.7-1.7-2.9c0.1-0.5,0.5-1,0.6-1.5c0.2-0.5,0.1-1.2-0.4-1.4c-0.6-0.3-1.3,0.4-1.5,1.1
			c-0.6,1.7,0,3.6,1.2,5s2.9,2.2,4.6,2.6c4.3,1.1,8.2,0,12.1-1.9c2.2-1,4.3-2.1,6.5-4.2c3.2-3.1,4.8-8.6,2.1-12.4
			c-2.6-3.6-7.5-3.8-11.5-3.4c-1.1,0.1-2.1,0.3-3.2,0.5c-3.7,0.7-6.7,2-9.6,3.2c-2.4,1-3.9,1.9-4.4,2.1c0,0-3.6,2-7.1,5.2
			c-0.3,0.3-1.2,1.1-2.1,2.5c-0.4,0.6-0.6,1-0.8,1.6c-0.3,1.4,0.2,2.6,0.4,3.1c0.8,1.8,2.6,3.3,3.9,3.1
			C-232.3,405.5-231.9,405.4-231.7,405.1z"/>
		<path id="XMLID_3476_" class="st1" d="M-181.6,409.7c0.2,0,0.5,0.2,1,0.7c0.3,0.3,0.4,0.4,0.7,0.6c0,0,0.4,0.2,0.8,0.3
			c3.2,0.7,6.5-0.1,9.7-0.6c8.7-1.3,18-1.5,26.7-0.6c4.5,0.5,11.9,4.1,11.9,8c0,1.3-0.8,2.5-1.8,3.4c-0.4-0.9-1.1-2.2-2.5-3.5
			c-2-2-4.4-2.7-5.9-3.1c-10.7-2.7-21.9-2-32.9-0.9c-2,0.2-4,0.4-6,0c-0.8-0.2-1.6-0.4-2.1-1C-182.5,412.2-182.9,409.9-181.6,409.7z
			"/>
		<g id="XMLID_3468_">
			<path id="XMLID_3473_" class="st1" d="M-155.9,402.9c-0.1,0.1-0.3,0.2-0.4,0c-0.1-0.1-0.1-0.3,0-0.4c0.1-0.2,0.1-0.4,0.2-0.7
				c0.3-0.8,0.7-1.6,1-2.4c1-2.2,2.3-4.2,3.6-6.2c0.7-1,0.9-1,0-2.3c-0.7-1.1-1.2-1.1-2.1-0.6c-1,0.5-1.9,1.2-2.7,2
				c-1.6,1.4-3,2.9-4.4,4.5c-0.2,0.2-0.5,0.5-0.7,0.8c0-0.2,0.1-0.4,0.2-0.5c0.3-0.6,0.7-1.2,1-1.8c0.5-0.9,1.1-1.8,1.6-2.8
				c0.3-0.5,0.2-0.9-0.2-1.3c-0.1-0.1-0.2-0.2-0.3-0.3c-1-0.7-2.1-0.8-3.2-0.1c-0.9,0.6-1.7,1.3-2.5,2.1c-1.4,1.5-2.8,3.1-4.1,4.8
				c-0.1,0.1-0.2,0.2-0.3,0.3c0-0.3,0.1-0.5,0.2-0.7c0.7-1.4,1.5-2.8,2.3-4.2c0.2-0.3,0.3-0.5,0.2-0.9c-0.2-0.8-0.6-1.5-1.1-2.1
				c-0.3-0.3-0.5-0.2-0.8,0.1c-0.3,0.3-0.4,0.6-0.6,0.9c-0.9,1.3-1.6,2.8-2.3,4.2c-0.4,0.8-0.8,1.6-1.4,2.3
				c-1.3,1.6-2.7,3.3-4.3,4.5c-0.8,0.6-1.6,1.2-2.6,1.6c-0.4,0.2-0.8,0.3-1.3,0.2c-0.6,0-0.9-0.4-1.1-1c-0.1-0.4-0.1-0.8-0.1-1.2
				c0-0.5,0-0.5,0.4-0.6c2.5-0.3,4.7-1.5,6.5-3.7c0.9-1.1,1.5-2.3,1.4-3.8c0-1.2-0.4-2.2-1.4-2.9c-0.6-0.4-1.3-0.5-2.1-0.4
				c-1.2,0.2-2.3,0.8-3.1,1.7c-2.1,2.2-3.7,4.9-4.5,8.1c-0.1,0.3-0.2,0.6-0.4,0.8c-0.6,0.6-1.2,1.2-1.8,1.8
				c-0.8,0.8-1.6,1.5-2.4,2.1c-0.2,0.1-0.4,0.3-0.6,0.3c-0.4,0.1-0.7-0.1-0.8-0.6c0-0.2,0-0.5,0.1-0.7c0.1-0.8,0.4-1.5,0.6-2.2
				c0.7-2.3,1.7-4.3,3.2-6.1c0.2-0.2,0.3-0.5,0.5-0.7c0.2-0.3,0.2-0.6,0.1-0.9c-0.1-0.3-0.2-0.4-0.3-0.6c-0.3-0.4-0.5-0.4-0.8-0.1
				s-0.6,0.5-0.9,0.8c-0.5,0.4-1.1,0.4-1.6,0.2c-0.6-0.2-0.7-0.4-0.4-1c0.1-0.2,0.1-0.3,0.2-0.5c0.2-0.6,0.3-1.1,0.2-1.7
				c-0.1-0.4-0.2-0.6-0.5-0.8c-0.4-0.2-0.8-0.2-1.2,0c-0.7,0.3-1.2,0.9-1.6,1.5c-0.9,1.1-0.9,2.8-0.1,3.6c0.1,0.1,0.1,0.2,0,0.3
				c-0.1,0.1-0.1,0.1-0.2,0.2c-0.2,0.2-2.7,3.5-4.1,5.2c-0.7,0.8-1.4,4-0.9,3.5c0.3-0.4,2.6-3.5,4.4-5.8c0.6-0.8,1.2-1.6,1.8-2.4
				c0.1-0.2,0.2-0.3,0.4-0.3c0.6,0.1,1.1,0.2,1.7,0.2c0,0.1,0,0.2,0,0.2c-1.4,2.3-2.5,4.8-3.4,7.4c-0.3,0.9-0.4,1.8-0.4,2.8
				c0,0.8,0.5,1.3,1.1,1.6c0.5,0.2,1,0.1,1.5,0c1.1-0.3,2-1.1,2.9-1.8c1.1-0.9,2.1-1.9,3.1-2.9c0.1-0.1,0.2-0.3,0.4-0.2
				c0,0.7,0,1.3,0.2,1.9c0.3,1.3,1,2.1,2.2,2.2c0.7,0.1,1.5,0,2.2-0.2c1.4-0.5,2.5-1.3,3.6-2.3c0.9-0.9,1.8-1.8,2.7-2.9
				c0.1-0.1,0.2-0.3,0.4-0.3c-0.1,0.2-0.1,0.4-0.1,0.6c-0.3,1-0.4,2.1-0.2,3.2c0.1,0.6,0.3,1.1,0.7,1.4c0.6,0.5,1.3,0.2,1.3-0.7
				c0.1-0.8,0.3-1.6,0.7-2.2c0.8-1.6,1.8-2.9,2.8-4.4c1.3-1.9,2.8-3.6,4.3-5.3c0.5-0.6,1.1-1.1,1.7-1.6c0.1-0.1,0.3-0.3,0.6-0.3
				c-0.2,0.3-0.3,0.5-0.4,0.7c-1.1,1.9-2.1,3.8-3,5.8c-0.7,1.6-1.1,3.2-1,5c0,0.7,0.2,1.3,0.6,1.8c0.5,0.5,1.1,0.3,1.3-0.4
				c0.1-0.4,0.2-0.7,0.3-1.1c0.5-1.2,1.2-2.3,1.9-3.3c2-2.6,4.2-4.9,6.4-7.2c0.3-0.3,0.6-0.6,0.9-0.8c0.1-0.1,0.2-0.2,0.3-0.1
				c0,0.1-0.1,0.1-0.1,0.2c-0.8,1.3-1.6,2.7-2.4,4c-0.8,1.4-1.5,2.8-2.1,4.4c-0.3,0.8-0.6,1.6-0.5,2.5c0.2,1.7,1.1,2.4,2.5,1.8
				c0,0,0.1,0,0.1-0.1c0.7-0.4,1.3-0.8,1.9-1.4c1-1,2-2,3-3.1c0.1-0.1,0.2-0.3,0.5-0.3l0.3-2.3c-1,1.2-2,2.3-3.1,3.3
				C-155,402.2-155.4,402.6-155.9,402.9z M-181.6,399.1c0.6-2.2,1.6-4.1,3.1-5.7c0.5-0.5,1.1-0.9,1.7-1.2c0.3-0.1,0.7-0.3,1,0.1
				c0.3,0.3,0.2,0.7,0.1,1.1c-0.1,0.5-0.3,0.9-0.6,1.3c-1.3,2.1-2.9,3.7-4.9,4.8c-0.2,0.1-0.4,0.2-0.6,0.2
				C-181.7,399.5-181.6,399.3-181.6,399.1z"/>
			<path id="XMLID_3470_" class="st1" d="M-110.8,387.7c-0.3-1.3-0.8-2.6-1.6-3.7c-2.2-3-5.9-4.5-9.6-5.1
				c-7.7-1.4-15.9,0.5-22.3,5.1c-0.8,0.5-1.6,1.2-1.7,2.1c-0.2,1.2,1,2.5,2.2,2.4s2.3-1.3,2.2-2.6c0-0.6-0.2-1.2,0.1-1.7
				c0.2-0.3,0.4-0.3,1.2-0.8c0.6-0.4,0.9-0.6,1.1-0.7c3.2-2,7.1-2.4,10.8-2.4c6-0.1,17.3,2.2,15.7,10.5c-0.4,2.2-1.7,4.2-3.4,5.6
				c-1.2,1-2.7,1.7-4.1,2.6c-1.5,0.9-3,1.8-4.6,2.7c-0.1,0.1-0.2,0.1-0.4,0.1c-0.4,0-0.5-0.6-0.5-1c0.5-3,1.7-6,3.6-8.5
				c0.3-0.5,0.7-0.9,0.9-1.4c0.2-0.5,0.1-1.2-0.3-1.6c-0.1-0.1-0.2-0.1-0.3-0.2c-0.3,0-0.5,0.2-0.7,0.4c-0.6,0.6-1.5,1.1-2.3,0.9
				c-0.3-0.1-0.5-0.3-0.6-0.5c0-0.1,0-0.3,0.1-0.4c0.2-0.6,0.5-1.2,0.5-1.9c0-0.7-0.3-1.4-1-1.5c-0.5-0.1-1,0.2-1.4,0.5
				c-0.7,0.6-1.4,1.3-1.7,2.2c-0.3,0.9-0.3,1.9,0.3,2.7c0.1,0.1,0.2,0.2,0.2,0.3c0,0.1-0.1,0.2-0.1,0.3c-0.7,0.9-1.3,1.8-2,2.6
				c-1.7,2.3-3.5,4.7-5.7,6.5c-0.9,0.7-1.8,1.4-2.9,1.7c-0.5,0.1-1,0.2-1.4,0c-0.7-0.4-0.8-1.4-0.7-2.3c0-0.1,0-0.3,0.1-0.4
				s0.3-0.1,0.4-0.2c2.9-0.4,5.5-2.1,7-4.5c0.6-1,1.1-2.2,1-3.5c-0.1-1.2-0.8-2.4-1.9-2.9c-0.9-0.4-1.9-0.3-2.8,0.1s-1.6,1-2.3,1.7
				c-2.9,3-4.6,7.1-4.8,11.2c-0.1,1.3,0.1,2.8,1.1,3.6c0.9,0.7,2.1,0.7,3.2,0.4c1.7-0.5,3.2-1.7,4.5-2.9c3.2-3.2,5.6-7.2,8.4-10.7
				c0.1-0.1,0.2-0.2,0.3-0.2c0.2-0.1,0.3,0,0.5,0c0.5,0.1,0.9,0.2,1.4,0.3c-1.1,1.9-2.1,3.9-2.9,5.9c-0.5,1.3-1,2.6-1,4
				c0,0.8,0.2,1.8,0.9,2.2c0.9,0.5,2,0,2.9-0.6c2.3-1.5,4.7-3,7-4.5c2-1.3,4.6-2.6,6-4.6S-110.3,390.2-110.8,387.7z M-140.9,398
				c0.6-2.3,1.7-4.3,3.2-5.9c0.5-0.6,1.1-1,1.8-1.2c0.4-0.1,0.7-0.3,1,0.1c0.3,0.3,0.2,0.8,0.1,1.1c-0.1,0.5-0.3,0.9-0.6,1.4
				c-1.3,2.1-2.9,3.9-5,5c-0.2,0.1-0.4,0.2-0.6,0.2C-141,398.4-140.9,398.2-140.9,398z"/>
			<path id="XMLID_3469_" class="st1" d="M-141.6,394.2c-1,1.3-2,2.6-3,3.8c-1,1.3-2.1,2.5-3.3,3.7c-0.3,0.3-0.6,0.6-1,0.7
				c-0.5,0.2-0.7,0.1-0.7-0.5c0-0.4,0.1-0.8,0.2-1.2c0.9-3.1,2.2-5.8,4-8.3c0.6-0.8,0.6-1.3-0.1-2.1c-0.2-0.2-0.4-0.5-0.7-0.6
				c-0.3-0.2-0.6-0.2-0.9,0.1c-0.5,0.5-0.9,1.1-1.3,1.7c-1.1,1.8-2,3.7-2.8,5.6c-0.7,1.5-1.6,5.7-1.6,6c-0.1,0.5,0,1.1,0.1,1.6
				c0.2,0.8,0.6,1.2,1.3,1.4c0.6,0.1,1.2-0.1,1.8-0.4c0.6-0.4,1.1-0.8,1.6-1.3c0.9-0.9,1.7-1.8,2.5-2.8c1.6-1.9,3-4,4.5-6
				L-141.6,394.2z"/>
		</g>
		<path id="XMLID_3431_" class="st1" d="M-212.8,390.4c0.2,0,0.5,0.5,0.5,0.6c0.3,0.6,0.2,1.1,0.2,1.4c-0.3,2.2-0.6,3.2-0.6,3.2
			c-0.8,2.7-0.7,2.5-0.8,2.7c-0.9,2.7-2.2,5.4-2.9,7.1c-1.7,3.7-2.9,6.5-3.4,10c-0.3,2.2-0.5,4.1,0.5,5.5c0.4,0.6,1.2,1.2,1,1.8
			c-0.2,0.5-1,0.6-1.5,0.7c-0.8,0.1-1.4,0.1-1.8,0c-0.4-0.1-1.4-0.4-2.1-1.2c-0.4-0.5-0.7-1-0.8-1.9c-0.4-2.2,0.4-4.2,0.6-4.9
			c2-5.1,3-7,3-7c1.2-2.3,4.8-9.2,6.3-12.5c0.6-1.4,1-2.1,1.2-3.1C-213.2,391.6-213.2,390.5-212.8,390.4z"/>
	</g>
</g>
<rect x="-239" y="364" class="st2" width="131.3" height="65"/>
</svg>
