<?xml version="1.0" encoding="utf-8"?>
<!-- Generator: Adobe Illustrator 19.0.0, SVG Export Plug-In . SVG Version: 6.00 Build 0)  -->
<svg version="1.1" id="Layer_1" xmlns="http://www.w3.org/2000/svg" xmlns:xlink="http://www.w3.org/1999/xlink" x="0px" y="0px"
	 viewBox="-239 364 131.3 65" style="enable-background:new -239 364 131.3 65;" xml:space="preserve">
<style type="text/css">
	.st0{fill:#FFFFFF;}
</style>
<path id="XMLID_3430_" class="st0" d="M-470.3,769c0.3-0.4,0-1-0.1-1.3c-0.4-1.1-1.1-2.3-1-3.5c0.3-2.6,3.4-4.5,5.5-5.6
	c3.2-1.7,6.3-3.4,9.7-4.8c3.2-1.3,6.6-2.4,10-2.6c2.1-0.1,4.6,0.2,6.5,1.2c3,1.5,2.5,4.3,0.4,6.5c-4.2,4.6-11.2,7.4-17.3,8.3
	c-1.2,0.2-2.5,0.3-3.6-0.2c-1.1-0.5-2-1.7-1.7-2.9c0.1-0.5,0.5-1,0.6-1.5c0.2-0.5,0.1-1.2-0.4-1.4c-0.6-0.3-1.3,0.4-1.5,1.1
	c-0.6,1.7,0,3.6,1.2,5c1.2,1.4,2.9,2.2,4.6,2.6c4.3,1.1,8.2,0,12.1-1.9c2.2-1,4.3-2.1,6.5-4.2c3.2-3.1,4.8-8.6,2.1-12.4
	c-2.6-3.6-7.5-3.8-11.5-3.4c-1.1,0.1-2.1,0.3-3.2,0.5c-3.7,0.7-6.7,2-9.6,3.2c-2.4,1-3.9,1.9-4.4,2.1c0,0-3.6,2-7.1,5.2
	c-0.3,0.3-1.2,1.1-2.1,2.5c-0.4,0.6-0.6,1-0.8,1.6c-0.3,1.4,0.2,2.6,0.4,3.1c0.8,1.8,2.6,3.3,3.9,3.1
	C-470.9,769.4-470.5,769.3-470.3,769z"/>
<path id="XMLID_3476_" class="st0" d="M-420.2,773.6c0.2,0,0.5,0.2,1,0.7c0.3,0.3,0.4,0.4,0.7,0.6c0,0,0.4,0.2,0.8,0.3
	c3.2,0.7,6.5-0.1,9.7-0.6c8.7-1.3,18-1.5,26.7-0.6c4.5,0.5,11.9,4.1,11.9,8c0,1.3-0.8,2.5-1.8,3.4c-0.4-0.9-1.1-2.2-2.5-3.5
	c-2-2-4.4-2.7-5.9-3.1c-10.7-2.7-21.9-2-32.9-0.9c-2,0.2-4,0.4-6,0c-0.8-0.2-1.6-0.4-2.1-1C-421.1,776.1-421.5,773.8-420.2,773.6z"
	/>
<g id="XMLID_3468_">
	<path id="XMLID_3473_" class="st0" d="M-394.5,766.8c-0.1,0.1-0.3,0.2-0.4,0c-0.1-0.1-0.1-0.3,0-0.4c0.1-0.2,0.1-0.4,0.2-0.7
		c0.3-0.8,0.7-1.6,1-2.4c1-2.2,2.3-4.2,3.6-6.2c0.7-1,0.9-1,0-2.3c-0.7-1.1-1.2-1.1-2.1-0.6c-1,0.5-1.9,1.2-2.7,2
		c-1.6,1.4-3,2.9-4.4,4.5c-0.2,0.2-0.5,0.5-0.7,0.8c0-0.2,0.1-0.4,0.2-0.5c0.3-0.6,0.7-1.2,1-1.8c0.5-0.9,1.1-1.8,1.6-2.8
		c0.3-0.5,0.2-0.9-0.2-1.3c-0.1-0.1-0.2-0.2-0.3-0.3c-1-0.7-2.1-0.8-3.2-0.1c-0.9,0.6-1.7,1.3-2.5,2.1c-1.4,1.5-2.8,3.1-4.1,4.8
		c-0.1,0.1-0.2,0.2-0.3,0.3c0-0.3,0.1-0.5,0.2-0.7c0.7-1.4,1.5-2.8,2.3-4.2c0.2-0.3,0.3-0.5,0.2-0.9c-0.2-0.8-0.6-1.5-1.1-2.1
		c-0.3-0.3-0.5-0.2-0.8,0.1c-0.3,0.3-0.4,0.6-0.6,0.9c-0.9,1.3-1.6,2.8-2.3,4.2c-0.4,0.8-0.8,1.6-1.4,2.3c-1.3,1.6-2.7,3.3-4.3,4.5
		c-0.8,0.6-1.6,1.2-2.6,1.6c-0.4,0.2-0.8,0.3-1.3,0.2c-0.6,0-0.9-0.4-1.1-1c-0.1-0.4-0.1-0.8-0.1-1.2c0-0.5,0-0.5,0.4-0.6
		c2.5-0.3,4.7-1.5,6.5-3.7c0.9-1.1,1.5-2.3,1.4-3.8c0-1.2-0.4-2.2-1.4-2.9c-0.6-0.4-1.3-0.5-2.1-0.4c-1.2,0.2-2.3,0.8-3.1,1.7
		c-2.1,2.2-3.7,4.9-4.5,8.1c-0.1,0.3-0.2,0.6-0.4,0.8c-0.6,0.6-1.2,1.2-1.8,1.8c-0.8,0.8-1.6,1.5-2.4,2.1c-0.2,0.1-0.4,0.3-0.6,0.3
		c-0.4,0.1-0.7-0.1-0.8-0.6c0-0.2,0-0.5,0.1-0.7c0.1-0.8,0.4-1.5,0.6-2.2c0.7-2.3,1.7-4.3,3.2-6.1c0.2-0.2,0.3-0.5,0.5-0.7
		c0.2-0.3,0.2-0.6,0.1-0.9s-0.2-0.4-0.3-0.6c-0.3-0.4-0.5-0.4-0.8-0.1s-0.6,0.5-0.9,0.8c-0.5,0.4-1.1,0.4-1.6,0.2
		c-0.6-0.2-0.7-0.4-0.4-1c0.1-0.2,0.1-0.3,0.2-0.5c0.2-0.6,0.3-1.1,0.2-1.7c-0.1-0.4-0.2-0.6-0.5-0.8c-0.4-0.2-0.8-0.2-1.2,0
		c-0.7,0.3-1.2,0.9-1.6,1.5c-0.9,1.1-0.9,2.8-0.1,3.6c0.1,0.1,0.1,0.2,0,0.3c-0.1,0.1-0.1,0.1-0.2,0.2c-0.2,0.2-2.7,3.5-4.1,5.2
		c-0.7,0.8-1.4,4-0.9,3.5c0.3-0.4,2.6-3.5,4.4-5.8c0.6-0.8,1.2-1.6,1.8-2.4c0.1-0.2,0.2-0.3,0.4-0.3c0.6,0.1,1.1,0.2,1.7,0.2
		c0,0.1,0,0.2,0,0.2c-1.4,2.3-2.5,4.8-3.4,7.4c-0.3,0.9-0.4,1.8-0.4,2.8c0,0.8,0.5,1.3,1.1,1.6c0.5,0.2,1,0.1,1.5,0
		c1.1-0.3,2-1.1,2.9-1.8c1.1-0.9,2.1-1.9,3.1-2.9c0.1-0.1,0.2-0.3,0.4-0.2c0,0.7,0,1.3,0.2,1.9c0.3,1.3,1,2.1,2.2,2.2
		c0.7,0.1,1.5,0,2.2-0.2c1.4-0.5,2.5-1.3,3.6-2.3c0.9-0.9,1.8-1.8,2.7-2.9c0.1-0.1,0.2-0.3,0.4-0.3c-0.1,0.2-0.1,0.4-0.1,0.6
		c-0.3,1-0.4,2.1-0.2,3.2c0.1,0.6,0.3,1.1,0.7,1.4c0.6,0.5,1.3,0.2,1.3-0.7c0.1-0.8,0.3-1.6,0.7-2.2c0.8-1.6,1.8-2.9,2.8-4.4
		c1.3-1.9,2.8-3.6,4.3-5.3c0.5-0.6,1.1-1.1,1.7-1.6c0.1-0.1,0.3-0.3,0.6-0.3c-0.2,0.3-0.3,0.5-0.4,0.7c-1.1,1.9-2.1,3.8-3,5.8
		c-0.7,1.6-1.1,3.2-1,5c0,0.7,0.2,1.3,0.6,1.8c0.5,0.5,1.1,0.3,1.3-0.4c0.1-0.4,0.2-0.7,0.3-1.1c0.5-1.2,1.2-2.3,1.9-3.3
		c2-2.6,4.2-4.9,6.4-7.2c0.3-0.3,0.6-0.6,0.9-0.8c0.1-0.1,0.2-0.2,0.3-0.1c0,0.1-0.1,0.1-0.1,0.2c-0.8,1.3-1.6,2.7-2.4,4
		c-0.8,1.4-1.5,2.8-2.1,4.4c-0.3,0.8-0.6,1.6-0.5,2.5c0.2,1.7,1.1,2.4,2.5,1.8c0,0,0.1,0,0.1-0.1c0.7-0.4,1.3-0.8,1.9-1.4
		c1-1,2-2,3-3.1c0.1-0.1,0.2-0.3,0.5-0.3l0.3-2.3c-1,1.2-2,2.3-3.1,3.3C-393.6,766.1-394,766.5-394.5,766.8z M-420.2,763
		c0.6-2.2,1.6-4.1,3.1-5.7c0.5-0.5,1.1-0.9,1.7-1.2c0.3-0.1,0.7-0.3,1,0.1c0.3,0.3,0.2,0.7,0.1,1.1c-0.1,0.5-0.3,0.9-0.6,1.3
		c-1.3,2.1-2.9,3.7-4.9,4.8c-0.2,0.1-0.4,0.2-0.6,0.2C-420.3,763.4-420.2,763.2-420.2,763z"/>
	<path id="XMLID_3470_" class="st0" d="M-349.4,751.6c-0.3-1.3-0.8-2.6-1.6-3.7c-2.2-3-5.9-4.5-9.6-5.1c-7.7-1.4-15.9,0.5-22.3,5.1
		c-0.8,0.5-1.6,1.2-1.7,2.1c-0.2,1.2,1,2.5,2.2,2.4c1.2-0.1,2.3-1.3,2.2-2.6c0-0.6-0.2-1.2,0.1-1.7c0.2-0.3,0.4-0.3,1.2-0.8
		c0.6-0.4,0.9-0.6,1.1-0.7c3.2-2,7.1-2.4,10.8-2.4c6-0.1,17.3,2.2,15.7,10.5c-0.4,2.2-1.7,4.2-3.4,5.6c-1.2,1-2.7,1.7-4.1,2.6
		c-1.5,0.9-3,1.8-4.6,2.7c-0.1,0.1-0.2,0.1-0.4,0.1c-0.4,0-0.5-0.6-0.5-1c0.5-3,1.7-6,3.6-8.5c0.3-0.5,0.7-0.9,0.9-1.4
		s0.1-1.2-0.3-1.6c-0.1-0.1-0.2-0.1-0.3-0.2c-0.3,0-0.5,0.2-0.7,0.4c-0.6,0.6-1.5,1.1-2.3,0.9c-0.3-0.1-0.5-0.3-0.6-0.5
		c0-0.1,0-0.3,0.1-0.4c0.2-0.6,0.5-1.2,0.5-1.9c0-0.7-0.3-1.4-1-1.5c-0.5-0.1-1,0.2-1.4,0.5c-0.7,0.6-1.4,1.3-1.7,2.2
		c-0.3,0.9-0.3,1.9,0.3,2.7c0.1,0.1,0.2,0.2,0.2,0.3c0,0.1-0.1,0.2-0.1,0.3c-0.7,0.9-1.3,1.8-2,2.6c-1.7,2.3-3.5,4.7-5.7,6.5
		c-0.9,0.7-1.8,1.4-2.9,1.7c-0.5,0.1-1,0.2-1.4,0c-0.7-0.4-0.8-1.4-0.7-2.3c0-0.1,0-0.3,0.1-0.4s0.3-0.1,0.4-0.2
		c2.9-0.4,5.5-2.1,7-4.5c0.6-1,1.1-2.2,1-3.5c-0.1-1.2-0.8-2.4-1.9-2.9c-0.9-0.4-1.9-0.3-2.8,0.1c-0.9,0.4-1.6,1-2.3,1.7
		c-2.9,3-4.6,7.1-4.8,11.2c-0.1,1.3,0.1,2.8,1.1,3.6c0.9,0.7,2.1,0.7,3.2,0.4c1.7-0.5,3.2-1.7,4.5-2.9c3.2-3.2,5.6-7.2,8.4-10.7
		c0.1-0.1,0.2-0.2,0.3-0.2c0.2-0.1,0.3,0,0.5,0c0.5,0.1,0.9,0.2,1.4,0.3c-1.1,1.9-2.1,3.9-2.9,5.9c-0.5,1.3-1,2.6-1,4
		c0,0.8,0.2,1.8,0.9,2.2c0.9,0.5,2,0,2.9-0.6c2.3-1.5,4.7-3,7-4.5c2-1.3,4.6-2.6,6-4.6C-349.4,756.9-348.9,754.1-349.4,751.6z
		 M-379.5,761.9c0.6-2.3,1.7-4.3,3.2-5.9c0.5-0.6,1.1-1,1.8-1.2c0.4-0.1,0.7-0.3,1,0.1c0.3,0.3,0.2,0.8,0.1,1.1
		c-0.1,0.5-0.3,0.9-0.6,1.4c-1.3,2.1-2.9,3.9-5,5c-0.2,0.1-0.4,0.2-0.6,0.2C-379.6,762.3-379.5,762.1-379.5,761.9z"/>
	<path id="XMLID_3469_" class="st0" d="M-380.2,758.1c-1,1.3-2,2.6-3,3.8c-1,1.3-2.1,2.5-3.3,3.7c-0.3,0.3-0.6,0.6-1,0.7
		c-0.5,0.2-0.7,0.1-0.7-0.5c0-0.4,0.1-0.8,0.2-1.2c0.9-3.1,2.2-5.8,4-8.3c0.6-0.8,0.6-1.3-0.1-2.1c-0.2-0.2-0.4-0.5-0.7-0.6
		c-0.3-0.2-0.6-0.2-0.9,0.1c-0.5,0.5-0.9,1.1-1.3,1.7c-1.1,1.8-2,3.7-2.8,5.6c-0.7,1.5-1.6,5.7-1.6,6c-0.1,0.5,0,1.1,0.1,1.6
		c0.2,0.8,0.6,1.2,1.3,1.4c0.6,0.1,1.2-0.1,1.8-0.4c0.6-0.4,1.1-0.8,1.6-1.3c0.9-0.9,1.7-1.8,2.5-2.8c1.6-1.9,3-4,4.5-6
		L-380.2,758.1z"/>
</g>
<path id="XMLID_3466_" class="st0" d="M-422.9,744.7c-0.2,0-0.3,0.1-0.5,0.2c-0.1,0.1-0.3,0.3-0.4,0.4c-0.3,0.2-0.6,0.2-0.9,0.1
	c-1.4-0.5-2.9-1.4-4.2-2.1c-1.9-1-3.5,1.8-1.7,2.8c0.8,0.4,1.6,0.8,2.4,1.2c-1,0.5-2,0.9-3,1.4c-1.9,0.9-0.3,3.7,1.6,2.8
	c1.8-0.8,3.6-1.6,5.3-2.4c0.3-0.2,2.3,0.9,2.7,1.1c0.5,0.2,2.7,1.4,2.8,0.5c0.1-1.3-1-2.4-1.8-3.3c-0.4-0.4-0.9-0.8-1.2-1.3
	C-422.1,745.6-422.3,744.9-422.9,744.7L-422.9,744.7z"/>
<path id="XMLID_3465_" class="st0" d="M-395.8,749.4c-0.3,1.2-1.6,1.6-2.6,1.2c-0.7-0.2-1.3-0.7-1.9-1.2c-0.2-0.2-0.5-0.4-0.7-0.6
	c-3.3-3.2-5.7-7.1-7.6-11.6c-0.1-0.1-0.1-0.3-0.2-0.4c-0.5-1.1-1-2.4-1-3.5c0-0.4,0.2-0.8,0.4-1.1c0.9-1.1,2.4-1.1,3.7-1.3
	c0.3-0.1,0.7-0.1,1-0.1c0.5,0,0.9,0.1,1.4,0.7c0.2,0.2,0.4,0.5,0.5,0.8c0.1,0.5,0.2,1,0.2,1.5s0.1,0.9,0.1,1.4
	c0.2,1,0.4,2.1,0.8,3.1c0.7,2.1,1.6,4.2,2.6,6.1c0.5,1,1.1,1.9,1.7,2.8c0.1,0.2,0.5,0.6,0.8,1C-396.1,748.6-395.7,749.2-395.8,749.4
	z"/>
<path id="XMLID_3464_" class="st0" d="M-400,750.9c0,0.2-0.3,0.4-0.4,0.5c-0.3,0.3-0.7,0.4-1.1,0.5c-0.8,0.2-1.7,0.1-2.5-0.2
	c-1-0.3-2.1-0.8-3.1-1.4c-0.4-0.3-0.8-0.6-1.2-1c-1.1-1.1-2.3-2.8-4.3-5.4c0,0-0.5-0.6-1.6-2.6l0,0c-0.3-0.6-0.7-1.3-1.1-2.1
	c-0.1-0.3-0.3-0.6-0.4-0.9c-0.2-0.5-0.4-1.1-0.3-1.7c0.1-0.5,0.3-0.8,0.6-1.2c0.6-0.9,1.4-1.2,2-1.4c0.7-0.3,1-0.4,1.4-0.3
	c0.3,0.1,0.5,0.3,0.7,0.6c0.6,0.7,0.8,1.8,0.9,1.9c0.1,0.3,0.3,0.7,0.5,1.1c0.4,0.8,0.9,1.8,1.4,2.8c0.6,1.1,1.3,2.5,2.5,4.2
	c0.8,1.2,1.5,2,2.9,3.7c0.2,0.2,0.4,0.5,0.6,0.7c0.4,0.4,0.7,0.8,1.2,1c0.1,0,0.4,0.2,0.9,0.5C-400.2,750.5-400,750.6-400,750.9z"/>
<path id="XMLID_3463_" class="st0" d="M-407,752.2c-1.2,0.2-2.5,0.3-3.8,0.1c-2-0.3-3.9-2.3-5.5-4c-0.2-0.2-0.4-0.4-0.5-0.6
	c-0.6-0.6-1.3-1.3-2-2.1c-0.7-0.9-1.3-1.8-1.5-2.9c0-0.2-0.1-0.5-0.1-0.7c0-0.7,0.3-1.2,0.6-1.6c0.5-0.8,1.1-1.6,1.9-1.7
	c0.6-0.1,1,0.2,1.4,0.7c0.3,0.3,0.5,0.7,0.7,1.2c0.2,0.6,0.5,1.2,0.6,1.6c0,0.1,0.1,0.2,0.1,0.3c0.8,1.9,1.8,3.6,3,5.1
	c0.5,0.7,1.1,1.2,1.7,1.8C-409.4,750.3-408.1,751.1-407,752.2z"/>
<path id="XMLID_3462_" class="st0" d="M-390.6,747.2c-0.3,0.6-0.8,1-1.5,0.9c-0.2,0-0.5-0.1-0.8-0.2c-0.8-0.5-1.6-1.1-2.3-1.8
	c-1.9-1.8-3.3-4.1-3.7-6.8c-0.3-2.1,3-2.1,3.3,0c0-0.2,0-0.3,0-0.3s0.1,0.6,0.2,0.7c0.1,0.5,0.3,0.9,0.5,1.3
	c0.6,1.3,1.6,2.4,2.7,3.3c0.3,0.3,0.7,0.5,1,0.7C-390.3,745.6-390.2,746.5-390.6,747.2z"/>
<circle id="XMLID_3461_" class="st0" cx="-389.3" cy="736.2" r="1.9"/>
<path id="XMLID_3460_" class="st0" d="M-380.1,732.1c-3.4-1.3-7-2.2-10.5-2.7c-1.2-0.1-2.4-0.2-3.6-0.1c-1.4,0-2.9,0.1-4.3,0.3
	c-0.5,0-1,0.1-1.4,0.2c-0.3,0-0.5,0.1-0.8,0.1c-0.1,0-0.3,0-0.4,0.1c-0.4,0.1-0.5,0.4-0.5,0.7c0,0.4,0.1,0.8,0.3,1.2
	c0.2,0.4,0.5,1,1,1.1c0.3,0.1,0.5,0,0.8,0c0.4-0.1,0.8-0.1,1.1-0.2c1.5-0.2,3.1-0.3,4.6-0.2c1.5,0.1,3.1,0.2,4.6,0.5
	c1.5,0.3,3.1,0.6,4.6,1.1c0.6,0.2,1.2,0.4,1.7,0.5c-2.2,4-5.5,7.5-9.1,10c-0.1,0-0.1,0.1-0.2,0.1l0,0c-0.9,0.6-1.8,1.1-2.7,1.6
	c0.7,0.7,1.5,1.3,2.3,1.8c0.3,0.2,0.5,0.2,0.8,0.2c0.1-0.1,0.3-0.2,0.4-0.3c0.3-0.2,0.7-0.4,1-0.7c4.7-3.2,8.9-7.8,11.2-13
	C-378.6,733.4-379,732.5-380.1,732.1z"/>
<g id="XMLID_3440_">
	<path id="XMLID_3458_" class="st0" d="M-403.6,781.3L-403.6,781.3c-0.1,0.4-0.2,0.7-0.3,1c-0.1,0-0.1,0-0.2-0.1
		c0.2-0.1,0.2-0.2,0.2-0.3c0-0.1-0.1-0.1,0-0.2c0,0,0,0,0.1-0.1C-403.8,781.6-403.6,781.5-403.6,781.3L-403.6,781.3z"/>
	<path id="XMLID_3457_" class="st0" d="M-381.8,785.4c0,0.2,0,0.4,0,0.6l0,0l0,0l0,0l0,0l0,0l0,0c0,0,0,0,0-0.1c0,0,0,0,0-0.1v-0.1
		l0,0l0,0l0,0l0,0l0,0l0,0V785.4C-381.7,785.5-381.7,785.5-381.8,785.4C-381.7,785.5-381.7,785.5-381.8,785.4L-381.8,785.4
		C-381.7,785.4-381.7,785.4-381.8,785.4C-381.7,785.4-381.7,785.4-381.8,785.4L-381.8,785.4C-381.7,785.3-381.7,785.3-381.8,785.4
		l0.1-0.2l0,0v-0.1l0,0l0,0l0,0l0,0l0,0l0,0l0,0l0,0l0,0l0,0l0,0l0,0l0,0c0,0,0,0-0.1,0c0,0.1,0.1,0.1,0.1,0.2
		S-381.7,785.4-381.8,785.4C-381.7,785.3-381.8,785.4-381.8,785.4z"/>
	<path id="XMLID_3454_" class="st0" d="M-406.1,788.4C-406.1,788.3-406.1,788.3-406.1,788.4L-406.1,788.4c-0.1-0.1-0.1-0.1-0.2-0.1
		h-0.1l0,0c0,0,0,0-0.1,0h-0.1h0.1l0,0h-0.1c0,0,0,0-0.1,0l0,0l0,0h-0.1c-0.1,0-0.2,0-0.2,0l0,0l0,0l0,0l0,0l0,0c0,0-0.1,0-0.2,0
		c-0.1,0-0.1,0-0.2,0l0,0l0,0l0,0l0,0h-0.1l0,0l0,0c0.2-0.5,0.3-1,0.3-1.4c0-1-0.4-1.3-1.1-1.8c-1-0.7-1.3-1.3-1-2.6
		c0.1-0.4,0.3-0.8,0.5-1.1c0.1-0.1,0.4-0.4,0.8-0.4c0.7,0,0.4,0.4,0,0.7l0,0l-0.6,0.2l0,0l0,0v0.1l0,0l0,0c0,0,0,0,0,0.1
		s0,0.1,0,0.1l-0.1,0.1c0,0,0,0-0.1,0l0,0c0.1,0,0.2,0.1,0.4,0.1h0.1c0.1,0,0.1,0,0.2,0h0.1l0,0l0,0c0.1,0,0.2-0.1,0.3-0.1
		s0.2-0.1,0.3-0.2c0.3-0.2,0.7-0.5,1.1-0.7l0.1-0.1l0,0c0,0,0,0,0.1-0.1c0.2-0.2,0.3-0.4,0.3-0.5l-0.2-0.4c-0.1-0.1-0.3-0.2-0.6-0.3
		h-0.1h-0.1h-0.1c0,0-0.1,0-0.2,0h-0.1h-0.1c0,0,0,0-0.1,0h-0.1c-0.1,0-0.1,0-0.1,0l0,0c0,0,0,0-0.1,0h-0.1h-0.1l0,0l0,0
		c-0.7,0.1-1.4,0.5-1.8,1c-0.3,0.4-0.7,0.8-0.9,1.4l0,0c-0.2,0.4-0.3,0.9-0.3,1.4l0.1,0.1v0.1c0,0,0.1,0.1,0,0.1v0.1
		c0.1,0.1,0.1,0.2,0.1,0.2l0.1,0.1c0,0,0,0.1,0.1,0.1l0.1,0.1c0,0.1,0,0.2,0.1,0.4l0.1,0.1c0,0,0,0,0,0.1l0,0l0,0v0.1l0.1,0.1
		c0,0,0,0,0,0.1s0.1,0.1,0.1,0.2l0.1,0.1l0,0c0,0.1,0.1,0.1,0.1,0.2l0.1,0.1l0.1,0.1l0,0l0.1,0.1c0,0,0,0.1,0.1,0.1l0.1,0.1l0,0l0,0
		l0.1,0.1c0,0,0.1,0,0.1,0.1c0,0,0.1,0,0.2,0.1c0,0,0,0,0,0.1c0,0,0,0,0.1,0l0,0l0,0c0.1,0.3,0.1,0.8-0.1,1.4c0,0.1-0.1,0.2-0.1,0.3
		l0,0l0,0l0,0l0,0v0.1l0,0c0,0,0,0.1-0.1,0.2c0.1-0.1,0.2-0.1,0.2-0.1l0,0l0,0c0,0,0.1,0,0.1,0.1c-0.3,0.2-0.4,0.3-0.3,0.4l-0.1,0.1
		l-0.1,0.1l0,0h-0.1l-0.1,0.1c0,0,0,0-0.1,0c0,0,0,0-0.1,0l-0.1,0.1l-0.1,0.1l0,0v-0.1v-0.1c-0.1,0.1-0.2,0.2-0.2,0.2l0,0l0,0h-0.1
		c0.1-0.1,0.2-0.2,0.3-0.3c0,0,0,0,0-0.1v-0.1v-0.1l0.1-0.1l0,0h0.1l0.1-0.1c0,0,0,0,0-0.1s-0.1-0.1,0-0.2l0,0
		c-0.4,0.2-0.9,0.4-1.3,0.6c-0.1,0-0.1,0.1-0.2,0.1c-0.2,0.1-0.3,0.2-0.4,0.3c-0.1,0.1-0.2,0.3-0.2,0.4c0,0.1,0,0.1,0.1,0.2
		c0.1,0.1,0.1,0.1,0.2,0.2c0,0,0.1,0,0.1,0.1l0,0l0,0l0,0h0.1c0.1,0,0.1,0,0.2,0l0,0c0,0,0,0,0.1,0c0,0,0,0,0.1,0h0.1c0,0,0,0,0.1,0
		h0.1l0,0l0,0h0.1h0.1h0.1h0.1h0.1h0.1c0.1,0,0.1,0,0.2,0h0.1l0,0c0.1-0.1,0.2-0.1,0.3-0.2h-0.1c0,0,0,0,0.1,0
		c0.4-0.2,0.8-0.5,1.1-0.9l0.1-0.1c0-0.1,0.1-0.1,0.1-0.2c0.2,0,0.5-0.1,0.7-0.1l0,0c0.1,0,0.2,0,0.2-0.1l0,0h0.1c0.1,0,0.2,0,0.3,0
		c0.2,0,0.4-0.1,0.6-0.2l0,0l0,0c0-0.1,0-0.2,0.1-0.3C-406.2,788.5-406.2,788.5-406.1,788.4C-406.2,788.4-406.2,788.4-406.1,788.4
		C-406.2,788.4-406.1,788.4-406.1,788.4z M-408.6,789.5c-0.1,0.1-0.2,0.1-0.2,0C-408.8,789.5-408.7,789.5-408.6,789.5
		C-408.5,789.4-408.5,789.4-408.6,789.5C-408.5,789.5-408.5,789.5-408.6,789.5z"/>
	<g id="XMLID_3448_">
		<path id="XMLID_3453_" class="st0" d="M-381.5,781.6L-381.5,781.6L-381.5,781.6L-381.5,781.6z"/>
		<path id="XMLID_3449_" class="st0" d="M-379.9,780.7c-0.2-0.1-0.5,0.1-1,0.3c0,0-0.2,0-0.3,0.1c0,0-0.1,0.1-0.2,0.2l-0.1,0.1l0,0
			l0,0l0,0c0,0,0,0.1,0.1,0.2l0,0c0,0-0.1,0-0.1,0.1l0,0l0,0c0,0,0,0-0.1,0.1l0,0l0,0l0,0l0,0l0,0c0,0,0,0-0.1,0l0,0v0.1
			c0,0.1,0,0.1,0,0.1c0,0.1-0.1,0.2-0.1,0.3l0,0c0,0.1,0,0.2,0,0.4c0,0.2,0,0.5,0,0.6c0,0.2,0,0.3,0,0.4c0,0.1,0,0.2,0,0.2
			c0,0.1,0,0.3,0,0.5c0,0.2,0,0.5,0,0.9c0,0.2,0,0.4,0,0.5l0,0l0,0l0,0l0,0l0,0l0,0l0,0l0,0l0,0l0,0l0,0c0,0,0,0,0,0.1l0,0v0.1l0,0
			l0,0l0,0l0,0l0,0l0,0l0,0l0,0l0,0l0,0l0,0l0,0l0,0v0.1c0,0.1,0,0.2-0.1,0.3l-0.2,0.1v0.1v0.4c0,0.1,0,0.3,0,0.4c0,0.2,0,0.3,0,0.4
			s0.1,0.2,0.1,0.3v0.1c0,0,0,0,0,0.1c-0.1,0.4-0.1,0.7-0.1,1l0,0c0,0.1,0,0.3,0.2,0.4c0.2,0.1,0.2,0,0.3-0.1l0.1,0.1l0.1,0.1v-0.1
			l0,0c0.1,0.1,0.2,0.3,0.2,0.4l0,0l0,0l0,0c0,0,0,0.1,0.1,0.1l0,0l0,0l0,0h0.1h0.1c0.1,0,0.1,0,0.1,0s0,0,0.1-0.1
			c0-0.1,0.1-0.1,0.1-0.1s0-0.1,0-0.2c0-0.1,0-0.1,0-0.2c0-0.1,0-0.2,0-0.3c-0.1-0.5-0.1-0.8,0-0.9c0.1-0.2,0.1-0.4,0-0.6
			c0-0.1,0-0.1,0-0.1v-0.4v-0.1c0,0,0.1-0.1,0-0.3l0,0c0-0.1,0-0.2,0.1-0.3c0.1-0.3,0.1-0.6,0.2-1.1c0.1-0.5,0.2-1.1,0.3-1.9
			C-379.7,782.4-379.4,780.8-379.9,780.7z M-381.7,786.5c0-0.1,0-0.2,0-0.2c0-0.6,0-1.2,0-1.8c0,0.2,0,0.4,0,0.6c0,0,0,0,0,0.1v0.1
			v0.1v0.1c0,0.2,0,0.3,0,0.3v0.1C-381.7,786.1-381.7,786.3-381.7,786.5C-381.6,786.4-381.6,786.4-381.7,786.5
			C-381.7,786.4-381.7,786.4-381.7,786.5c0.1,0,0.1,0.1,0.1,0.3c0,0.1,0,0.2,0,0.4v0.2l0,0l0,0l0,0l0,0l0,0l0,0c0-0.1,0-0.3,0-0.4
			C-381.7,786.9-381.7,786.7-381.7,786.5z M-381.8,786.2L-381.8,786.2c0,0.1,0,0.1,0,0.2C-381.8,786.3-381.8,786.2-381.8,786.2z"/>
	</g>
	<path id="XMLID_3447_" class="st0" d="M-399.1,784.3c0-0.1,0.1-0.2,0.1-0.2c0.2-0.4,0.5-2.3,0.6-2.8c0,0,0-0.1,0-0.2
		c-0.1-0.1-0.2,0-0.4-0.1c-0.1-0.1-0.2-0.2-0.2-0.2c-0.1,0-0.1,0.1-0.1,0.1c-0.1,0-0.1,0-0.2,0c-0.1,0-0.2,0.1-0.5,0.5
		c-0.2,0.2-0.2,0.2-0.2,0.3c-0.1,0.2-0.1,0.5-0.2,0.5c-0.1,1.4-0.5,5.2-2,5.8c-0.1,0-0.3,0.1-0.6,0.1c-0.8-0.2-1.1-1.3-1.3-2.1
		c-0.2-1.3-0.1-2.6,0.3-3.8c0.1-0.3,0.2-0.6,0.3-0.9v-0.1c0-0.4-1.4-0.2-1.5,0.3c-0.1,0.4-0.3,0.9-0.4,1.4l0,0
		c-0.1,0.2-0.1,0.3-0.1,0.3s0,0,0,0.1s0,0.1,0,0.2l-0.1,0.1c0,0,0,0.1,0,0.2c-0.3,2.4,0,5.3,2.7,5.4c1,0,1.6-0.2,2.1-0.7
		c0,0.1,0,0.2,0,0.2c0.1,0.1,0.2,0.2,0.3,0.2c0,0.1,0,0.2,0,0.3c0.1,0.1,0.2,0.2,0.2,0.3c-0.1,0-0.1-0.1-0.2-0.1l0,0
		c0.2,0.4,1.5,0,1.5-0.5v-0.1c-0.2-0.4-0.3-0.9-0.3-1.2c0-0.2,0-0.4,0-0.6c0,0,0.1-0.2,0.1-0.3c0-0.1,0-0.1,0-0.2
		c0-0.3,0.1-0.3,0.1-0.8c0-0.2,0-0.2,0-0.3s-0.1-0.2,0-0.2c0-0.1,0.2-0.1,0.2-0.2c0-0.1-0.1-0.1-0.1-0.2c0-0.1-0.1-0.2-0.1-0.3
		C-399.1,784.4-399.1,784.4-399.1,784.3C-399.2,784.4-399.2,784.3-399.1,784.3z"/>
	<path id="XMLID_3444_" class="st0" d="M-391.3,788.4C-391.3,788.3-391.3,788.3-391.3,788.4L-391.3,788.4c-0.1-0.1-0.1-0.1-0.2-0.1
		h-0.1l0,0c0,0,0,0-0.1,0h-0.1h-0.1l0,0h-0.1c0,0,0,0-0.1,0l0,0l0,0h-0.1c-0.1,0-0.2,0-0.2,0l0,0l0,0l0,0l0,0l0,0c0,0-0.1,0-0.2,0
		c-0.1,0-0.1,0-0.2,0l0,0l0,0l0,0l0,0h-0.1l0,0l0,0c0.2-0.5,0.3-1,0.3-1.4c0-1-0.4-1.3-1.1-1.8c-1-0.7-1.3-1.3-1-2.6
		c0.1-0.4,0.3-0.8,0.5-1.1c0.1-0.1,0.4-0.4,0.8-0.4c0.7,0,0.4,0.4,0,0.7l0,0l-0.6,0.2l0,0l0,0v0.1l0,0l0,0c0,0,0,0,0,0.1
		s0,0.1,0,0.1l-0.1,0.1c0,0,0,0-0.1,0l0,0c0.1,0,0.2,0.1,0.4,0.1h0.1c0.1,0,0.1,0,0.2,0h0.1l0,0l0,0c0.1,0,0.2-0.1,0.3-0.1
		c0.1,0,0.2-0.1,0.3-0.2c0.3-0.2,0.7-0.5,1.1-0.7l0.1-0.1l0,0c0,0,0,0,0.1-0.1c0.2-0.2,0.3-0.4,0.3-0.5l-0.2-0.4
		c-0.1-0.1-0.3-0.2-0.6-0.3h-0.1h-0.1h-0.1c0,0-0.1,0-0.2,0h-0.1h-0.1c0,0,0,0-0.1,0h-0.1c-0.1,0-0.1,0-0.1,0l0,0c0,0,0,0-0.1,0
		h-0.1h-0.1l0,0l0,0c-0.7,0.1-1.4,0.5-1.8,1c-0.3,0.4-0.7,0.8-0.9,1.4l0,0c-0.2,0.4-0.3,0.9-0.3,1.4l0.1,0.1v0.1c0,0,0.1,0.1,0,0.1
		v0.1c0.1,0.1,0.1,0.2,0.1,0.2l0.1,0.1c0,0,0,0.1,0.1,0.1l0.1,0.1c0,0.1,0,0.2,0.1,0.4l0.1,0.1c0,0,0,0,0,0.1l0,0l0,0v0.1l0.1,0.1
		c0,0,0,0,0,0.1s0.1,0.1,0.1,0.2l0.1,0.1l0,0c0,0.1,0.1,0.1,0.1,0.2l0.1,0.1l0.1,0.1l0,0l0.1,0.1c0,0,0,0.1,0.1,0.1l0.1,0.1l0,0l0,0
		l0.1,0.1c0,0,0.1,0,0.1,0.1c0,0,0.1,0,0.2,0.1c0,0,0,0,0,0.1c0,0,0,0,0.1,0l0,0l0,0c0.1,0.3,0.1,0.8-0.1,1.4c0,0.1-0.1,0.2-0.1,0.3
		l0,0l0,0l0,0l0,0v0.1l0,0c0,0,0,0.1-0.1,0.2c0.1-0.1,0.2-0.1,0.2-0.1l0,0l0,0c0,0,0.1,0,0.1,0.1c-0.3,0.2-0.4,0.3-0.3,0.4l-0.1,0.1
		l-0.1,0.1l0,0h-0.1l-0.1,0.1c0,0,0,0-0.1,0c0,0,0,0-0.1,0l-0.1,0.1l-0.1,0.1l0,0v-0.1v-0.1c-0.1,0.1-0.2,0.2-0.2,0.2l0,0l0,0h-0.1
		c0.1-0.1,0.2-0.2,0.3-0.3c0,0,0,0,0-0.1v-0.1v-0.1l0.1-0.1l0,0h0.1l0.1-0.1c0,0,0,0,0-0.1s-0.1-0.1,0-0.2l0,0
		c-0.4,0.2-0.9,0.4-1.3,0.6c-0.1,0-0.1,0.1-0.2,0.1c-0.2,0.1-0.3,0.2-0.4,0.3c-0.1,0.1-0.2,0.3-0.2,0.4c0,0.1,0,0.1,0.1,0.2
		c0.1,0.1,0.1,0.1,0.2,0.2c0.1,0.1,0.2,0.1,0.3,0.1l0,0c0.5,0.3,1.4,0.1,1.8-0.1c0.4-0.2,0.8-0.5,1.1-0.9l0.1-0.1
		c0-0.1,0.1-0.1,0.1-0.2c0.2,0,0.5-0.1,0.7-0.1l0,0c0.1,0,0.2,0,0.2-0.1l0,0h0.1c0.1,0,0.2,0,0.3,0c0.2,0,0.4-0.1,0.6-0.2l0,0l0,0
		c0-0.1,0-0.2,0.1-0.3C-391.4,788.5-391.4,788.5-391.3,788.4C-391.3,788.4-391.4,788.4-391.3,788.4L-391.3,788.4z M-393.8,789.5
		c-0.1,0.1-0.2,0.1-0.2,0C-394,789.5-393.9,789.5-393.8,789.5C-393.7,789.4-393.7,789.4-393.8,789.5
		C-393.7,789.5-393.7,789.5-393.8,789.5z"/>
	<path id="XMLID_3443_" class="st0" d="M-383.4,781.4c-0.1-0.1-0.2-0.2-0.2-0.4l0,0c0-0.1,0-0.2,0-0.2l0,0l0,0l0,0h-0.1
		c0,0-0.1,0-0.1-0.1h-0.1h-0.1h-0.3c0,0-0.1,0-0.2,0h-0.1l0,0v0.1l0,0v0.1v0.1c0,0,0,0,0,0.1l0,0c-0.1,0.2-0.1,0.4-0.1,0.6l0,0
		c0,0,0,0.1-0.1,0.1c0,0.1-0.1,0.1-0.1,0.2c0,0-0.1,0.1-0.1,0.2c0,0.1,0.1,0.1,0.1,0.1l0,0c0,0,0,0,0,0.1v0.1l0,0l0,0
		c0,0.2-0.1,0.3-0.1,0.6c0,0.1,0,0.2-0.1,0.3v0.1c0,0.1-0.1,0.4-0.2,0.9c0,0.1,0,0.2-0.1,0.5c0,0.1,0,0.2,0,0.3l0,0l0,0l0,0l0,0
		h-0.1h-0.1l0,0c0.1-0.1,0-0.1-0.1-0.1v0.1c-0.1,0-0.1,0-0.1,0s0,0-0.1,0h-0.1h-0.1h-0.1h-0.1c-0.1,0-0.2,0-0.3,0
		c-0.1,0-0.2,0-0.3,0s-0.2,0-0.3,0h-0.4h-0.1h-0.1c-0.2,0-0.4,0.1-0.7,0.1h-0.1c0-0.2,0-0.4,0-0.7c0-0.1,0-0.2,0-0.3l0,0l0,0
		c0-0.1,0-0.2,0-0.2v-0.6V783c0-0.3,0-0.4,0-0.4v-1.5V781c0,0,0,0,0-0.1l0,0l0,0l0,0l0,0l0,0c0,0-0.1,0-0.1-0.1c0,0,0,0-0.1,0
		s-0.1,0-0.2,0h-0.1h-0.1h-0.1l0,0l0,0l0,0h-0.1h-0.1c-0.1,0-0.2,0.1-0.3,0.2s-0.2,0.2-0.2,0.2l0,0c0,0.2-0.1,0.3-0.1,0.3
		s0,0.1,0,0.2c0,0,0,0.1,0,0.2v0.1l0,0c0,0.1,0,0.1,0,0.1c0,0.1,0,0.2,0,0.3v1.1c0,0,0,0.1,0,0.2c0,0.2,0,0.3,0,0.3s0,0,0,0.1v0.1
		c0,0,0,0,0,0.1c0,0,0,0.1,0,0.2s0,0.2,0,0.2v0.6c0,0.2,0,0.3,0,0.4s0,0.2,0,0.2s0,0.1,0,0.3c0,0,0,0.1,0,0.2c0,0,0,0,0,0.1
		c0,0.1,0,0.1,0,0.2c0,0.1,0,0.1,0,0.2c0,0,0,0.1,0.1,0.2l0,0c0,0.1,0,0.2,0,0.2l0,0l0,0c0,0,0,0,0,0.1v0.1c0.1,0.1,0.1,0.2,0.1,0.3
		v1.5v0.1l0,0c0,0.1,0,0.1,0,0.2v0.1c0,0.1,0,0.1,0,0.1v0.2c0,0,0,0,0,0.1v0.1l0,0l0,0l0,0l0,0l0,0v0.1v0.1l0,0l0,0v0.1l0,0l0,0l0,0
		v0.1v0.1c0,0,0,0,0,0.1l0,0h0.1c0,0,0,0,0.1,0.1v0.1l0,0l0,0l0,0h0.1h0.1c0,0,0.1,0,0.1-0.1h0.1l0,0c0,0,0,0,0.1-0.1l0.1-0.1
		c0,0,0.1-0.1,0.1-0.2c0,0,0-0.1,0.1-0.2c0,0,0,0,0-0.1v-0.1V790c0,0,0-0.1,0.1-0.2c0-0.1,0-0.1,0-0.2c0,0,0,0,0-0.1v-0.1
		c0-0.1,0-0.1,0-0.2v-0.1c0-0.1,0-0.1,0-0.2c0-0.1,0-0.4,0-0.6c0-0.1,0-0.1,0-0.2V788v-1.3c0,0,0,0,0.1,0l0,0c0.1,0,0.1,0,0.1,0h0.1
		l0.1-0.1c0,0,0,0,0-0.1c0.1,0,0.2-0.1,0.3-0.1h0.1h0.1h0.1h0.1c0.1,0,0.1,0,0.2,0h0.4c0.1,0,0.2,0,0.2,0c0.1,0,0.1,0,0.2,0h0.2
		c0.1,0,0.1,0,0.1,0h0.1h0.1h0.1h0.1l0,0h0.1l0.1-0.1c0,0,0,0,0.1,0l0,0l0,0c0,0.2,0,0.3-0.1,0.4c0,0,0,0.1,0,0.2v0.3
		c0,0.1,0,0.4-0.1,0.6v0.4c0,0,0.1,0.1,0.1,0.2v0.1v0.3v0.3c0,0,0,0.1-0.1,0.1v0.7v0.1c0,0,0,0.1,0,0.2s0.1,0.2,0.1,0.4
		c0,0.1,0,0.2,0,0.3c0-0.1,0.1-0.1,0.1-0.2c0,0.1,0,0.2,0.1,0.2l0,0l0,0l0,0v0.1l0,0c0,0,0,0,0,0.1c0,0.1,0.1,0.1,0.1,0.1l0,0
		c0,0,0,0,0,0.1c0,0,0,0.1,0.1,0.1c0.1,0.1,0.1,0.1,0.2,0.1h0.1c0.1,0,0.1,0,0.1,0h0.1l0,0l0,0h0.1c0.1,0,0.1,0,0.1-0.1l0,0l0,0
		c0,0,0,0,0.1,0l0,0l0,0l0,0l0,0v-0.1v-0.1c0,0,0-0.1,0-0.3c0-0.1,0-0.2,0-0.3c0-0.1,0-0.4,0-0.7v-0.1v-0.2v-0.3v-0.6v-0.1
		c0-0.1,0-0.1,0-0.2v-0.1l0,0l0,0l0,0v-0.1c0,0,0,0,0-0.1l0,0l0,0V788v-0.2c0-0.1,0-0.2,0-0.3v-0.1l0,0v-0.2c0,0,0,0,0-0.1l0,0l0,0
		c0,0,0.1-0.2,0.1-0.6v-0.1l0,0v-0.2l0,0V786v-0.1c0,0,0,0,0-0.1c0,0,0,0,0-0.1c0,0,0,0,0-0.1l0,0l0,0l0,0c0,0,0,0,0-0.1v-0.1
		c0-0.1,0-0.1,0-0.1v-0.2v-0.2l0,0l0,0v-0.1l0,0l0,0v-0.1L-383.4,781.4L-383.4,781.4z"/>
	<path id="XMLID_3442_" class="st0" d="M-384.7,782L-384.7,782C-384.8,781.9-384.8,781.9-384.7,782
		C-384.8,781.9-384.8,781.9-384.7,782C-384.8,782-384.8,782-384.7,782L-384.7,782z"/>
	<path id="XMLID_3441_" class="st0" d="M-384.7,782.9L-384.7,782.9L-384.7,782.9L-384.7,782.9z"/>
</g>
<path id="XMLID_3431_" class="st0" d="M-451.4,754.3c0.2,0,0.5,0.5,0.5,0.6c0.3,0.6,0.2,1.1,0.2,1.4c-0.3,2.2-0.6,3.2-0.6,3.2
	c-0.8,2.7-0.7,2.5-0.8,2.7c-0.9,2.7-2.2,5.4-2.9,7.1c-1.7,3.7-2.9,6.5-3.4,10c-0.3,2.2-0.5,4.1,0.5,5.5c0.4,0.6,1.2,1.2,1,1.8
	c-0.2,0.5-1,0.6-1.5,0.7c-0.8,0.1-1.4,0.1-1.8,0c-0.4-0.1-1.4-0.4-2.1-1.2c-0.4-0.5-0.7-1-0.8-1.9c-0.4-2.2,0.4-4.2,0.6-4.9
	c2-5.1,3-7,3-7c1.2-2.3,4.8-9.2,6.3-12.5c0.6-1.4,1-2.1,1.2-3.1C-451.8,755.5-451.8,754.4-451.4,754.3z"/>
</svg>
