<?xml version="1.0" encoding="utf-8"?>
<!-- Generator: Adobe Illustrator 19.0.0, SVG Export Plug-In . SVG Version: 6.00 Build 0)  -->
<svg version="1.1" id="Layer_1" xmlns="http://www.w3.org/2000/svg" xmlns:xlink="http://www.w3.org/1999/xlink" x="0px" y="0px"
	 viewBox="0 0 30 30" style="enable-background:new 0 0 30 30;" xml:space="preserve">
<style type="text/css">
	.st0{fill:#FFFFFF;}
</style>
<g id="XMLID_3632_">
	<path id="XMLID_3636_" class="st0" d="M24,19.6c-0.1-2.2,0-4.4,0-6.6c0-4.6-15.6-4.8-15.4,0.3c0.1,1.9,0,3.8,0,5.7
		c0,1-0.1,1.9,0,2.9c0,0.8,0,1.8,0.6,2.4c0.5,0.6,1.3,1,2.1,1.3c2.1,0.8,4.4,1,6.6,0.8c1.9-0.2,4.2-0.6,5.5-2
		C24.4,23.1,24.1,21.1,24,19.6z M16.3,16.5c-4.1,0-7.5-1.5-7.5-3.3c0-1.4,1.9-2.6,4.6-3.1c0.5,0,1.2,0,1.5,0.7c-0.2-0.5,0-0.9,0.8-1
		c0,0,0.1,0,0.1,0c0,0,0,0,0,0c0.1,0,0.2,0,0.4,0c4.1,0,7.5,1.5,7.5,3.3S20.5,16.5,16.3,16.5z"/>
	<path id="XMLID_3635_" class="st0" d="M12,13.5c0.3,0.4,1,0.8,1.8,1c0,0,2.7-2.1,6.9-1.2c0.1-0.1,0.1-0.3,0.1-0.5
		c0-0.2-0.1-0.4-0.2-0.5C16.7,11.3,12.9,13,12,13.5z"/>
	<path id="XMLID_3634_" class="st0" d="M20.7,12.3c-0.5-0.8-2.3-1.5-4.4-1.5c-2.5,0-4.6,0.9-4.6,2C13.4,11.7,18.4,10.9,20.7,12.3z"
		/>
	<path id="XMLID_3633_" class="st0" d="M14.6,14.7c0.5,0.1,1.1,0.1,1.7,0.1c2.2,0,4-0.7,4.4-1.5C17.3,13.1,15.4,14.2,14.6,14.7z"/>
</g>
</svg>
