<?xml version="1.0" encoding="utf-8"?>
<!-- Generator: Adobe Illustrator 19.0.0, SVG Export Plug-In . SVG Version: 6.00 Build 0)  -->
<svg version="1.1" id="Layer_1" xmlns="http://www.w3.org/2000/svg" xmlns:xlink="http://www.w3.org/1999/xlink" x="0px" y="0px"
	 viewBox="-221 306 169 182" style="enable-background:new -221 306 169 182;" xml:space="preserve">
<style type="text/css">
	.st0{fill:#6E8FBD;}
	.st1{fill:#0E1860;}
	.st2{fill:#8390A2;}
	.st3{fill:#FFFFFF;}
</style>
<g>
	<path class="st0" d="M1397.5,472.6l-6.2-1.1c-12.3-3.3-20.3,1.1-20.4,1.2c-0.1,0-0.1,0.1-0.2,0.2c0,0.1,0,0.2,0.1,0.3
		c0.1,0.1,5.7,5.2,13,5.8c3.9,0.3,7.6-1.3,10.1-2.9c2.2-1.4,3.5-2.7,3.7-2.8c0.1-0.1,0.1-0.2,0.1-0.3
		C1397.8,472.7,1397.7,472.7,1397.5,472.6z"/>
	<g>
		<path class="st1" d="M1394.1,476c-2.5,1.6-6.1,3.2-10.1,2.9c-7.3-0.6-13-5.7-13-5.8c-0.1-0.1-0.1-0.2-0.1-0.3s0.1-0.2,0.2-0.2
			s8.1-4.4,20.4-1.2l6.2,1.1c0.1,0,0.2,0.1,0.2,0.2c0,0.1,0,0.2-0.1,0.3C1397.6,473.3,1396.2,474.6,1394.1,476z M1371.7,473
			c1.3,1.1,6.2,4.8,12.3,5.3c5.9,0.5,11.3-3.8,12.8-5.2l-5.6-1C1380.7,469.3,1373.5,472.2,1371.7,473z"/>
	</g>
</g>
<g>
	<g>
		<path class="st2" d="M-58.9,481.5c-0.9-0.1-1.8-0.3-2.8-0.3c-6-0.3-11.9-0.4-17.9-0.3c-5.6,0.1-11.2,0.1-16.7,0.1
			c-9.7,0-19.5,0.1-29.2,0.1c-3.8,0-7.6-0.1-11.4-0.5c-0.8-0.1-1.6-0.2-2.3-0.4c-0.6-0.2-1.2-0.4-1.6-0.7c-0.7-0.5-0.6-1,0.2-1.4
			c0.5-0.2,1.1-0.4,1.7-0.6c1.9-0.5,3.9-0.7,5.9-0.8c5.7-0.3,11.3-0.1,17-0.1c5.6,0,11.2,0.1,16.8,0.1c3.8,0,7.6-0.1,11.3-0.6
			c1.4-0.2,2.9-0.4,4.1-0.9c1.1-0.5,1.4-1.1,0.8-1.8c-0.3-0.4-0.7-0.8-1.2-1.1c-0.9-0.6-2-1.1-3.2-1.4s-2.4-0.5-3.6-0.8
			c-0.7-0.2-1.3-0.3-1.9-0.5c-0.6-0.2-1.3-0.4-1.8-0.5c0.2-0.7,0.6-1.4,0.7-2.1c0.2-1.3-0.5-3-3.2-3.7c-2-0.5-4-1.1-6-1.6
			c-0.2,0-0.3-0.2-0.4-0.3c-0.5-1.5-1.2-2.9-2.6-4.1c-2.1-1.9-5-2.8-8.5-3.2c-1.5-0.2-3-0.2-4.5-0.1c-2.2,0.2-4,0.9-5.5,1.9
			c-0.8,0.6-1.7,0.7-2.8,0.5c-1-0.2-2-0.2-3,0.1c-1.1,0.3-1.6,0.9-1.8,1.6c0,0.1,0,0.2-0.1,0.3c-0.2-0.1-0.3-0.1-0.4-0.2
			c-1.5-0.6-5.2-1.2-6.8-1.1c-0.6,0.1-1.2,0.2-1.8,0.3c0-0.2,0-0.3,0-0.5c0.2-1-0.1-1.8-0.9-2.6c-0.4-0.4-0.7-0.9-1-1.4
			c-0.9-1.5-2.1-2.8-4.7-3.2c-1.3-0.2-2.5-0.2-3.7,0.2c-0.9,0.3-1.8,0.3-2.6-0.1c-0.6-0.2-1.2-0.4-1.8-0.6c0.2-0.5,0.5-1.1,0.7-1.6
			c0.5-2.4-0.4-4.6-2.8-6.6c-2.4-2-5.6-3.1-9.5-3.2c-1.3,0-2.6,0-3.9,0c-1.9,0.1-3.6,0.6-5.2,1.3c-0.7,0.3-1.4,0.5-2.1,0.7
			c-3.3,1-5.5,2.5-6.3,4.9c-0.3,1.1-0.1,2.1,0.7,3.1c0.3,0.4,0.6,0.7,0.8,1.1c0.3,0.5,0,0.7-0.8,0.8c-0.8,0-1.6,0-2.4,0.1
			c-1.4,0.1-2.6,0.4-3.7,1c-0.5,0.2-0.9,0.6-1.2,0.9c-0.9,1.2-1.5,2.4-1.6,3.8c0,1,0.5,2,1.6,2.7c0.2,0.1,0.4,0.3,0.5,0.4
			c0.5,0.5,1,1,1.6,1.5c-0.2,0-0.4,0-0.7,0c-2.2,0.2-4.3,1.6-4.7,3c-0.1,0.4,0.1,0.7,0.4,1c1.1,1,2.7,1.6,4.6,1.7
			c1.7,0.2,3.5,0.2,5.3,0.3c1.3,0.1,2.5,0.1,3.7,0.6c0.7,0.3,1.4,0.7,1.7,1.2c0.4,0.5,0.2,1-0.6,1.3c-1.3,0.6-2.9,0.8-4.4,0.8
			c-1.6,0-3.2-0.1-4.8-0.1c-7.6,0-15.1,0-22.7,0c-1.9,0-3.8,0-5.7,0.1c-0.5,0-1,0.1-1.5,0.3c-0.3,0.1-0.6,0.4-0.6,0.6
			c0,0.1,0.4,0.4,0.7,0.4c0.9,0.1,1.9,0.2,2.8,0.2c1.7,0,3.3,0,5-0.1c2,0,4.1-0.1,6.1-0.1c5.5,0,10.9-0.1,16.4-0.1
			c1.7,0,3.4,0.1,5,0.5c0.7,0.2,1.3,0.4,1.9,0.7c0.3,0.1,0.6,0.4,0.7,0.6c0.4,0.4,0.2,0.7-0.4,0.9c-0.9,0.2-1.9,0.3-2.9,0.5
			c-1.5,0.2-2.9,0.2-4.4,0.4c-2.1,0.3-3.1,1.2-2.8,2.5c0.3,1.2,1.2,2,2.8,2.6c0.9,0.3,1.9,0.4,2.8,0.6c1.1,0.1,1.5,0.3,1.8,1
			c0.2,0.7,0.9,1.1,1.9,1.3c0.7,0.1,1.3,0.4,1.9,0.6c0.7,0.3,1.2,0.7,1.9,0.9c0.8,0.3,1.6,0.5,2.4,0.6c1.3,0.2,2.4-0.1,3-0.9
			c0.3-0.3,0.5-0.7,0.7-1c0.1,0,0.3,0,0.4,0c0.6,0,1.1-0.1,1.5-0.5s0.8-0.7,1.2-1.1c0.4-0.3,0.9-0.4,1.5-0.3
			c1.4,0.3,2.8,0.4,4.2,0.2c1-0.2,1.8-0.5,2.4-1c0.2-0.2,0.6-0.3,1-0.5c0.3-0.1,0.6-0.1,0.8-0.2c2-0.4,3-1.4,2.6-2.8
			c0.2,0,0.3,0,0.5,0c1.7,0,3.3-0.1,5-0.1c0.7,0,1.3,0,2,0.1c0.6,0.1,0.7,0.3,0.4,0.6c-0.2,0.2-0.4,0.4-0.6,0.6
			c-0.7,0.7-0.8,1.4-0.2,2.2c0.9,1.2,2.6,1.9,4.4,2.5c2.6,0.8,5.4,1.2,8.3,1.2c8.5,0,17.1,0.1,25.6,0.1c6.4,0,12.8-0.1,19.2-0.2
			c4.4-0.1,8.7-0.2,13.1-0.4c4.6-0.2,9.2-0.4,13.9-0.6c2-0.1,4-0.2,6-0.3c0.5,0,1.1-0.1,1.1-0.4C-57.8,481.7-58.4,481.6-58.9,481.5z
			 M-156.7,477.4c-0.1,0.6-0.3,1.2-1.2,1.5c-0.6,0.2-1.3,0.4-2,0.6c-0.5,0.2-1,0.3-1.3,0.6c-0.6,0.5-1.4,0.8-2.3,0.9
			c-1.3,0.2-2.6,0.1-3.8-0.2c-0.8-0.2-1.4-0.1-1.9,0.4c-0.4,0.4-0.8,0.7-1.2,1.1c-0.3,0.3-0.7,0.4-1.2,0.4c-0.2,0-0.3-0.1-0.4-0.2
			c-0.1-0.2-0.1-0.5-0.3-0.6c-0.6-0.5-0.8-1-1-1.6c-0.4-1.1-2.2-1.5-3.5-0.8c-0.8,0.4-1.4,1-1.2,1.7c0.3,0.8,0.9,1.6,2.2,1.9
			c0.4,0.1,0.9,0.1,1.4-0.2c-0.3,0-0.4-0.1-0.6-0.1c-0.7,0.1-1.1-0.1-1.5-0.5c-0.2-0.2-0.5-0.5-0.7-0.7c-0.6-0.5-0.4-1,0.1-1.5
			s1.4-0.8,2.1-0.7c0.9,0.2,1.3,0.6,1.4,1.1c0,0.1,0,0.1,0.1,0.2c0,0.4,0.3,0.7,0.7,1.1c0.2,0.2,0.4,0.5,0.5,0.7
			c0.1,0.7-0.3,1.3-1,1.8c-0.5,0.4-1.1,0.5-1.8,0.5c-1,0-1.8-0.3-2.6-0.6c-0.7-0.3-1.3-0.7-2-1c-0.5-0.2-1-0.4-1.6-0.5
			c-1.1-0.2-1.8-0.5-2-1.3c-0.2-0.7-0.9-1-2-1.1c-0.3,0-0.6,0-0.9-0.1c-2.1-0.3-3.8-1-4.4-2.5c-0.5-1.3,0.2-2.1,2.2-2.5
			c1.2-0.2,2.5-0.2,3.7-0.4c1.2-0.1,2.3-0.2,3.5-0.4c1.3-0.3,1.6-1,0.7-1.6c-0.5-0.4-1.3-0.7-2-1c-1.6-0.6-3.3-0.7-5.1-0.7
			c-2.5,0-4.9,0-7.4,0.1c-5.2,0-10.4,0.1-15.6,0.1c-2.3,0-4.5,0-6.8,0c-0.4,0-0.8-0.1-1.2-0.2s-0.4-0.3-0.1-0.4
			c0.2-0.1,0.4-0.2,0.6-0.2c0.7-0.1,1.3-0.2,2-0.2c2.6,0,5.3,0,7.9,0c6.1,0,12.3,0,18.4,0c2.1,0,4.2,0.1,6.3,0.1
			c1.5,0,2.9-0.3,4.1-0.8c1-0.4,1.3-1,0.8-1.7c-0.4-0.5-1-0.9-1.7-1.2c-1.3-0.6-2.9-0.7-4.4-0.7c-1.5-0.1-3-0.1-4.5-0.2
			c-1.8-0.2-3.4-0.6-4.5-1.6c-0.3-0.2-0.5-0.6-0.5-0.9c0-0.6,0.4-1.2,1.1-1.6c0.7-0.4,1.4-0.7,2.2-1s1.7-0.4,2.6-0.2
			c1.6,0.3,3.3,0.5,4.9,0.4c2-0.2,3.2-0.9,3.6-2.1c0.4-1.2-0.5-2-2.3-2.2c-0.4,0-0.7-0.2-1-0.4c-0.4-0.2-0.9-0.4-1.3-0.5
			c-0.5-0.1-1.2-0.2-1.5,0.2c-0.4,0.4-0.8,0.9-0.4,1.4c0,0,0.1,0,0.2,0c0-0.2,0.1-0.3,0.1-0.5c0.1-0.2,0.2-0.5,0.4-0.7
			c0.1-0.1,0.5-0.3,0.7-0.2c0.5,0.1,1,0.2,1.3,0.4c0.5,0.3,1,0.5,1.7,0.5c0.9,0.1,1.5,0.4,1.8,1c0.3,0.7-0.3,1.7-1.2,2.2
			s-2,0.6-3.2,0.6c-2.5,0.1-4.5-0.5-5.7-2c-0.2-0.3-0.6-0.5-0.9-0.7c-0.8-0.5-1.2-1.2-1.4-1.9c-0.2-1.2,0.3-2.2,0.8-3.3
			c0.7-1.5,2.3-2.2,4.5-2.5c0.9-0.1,1.9-0.1,2.8-0.1c1.3,0,1.8-0.5,1.3-1.3c-0.3-0.4-0.6-0.9-1-1.3c-0.7-0.8-0.8-1.7-0.6-2.6
			c0.6-2.3,2.7-3.9,6-4.8c0.7-0.2,1.5-0.5,2.1-0.7c1.5-0.6,3.1-1.2,4.9-1.2c1.4-0.1,2.7-0.1,4.1,0c3.3,0.1,6.1,1,8.3,2.6
			c2.6,1.8,3.8,4,3.4,6.5c-0.1,0.6-0.4,1.2-0.7,1.8c-0.1,0.2-0.3,0.3-0.6,0.2c-1-0.1-2,0-2.9,0.3c-0.9,0.2-1.5,0.7-1.8,1.3
			c-0.4,0.8-0.7,1.7-1.1,2.5c-0.3,0.6-0.1,1.2,0.6,1.6c1.2,0.9,2.8,1.3,4.6,1.2c1.3-0.1,2.2-0.8,2.1-1.5c0-0.2,0.1-0.4,0.1-0.5
			c0.2-0.5-0.1-1-1-1.4s-1.7-0.4-2.3,0c-0.2,0.1-0.2,0.2-0.3,0.4c0.2,0,0.4-0.1,0.6-0.1c0.6-0.2,1.2-0.2,1.8,0.1
			c0.7,0.3,0.8,0.6,0.7,1.1c-0.1,0.2-0.1,0.3-0.1,0.5c0.2,0.6-0.6,1.1-1.5,1.2c-1.2,0.1-2.4,0-3.4-0.5c-1.5-0.7-1.8-1.3-1.2-2.4
			c0.3-0.6,0.5-1.2,0.8-1.8c0.3-0.8,0.9-1.2,2.1-1.4c1.6-0.3,3.2-0.2,4.7,0.4c1.1,0.4,2.1,0.5,3.3,0.1c1.9-0.6,4.6-0.2,5.9,0.9
			c0.9,0.7,1.6,1.4,2,2.3c0.1,0.3,0.4,0.6,0.7,0.9c1,0.9,1.3,1.8,1.1,2.9c-0.1,0.3-0.3,0.5-0.7,0.7c-0.6,0.2-1.2,0.4-1.8,0.7
			c-0.7,0.3-1.4,0.7-2.2,1c-0.4-0.7-1.2-1-2.1-1.3c-2-0.5-4.1-0.7-6.2-0.5c-3.7,0.4-6.7,1.7-9.3,3.5c-2.2,1.5-3,3.4-3.2,5.4
			c-0.2,1.7,1,2.9,3.4,3.5c0.3,0.1,0.5,0.1,0.8,0.2c1.7,0.3,3.4,0.6,5.1,0.9c0.6,0.1,1.1,0.2,1.6,0.4c0.3,0.1,0.5,0.4,0.5,0.5
			c0,0.2-0.4,0.4-0.6,0.5c-0.7,0.1-1.5,0.3-2.2,0.3c-2.4,0.1-4.7,0.2-7.1,0.4c-1.3,0.1-2.6,0.3-3.7,0.8c-1.3,0.6-1.3,1.4,0.1,1.9
			c1.4,0.5,3,0.8,4.6,0.8c2.4,0,4.8,0,7.2,0C-156.8,476.9-156.6,477-156.7,477.4z M-58.4,482.2c-0.4,0-0.8,0.1-1.2,0.1
			c-2.7,0.1-5.4,0.3-8.1,0.4c-3.1,0.1-6.2,0.3-9.3,0.4c-3,0.1-6,0.2-9,0.2c-4.4,0.1-8.7,0.3-13.1,0.3c-6.5,0.1-13,0.1-19.6,0.1
			c-5.9,0-11.8,0-17.7,0c-3.2,0-6.2-0.4-9.1-1.4c-1.5-0.5-2.8-1.2-3.6-2.2c-0.4-0.6-0.4-1.2,0.2-1.8c0.2-0.2,0.5-0.4,0.7-0.7
			c0.5-0.5,0.3-0.9-0.6-1.1c-0.5-0.1-1.1-0.2-1.6-0.2c-1.2,0-2.5,0.1-3.7,0.1c-3.7,0-7.4,0.1-11.1,0c-1.5,0-2.9-0.3-4.2-0.8
			c-0.9-0.4-0.9-0.8-0.1-1.2c0.7-0.3,1.5-0.6,2.3-0.6c2.3-0.2,4.6-0.3,6.9-0.5c1.3-0.1,2.6-0.2,3.8-0.4c0.9-0.1,1.3-0.6,1-1
			c-0.1-0.3-0.5-0.6-0.9-0.7c-0.7-0.2-1.5-0.4-2.2-0.5c-1.9-0.4-3.9-0.7-5.7-1.2c-1.3-0.3-2-1-2.3-1.8c-0.4-0.9-0.2-1.8,0.1-2.7
			c0.7-2.4,2.6-4.2,5.8-5.4c0.4-0.2,0.9-0.4,1.3-0.6c3.2-1.3,6.6-1.5,10.1-0.8c0.9,0.2,1.8,0.5,2.3,1.1c0.2,0.3,0.2,0.5-0.1,0.7
			c-2.1-1.1-4.4-1.5-7.1-1.2c-2.4,0.2-6,1.6-6.3,2.4c0.3-0.1,0.5-0.2,0.6-0.3c1.9-1.1,4.1-1.8,6.6-2c2-0.1,3.8,0.2,5.4,1
			c0.3,0.1,0.6,0.4,0.6,0.6c-0.1,0.8,0.1,1.6-0.5,2.4c-0.1,0.2-0.2,0.4-0.2,0.7c-0.4,1.5,0.2,2.4,2.1,3c1.1,0.3,1.8,0.8,2,1.6
			c0,0.1,0.1,0.3,0.1,0.4c0.3,0.8,1,1.4,2.1,1.7c1.6,0.5,3.2,0.7,4.9,0.7c3.1,0.1,6.3-1.9,4.3-4.5c-0.6-0.7-1.5-1.1-2.6-1.2
			c-0.8,0-1.5-0.1-2.2-0.3c-0.6-0.1-1.1-0.1-1.5,0.2c-0.7,0.4-0.8,1.1-0.4,1.7c0.1,0.2,0.3,0.4,0.3,0.6c0.3,0.9,1.4,1.4,2.8,1.2
			c0.4,0,0.8-0.1,0.9-0.4c-0.4,0-0.6,0.1-0.9,0.1c-1.2,0.1-2-0.2-2.3-1c-0.1-0.2-0.2-0.4-0.4-0.6c-0.4-0.5-0.3-0.9,0.2-1.3
			c0.5-0.3,1-0.2,1.6-0.1c0.3,0.1,0.7,0.2,1,0.2c2.3,0,4,1.3,3.6,2.8c-0.3,1.1-1.7,2-3.4,2.2c-1.2,0.2-2.4,0-3.6-0.1
			c-2.4-0.2-3.9-1-4.2-2.7c-0.1-0.7-0.8-1.2-1.8-1.5c-0.2-0.1-0.4-0.1-0.6-0.2c-0.8-0.3-1.4-0.7-1.5-1.4c-0.1-0.4-0.1-0.7,0.1-1.1
			c0.4-1,0.7-2,0.7-3.1c0-0.5,0.4-0.9,1.1-1.2c0.8-0.4,1.6-0.8,2.5-1.1c1.1-0.4,2.2-0.7,3.4-0.9c1.6-0.3,5.3,0.3,6.6,0.9
			c0.7,0.3,0.7,0.3,0.3,0.8c-0.5,0.6-0.8,1.2-0.4,1.9c0.4,0.6,1,1,1.8,1.3c1.2,0.4,2.4,0.9,3.6,1.3c1.6,0.5,3,0.3,4-0.6
			c0.8-0.7,0.6-1.4-0.5-1.9c-0.6-0.2-0.9-0.5-1.1-0.9c-0.5-1-2.4-1.3-3.5-0.5c-0.1,0.1-0.2,0.2-0.3,0.4c0,0,0.1,0,0.1,0.1
			c0.2-0.1,0.4-0.2,0.5-0.3c1-0.5,2.3-0.3,2.6,0.5c0.2,0.5,0.5,0.8,1.2,1c0.9,0.3,1.1,0.9,0.5,1.4c-0.8,0.8-1.9,1-3.4,0.6
			c-1.2-0.4-2.4-0.8-3.5-1.2c-1.9-0.9-2.3-1.8-1.1-2.9c0.3-0.3,0.4-0.6,0.4-0.9c0.2-1.1,1.3-1.8,3-1.8c0.6,0,1.2,0.1,1.7,0.2
			c1,0.2,1.8,0,2.5-0.5c0.2-0.1,0.4-0.3,0.7-0.4c1.3-0.8,2.9-1.4,4.8-1.6c1.5-0.1,2.9-0.2,4.4,0c6.8,0.7,9.7,3.3,11,7
			c0,0.1,0,0.1,0,0.2c-0.5,0-0.8-0.1-0.9-0.4c-0.1-0.2-0.2-0.4-0.3-0.6c-0.7-1-1.3-2.1-2.5-3c-3-2.1-6.7-2.6-10.9-2.1
			c-0.2,0-0.4,0.1-0.5,0.2v0.1c3.1-0.4,6.1-0.3,8.9,0.8c2.8,1.1,4,2.9,5.1,4.9c-0.3,0-0.4,0-0.5-0.1c-3.4-0.4-5.7,0.5-6.6,2.6
			c-0.3,0.6-0.2,1.3-0.2,1.9c0,0.4-0.2,0.6-0.8,0.7c-2,0.4-3.3,1.2-4.2,2.4c-1.1,1.4-0.3,2.9,2,3.4c1.1,0.3,2.2,0.5,3.3,0.7
			c0.5,0.1,1,0.1,1.5,0.1c1.2,0,2-0.5,2.3-1.3s-0.2-1.6-1.3-1.9c-0.3-0.1-0.7-0.3-0.9-0.5c-0.5-0.4-1.1-0.7-1.9-0.9
			c-1.2-0.2-2.4,0.4-2.5,1.2c0,0.1,0.1,0.2,0.1,0.3h0.1c0.2-0.2,0.3-0.4,0.5-0.7c0.4-0.5,1.1-0.7,1.9-0.4c0.5,0.2,0.9,0.5,1.4,0.7
			c0.3,0.2,0.5,0.4,0.9,0.5c1,0.4,1.4,0.9,1.2,1.6c-0.3,0.7-0.9,1.1-2.1,1.1c-0.3,0-0.7,0-1-0.1c-1.1-0.2-2.2-0.4-3.2-0.7
			c-1.8-0.4-2.6-1.5-2-2.6c0.7-1.2,1.9-2,3.8-2.5c1.4-0.3,1.5-0.4,1.4-1.4c0-0.1,0-0.1,0-0.2c-0.1-1.1,0.4-2,1.4-2.9
			c0.6-0.5,1.3-0.7,2.2-0.9c1.2-0.2,2.4-0.1,3.6,0.1c2.7,0.4,5.1,1.4,7.7,2c1.2,0.3,1.8,0.9,2.2,1.7c0.6,1.2,0.3,2.4-0.5,3.5
			c-0.1,0.1-0.2,0.3-0.2,0.4c0.8,0.2,1.5,0.4,2.3,0.6c0.7,0.2,1.4,0.4,2.1,0.6c1.3,0.3,2.6,0.6,3.9,0.9c1.5,0.5,2.9,1.1,3.7,2.1
			c0.5,0.7,0.3,1.2-0.8,1.6c-0.8,0.3-1.7,0.5-2.5,0.6c-3.6,0.6-7.2,0.7-10.8,0.7c-9.3,0-18.7-0.1-28-0.1c-3.5,0-7.1,0-10.5,0.4
			c-1.6,0.2-3.1,0.5-4.5,1c-1.4,0.6-1.6,1.5-0.3,2.2c0.6,0.3,1.4,0.6,2.2,0.7c2.1,0.3,4.3,0.5,6.5,0.6c3.5,0.1,7,0.2,10.5,0.2
			c8,0,15.9-0.1,23.9-0.1c5.4,0,10.9,0,16.3-0.1c6.3-0.1,12.7-0.1,19,0.2c1.1,0.1,2.2,0.2,3.2,0.3c0.4,0,0.7,0.2,1,0.3
			C-58.4,482-58.4,482.1-58.4,482.2z"/>
		<path class="st2" d="M-114.2,473.7c0.6,0,1.2,0.2,1.8,0.4c1.9,0.6,4.1,0,4.8-1.2c0.1-0.2,0.1-0.3,0.1-0.5c-0.1,0-0.1,0-0.2,0
			c-0.1,0.2-0.1,0.3-0.2,0.5c-0.8,1.1-2.7,1.5-4.5,1c-0.7-0.2-1.5-0.4-2.3-0.4c-1.8-0.2-3.3-0.7-4.3-1.7c-0.7-0.7-0.8-1.4-0.5-2.2
			c0-0.1,0.1-0.2,0.1-0.3c-0.5-0.1-0.5,0.1-0.6,0.3c-0.4,0.8-0.1,1.6,0.6,2.3C-118,473-116.3,473.5-114.2,473.7z"/>
		<path class="st2" d="M-133.2,471.5c0.6-0.2,1.1-0.5,1.3-0.9c0.1-0.1,0.1-0.2,0.1-0.3h-0.1c-0.1,0.1-0.2,0.1-0.3,0.2
			c-0.4,0.7-1.3,1-2.3,1.1c-3.4,0.6-6.5,0.2-9.2-1.4c-0.7-0.5-1.2-1-1.1-1.7c0-0.1,0-0.2-0.1-0.3c-0.3,0.6-0.2,1.1,0.4,1.6
			c0.9,0.7,1.9,1.4,3.2,1.8C-138.6,472.2-135.9,472.4-133.2,471.5z"/>
		<path class="st2" d="M-164.3,475.9c-1.4,0-2.8,0-4-0.5c0,0-0.1,0-0.2,0l-0.1,0.1c0.2,0.1,0.4,0.3,0.6,0.3c0.8,0.1,1.6,0.3,2.4,0.3
			c2.8,0,5.7,0,8.5-0.1c0.1,0,0.2,0,0.3-0.1v-0.1c-0.2,0-0.4-0.1-0.6-0.1C-159.7,475.9-162,475.9-164.3,475.9z"/>
		<path class="st2" d="M-162.5,462.6c-1.5,1-2.2,2.2-2.4,3.5c0,0.2,0,0.4-0.1,0.5c-0.1,0.9,0.6,1.8,1.9,2.2c0.2,0.1,0.3,0.1,0.5,0.1
			c0.1-0.1,0.1-0.1,0.2-0.2c-0.2-0.1-0.4-0.1-0.5-0.2c-1.5-0.6-1.8-1.5-1.7-2.6c0.2-1.4,0.9-2.5,2.5-3.5c0.1,0,0.1-0.1,0.1-0.1
			s-0.1,0-0.1-0.1C-162.2,462.5-162.3,462.5-162.5,462.6z"/>
		<path class="st2" d="M-130.8,468.5c0.8-0.9-0.5-3.1-2.1-3.3c0.7,0.5,1.5,0.9,1.6,1.5C-131.1,467.2-131,467.8-130.8,468.5z"/>
		<path class="st2" d="M-155.4,475.9c1.2,0,2.5,0,3.7,0v-0.1c-1.2,0-2.5,0-3.7,0C-155.4,475.9-155.4,475.9-155.4,475.9z"/>
		<path class="st2" d="M-107.7,470.5c0.1,0.4,0.2,0.7,0.3,1.1C-107,471.2-107.1,470.8-107.7,470.5z"/>
		<path class="st2" d="M-167,439.5c2.1,0.2,3.7,1,5.2,1.9c2.5,1.5,4.2,3.3,4.4,5.6c0,0.2,0,0.4,0,0.6s-0.1,0.4-0.1,0.6
			c0.1,0,0.2,0,0.3,0c0-0.5,0.1-1,0-1.4c-0.4-2.8-2.6-4.8-5.9-6.5c-2.6-1.3-5.5-1.4-8.5-1.2c-0.2,0-0.3,0.1-0.5,0.1v0.1
			c0.4,0,0.7,0,1.1,0C-169.7,439.3-168.3,439.4-167,439.5z"/>
		<path class="st2" d="M-179.3,441.4c-3.7,0.9-4.9,2.8-4.5,5.2c0,0.2,0.2,0.3,0.3,0.5c0.1,0,0.1,0,0.2,0c0-0.2-0.1-0.3-0.1-0.5
			c-0.4-2.4,1.1-4.2,4.5-5c1.7-0.4,3.3-1,4.8-1.7c0.1,0,0.1-0.1,0.1-0.2c-0.2,0.1-0.4,0.1-0.5,0.2
			C-176.1,440.5-177.7,441-179.3,441.4z"/>
		<path class="st2" d="M-187.2,461.3c-1.6-0.1-3,0.1-4.2,0.8c-0.2,0.1-0.3,0.3-0.4,0.4c0,0,0.1,0,0.1,0.1c0.1,0,0.2,0,0.3-0.1
			c1.4-0.9,3.1-1,4.9-0.9c1.5,0.1,3,0.2,4.5,0c0.4-0.1,0.8-0.1,1.1-0.4c-0.9,0.1-1.6,0.3-2.4,0.3
			C-184.6,461.5-185.9,461.4-187.2,461.3z"/>
		<path class="st2" d="M-184.9,479.5c-0.4,0-0.8-0.1-1.2-0.1c-1-0.1-1.9-0.3-2.6-0.9c0,0.4,0.3,0.6,0.8,0.7c0.8,0.2,1.7,0.4,2.6,0.5
			c1.3,0.2,2.3,0.6,2.8,1.4c0.3,0.5,0.7,0.7,1.2,0.6c-0.4-0.4-0.7-0.8-1.1-1.2C-183,480-183.8,479.7-184.9,479.5z"/>
		<path class="st2" d="M-186.4,476c0.9-0.1,1.8-0.1,2.7-0.2c0.3,0,0.6-0.1,0.9-0.1c-0.1-0.1-0.1-0.1-0.1-0.1
			c-1.3,0.1-2.6,0.2-3.9,0.3c-1.1,0.1-2.1,0.4-2.7,1c-0.3,0.3-0.5,0.6-0.2,1l0.1,0.1c0,0,0.1,0,0.2,0
			C-189.1,476.6-188.4,476.2-186.4,476z"/>
		<path class="st2" d="M-178.9,457.3c-0.1-0.2-0.4-0.4-0.6-0.5l-0.1,0.1c1.1,1.5,0.9,2.8-0.7,4.1l0.1,0.1c0.2-0.1,0.5-0.2,0.7-0.3
			c0.9-0.7,1-1.6,0.9-2.5C-178.7,457.9-178.8,457.6-178.9,457.3z"/>
		<path class="st2" d="M-142.8,456.3c0.1,0.3,0,0.7-0.1,1c0,0.2-0.1,0.3-0.1,0.5c0.1,0,0.1,0,0.2,0.1c0.1-0.1,0.2-0.2,0.3-0.3
			c0.6-0.9,0.1-1.7-0.6-2.5c-0.3-0.4-0.7-0.8-1.1-1.2c0-0.1-0.2-0.1-0.2-0.1c-0.1,0-0.1,0-0.2,0.1c0.2,0.3,0.4,0.6,0.7,0.8
			C-143.4,455.2-142.9,455.7-142.8,456.3z"/>
		<path class="st2" d="M-181.8,444.6c-0.1,0-0.2,0-0.3,0c-0.1,0.3-0.3,0.5-0.3,0.8c-0.2,0.8,0.1,1.7,0.4,2.5c0.1,0.3,0.5,0.6,1,0.7
			C-182.2,447.3-182.5,446-181.8,444.6z"/>
		<path class="st2" d="M-144.4,458c0.7-0.3,0.6-0.7,0.6-1.1c-0.1-0.7-0.3-1.4-1.3-1.9C-144.2,455.8-144,456.9-144.4,458z"/>
		<path class="st2" d="M-147,451.4c0.6,0.4,1.2,0.9,1.9,1.4C-145,452.3-146.2,451.4-147,451.4z"/>
	</g>
	<path class="st3" d="M-54,403.8L-54,403.8L-54,403.8z"/>
	<path id="XMLID_1561_" class="st3" d="M-208,360.1c13.5-6.3,26.9-12.9,40-19.9c5-2.6,10.4-5.8,11.9-11.2c0.2-0.7,0.4-1.4,1-1.8
		c0.4-0.3,0.9-0.2,1.4-0.1c3.6,0.9,5.5,4.5,7.8,7.4c5.5,7.2,14.6,10.5,23.4,12.8c8.8,2.3,17.9,4,25.4,8.9c-4.4,2.9-9.8,3.6-15,4.2
		c-12.4,1.4-24.8,2.9-37.1,4.3c-1.5,0.2-3.2,0.6-3.5,2c6.3,0.6,12.5,1.3,18.9,1.9c0.7,0.1,1.3,0.2,1.9,0.4c0.9,0.4,1.5,1.2,2,2
		c4.5,6.2,9.3,13.2,8.9,20.9c-0.3,4.8-2.5,9.3-2.7,14.1c-0.3,3.9,0.9,8.1-1,11.6c-2.3,4.3-7.8,5.3-12.5,5.9
		c-6.5,0.9-13.2,1.6-19.5-0.3c-3-0.9-5.8-2.4-8.9-3.2c-4.1-1.1-8.5-0.9-12.7-1.6c-0.7-0.2-1.5-0.3-2-0.8c-0.8-0.7-0.9-1.9-0.9-3
		c-0.1-4,0.7-8,2.1-11.7c0.9-2.1,2-4.3,2-6.6c0.1-3.7-2.6-6.7-5.5-9c-2.8-2.3-6.1-4.3-7.9-7.4c-2-3.3-2.1-7.5-4.3-10.6
		c-2.7-4-8.1-5.8-10.2-10.2"/>
	<g id="XMLID_1459_">
		<path id="XMLID_1556_" class="st2" d="M-100.8,352.3c-10.3-2.8-27.7-7.5-33.3-11.7c-7.9-5.9-14.1-10.2-14.9-10.8l-4.2-20.2
			c-0.8,6.7-1.6,13.4-2.4,20.1h-0.2l-0.1,0.1c-0.3,0.3-29.2,24.1-55.2,30.6l0.2,0.5c1.9-0.3,46.4-7.2,57.4-14.5
			c2.2,0.8,21.3,6.9,37,7.8c4.9,0.3,8.7,0.5,11.8,0.7c7.4,0.5,10.2,0.7,11.7,0.3c0.3-0.1,0.3-0.3,0.3-0.3
			C-92.5,354.6-93.3,354.3-100.8,352.3z M-154.4,329.3l1.5-15.1l3.2,15.5h-3.4h-0.7h-0.6V329.3L-154.4,329.3z M-206.4,359.6
			c24.1-7.7,49.1-27.9,51-29.4h1.6c0.1,5.2,0.2,10.4,0.2,15.6l-0.1,0.1C-162.3,351.8-194.3,357.6-206.4,359.6z M-104.5,354.4
			c-3.1-0.2-6.9-0.4-11.8-0.7c-14.7-0.9-32.4-6.4-36.3-7.6c-0.2-5.3-0.3-10.6-0.5-15.8h3.7c0.9,0.6,7,4.9,14.9,10.8
			c5.7,4.3,23.1,8.9,33.5,11.8c3.2,0.9,6.1,1.6,7.3,2C-95.3,355-98.2,354.8-104.5,354.4z"/>
		<g id="XMLID_1553_">
			<g id="XMLID_1554_">
				<polygon id="XMLID_1555_" class="st2" points="-104,360.6 -151,354.8 -151,354.3 -104,360.1 				"/>
			</g>
		</g>
		<g id="XMLID_1550_">
			<g id="XMLID_1551_">
				<polygon id="XMLID_1552_" class="st2" points="-101,359.4 -150.4,353 -150.1,352.4 -100.9,358.8 				"/>
			</g>
		</g>
		<g id="XMLID_1547_">
			<g id="XMLID_1548_">
				<path id="XMLID_1549_" class="st2" d="M-215,382.9l-0.5-0.3c0,0,0.7-0.5,1.5-0.4l0,0c1.1,0,24.3-3.4,32.6-5
					c7.9-1.5,19.8-5.5,19.9-5.5l0.3,0.5c-0.1,0-12,4-20.1,5.6c-7.3,1.4-31.9,5.1-32.9,5C-214.6,382.5-215,382.9-215,382.9z"/>
			</g>
		</g>
		<g id="XMLID_1544_">
			<g id="XMLID_1545_">
				<path id="XMLID_1546_" class="st2" d="M-103,383c-16-1.1-31.6-4.5-47.5-5.9c-0.4,0-0.4,0.5,0,0.5c16,1.4,31.5,4.9,47.5,5.9
					C-102.6,383.6-102.6,383.1-103,383z"/>
			</g>
		</g>
		<path id="XMLID_1492_" class="st2" d="M-103.4,361.1c0.6-0.3,1.2-0.7,1.9-1c1.8-0.9,3.9-1.3,5.8-2c2.9-1.2,5-3.3,6-5.6
			c-1.6,2.3-4.1,4.3-7.2,5.5c-1.8,0.8-3.8,1.2-5.5,2c-1.2,0.6-2.2,1.4-3.4,2c-6,3.1-14.3,1.4-21.2,3.2c0.4-0.5-0.7-1-1.5-1.1
			c-7.9-0.8-15.8-1.5-23.7-2.4c0.5-4.5,0.2-9-0.9-13.4c-0.9,3.5-1.2,7.1-0.9,10.6c0.1,0.6,0.1,1.2-0.1,1.8c-0.8,2-4.2,2.7-7.1,3
			c-3-2.6-6.2-5.2-9.7-7.4c3,2.6,6,5.1,9,7.7c-2.4,0.3-4.8,0.6-7.3,0.9c-0.6,0.1-1.3,0.2-1.9,0.1c-0.9-0.1-1.5-0.6-2.2-1
			c-3.1-2-6.1-3.9-9.2-5.9c3.1,2.7,6.5,5.1,10.2,7.2c-8.4,2.7-18.1,1.4-27.1,0.2c-1.1-0.2-2.3-0.3-3.2-0.9c-0.4-0.3-0.8-0.8-1.3-1.1
			c-1.5-1.1-3.9-0.9-6-1.3c-2.5-0.5-4.5-2-5.2-3.8c0.1,2,2,3.8,4.5,4.3c2,0.4,4.4,0.2,6,1.2c0.7,0.4,1.1,1,1.7,1.5
			c1.1,0.8,2.6,0.9,4.1,0.9c4.8,0.3,9.6,0.7,14.3,1c1.3,0.1,2.6,0.2,3.7,0.8c1,0.5,1.7,1.6,1.1,2.5c-2.8,0.5-5.6,1-8.4,1.6
			c1.5,0.2,3,0.1,4.4-0.2c-1,1-3,1.5-4.7,1.2c0.5-0.7,0-1.8-1-2c-0.5,2.6-0.8,5.3-0.5,7.9c-0.7-1.3,0.7-2.6,2.3-3.2s3.5-0.5,5.3-0.8
			c5.5-0.6,10.8-3.4,16.1-2.2c4.3-0.9,8.6-1.7,12.9-2.6c0.1,0.9,0.1,1.9,0.2,2.9c-17.2,5.1-35.4,7.9-53.5,10.7
			c-1.8,0.3-3.7,0.5-5.4,0.1s-3.1-2-2.3-3.2c-0.8,0.7-0.7,1.8,0,2.6c0.7,0.8,1.7,1.4,2.7,1.9c2.2,1.1,4.4,2.3,6.9,3.1
			c3.2,0.9,6.7,1.3,10.1,1.5c5.2,0.3,10.4,0.3,15.5,0.3c-5.3-0.9-10.8-0.6-16.3-0.9s-11.2-1.4-14.9-4.3c18.3-2.3,36.3-5.7,53.8-10.1
			c2-0.5,4.2-1.1,6.4-1.1c1.9,0,3.8,0.3,5.5,0.7c16,3,32.3,5,48.7,6.1c-2.6,2.4-6.9,3.6-11.1,3.8c-4.2,0.3-8.4-0.3-12.5-0.9
			c-10.3-1.4-20.7-2.8-31-4.3c14,2.1,28.1,4.2,42.1,6.3c-6.2,2.3-13.4,2.6-20.2,1.8c-3.6-0.4-16-2.5-19.8-4.4
			c-0.3-0.2-1.8-0.9-3.8-0.9c-1.4,0-2.4,0.3-2.7,0.4c-2.5,0.9-8.5,2.1-20.6,4.8c-0.9,0.2-2.2,0.5-3.1,1.4c-1.5,1.5-0.8,3.7-0.3,4.9
			c-2.5,0.4-5,0.9-7.4,1.3c-0.9,0.2-2.1,0.3-2.6-0.3c0,1.4,0.1,2.6,0.1,4c0,0.1-0.9,0.6-1,0.7c-0.3,0.3-0.5,0.7-0.6,1
			c-0.1,0.4-0.3,1.9,0.5,2c0.3-0.5,0.3-1,0.6-1.5s0.9-1,1.4-1.4c1.1-0.8,2.6-1.3,4.2-1.3c0.8,0,1.5,0.2,2.4,0.3
			c2.9-0.9,6.1-1.4,9.2-1.3c1.8-1.3,4.4-2,6.8-2c1.7-0.3,3.3-0.5,5-0.8c2.5-0.4,5-0.8,7.5-0.9c3.2-0.1,6.4,0.3,9.6,0.6
			c8.4,0.9,16.9,2,25.3,2.9c0.6,0.1,1.3,0.2,1.6,0.5c0.8,0.9-0.3,2.6,1.1,2.6c1.5-1.4,0.2-3.7-2.2-4.1c0.1-1.4,0.1-2.7,0.2-4.1
			c-0.6,0.2-0.9,0.7-0.8,1.2c-2.7-0.4-5.5-0.9-8.2-1.3c-0.1-1-0.2-2-0.3-3.2c4.9,0.2,8.8-0.3,11.5-0.8c3.2-0.5,5.8-1.4,11.2-3
			c1.7-0.5,2.6-0.9,3.7-1.3c3.2-1.4,5.1-3,6.3-3.9c1.8-1.5,3.8-3.6,3.5-3.8c-0.2-0.1-0.8,0.3-1.9,0.6c-0.6,0.2-2,0.6-5.1,0.5
			c-2.7-0.1-9.8-0.5-19.3-1.4c0.6-1,0.1-2.3-1.1-3c0.1-1.3,0.2-2.6,0.3-3.9c-3.2,0.9-6.7,0.9-9.8,0.3c-0.6-1-0.6-2.1-0.1-3.2
			c7.1-1.8,15.5-0.3,21.8-3.4C-104.7,361.8-104,361.5-103.4,361.1z M-188.3,375.5v-1.6c1.5-0.2,3-0.3,4.4-0.6c0,0.4,0,0.9,0.1,1.2
			c0,0.1,0.1,0.2,0.2,0.2C-185.2,374.9-186.8,375.1-188.3,375.5z M-183.2,371.8c1.2-0.2,2.4-0.4,3.6-0.6c0,0.3,0,0.7,0,1.1
			c-1.2,0.2-2.4,0.3-3.6,0.5V371.8z M-180.7,374.3c-0.9,0.2-1.6,0.3-2.5,0.3c0,0,0.1-0.1,0.1-0.2l-0.1-1.3c1.2-0.2,2.4-0.3,3.6-0.5
			c0,0.4,0,0.9,0,1.4C-180,374.2-180.2,374.3-180.7,374.3z M-178.8,371c1.9-0.3,3.8-0.7,5.6-1c0.1,0.4,0.1,0.9,0.2,1.3
			c-1.9,0.3-3.8,0.6-5.7,0.9C-178.8,371.7-178.8,371.4-178.8,371z M-173.1,372.6c-2,0.3-3.8,0.9-5.7,1.4c0-0.4,0-0.9,0-1.3
			c2-0.3,3.8-0.6,5.7-0.9C-173.1,372-173.1,372.3-173.1,372.6z M-178.9,370.4c0-0.6-0.1-1.3-0.1-1.9c-0.1-0.4-0.2-0.8-0.5-1h0.1
			c2.5-0.8,4.9-1.3,7.4-1.8c0.3,0.3,0.5,0.7,0.6,1c0.3,0.7,0.3,1.4,0.5,2.1C-173.6,369.5-176.1,370-178.9,370.4z M-170.8,369.5
			c0.1,0.4,0.2,0.9,0.3,1.4c-0.6,0.1-1.2,0.2-1.8,0.3c0-0.4-0.1-0.9-0.2-1.3C-171.9,369.7-171.4,369.6-170.8,369.5z M-171.9,372.4
			c-0.2,0-0.3,0.1-0.5,0.1c0-0.3,0-0.5,0-0.8c0.7-0.1,1.3-0.2,2-0.3c0.2,0.2,0.5,0.1,0.6-0.1c1.1-0.2,2.1-0.3,3.2-0.6
			c0,0.4,0,0.9,0,1.3C-168.4,372-170.2,372.2-171.9,372.4z M-166.7,370.2c-1.1,0.2-2.1,0.4-3.2,0.6c-0.1-0.4-0.2-0.9-0.3-1.4
			c1.1-0.3,2.2-0.4,3.3-0.7c0,0,0,0.1,0,0.2C-166.7,369.2-166.7,369.7-166.7,370.2z M-170.2,368.8c-0.2-0.8-0.3-1.5-0.5-2.3
			c-0.1-0.3-0.3-0.6-0.5-0.9c2.1-0.3,4.3-0.7,6.4-0.9c0.9-0.1,2-0.3,2.9-0.4c0,0.1,0,0.2,0.1,0.2c0.2,0.8,0.3,1.6,0.4,2.5
			C-164.3,367.6-167.3,368.2-170.2,368.8z M-166.1,368.7C-166.1,368.6-166.1,368.6-166.1,368.7c1.5-0.4,3.2-0.8,4.8-1.1
			c0.1,0.5,0.1,1,0.2,1.5c-1.6,0.3-3.2,0.6-4.9,0.9C-166,369.6-166.1,369.1-166.1,368.7z M-153.3,369.5c-3.9,1.6-8.2,2-12.5,2.4
			c0-0.4,0-0.9,0-1.4c4.3-0.8,8.5-1.6,12.7-2.6C-153.3,368.5-153.3,369-153.3,369.5z M-153.2,367.4L-153.2,367.4
			c-2.4,0.6-4.9,1.1-7.3,1.6c-0.1-0.5-0.2-1-0.3-1.5c2.6-0.5,5.1-1.1,7.7-1.7C-153.1,366.3-153.1,366.8-153.2,367.4z M-152.9,365.1
			c-2.6,0.6-5.2,1.2-7.8,1.8c-0.1-0.9-0.3-1.8-0.4-2.6c2.6-0.4,5.2-1.1,7.4-2.4c0.2,0,0.4,0,0.4-0.3c0,0,0.1,0,0.1-0.1
			c-0.1,0.1,0,0.3,0.3,0.3l0,0C-152.9,363-152.9,364-152.9,365.1z M-152.9,361.2c-0.1-0.1-0.2-0.2-0.3-0.2c-0.3-3.2-0.2-6.4,0.2-9.6
			C-152.7,354.8-152.7,358-152.9,361.2z M-181.3,397.3c-0.4,0.1-0.9,0.1-1.4,0.2c-1.4,0.2-2.7,0.3-4.1,0.6c-0.3,0.1-0.8,0.1-1.1,0.2
			l-0.1-0.8c2.2-0.3,4.4-0.7,6.7-1.1L-181.3,397.3L-181.3,397.3z M-181.3,395.8c-2.2,0.3-4.4,0.8-6.7,1.1c0-0.4-0.1-0.9-0.1-1.3
			c2.2-0.6,4.4-1,6.7-1.4L-181.3,395.8L-181.3,395.8z M-174.9,396.4c-1.9,0.3-3.8,0.6-5.8,0.8v-0.9c2.6-0.4,5-0.9,7.6-1.4
			c0.1,0.3,0.2,0.7,0.3,1C-173.6,396.1-174.3,396.2-174.9,396.4z M-172.7,393.5c-0.1-0.3-0.8-0.3-0.7,0s0.1,0.6,0.2,0.9
			c-2.5,0.4-5,0.9-7.4,1.4v-1.4l0,0c0.7-0.1,7.4-0.9,9.7-1.4c1.6-0.3,3.2-0.8,5-1.2c0,0.1-0.1,0.1,0,0.2c0.1,0.4,0.2,0.9,0.3,1.2
			c-2.2,0.4-4.5,0.9-6.7,1.4C-172.7,394-172.7,393.8-172.7,393.5z M-167.4,394.5c-1.6,0.4-3.2,0.9-4.7,1.3c-0.1-0.3-0.3-0.7-0.3-1
			c2.2-0.4,4.5-0.9,6.7-1.4c0,0.3,0.1,0.5,0.1,0.7C-166.3,394.2-166.8,394.4-167.4,394.5z M-165.5,391.6c0-0.1-0.1-0.2-0.2-0.2
			c2.1-0.6,4.3-1.1,6.4-1.6l0,0c0.2,0.5,0.3,1.1,0.3,1.6c-2.1,0.5-4.2,0.9-6.3,1.4C-165.3,392.3-165.3,392-165.5,391.6z
			 M-159.5,393.6c-1.8,0.3-3.7,0.3-5.5,0.5c0-0.3-0.1-0.5-0.1-0.8c2.1-0.4,4.3-0.9,6.3-1.4c0.1,0.5,0.2,1,0.3,1.5
			C-158.7,393.5-159.1,393.5-159.5,393.6z M-158.5,389.6L-158.5,389.6c0.8-0.2,1.5-0.3,2.4-0.5c1.4-0.3,1.7-0.5,2.4-0.4
			c0.2,0,0.4,0.1,0.6,0c0.3-0.2,0.4-0.7,0.2-0.9s-0.8,0-1,0.1c-2.8,0.9-15.4,3.9-17.2,4.3c-1.6,0.3-4,0.9-7,1.1
			c-0.3-1.4-0.4-2.8-0.3-4.3c0,0,0,0,0.1,0c3.8-1.7,8.3-2.1,12.5-3.1c4.3-0.9,8.4-2.1,12.5-3.3c0.2,2,0.2,4.1,0.1,6.1
			c0,0.1,0.1,0.2,0.2,0.2c0,0.3,0,0.8,0,1.1h-0.1c-1.6,0.4-3.2,0.8-4.9,1.1C-158.2,390.7-158.3,390.2-158.5,389.6z M-157.8,393.3
			c-0.1-0.5-0.2-1-0.3-1.5c1.6-0.3,3.2-0.8,4.9-1.1c0,0.6,0,1.2,0,1.8C-154.6,392.6-156.2,393-157.8,393.3z M-118.1,395.8
			c-1.1-0.2-2.3-0.3-3.5-0.3c0-0.3,0-0.5,0-0.8c1.1,0.2,2.2,0.3,3.3,0.5c0.1,0,0.2,0,0.3,0C-117.9,395.5-117.9,395.6-118.1,395.8z
			 M-117.8,393.4c0,0.4-0.1,0.9-0.1,1.4h-0.1c-1.2-0.2-2.3-0.3-3.5-0.6c0-0.4,0-0.9-0.1-1.3c0-0.1,0-0.1-0.1-0.2
			C-120.3,393.1-119.1,393.3-117.8,393.4z M-146.9,392.7c-1.7-0.3-3.3-0.6-5.1-0.5c-0.1,0-0.2,0-0.3,0c0-0.6,0-1.1,0-1.7
			c1.8,0.4,3.6,0.8,5.5,1C-146.9,392.1-146.9,392.4-146.9,392.7z M-152.5,390.1c0-0.6,0-1.1,0-1.7l0,0c1.8,0.3,3.7,0.5,5.5,0.8
			c0,0.7,0,1.4,0,2C-148.8,390.9-150.6,390.5-152.5,390.1z M-146.7,388.7c-1.9-0.3-3.7-0.5-5.5-0.8c-0.1,0-0.2,0-0.2,0v-0.1
			c0-0.1,0-0.1-0.1-0.2c0-1.8,0-3.5-0.2-5.3c1.3,0.4,2.6,0.9,4.2,1.3c1.4,0.3,2.6,0.7,3.9,0.9c0,1.4,0.1,2.6,0.1,4
			c0,0.3,0.7,0.3,0.7,0c0-1.3-0.1-2.6-0.1-3.7c1.4,0.4,2.9,0.9,4.8,1.3c0.7,0.2,1.5,0.3,2,0.3c0.3,0.2,0.4,0.3,0.4,0.3
			s-0.1-0.1-0.3-0.3c0.5,1.3,1.1,2.6,1.6,3.9c-1.8-0.3-3.7-0.5-5.5-0.8C-142.8,389.2-144.8,388.9-146.7,388.7z M-140.9,393.7
			c-1.4-0.2-2.8-0.3-4.2-0.5c-0.4-0.1-0.9-0.2-1.2-0.3c0-0.3,0-0.8,0-1.1c1.8,0.3,3.6,0.4,5.4,0.5
			C-140.9,392.4-140.9,393.7-140.9,393.7z M-140.9,390.1v1.7c-1.8-0.2-3.6-0.3-5.4-0.5c0-0.7,0-1.4,0-2
			C-144.5,389.6-142.7,389.9-140.9,390.1C-140.9,390-140.9,390.1-140.9,390.1z M-134.8,394.4c-1.8-0.2-3.6-0.4-5.4-0.6v-1.4
			c1.5,0.2,2.9,0.3,4.4,0.4c0.3,0.1,0.8,0.1,1.1,0.2C-134.7,393.4-134.7,393.9-134.8,394.4z M-134.6,391c0,0.4-0.1,0.9-0.1,1.4
			c-0.3,0-0.6-0.1-0.9-0.1c-1.5-0.2-3-0.3-4.5-0.4v-1.7l0,0c1.6,0.3,3.2,0.4,4.9,0.7C-135.2,391-134.8,391-134.6,391
			c0-0.1,0.1-0.1,0.2-0.1C-134.5,391-134.6,391-134.6,391z M-127.2,395.1c-2.3-0.3-4.6-0.4-6.9-0.7c0-0.4,0.1-0.9,0.1-1.4
			c2.4,0.3,4.7,0.6,7,0.9C-127.1,394.4-127.1,394.7-127.2,395.1z M-126.9,393.4c-2.4-0.3-4.7-0.6-7.1-0.9c0-0.5,0.1-0.9,0.1-1.4V391
			c2.4,0.3,4.8,0.7,7.1,1C-126.8,392.5-126.8,393-126.9,393.4z M-134.7,390.4l-1.1-3.6l0,0c0.9,0.2,1.9,0.3,2.8,0.5
			c0.9,0.1,1.7,0.2,2.5,0.3c1.1,0.3,2.3,0.5,3.5,0.6c0,0.1,0,0.2,0.1,0.3c0.2,1,0.3,2.1,0.3,3.2C-129.4,391.1-132,390.7-134.7,390.4
			z M-126.2,392.2c1.4,0.2,2.6,0.4,4,0.6c-0.1,0-0.2,0.1-0.2,0.3c0,0.3,0.1,0.8,0.1,1.1c-1.4-0.2-2.7-0.4-4-0.6
			C-126.2,393.1-126.2,392.6-126.2,392.2z M-122.2,394.7c0,0.3,0,0.5,0,0.9c-1.2-0.1-2.5-0.2-3.7-0.3c-0.3,0-0.4-0.1-0.7-0.1
			c0.1-0.3,0.2-0.8,0.2-1.1C-124.9,394.3-123.6,394.5-122.2,394.7z M-152.2,362c4,0.6,7.9,1.2,11.9,1.5c4.1,0.3,8.6,0,12.5,1.1
			c-0.1,0.2-0.2,0.3-0.3,0.5c-0.2,0.1-0.3,0.2-0.2,0.3c0,0,0,0.1-0.1,0.1c-0.1,0.2,0.1,0.3,0.3,0.3c-0.2,0.9-0.3,1.9-0.4,2.8
			c-2.1-0.3-4.2-0.4-6.2-0.7c-0.1-0.2-0.2-0.3-0.3-0.5c-0.3-0.3-0.8,0.1-0.5,0.3l0,0h-0.1c-1.7-0.2-3.5-0.3-5.2-0.6
			c0-0.1,0-0.2,0-0.3c-0.1-0.3-0.7-0.2-0.7,0.1c-1.8-0.3-3.5-0.5-5.3-0.8c-0.1,0-0.1,0-0.2,0c-1.7-0.3-3.4-0.7-5-1.1
			c-0.1,0-0.2,0-0.3,0c0-0.1,0-0.2-0.1-0.3C-152.2,364-152.2,363-152.2,362z M-141.1,369.2c0.1,0.5,0.1,1,0.1,1.6
			c0,0.3,0.7,0.3,0.7,0c0-0.5,0-1-0.1-1.5c1,0.1,2.1,0.1,3.2,0.3c0.7,0.1,1.5,0.2,2.1,0.3c0,0.5,0,1,0.1,1.5c0,0.3,0.7,0.3,0.7,0
			l-0.1-1.4c2,0.2,4,0.4,6.1,0.7c0,0.5,0,1.1,0.1,1.6c0,0.2,0.2,0.3,0.3,0.3l0,0v0.1c-1.4-0.2-2.6-0.3-4-0.4l-13.4-1.3
			c-0.3-0.1-0.8-0.2-1.1-0.3v-1.4C-144.6,369.1-142.8,369.1-141.1,369.2z M-146.5,368.5v-1.4c1.7,0.3,3.4,0.5,5.2,0.8
			c0.1,0.3,0.1,0.7,0.2,1C-142.9,368.7-144.8,368.6-146.5,368.5z M-140.5,367.9c1.8,0.3,3.6,0.4,5.5,0.6c0,0.3,0,0.5,0,0.8
			c-0.3,0-0.5-0.1-0.8-0.1c-1.5-0.2-3.1-0.3-4.6-0.3C-140.5,368.5-140.5,368.2-140.5,367.9z M-134.5,368.6c2,0.3,4.1,0.4,6.1,0.7
			c0,0.3,0,0.5,0,0.8c-2-0.3-4.1-0.4-6.1-0.7c0-0.1,0-0.3,0-0.3C-134.5,368.8-134.5,368.6-134.5,368.6z M-152.3,365.7
			c0,0.1,0.1,0.2,0.3,0.2c1.6,0.4,3.2,0.8,5,1v1.5c-1.8-0.2-3.6-0.5-5.3-1.1l0,0C-152.5,366.8-152.3,366.2-152.3,365.7z
			 M-92.1,377.4c-0.9,0.9-2,1.8-3.1,2.6c-15.8-1.1-31.5-3-46.9-5.7c-1.9-0.3-3.8-0.7-5.6-1c-1.5-0.3-2.9-0.6-4.4-0.3
			c-0.2,0-0.3,0.1-0.4,0.1c-0.3-1.7-0.2-3.4-0.1-5.1c1.7,0.5,3.5,0.9,5.4,1v1.4c-1.6-0.3-3.2-0.7-4.8-1c-0.4-0.1-0.6,0.4-0.2,0.5
			c1.7,0.3,3.3,0.7,5,1c0,0.3,0.4,0.3,0.6,0.2c0.2,0.1,0.4,0.1,0.6,0.2c0.1,0,0.1,0.1,0.2,0.1h0.3c2.6,0.6,5.1,1.2,7.8,1.6
			c5.2,0.8,10.5,1.6,15.8,2.3C-112.1,376.5-102.1,377.4-92.1,377.4z M-118.3,372.8c-1.3,0.2-2.6,0.2-3.9,0.1
			c0.1-0.5,0.2-1.1,0.2-1.6c1.3,0.2,2.6,0.3,3.8,0.4l0,0C-118.1,372-118.2,372.4-118.3,372.8z M-117.9,369.7c0,0.5-0.1,1-0.1,1.4
			c-1.3-0.2-2.6-0.3-3.9-0.4c0-0.3-0.1-0.5-0.1-0.9c0-0.1-0.1-0.2-0.3-0.3C-120.8,369.7-119.4,369.7-117.9,369.7z M-127.1,369.3
			c1.5,0.2,3,0.3,4.5,0.3c-0.1,0-0.2,0.1-0.2,0.3c0,0.3,0.1,0.5,0.1,0.8c-1.5-0.2-3-0.3-4.4-0.5
			C-127.1,369.8-127.1,369.6-127.1,369.3z M-127.2,372.4c0.1-0.6,0.1-1.2,0.2-1.7c1.5,0.2,3,0.3,4.4,0.5c0,0.6-0.1,1.1-0.2,1.7
			c-1.5-0.1-3-0.2-4.5-0.3C-127.3,372.5-127.2,372.4-127.2,372.4z M-122.8,373.4c0.2,0.2,0.4,0.2,0.6,0c1.5,0.1,3.2,0,4.7-0.2
			c0,0,0,0,0.1,0c0.2,0.1,0.3,0.3,0.3,0.4c0.1,0.5,0.2,0.9,0.3,1.4c0,0.1,0,0.1,0,0.2c-1.9-0.3-3.8-0.4-5.5-0.7
			c-5-0.7-10.1-1.4-15.1-2.2c-1.3-0.2-2.6-0.4-3.8-0.8c3.4,0.3,6.7,0.7,10.2,1C-128.5,372.8-125.6,373.2-122.8,373.4z"/>
		<g id="XMLID_1489_">
			<g id="XMLID_1490_">
				<path id="XMLID_1491_" class="st2" d="M-99,407.2h-0.2c-17.4-1.3-34.7-2.6-52.1-3.8c0.3-0.2,0.5-0.3,0.8-0.4
					c17.1,1.2,34.2,2.5,51.3,3.7l9.6-5.7c-1.7,0.3-4.8,0.5-8.4,0.2c-5.5-0.5-20.5-1.9-20.7-2l-33.7-4.1l-59.7,12.1l-0.2-0.5
					l59.8-12.1h0.1l33.8,4.2c0.2,0,15.2,1.4,20.7,2c5.4,0.5,9.6-0.4,9.6-0.4l1.7-0.3L-99,407.2z"/>
			</g>
		</g>
		<path id="XMLID_1488_" class="st2" d="M-100.3,409.4c-3.1,4.4-7.7,7.8-11.2,12c-0.3,0.3,0.4,0.7,0.7,0.3c3.6-4.1,8.2-7.6,11.2-12
			C-99.4,409.4-100.2,409.1-100.3,409.4z"/>
		<path id="XMLID_1487_" class="st2" d="M-190.9,422.9c-0.1,0-0.3,0-0.3-0.1c-3.8-3.2-6.1-7.1-9.3-10.6c-0.1-0.1-0.3-0.3-0.3-0.3
			c-0.1-0.1-0.1-0.3,0-0.3c0.3,0,0.4,0,0.7,0.1c0.2,0.2,0.3,0.3,0.5,0.6c3,3.3,5.2,6.8,8.7,10c0.1,0.1,0.3,0.3,0.4,0.3
			C-190.5,422.7-190.6,422.9-190.9,422.9z"/>
		<path id="XMLID_1460_" class="st2" d="M-90.1,401.9c-5.4,0.7-10.8,0.5-16.1,0.3c-5.1-0.2-10.3-0.3-15.4-0.6
			c-10.2-0.5-20.5-1.4-30.3-3.7l0,0c0-1,0-2-0.1-3.1c0-0.3-0.8-0.3-0.7,0c0.1,0.9,0.2,1.8,0.1,2.6c-4,2-8.6,3.1-13.3,3.9
			c-5,0.9-10,1.7-15,2.6c-5.2,0.9-10.6,0.9-15.9,1.2c-5,0.3-10.3,0.3-15.2,1.4c-0.4,0.1-0.3,0.6,0.2,0.5c0.3-0.1,0.5-0.1,0.8-0.2
			c0,0.1,0,0.3,0.2,0.3c1.5,0.8,3.2,1.6,4.7,2.4s3,1.8,4.6,2.2c0.4,0.1,0.8,0.2,1.2,0.2c0.3,0,0.6,0,0.9,0c0.7-0.1,1.3-0.2,2-0.3
			c1.7-0.3,3.4-0.7,5-1.2c0.4,3.8,1.2,7.6,1.7,11.4c0,0.3,0.1,0.5,0.1,0.8c0.3,2.6,0.6,5.2,0.6,7.8c-2.6,0.4-5.3,0.9-7.9,1.3
			c-0.4,0.1-0.3,0.6,0.2,0.5c1.4-0.3,2.8-0.5,4.2-0.7c0,0.4,0,0.9,0,1.3c-1.4,0.2-2.7,0.3-4.2,0.5c-0.4,0.1-0.3,0.6,0.2,0.5
			c1.4-0.2,2.6-0.3,3.9-0.4c0,0.4,0,0.9,0,1.4c0,0.1,0.1,0.2,0.2,0.2c-1.9,0-3.7-0.1-5.5-0.2c0-1.1,0-2.3,0-3.4c0-0.3-0.7-0.3-0.7,0
			v0.3c-0.1,0-0.1,0.1-0.1,0.2c-0.2,2.6-0.2,5.2,0.1,7.8c0,0.1,0,0.1,0,0.2c0,1.7,0,3.4,0.1,5.2c0,0.2,0.3,0.3,0.4,0.3
			c-0.1,0.7-0.3,1.4-0.4,2.1c-0.5,2.2-0.4,4.4-0.5,6.7c0,2.6,0,5-0.1,7.6c0,0.3,0.7,0.3,0.7,0c0-5-0.4-10.1,0.8-15.1
			c0.5-2.1,0-4.3-0.3-6.4c0-1.6,0-3.2,0-4.9c4,0.2,8.1,0.3,12.1,0s8-0.9,12-1.1c3.8-0.3,7.5,0,11.3-0.4c4.3-0.4,8.4-1,12.6-1.4h0.1
			v12.4c0,0.3,0.7,0.3,0.7,0v-12.4c2.1,0,4.3,0,6.4,0c0.1,0.1,0.3,0.1,0.4,0c2.1,0,4.2,0,6.3,0v0.1c0.1,0.3,0.8,0.2,0.7-0.1
			c1.9,0,3.8,0,5.7,0v0.2c0,0.3,0.7,0.3,0.7,0v-0.2c4.1,0,8.2,0.1,12.4,0.3c0,0.3,0.6,0.3,0.7,0c2.2,0.1,4.5,0.2,6.7,0.3
			c3.3,0.2,6.5-0.2,9.8-0.3c0.4,0,0.8-0.1,1.2-0.1c0,0,0,0,0,0.1c0.1,0.3,0.5,0.3,0.7,0c0.3,0.1,0.4,0.1,0.6,0.3
			c0.4,0.3,0.3,1.4,0.4,1.9c0.2,1.4,0.2,2.7,0.3,4c0.1,4.9,0.9,9.8,2.3,14.7c0.1,0.3,0.8,0.2,0.7-0.2c-1.1-3.6-1.8-7.2-2-11
			c-0.3-3.4,0.1-6.8-0.9-10.1c0-0.1-0.2-0.2-0.3-0.2c-0.3,0-0.6,0-0.9,0c-0.2-0.9-0.3-1.8-0.3-2.7c0-0.4,0.3-1-0.2-1.4
			c-0.7-0.5-2.7,0.2-3.6,0.3c-2.7,0.3-5.5,0.3-8.4,0c0-0.3,0-0.5,0-0.8c0-0.1,0-0.3,0-0.3c0-0.4,0-0.9,0.1-1.3v-0.1
			c0-2.6-0.2-5.1-0.6-7.7c-0.1-0.3-0.1-0.7-0.2-1c0.1-0.1,0.1-0.3-0.1-0.3c-0.2-0.7-0.3-1.4-0.4-2.1c0.1-0.1,0.1-0.3-0.1-0.3
			c-0.3-1.8-0.5-3.7-0.5-5.5c2.6,0.1,5.1,0.2,7.7,0.2c1.6,0,8,0.3,6.1-2.4c-0.2-0.3-0.9,0-0.6,0.3c0.6,0.9-0.9,1.4-1.8,1.6
			c-0.4,0.1-0.9,0-1.5,0c-0.2-0.1-0.4-0.1-0.8-0.2c-1-0.2-9.8-0.9-11.4-1c-0.6-0.1-2-0.1-3.6-0.1c-3.2-0.2-6.2-0.3-8.5-0.3h-0.1
			c-7.7-0.9-15.4-1.4-23.2-2c-0.4,0-0.4,0.5,0,0.5c5.1,0.3,10.3,0.6,15.4,1.1c5.2,0.4,10.3,1.2,15.4,1.8c2,0.2,4,0.3,6,0.4
			c0,1.8,0.2,3.6,0.5,5.5c-1.6,0-3.2-0.1-5-0.1c-2,0-4.4,0.2-6-0.8c-0.1,0-0.2-0.1-0.2,0c-0.3-1.4-0.6-2.7-0.9-4.1
			c-0.1-0.3-0.8-0.2-0.7,0.2c2,7.4,3,14.9,3.1,22.4c-0.4,0-0.8,0-1.2,0c-0.8,0-1.5,0-2.3,0v-0.1c0.3-7.3,0-14.7-1-22
			c-0.1-0.3-0.8-0.3-0.7,0c0.2,1.3,0.3,2.6,0.5,3.8c-3.5-0.3-6.9-0.6-10.4-0.8c-0.1-1.4-0.1-2.7-0.2-4.1c0-0.3-0.7-0.3-0.7,0
			c0,1.4,0.1,2.8,0.2,4.2c-0.1,0.1-0.1,0.3,0,0.3c0.1,0.9,0.1,1.9,0.2,2.8c-0.1,0.1-0.1,0.3,0,0.3c0.3,3.3,0.6,6.6,1,9.9
			c0,0.1,0,0.1,0.1,0.1c-1.2,0-2.3,0-3.5,0c0.1-6-0.1-11.9-0.4-17.9c0-0.3-0.7-0.3-0.7,0c0.3,6,0.5,11.9,0.4,17.9
			c-2.6,0-5.2,0-7.8,0c0.2-1.2,0.3-2.4,0.3-3.5c0-5.1-1.4-10.1-1.3-15.2c0-0.3-0.7-0.3-0.7,0c0,6.2,2,12.4,1,18.7
			c-0.2,0-0.3,0-0.5,0h-0.1c-0.1,0-0.2,0-0.2,0.1h-0.1c-0.3,0-0.6,0-0.9,0c-0.4-1.4-0.3-2.8-0.3-4.3s-0.2-3-0.3-4.5
			c-0.4-3-1.1-6-0.9-9c0-0.3-0.7-0.3-0.7,0c-0.1,1.6,0.1,3.2,0.3,4.7c-2.6,0.3-5.1,0.5-7.7,0.7c-0.4-2.5-1-4.9-1.5-7.4
			c-0.1-0.3-0.8-0.2-0.7,0.2c0.4,2.4,1.1,4.9,1.5,7.4c-0.2,0.1-0.2,0.4,0.1,0.4c0.2,1.2,0.3,2.4,0.3,3.6c0,3.2-1,6.2,0,9.3l0,0
			c-0.9,0.2-1.8,0.3-2.6,0.4c-0.3-6.6-1-13.1-2.3-19.7c-0.1-0.3-0.8-0.2-0.7,0.2c0.6,3.1,1.1,6.1,1.5,9.2l0,0
			c-2.5,0.1-5,0.3-7.4,0.8c-0.1-0.6-0.2-1.3-0.3-1.9c2.2-0.5,4.5-0.2,6.7-0.8c0.4-0.1,0.3-0.6-0.2-0.5c-2.1,0.6-4.4,0.3-6.6,0.8
			c-0.3-2.1-0.7-4.2-1.2-6.3l-0.1-0.2c-0.1,0-0.1,0.3-0.1,0.4c0.1,2.2,0,2,0.1,2.2c0.2,1.6,0.6,3.3,0.7,3.7
			c-0.2,0.3-0.3,0.4-0.2,0.5c0.1,0,0.2,0,0.3,0c0,0.3,0,0.8,0,1.2c0,0.3,0.1,0.7,0.1,0.9c-0.1,0-0.3,0-0.3,0.1
			c-0.4,0.1-0.3,0.6,0.2,0.5c0.1,0,0.2,0,0.3,0c0.3,3.1,0.3,6.2,0.3,9.3c0,0.3,0.7,0.3,0.7,0c0.1-3.2,0-6.3-0.3-9.5
			c2.4-0.4,4.9-0.7,7.3-0.8h0.1c0.4,3.3,0.7,6.6,0.8,10c-3,0.4-5.9,0.8-9,0.9c-1,0.1-2,0.1-3,0.2c-0.6-3-1-6-1.3-9
			c0.1,0,0.1,0,0.2,0c0.4-0.1,0.3-0.6-0.2-0.5l0,0c-0.2-3.3-0.2-6.6,0.1-9.9c0-0.3-0.7-0.3-0.7,0c-0.2,2.2-0.3,4.4-0.2,6.6h-0.1
			c-2.9,0.3-6,0.3-8.6,1.4c-0.4-2.5-0.9-4.9-0.7-7.3c0-0.3-0.7-0.3-0.7,0c-0.3,3.2,0.6,6.2,1,9.3c0.5,3.2,0.6,6.4,0.4,9.5
			c0,0.3,0.7,0.3,0.7,0c0.2-2.9,0.1-5.8-0.3-8.6c2.8,0.3,5.6,0.1,8.4-0.3c0.3,3,0.6,6,1.3,8.9c-3.9,0.3-7.8,0.8-11.6,1.4
			c0.1-6.8-1.8-13.5-2.5-20.3c0-0.2-0.3-0.3-0.4-0.3c-2.1,0.6-5.1,1.6-7.7,1.5c-0.3,0-0.4,0-0.7-0.1c-0.7-0.1-1.3-0.3-1.8-0.5
			c-2.6-1.3-5.3-2.7-7.9-4.1c4.9-0.9,10.1-0.9,15-1.2c5.2-0.3,10.3-0.4,15.4-1.3c5.1-0.9,10.2-1.6,15.3-2.6
			c4.3-0.8,8.4-1.9,12.2-3.6c0,0.1,0.1,0.2,0.3,0.2c10,2.4,20.5,3.2,30.9,3.7c5.3,0.3,10.5,0.4,15.8,0.6c5.4,0.2,10.7,0.3,16-0.3
			C-89.5,402.4-89.7,401.9-90.1,401.9z M-110.7,432.5c0.1-0.1,0.1-0.1,0.1-0.3c-0.1-0.5-0.3-1.1-0.3-1.6c3.7,0,7.3-0.1,11.1-0.1
			c0.1,0,0.2,0,0.3-0.1c0,0.1,0,0.2,0,0.3c0,0.5,0.1,1,0.2,1.4C-103.2,432.3-106.8,432.8-110.7,432.5z M-105.3,429.1
			c0.9,0,1.6-0.1,2.4-0.2s1.7-0.4,2.6-0.4c1,0.1,0.7,0.4,0.7,0.9c0,0.2,0,0.4,0,0.6c-0.1-0.1-0.2-0.1-0.3-0.1
			c-3.7,0.1-7.4,0.1-11.1,0.1c0-0.4-0.1-0.8-0.1-1.2C-109.1,429.1-107.2,429.2-105.3,429.1z M-111.3,432.4
			C-111.3,432.5-111.3,432.5-111.3,432.4c-1.9-0.1-3.8-0.2-5.7-0.3c0-0.5,0-1,0-1.5c1.8,0,3.6,0,5.5,0
			C-111.5,431.3-111.4,431.9-111.3,432.4z M-111.7,430.1c-1.8,0-3.6,0-5.4,0c0-0.6-0.1-1.1-0.2-1.7c1.8,0.2,3.6,0.3,5.5,0.4
			c0,0,0,0,0.1,0C-111.7,429.4-111.7,429.7-111.7,430.1z M-124.1,414.2c1.4,0.6,3.2,0.6,4.7,0.7c2.1,0.1,4.3,0.1,6.4,0.1
			c0.1,0.6,0.3,1.3,0.3,1.9c-3.7-0.4-7.3-0.1-10.9-0.3C-123.7,415.8-123.9,415-124.1,414.2z M-123.5,417.1c3.7,0.2,7.3-0.2,10.9,0.3
			c0,0.2,0.1,0.3,0.1,0.5c0.5,2.7,0.8,5.5,0.7,8.3c-0.1,0-0.2,0.1-0.2,0.3l0.1,2c-1.9-0.2-3.7-0.3-5.5-0.5c0-0.2-0.1-0.4-0.1-0.6
			c-0.1-0.3-0.8-0.2-0.7,0.2c0,0.2,0.1,0.3,0.1,0.5c-0.1,0.1,0,0.2,0.1,0.3c0.2,1.3,0.3,2.6,0.3,3.8c-1.5-0.1-2.9-0.1-4.4-0.2
			C-122.1,427.1-122.6,422.1-123.5,417.1z M-130.7,431.9c-2,0-3.9,0-5.9,0c-0.2-0.7-0.3-1.4-0.4-2c0.9,0,1.8,0.1,2.7,0.1
			c1,0,2.6,0.3,3.6,0C-130.8,430.1-130.8,431.9-130.7,431.9z M-137.9,413.5c3.4,0.2,6.8,0.4,10.2,0.8c0.1,0,0.1,0,0.2,0
			c0.1,0.8,0.2,1.4,0.2,2.2c0,0,0,0-0.1,0c-3.2-0.9-7.1-0.7-10.4-0.4C-137.8,415.2-137.9,414.3-137.9,413.5z M-137.7,416.5
			c3.1-0.2,6.8-0.4,9.7,0.3c0,0,0.1,0.1,0.2,0.1c0.2,0,0.3,0.1,0.4,0.1c0.1,0,0.2,0,0.3,0c0.4,4.9,0.5,10,0.3,14.9v0.1
			c-1,0-2,0-3.1,0v-5.2c0-0.2-0.3-0.3-0.4-0.3c-0.1-0.1-0.2-0.1-0.3-0.1c-2,0-4,0.1-6,0.1v-0.1
			C-137.1,423.1-137.5,419.8-137.7,416.5z M-130.7,427v2.4c-0.7,0.3-1.9,0.2-2.6,0.2c-0.9,0-1.8,0-2.7-0.1c-0.3,0-0.8,0-1.1-0.1
			c-0.1-0.8-0.3-1.5-0.3-2.4C-135.2,427-133,427-130.7,427z M-137.3,431.9h-6.1c-0.2-0.9-0.3-1.7-0.3-2.6c1.4,0.2,2.6,0.3,3.9,0.4
			c0.7,0,1.4,0.1,2,0.1C-137.7,430.6-137.5,431.3-137.3,431.9z M-141.4,427.1c0.1,0,0.2,0,0.3,0c0.9,0,2,0,2.9,0
			c0.1,0.8,0.2,1.5,0.3,2.3c-1.2-0.1-2.4-0.1-3.6-0.2c-0.8-0.1-1.5-0.2-2.3-0.3c-0.1-0.6-0.1-1.3-0.1-1.9
			C-143.1,427.1-142.2,427.1-141.4,427.1z M-150.4,427c2,0,3.8,0,5.8,0c0,0.6,0,1.2,0.1,1.8c-2-0.2-3.9-0.4-5.9-0.2L-150.4,427
			L-150.4,427z M-150.4,429.2c1.9-0.2,3.9-0.1,5.9,0.2c0.1,0.9,0.2,1.8,0.3,2.6c-2,0-4.2,0-6.2,0V429.2L-150.4,429.2z M-187.7,420
			c0-0.1,0-0.3,0-0.3c-0.1-0.5-0.2-0.9-0.3-1.4c0.1,0,0.1,0,0.2,0c2.5-1,5.5-1,8.4-1.3h0.1c0,0.9,0.1,1.9,0.1,2.8
			C-182.1,420.2-184.9,420.3-187.7,420z M-151,432L-151,432c-0.1,0-0.2,0-0.3,0c-2,0.3-4,0.5-6,0.7c0.1-0.1,0.2-0.2,0.1-0.3
			c-0.3-0.9-0.4-1.8-0.6-2.7c2.2-0.2,4.4-0.3,6.7-0.5h0.1V432L-151,432z M-153.9,414c0.1,0.7,0.2,1.3,0.3,2c-2.6,0.2-5.1,0.5-7.7,1
			c-0.1-0.8-0.2-1.5-0.3-2.3C-159.1,414.4-156.5,414.1-153.9,414z M-161.3,417.5C-161.3,417.5-161.2,417.5-161.3,417.5
			c2.6-0.5,5.1-0.9,7.7-1l0,0c0.1,0.6,0.2,1.2,0.3,1.9c0.2,1.5,0.3,3,0.3,4.5c0,1.3-0.1,2.6,0.3,3.7c-2.9,0.1-5.7,0.4-8.6,0.9
			C-162.5,424.1-161.2,420.8-161.3,417.5z M-163.8,428.4c0.3,0,0.5-0.1,0.8-0.1c0.4-0.1,0.9-0.2,1.3-0.2l0,0
			c0.2,0.3,0.8,0.2,0.7-0.2c2.8-0.4,5.7-0.9,8.6-0.9c0,0,0,0,0,0.1c0.1,0.3,0.7,0.2,0.7-0.1c0.3,0,0.5,0,0.8,0v1.7
			c-2.3,0.2-4.5,0.3-6.8,0.5c-0.1-0.5-0.1-0.9-0.1-1.4c0-0.3-0.7-0.3-0.7,0c0,0.5,0.1,1,0.1,1.5c-1.8,0.2-3.6,0.3-5.4,0.5
			C-163.8,429.3-163.8,428.9-163.8,428.4z M-165.3,428.6c0.2,0.1,0.4,0.1,0.5-0.1h0.1c0,0.4,0,0.9,0,1.4c-1.9,0.2-3.8,0.3-5.6,0.6
			c0-0.4,0-0.8,0-1.2v-0.1C-168.5,429-166.8,428.9-165.3,428.6z M-170.2,433.2c0-0.8,0-1.5,0-2.2c1.9-0.2,3.8-0.4,5.6-0.6
			c0.1,0.9,0.2,1.7,0.4,2.6c0.1,0.3,0.8,0.2,0.7-0.2c-0.3-0.9-0.3-1.6-0.4-2.5c1.8-0.2,3.6-0.3,5.4-0.5c0.2,0.9,0.3,1.9,0.6,2.8
			c0,0.1,0.1,0.1,0.2,0.2c-1.9,0.3-3.8,0.4-5.5,0.7c-4.2,0.4-8.3,0.2-12.4,0.5c-0.3,0-0.5,0.1-0.8,0.1c0.1-0.1,0.1-0.2,0.1-0.3
			c-0.2-0.7-0.3-1.4-0.4-2.1c2-0.3,3.9-0.4,6-0.6c0,0.8,0,1.4,0,2.1C-170.8,433.6-170.2,433.6-170.2,433.2z M-177,429.6
			c1.1-0.1,2.2-0.2,3.2-0.2c0.9,0,1.9-0.1,2.7-0.2l0,0c0,0.4,0,0.9,0,1.3c-2,0.2-4,0.4-6,0.7C-177,430.7-177,430.1-177,429.6
			L-177,429.6z M-187.2,430.7c3.1-0.4,6.2-0.8,9.4-1c0,0.2,0.1,0.3,0.1,0.5c0,0.1,0.1,0.2,0.2,0.2c0,0.3,0,0.6,0.1,0.9
			c-3.2,0.3-6.5,0.8-9.7,1.1L-187.2,430.7L-187.2,430.7z M-187.2,434.7v-1.8c3.2-0.3,6.5-0.8,9.7-1.1c0.1,0.8,0.3,1.4,0.4,2.2
			c0,0.1,0.1,0.1,0.1,0.1c-3.3,0.3-6.7,0.8-10.1,0.9c-2,0.1-4.1,0.2-6.1,0.2c0.1,0,0.2-0.1,0.2-0.2c0-0.5,0-0.9,0-1.4
			c1.7-0.2,3.4-0.4,5.1-0.6v1.7C-187.9,435-187.2,435-187.2,434.7z M-189.6,431.5c0-0.2,0-0.3,0-0.4c0.5-0.1,1.1-0.2,1.6-0.3v1.5
			c-1.7,0.2-3.4,0.4-5.1,0.6c0-0.4,0-0.9,0-1.3c0.9-0.2,1.9-0.3,2.8-0.4c0,0.1,0,0.2,0,0.3C-190.3,431.9-189.6,431.9-189.6,431.5z"
			/>
	</g>
	<circle class="st2" cx="-82.3" cy="336.7" r="14.7"/>
</g>
</svg>
