<?xml version="1.0" encoding="utf-8"?>
<!-- Generator: Adobe Illustrator 19.0.0, SVG Export Plug-In . SVG Version: 6.00 Build 0)  -->
<svg version="1.1" id="Layer_1" xmlns="http://www.w3.org/2000/svg" xmlns:xlink="http://www.w3.org/1999/xlink" x="0px" y="0px"
	 viewBox="-225 317 160 160" style="enable-background:new -225 317 160 160;" xml:space="preserve">
<style type="text/css">
	.st0{fill:#FFFFFF;}
	.st1{fill:#231F20;}
	.st2{fill:#221F1F;}
	.st3{fill:none;}
	.st4{opacity:0.9;}
	.st5{fill:#EB2026;}
</style>
<circle class="st0" cx="-144.5" cy="399.4" r="77.8"/>
<g>
	<path id="XMLID_28_" class="st1" d="M-197.4,411.4c0.3-0.3,0-0.9-0.1-1.2c-0.3-0.9-1-2-0.8-3.1c0.3-2.4,3-4,4.9-5
		c2.8-1.5,5.6-3,8.6-4.2c2.9-1.2,5.9-2.1,8.9-2.3c1.9-0.1,4,0.2,5.8,1c2.7,1.3,2.2,3.8,0.3,5.8c-3.7,4.1-10,6.6-15.4,7.4
		c-1.1,0.2-2.2,0.3-3.2-0.2c-1-0.4-1.8-1.5-1.5-2.6c0.1-0.5,0.4-0.8,0.6-1.3c0.2-0.5,0.1-1.1-0.4-1.3c-0.6-0.3-1.1,0.4-1.3,0.9
		c-0.5,1.5,0,3.3,1.1,4.5c1,1.2,2.5,1.9,4.1,2.4c3.8,1,7.3,0,10.7-1.7c1.9-0.9,3.9-1.8,5.8-3.7c2.8-2.8,4.3-7.6,1.8-11.1
		c-2.3-3.2-6.6-3.4-10.2-3c-0.9,0.1-1.9,0.3-2.9,0.4c-3.3,0.6-6,1.8-8.5,2.9c-2.1,0.9-3.5,1.7-3.9,1.9c0,0-3.2,1.8-6.3,4.6
		c-0.3,0.3-1.1,1-1.8,2.2c-0.3,0.5-0.6,0.9-0.7,1.4c-0.3,1.3,0.2,2.4,0.4,2.8c0.7,1.6,2.3,2.9,3.4,2.8
		C-197.9,411.7-197.6,411.6-197.4,411.4z"/>
	<path id="XMLID_27_" d="M-152.9,415.4c0.2,0,0.4,0.2,0.9,0.6c0.3,0.3,0.3,0.3,0.6,0.5c0,0,0.3,0.2,0.8,0.3c2.9,0.7,5.8-0.2,8.6-0.6
		c7.7-1.2,16-1.3,23.8-0.6c4,0.4,10.5,3.6,10.6,7.1c0,1.2-0.8,2.2-1.6,3c-0.3-0.8-1-1.9-2.2-3.1c-1.8-1.8-3.9-2.4-5.2-2.8
		c-9.5-2.4-19.5-1.8-29.2-0.8c-1.8,0.2-3.6,0.3-5.3,0c-0.7-0.2-1.4-0.4-1.9-0.9C-153.7,417.7-154.1,415.6-152.9,415.4z"/>
	<g id="XMLID_23_">
		<path id="XMLID_26_" d="M-130.1,409.4c-0.1,0.1-0.3,0.2-0.3,0c-0.1-0.1-0.1-0.3,0-0.3c0.1-0.2,0.1-0.4,0.2-0.6
			c0.3-0.8,0.6-1.4,0.9-2.2c0.9-1.9,2-3.7,3.2-5.5c0.6-0.9,0.8-0.9,0-2.1c-0.6-0.9-1-0.9-1.8-0.5c-0.9,0.4-1.7,1.1-2.4,1.8
			c-1.3,1.3-2.7,2.6-3.9,3.9c-0.2,0.3-0.4,0.4-0.7,0.7c0-0.2,0.1-0.3,0.2-0.4c0.3-0.6,0.6-1.1,0.9-1.7c0.4-0.8,0.9-1.6,1.4-2.4
			c0.3-0.4,0.2-0.8-0.2-1.2c-0.1-0.1-0.2-0.2-0.3-0.3c-0.9-0.6-1.8-0.7-2.9-0.1c-0.8,0.5-1.5,1.2-2.2,1.8c-1.3,1.3-2.4,2.8-3.6,4.3
			c-0.1,0.1-0.2,0.2-0.3,0.3c0-0.3,0.1-0.4,0.3-0.6c0.7-1.3,1.3-2.5,2-3.7c0.2-0.3,0.3-0.5,0.2-0.8c-0.2-0.8-0.5-1.3-1-1.8
			c-0.3-0.3-0.4-0.2-0.7,0.1c-0.3,0.3-0.4,0.5-0.6,0.8c-0.8,1.2-1.4,2.4-2,3.7c-0.3,0.8-0.8,1.4-1.3,2c-1.2,1.4-2.4,2.9-3.9,4
			c-0.8,0.5-1.4,1.1-2.3,1.4c-0.3,0.2-0.8,0.3-1.1,0.3c-0.5,0-0.8-0.3-0.9-0.9c-0.1-0.3-0.1-0.8-0.1-1.1c0-0.4,0-0.4,0.4-0.5
			c2.3-0.3,4.2-1.3,5.7-3.3c0.8-0.9,1.3-2.1,1.3-3.4c0-1.1-0.4-2-1.3-2.5c-0.6-0.3-1.2-0.4-1.8-0.3c-1.1,0.2-2,0.8-2.8,1.6
			c-1.9,2-3.3,4.4-4,7.2c-0.1,0.3-0.2,0.5-0.3,0.7c-0.5,0.5-1,1.1-1.6,1.6c-0.7,0.7-1.4,1.3-2.2,1.8c-0.2,0.1-0.3,0.3-0.5,0.3
			c-0.4,0.1-0.7-0.1-0.7-0.5c0-0.2,0-0.4,0.1-0.6c0.1-0.7,0.3-1.3,0.5-2c0.7-2,1.5-3.9,2.8-5.5c0.2-0.2,0.3-0.4,0.4-0.7
			c0.2-0.3,0.2-0.5,0.1-0.8c-0.1-0.3-0.2-0.4-0.3-0.6c-0.3-0.3-0.4-0.3-0.8-0.1c-0.3,0.3-0.5,0.5-0.8,0.7c-0.4,0.3-0.9,0.3-1.4,0.2
			c-0.5-0.2-0.6-0.3-0.3-0.9c0.1-0.2,0.1-0.3,0.2-0.4c0.2-0.5,0.3-1,0.2-1.5c-0.1-0.3-0.3-0.6-0.5-0.7c-0.3-0.2-0.8-0.2-1.1,0
			c-0.6,0.3-1,0.8-1.4,1.3c-0.8,1-0.8,2.4-0.1,3.2c0.1,0.1,0.1,0.2,0,0.3c-0.1,0.1-0.1,0.2-0.2,0.2c-0.2,0.2-2.4,3.1-3.6,4.6
			c-0.6,0.7-1.3,3.6-0.8,3.1c0.3-0.3,2.4-3.1,3.9-5.1c0.6-0.7,1.1-1.4,1.6-2.2c0.1-0.2,0.2-0.3,0.3-0.3c0.5,0.2,1,0.2,1.5,0.3
			c0.1,0.1,0,0.2,0,0.2c-1.3,2-2.2,4.3-3,6.6c-0.3,0.8-0.4,1.6-0.3,2.4c0.1,0.7,0.4,1.2,0.9,1.4c0.4,0.2,0.8,0.1,1.3-0.1
			c0.9-0.3,1.8-0.9,2.5-1.6c1-0.8,1.9-1.7,2.8-2.6c0.1-0.1,0.2-0.3,0.3-0.2c0,0.6,0,1.2,0.2,1.8c0.3,1.1,0.9,1.8,2,2
			c0.7,0.1,1.3,0,1.9-0.2c1.2-0.4,2.3-1.2,3.2-2c0.8-0.8,1.6-1.6,2.4-2.5c0.1-0.1,0.2-0.3,0.3-0.3c-0.1,0.2-0.1,0.3-0.2,0.5
			c-0.3,0.9-0.4,1.8-0.2,2.8c0.1,0.5,0.3,0.9,0.7,1.3c0.6,0.5,1.1,0.2,1.2-0.6c0.1-0.8,0.3-1.3,0.6-2c0.8-1.3,1.6-2.6,2.5-3.9
			c1.2-1.7,2.5-3.2,3.9-4.7c0.5-0.5,0.9-1,1.4-1.4c0.2-0.1,0.3-0.3,0.5-0.3c-0.2,0.3-0.3,0.5-0.4,0.7c-1,1.7-1.8,3.4-2.6,5.1
			c-0.6,1.4-1,2.9-0.9,4.5c0,0.6,0.2,1.2,0.6,1.6c0.4,0.4,1,0.3,1.2-0.3c0.1-0.3,0.2-0.7,0.3-1c0.4-1.1,1-2,1.8-2.9
			c1.8-2.3,3.7-4.4,5.7-6.4c0.3-0.3,0.6-0.5,0.8-0.8c0.1-0.1,0.2-0.2,0.3-0.1c0,0.1-0.1,0.2-0.1,0.2c-0.8,1.2-1.4,2.4-2.1,3.5
			c-0.7,1.3-1.3,2.5-1.8,3.9c-0.3,0.7-0.5,1.4-0.4,2.2c0.2,1.5,1,2.1,2.3,1.6c0.1,0,0.1-0.1,0.1-0.1c0.7-0.3,1.2-0.8,1.8-1.3
			c0.9-0.8,1.8-1.8,2.6-2.8c0.1-0.1,0.2-0.3,0.4-0.3l0.3-2c-0.8,1.1-1.8,2.1-2.8,2.9C-129.2,408.8-129.7,409.1-130.1,409.4z
			 M-152.9,406c0.6-1.9,1.4-3.7,2.8-5c0.4-0.5,0.9-0.8,1.5-1.1c0.3-0.1,0.7-0.3,0.9,0.1c0.3,0.3,0.2,0.7,0.1,1
			c-0.1,0.4-0.3,0.8-0.5,1.2c-1.2,1.8-2.5,3.3-4.3,4.3c-0.2,0.1-0.3,0.2-0.5,0.2C-153,406.3-152.9,406.2-152.9,406z"/>
		<path id="XMLID_25_" d="M-90,395.8c-0.3-1.2-0.7-2.3-1.4-3.3c-1.9-2.7-5.3-4-8.5-4.5c-6.9-1.2-14.2,0.4-19.8,4.5
			c-0.7,0.5-1.4,1.1-1.5,1.9c-0.2,1.1,0.8,2.2,2,2.1c1.1-0.1,2-1.2,2-2.3c0-0.5-0.2-1,0.1-1.5c0.2-0.3,0.3-0.3,1.1-0.7
			c0.5-0.3,0.8-0.5,1-0.6c2.9-1.8,6.3-2.1,9.6-2.1c5.3-0.1,15.4,1.9,13.9,9.3c-0.3,1.9-1.5,3.7-3,5c-1.1,0.9-2.4,1.5-3.6,2.3
			c-1.3,0.8-2.7,1.6-4,2.4c-0.1,0.1-0.3,0.2-0.3,0.2c-0.4,0-0.5-0.6-0.4-0.9c0.4-2.7,1.5-5.3,3.2-7.6c0.3-0.4,0.6-0.8,0.8-1.3
			s0.1-1.1-0.3-1.4c-0.1-0.1-0.2-0.1-0.3-0.2c-0.3-0.1-0.5,0.2-0.7,0.3c-0.6,0.6-1.3,1-2.1,0.8c-0.3-0.1-0.5-0.3-0.5-0.5
			c0-0.1,0-0.3,0.1-0.3c0.2-0.6,0.4-1.1,0.4-1.7s-0.3-1.3-0.8-1.3c-0.4-0.1-0.8,0.2-1.3,0.4c-0.7,0.5-1.3,1.2-1.5,1.9
			c-0.3,0.8-0.3,1.7,0.3,2.4c0.1,0.1,0.2,0.2,0.2,0.3c0,0.1-0.1,0.2-0.1,0.3c-0.6,0.8-1.2,1.6-1.8,2.4c-1.5,2.1-3.1,4.1-5.1,5.8
			c-0.8,0.7-1.6,1.2-2.5,1.5c-0.4,0.1-0.8,0.2-1.3,0c-0.7-0.3-0.7-1.3-0.7-2c0-0.1,0-0.3,0.1-0.3c0.1-0.1,0.3-0.1,0.3-0.2
			c2.5-0.3,5-1.8,6.3-4c0.6-0.9,0.9-2,0.9-3.1c-0.1-1.1-0.7-2.2-1.7-2.6c-0.8-0.3-1.7-0.3-2.5,0.1c-0.8,0.3-1.4,0.9-2,1.5
			c-2.6,2.7-4.1,6.3-4.3,10c-0.1,1.2,0.1,2.5,1,3.3c0.8,0.7,1.9,0.7,2.9,0.4c1.5-0.4,2.9-1.5,3.9-2.6c2.9-2.9,5-6.4,7.5-9.5
			c0.1-0.1,0.2-0.2,0.3-0.3c0.2-0.1,0.3,0,0.4,0c0.4,0.1,0.8,0.2,1.3,0.3c-1,1.7-1.8,3.4-2.5,5.3c-0.4,1.2-0.8,2.4-0.9,3.5
			c0,0.8,0.2,1.6,0.8,1.9c0.8,0.5,1.8,0,2.5-0.5c2.1-1.3,4.2-2.7,6.3-3.9c1.8-1.2,4.1-2.3,5.4-4.1C-90,400.6-89.5,398.1-90,395.8z
			 M-116.7,405c0.6-2,1.4-3.8,2.9-5.2c0.5-0.5,1-0.8,1.6-1.1c0.3-0.1,0.7-0.3,0.9,0.1c0.3,0.3,0.2,0.7,0.1,1
			c-0.1,0.4-0.3,0.8-0.5,1.2c-1.2,1.9-2.6,3.4-4.5,4.5c-0.2,0.1-0.3,0.3-0.5,0.2C-116.8,405.4-116.8,405.2-116.7,405z"/>
		<path id="XMLID_24_" d="M-117.4,401.7c-0.9,1.2-1.8,2.3-2.7,3.4c-0.9,1.2-1.9,2.3-2.9,3.3c-0.3,0.3-0.5,0.5-0.8,0.7
			c-0.4,0.2-0.6,0.1-0.7-0.4c0-0.3,0.1-0.7,0.2-1c0.8-2.7,2-5.1,3.5-7.3c0.5-0.8,0.5-1.2-0.1-1.8c-0.2-0.3-0.4-0.4-0.6-0.6
			c-0.3-0.2-0.6-0.2-0.8,0.1c-0.4,0.4-0.8,0.9-1.2,1.5c-1,1.6-1.8,3.3-2.5,5c-0.6,1.3-1.4,5.1-1.4,5.3c-0.1,0.5-0.1,0.9,0.1,1.4
			c0.2,0.8,0.6,1.1,1.2,1.2c0.6,0.1,1.1-0.1,1.6-0.4c0.5-0.3,1-0.8,1.4-1.2c0.8-0.8,1.5-1.6,2.2-2.4c1.4-1.7,2.7-3.5,4-5.3
			L-117.4,401.7z"/>
	</g>
	<path id="XMLID_21_" class="st2" d="M-155.3,389.7c-0.2,0-0.3,0.1-0.4,0.2c-0.1,0.1-0.3,0.3-0.3,0.3c-0.3,0.2-0.5,0.2-0.8,0.1
		c-1.3-0.4-2.6-1.3-3.8-1.8c-1.7-0.8-3.1,1.6-1.4,2.5c0.7,0.3,1.4,0.8,2.1,1.1c-0.9,0.4-1.8,0.8-2.7,1.2c-1.7,0.8-0.3,3.3,1.4,2.5
		c1.6-0.7,3.2-1.4,4.7-2.2c0.3-0.2,2,0.8,2.4,1c0.5,0.2,2.4,1.3,2.4,0.5c0.2-1.1-0.9-2.2-1.6-2.9c-0.3-0.4-0.8-0.8-1.1-1.2
		C-154.6,390.5-154.8,389.9-155.3,389.7L-155.3,389.7z"/>
	<path id="XMLID_15_" class="st2" d="M-117.2,378.5c-3-1.2-6.2-2-9.4-2.4c-1-0.2-2.1-0.2-3.2-0.1c-1.3,0-2.5,0.2-3.8,0.3
		c-0.4,0.1-0.8,0.1-1.3,0.2c-0.3,0-0.5,0.1-0.8,0.1c-0.1,0-0.3,0-0.3,0.1c-0.3,0.1-0.4,0.3-0.4,0.7c0,0.3,0.2,0.8,0.3,1.1
		c0.2,0.4,0.5,0.8,0.9,1c0.3,0.1,0.5,0,0.8,0c0.3-0.1,0.7-0.1,1-0.2c1.3-0.2,2.7-0.3,4-0.2c1.3,0.1,2.8,0.2,4.1,0.4
		c1.3,0.3,2.8,0.6,4,0.9c0.5,0.2,1,0.3,1.5,0.5c-1.9,3.5-4.9,6.6-8.1,8.9c-0.1,0.1-0.1,0.1-0.2,0.1c0,0,0,0-0.1,0
		c-0.8,0.5-1.6,1-2.4,1.4c0.7,0.6,1.3,1.1,2,1.6c0.3,0.2,0.5,0.3,0.7,0.3c0.2-0.1,0.3-0.2,0.4-0.3c0.3-0.2,0.6-0.4,0.9-0.6
		c4.1-2.9,7.9-7,10-11.5C-116,379.7-116.3,378.9-117.2,378.5z"/>
	<path id="XMLID_17_" class="st2" d="M-126.6,392c-0.3,0.5-0.8,0.8-1.3,0.8c-0.3,0-0.4-0.1-0.7-0.3c-0.8-0.4-1.4-1-2-1.6
		c-1.7-1.6-2.9-3.7-3.3-6c-0.3-1.8,2.7-1.8,2.9,0c0-0.2,0-0.3,0-0.3c0,0,0.1,0.5,0.2,0.7c0.1,0.4,0.3,0.8,0.4,1.2
		c0.6,1.2,1.4,2.2,2.4,2.9c0.3,0.3,0.6,0.4,0.9,0.7C-126.3,390.5-126.3,391.4-126.6,392z"/>
	<circle id="XMLID_16_" class="st2" cx="-125.5" cy="382.2" r="1.7"/>
	<g>
		<rect x="-237.8" y="307.4" class="st3" width="183.7" height="183.7"/>
	</g>
	<g>
		<rect x="-237.8" y="307.4" class="st3" width="183.7" height="183.7"/>
	</g>
	<g id="XMLID_29_">
		<g id="XMLID_30_">
			<g id="XMLID_31_" class="st4">
				<g id="XMLID_242_">
					<path id="XMLID_243_" class="st5" d="M-137.2,337c-0.8,0.1-1.9-0.1-2.9-0.2c-3.7-0.3-7.4-0.2-11.1,0.2c-0.3,0-0.6,0.1-0.9,0.1
						c-0.2,0-0.3,0-0.5,0.1c-0.2,0-0.3,0.1-0.5,0.1c-0.7,0.1-1.3,0.3-1.9,0.3c-0.7,0.1-1.3,0.3-1.8,0.4c-0.6,0.2-1.2,0.3-1.6,0.5
						c-0.8,0.1-1.4,0.3-2.2,0.3c-0.3,0.1-0.8,0.3-1.1,0.3c-0.3,0.2-0.8,0.3-1.1,0.4c-0.3,0.2-0.8,0.3-1.1,0.4
						c-0.3,0.1-0.8,0.3-1.1,0.4c-0.7,0.3-1.4,0.6-2.1,0.8c-0.7,0.3-1.3,0.6-2,0.8c-0.5,0.3-1,0.4-1.5,0.7s-1,0.5-1.5,0.8
						c-0.3,0.1-0.6,0.3-0.9,0.4c-0.3,0.2-0.6,0.3-0.8,0.4c-0.5,0.3-1,0.6-1.5,0.8c-0.9,0.5-1.8,1-2.4,1.3c-0.8,0.4-1.2,0.9-1.8,1.3
						c-2.1,1.3-4.1,3-5.3,4.1c-0.2,0.2-0.4,0.3-0.6,0.5c-0.2,0.2-0.3,0.3-0.5,0.5c-0.3,0.3-0.8,0.7-1.1,1c0,0,0,0,0,0.1
						c-3.1,3-5.9,6.2-8.3,9.7c-0.8,1-1.3,1.8-1.7,2.4c-0.4,0.6-0.6,1-0.8,1.4c-0.3,0.4-0.5,0.8-0.8,1.3c-0.5,0.9-0.9,1.8-1.4,2.7
						c-0.5,0.8-0.9,1.7-1.4,2.5c0.3-0.8,0.5-1.8,0.8-2.6c0.5-0.9,0.9-1.8,1.4-2.8c0.3-0.4,0.5-0.9,0.8-1.3c0.3-0.4,0.4-0.8,0.7-1.2
						c0.3-0.4,0.5-0.8,0.7-1.2c0.4-0.6,0.8-1.3,1.3-1.8c0.4-0.6,0.9-1.2,1.3-1.8c-0.1-0.1-0.1-0.1-0.2-0.2c0.6-0.8,1.3-1.7,1.8-2.5
						l0.2,0.3c0.3-0.3,0.5-0.5,0.8-0.8c0.3-0.3,0.8-0.7,1.1-0.9c0.2-0.3,0.4-0.4,0.6-0.7c0.2-0.3,0.4-0.4,0.6-0.6
						c0.4-0.4,0.8-0.8,1.2-1.2c0.4-0.4,0.8-0.7,1.2-1.1c0.3-0.4,0.7-0.8,1-1.2c0.6-0.5,1-0.8,1.2-1c0.3-0.2,0.3-0.3,0.2-0.3
						c0.3-0.4-0.6,0.3-0.8,0.3c0.4-0.5,0.8-1,1.3-1.5c0.5-0.4,1-0.8,1.5-1.1c0.5-0.4,0.9-0.8,1.3-1.1c0.3-0.3,0.7-0.7,1.2-1
						s0.9-0.6,1.4-0.9c0.5-0.3,1-0.6,1.5-0.8c0.6-0.3,1.1-0.6,1.7-0.9c0.8-0.4,0.9-0.7,1.6-1.1c4.1-2.3,8.5-4,12.9-5.3
						c0.9-0.3,1.7-0.4,2.2-0.5c0.5-0.1,0.9-0.2,1.2-0.3c3.5-0.8,7.1-1.3,10.9-1.5c0.5,0,1,0,1.5,0s1.1,0,1.6,0c0.3,0,0.6,0,0.8,0
						h0.8c0.6,0,1.1,0,1.6,0.1c0.3,0.3,0.7,0.3,1.1,0.4c-0.3,0.1-0.5,0.2-0.8,0.3c-0.4,0.1,0.8,0.2,0.3,0.3
						C-139.1,336.6-138.1,336.8-137.2,337z"/>
				</g>
				<g id="XMLID_240_">
					<path id="XMLID_241_" class="st5" d="M-186.3,352.5c-0.3,0.4-0.7,0.8-1,1.2c-0.4,0.3-0.8,0.7-1.2,1.1s-0.8,0.8-1.2,1.2
						c-0.2,0.2-0.4,0.4-0.6,0.6c-0.2,0.3-0.4,0.4-0.6,0.7c-0.3,0.3-0.8,0.7-1.1,0.9c-0.3,0.3-0.6,0.5-0.8,0.8l-0.2-0.3
						c0.4-0.5,1-1.1,1.5-1.7c0.9-1.1,1-1.3,1.5-1.8c0.3-0.3,0.4-0.3,0.6-0.5c0.3-0.3,0.6-0.7,0.8-1l0.9-1c0.4-0.3,0.8-0.6,1.3-0.9
						c0.2-0.2,0.3-0.3,0.5-0.5c0.2,0,1-0.6,0.8-0.3c0.1,0,0,0.1-0.2,0.3C-185.3,351.7-185.7,352-186.3,352.5z"/>
				</g>
				<g id="XMLID_238_">
					<path id="XMLID_239_" class="st5" d="M-196.1,365.7c-0.3,0.9-0.4,1.2-0.6,1.5c-1.8,2.5-2.9,5.7-4.4,8.1
						c-0.3,0.7-0.4,1.3-0.7,1.9c-0.1,0.3-0.3,0.7-0.3,1c-0.1,0.3-0.2,0.7-0.3,1s-0.3,0.8-0.4,1.1c-0.2,0.3-0.3,0.8-0.3,1.1
						c-0.3,0.8-0.4,1.4-0.5,2c-0.3,0.9-0.5,1.9-0.8,2.9c-0.2,0.8-0.3,1.4-0.4,2.2l-0.2,1.1c-0.1,0.3-0.1,0.8-0.2,1.1
						c-0.2,1-0.3,2-0.4,3c-0.1,0.6-0.1,1.2-0.2,1.8c0,0.5,0.1,1,0.2,1.9c0.2-1.8,0.3-2.6,0.3-3.4c0-0.1,0.1-0.2,0.1-0.3
						c0.1,0,0.2,0.1,0.3,0.1l-0.1,1.3c0,0.4,0,0.8,0,1.3c0,1-0.1,2,0,3c0,0.9,0.1,1.9,0.1,2.9c0,0.3,0,0.5,0.1,0.8
						c0,0.6,0,1.1,0,1.8c0.1,0.5,0.2,1,0.2,1.5c0,0.5,0,1,0,1.3c0,0.3,0,0.4,0.1,0.8c0.1,0.6,0.2,1.2,0.3,1.8
						c0.1,0.6,0.2,1.3,0.3,1.8c-0.1-0.3-0.2-0.5-0.3-0.8c-0.1-0.3-0.1-0.6-0.2-0.8c-0.1-0.6-0.3-1.3-0.3-2c-0.2,0-0.2,0-0.3,0
						c-0.1-0.5-0.1-1-0.3-1.8c-0.1-0.4-0.2-0.8-0.3-1.2c-0.1-0.4-0.2-0.8-0.3-1.1c-0.2-0.3-0.4-0.6-0.6-0.8c-0.1,0-0.1,0-0.2,0
						c-0.1-0.3-0.2-0.8-0.2-1.2c0-0.5-0.1-1-0.1-1.5c0-1,0-1.9,0.2-2.1c0-0.3,0.1-0.5,0.1-0.8c0.1-0.4,0.2-1,0.3-1.4
						c0-0.3,0-0.4,0-0.7c0-0.3,0-0.4,0-0.7c0-0.4,0-0.9,0-1.3c-0.1,0.3-0.2,0.5-0.3,0.7c-0.1-0.2-0.2-0.3-0.3-0.5
						c-0.1-0.2-0.1-0.8-0.1-1.3c0-0.3,0-0.3-0.1-0.3s-0.1,0.3-0.2,0.8c0-0.3-0.1-0.6-0.1-0.8c0.2-0.8,0.3-1.8,0.4-2.6
						c0.3-2-0.2-1.3-0.2-2.4c-0.1,0.6-0.3,1.2-0.3,1.9c-0.2,0.7-0.3,1.4-0.5,2.2c-0.1,0.4-0.1,0.8-0.2,1.2c0,0.3,0,0.5-0.1,0.8
						c0,1.1-0.1,1.9-0.1,2.6c0,0.7,0,1.3,0.1,1.7c-0.1,0.8-0.2,1.5-0.2,2.3c0.1,1.2,0,2,0,2.9c0,0.9,0.1,1.8,0.3,2.9c0,0,0,0,0.1,0
						c0.2,0.9,0.3,1.8,0.5,2.8c0.1,0.7,0.2,1.2,0.3,2.2c0.2,0.8,0.4,1.6,0.7,2.3c0.2,1.8,1.3,5,1.3,6c-0.2,0-0.3,0-0.4,0
						c-0.2-0.4-0.3-0.8-0.3-1.1c-0.4-0.6-0.8-1.6-1-2.6c-0.3-1-0.4-1.9-0.7-2.4c-0.1-0.4-0.2-0.8-0.3-1.3c0-0.3,0-0.6,0.1-0.7
						c-0.1-0.8-0.3-1.5-0.3-2.3c-0.1-0.8-0.2-1.5-0.3-2.3c-0.2-0.6-0.3-1.1-0.4-1.7c-0.1-0.8-0.2-1.7-0.2-2.4c0-0.8,0-1.7-0.1-2.4
						c0-0.8,0.1-1.5,0.1-2.2c0.1-0.7,0.2-1.3,0.3-1.8c0.1-0.8,0.1-1.8,0.3-2.3c-0.1-0.4-0.1-0.8-0.2-1.2c0.1-0.8,0.1-2.7,0.5-3.4
						c0.1-0.3,0.1-0.6,0.2-0.8c0.1-0.6,0.1-1.1,0.2-1.5c0.1-0.4,0.2-0.8,0.3-1.3c0.3-0.7,0.7-1.8,0.8-2c0.1,0.5-0.3,1.8-0.3,2.7
						c0.3-0.7,0.6-1.3,0.8-2.1c0.5-0.6,0.8-1.9,1.2-3.1c0.1-0.3,0.2-0.4,0.3-0.7c0.1-0.3,0.3-0.4,0.3-0.7c0.3-0.9,0.5-1.6,0.8-2.6
						c0.2-0.3,0.4-0.5,0.7-0.8c-0.3,0.6-0.3,1-0.4,1.4c-0.1,0.3-0.1,0.6-0.2,0.8c-0.1,0.4-0.1,0.7-0.2,1.2c-0.1,0.3-0.3,0.7-0.3,1
						s-0.2,0.7-0.3,1c-0.2,0.7-0.4,1.3-0.6,2c-0.3,1-0.4,1.9-0.7,2.9c-0.2,0.9-0.3,1.8-0.4,2.7c-0.1,0.4-0.1,0.8-0.2,1.3
						c-0.1,0.4-0.1,0.9-0.2,1.3c0.1-0.7,0.3-1.3,0.3-1.8c0.1-0.5,0.2-1,0.3-1.4c0.2-0.8,0.3-1.4,0.3-1.9c0.3-1,0.4-1.9,0.7-2.9
						c0.2-0.7,0.4-1.3,0.6-2c0.1-0.3,0.2-0.7,0.3-1c0.1-0.3,0.3-0.7,0.3-1c0.3-0.7,0.5-1.4,0.8-2.1c0.3-0.8,0.8-1.5,1.1-2.3
						c0.2-0.4,0.3-0.8,0.5-1.3s0.3-0.8,0.5-1.3c0.2-0.3,0.3-0.6,0.4-0.8c0.2-0.3,0.3-0.6,0.4-0.8c0.3-0.6,0.6-1.2,0.9-1.8
						c0.3-0.6,0.7-1.1,1-1.7l0.5-0.8c0.2-0.3,0.3-0.6,0.5-0.8C-196.3,365.9-196.2,365.7-196.1,365.7L-196.1,365.7z"/>
				</g>
				<g id="XMLID_236_">
					<path id="XMLID_237_" class="st5" d="M-206.7,411.8c0.1,0.4,0.3,0.8,0.3,1.2c0.1,0.3,0.2,0.7,0.3,1c0.2,0.6,0.3,1.1,0.4,1.6
						c0,0.4,0.2,1.1,0.1,1.1c-0.2-0.6-0.4-1.1-0.5-1.5c-0.2-0.4-0.3-0.8-0.3-1.2c-0.2-0.8-0.3-1.3-0.3-1.8
						C-206.8,411.8-206.8,411.8-206.7,411.8z"/>
				</g>
				<g id="XMLID_234_">
					<path id="XMLID_235_" class="st5" d="M-188.5,442.1c0.4,0.4,0.8,0.9,1.3,1.3l1.3,1.3c0.7,0.9,2,1.8,3,2.8
						c0.6,0.4,1.1,0.8,1.7,1.3c0.3,0.3,0.5,0.4,0.8,0.7c0.3,0.2,0.6,0.4,0.8,0.6c0.6,0.4,1.2,0.9,1.8,1.3c0.6,0.4,1.2,0.8,1.8,1.3
						c0.4,0.3,0.8,0.5,1.3,0.8c0.4,0.3,0.8,0.5,1.3,0.8c0.3,0.3,0.8,0.4,1.1,0.6l1.1,0.6c0.8,0.5,1.8,0.9,2.7,1.3
						c0.4,0.2,0.9,0.4,1.3,0.6c0.4,0.2,0.8,0.4,1.3,0.6c1.2,0.5,2.4,0.8,3.6,1.3c0.2,0.1,0.3,0.1,0.6,0.2c0.2,0.1,0.3,0.1,0.6,0.2
						c0.3,0.1,0.8,0.2,1.1,0.3c0.4,0.1,0.8,0.3,1.2,0.3s0.8,0.2,1.2,0.3c0.8,0.2,1.6,0.4,2.4,0.5c0.7,0.3,1.8,0.5,2.9,0.7
						c0.6,0.1,1.3,0.2,1.9,0.3c0.7,0.1,1.3,0.2,2,0.3c0.5,0,1,0,1.4,0.1c0.5,0,0.9,0,1.3,0c0.9,0.1,1.9,0.2,2.9,0.3
						c0.8,0,1.3-0.1,2-0.1c0.7,0,1.2,0.1,1.8,0c0.9-0.1,1.7,0,1.7,0.1c0.4-0.1,0.8-0.1,1.1-0.2c0.3-0.1,0.7-0.2,1-0.3
						c0.7-0.1,1.4-0.2,2.1-0.3c0.7-0.1,1.3-0.3,2-0.3c0.2,0,0.3,0,0.3,0c0.8-0.1,1.5-0.3,2.2-0.5c0.8-0.2,1.5-0.3,2.2-0.5
						c0.8-0.2,1.5-0.4,2.2-0.6c0.8-0.3,1.4-0.5,2.2-0.8c0.4-0.2,0.8-0.5,1.3-0.7c0.3-0.1,0.4-0.2,0.7-0.3c0.6-0.2,1.1-0.3,1.7-0.5
						c0.7-0.3,1.3-0.6,1.8-0.8c0.4-0.2,0.8-0.3,1.1-0.4c0.3-0.2,0.6-0.3,0.8-0.4c0.5-0.3,0.8-0.4,1.2-0.7c0.3-0.2,0.6-0.3,0.8-0.5
						c0.3-0.2,0.6-0.4,0.9-0.6c0.7-0.4,1.4-0.8,2-1.2c0.3-0.2,0.8-0.4,1.3-0.7s1-0.6,1.5-0.9c1-0.7,2.1-1.4,2.9-2.1
						c0.2-0.1,0.3-0.1,0.5-0.2l1.3-0.9l1.2-1c0.5-0.3,0.9-0.7,1.4-1.1c0.4-0.4,0.8-0.8,1.4-1.4c0-0.1,0-0.1,0-0.2
						c0.5-0.5,0.9-0.9,1.3-1.4c0.3-0.2,0.5-0.4,0.8-0.7c0.2-0.2,0.3-0.4,0.5-0.7c0.2-0.3,0.3-0.4,0.5-0.7c0.5-0.6,0.9-1.1,1.4-1.6
						c0.4-0.6,0.8-1.1,1.3-1.7c0.6-0.8,1.3-1.9,2-2.9c0.4-0.5,0.7-1,1-1.5c0.3-0.5,0.6-1,0.8-1.4c0.5-0.8,1-1.4,1.3-2.3
						c0.3-0.3,0.4-0.8,0.7-1.2c0.3-0.4,0.4-0.8,0.6-1.2c0.2-0.3,0.3-0.6,0.5-0.8c0.2-0.3,0.3-0.6,0.3-0.8c0.3-0.5,0.4-1,0.7-1.5
						s0.3-1,0.6-1.4c0.2-0.5,0.4-1,0.8-1.4c0.4-0.8,0.3-1.3,0.6-1.9c0.5-1.3,0.8-2.6,1.3-3.9c0-0.1,0-0.3,0-0.5s0.1-0.5,0.2-0.8
						c0.2-0.6,0.3-1.3,0.4-1.8c0.1-0.3,0.2-0.6,0.2-0.9l0.2-0.9c0.1-0.6,0.3-1.3,0.3-1.8c0.1-0.3,0.1-0.5,0.2-0.7
						c0.1,0.1,0.3,0.1,0.3,0.1c0,0.8-0.1,1.4-0.1,2.2c-0.1,0.6-0.1,1.1-0.2,1.8c-0.2,0.9-0.4,2-0.7,3c-0.5,2-0.4,2.2-0.7,3.2
						c-0.1,0.2-0.1,0.3-0.2,0.3c-0.2,0.6-0.3,1.2-0.6,1.7c-0.2,0.6-0.3,1.1-0.6,1.6c-0.3,0.6-0.5,1.2-0.8,1.8
						c-0.1,0.2-0.2,0.4-0.2,0.6c-0.1,0.2-0.2,0.4-0.3,0.6c-0.2,0.4-0.3,0.8-0.4,1.1c-0.5,1.3-1.4,2.6-1.8,3.9
						c-0.3,0.6-0.6,1.2-0.9,1.8c-0.3,0.3-0.5,0.7-0.7,1c-0.3,0.3-0.5,0.7-0.8,1.1c-0.4,0.7-0.7,1.2-0.9,1.6
						c-0.3,0.4-0.5,0.8-0.8,1.2c-0.3,0.4-0.5,0.8-0.8,1.3c-0.3,0.4-0.6,0.8-0.8,1.2c-0.5,0.6-0.9,1.1-1.3,1.7
						c-0.4,0.5-0.8,1-1.4,1.6c-0.2,0.2-0.3,0.4-0.5,0.6c-0.2,0.2-0.3,0.3-0.6,0.5c-0.3,0.3-0.5,0.8-0.8,1.1
						c-0.6,0.6-1.1,1.1-1.7,1.6c-0.4,0.3-0.8,0.7-1.1,1c-0.3,0.3-0.8,0.7-1.2,1c-0.7,0.6-1.3,1.2-2.1,1.8c-0.3,0.3-0.7,0.5-1.1,0.8
						c-0.3,0.3-0.7,0.5-1.1,0.8c-0.7,0.5-1.4,1.2-2.4,1.8c-0.4,0.3-0.9,0.6-1.4,0.8c-0.5,0.3-0.9,0.6-1.4,0.8
						c-0.5,0.3-1,0.6-1.5,0.8c-0.5,0.3-1,0.5-1.4,0.8c-0.5,0.3-0.9,0.5-1.4,0.7c-0.4,0.3-0.8,0.5-1.3,0.7c-0.8,0.3-1.6,0.8-2.4,1.1
						c-0.8,0.3-1.6,0.7-2.4,1c-0.4,0.2-0.8,0.3-1.3,0.4c-0.4,0.2-0.8,0.3-1.3,0.4c-0.4,0.2-0.8,0.3-1.3,0.4
						c-0.4,0.1-0.8,0.3-1.3,0.3c-4.7,1.3-10,2.2-14.6,2.4c-0.4,0-0.8,0-1.1,0c-0.1-0.1-0.2-0.2-0.2-0.3c-0.2-0.1-0.7,0-1.2,0
						c-0.4,0.1-1,0.2-1,0.3c-1.2,0-2.2,0-3,0c-0.8-0.1-1.6-0.1-2.3-0.2c-0.3,0-0.8-0.1-1.1-0.1c-0.3-0.1-0.8-0.1-1.1-0.2
						c0.3-0.2,0.4-0.3,0.7-0.5c0.2,0,0.3-0.1,0.5-0.1c0.7,0.1,1.3,0.1,1.9,0.2c0.7,0.1,1.3,0.1,1.8,0.2c0.6,0,1.1,0,1.7,0
						c0.6,0,1.1,0,1.7,0s1.1,0,1.7-0.1c0.6,0,1.1,0,1.6-0.1c0.5,0,1-0.1,1.5-0.1c0.4,0,0.8,0,1.3-0.1c0.4,0,0.9-0.1,1.3-0.1l1.2-0.2
						l0.6-0.1l0.6-0.1c0.8-0.2,1.5-0.3,2.3-0.4c1.2-0.3,2.3-0.4,3.4-0.7c0.6-0.2,1.1-0.3,1.7-0.5c0.3-0.1,0.6-0.2,0.8-0.3
						c0.3-0.1,0.6-0.3,0.9-0.3c-0.4,0.1-0.8,0.2-1.3,0.3c-0.4,0.1-0.8,0.2-1.3,0.3c-0.4,0.1-0.8,0.3-1.3,0.3
						c-0.4,0.1-0.8,0.2-1.3,0.3c-0.6,0.2-1,0.3-1.6,0.4c-0.3,0-0.5,0.1-0.7,0.1c-0.4,0.1-0.8,0.1-1.2,0.2c-1.3,0.2-2.3,0.3-3.1,0.3
						c-0.8,0.1-1.4,0.2-2.1,0.2c-0.1,0-0.3,0-0.4,0c-0.5,0.1-1,0.1-1.5,0.2c-0.3,0-0.5,0.1-0.8,0.1s-0.5,0-0.8,0
						c-0.8,0-1.7,0-2.6-0.1c-0.6,0-1.2,0-1.8,0c-0.3,0-0.6,0-0.9,0c-0.3,0-0.6,0-0.9,0c-0.1,0-0.3,0-0.4,0c-0.5-0.2-0.9-0.3-1.5-0.5
						c-0.3,0.1-0.6,0.3-0.8,0.3c0,0,0,0-0.1,0.1c-0.6-0.1-1-0.2-1.6-0.3c-0.6-0.1-1.2-0.3-1.8-0.3c-0.5-0.1-1.1-0.3-1.5-0.3
						c-0.5-0.1-0.9-0.2-1.4-0.3c-0.4-0.1-0.8-0.2-1.3-0.3c-0.4-0.1-0.8-0.2-1.3-0.3c-0.2,0-0.4-0.1-0.6-0.1
						c-0.2-0.1-0.4-0.1-0.6-0.2c-0.8-0.3-1.8-0.5-2.7-0.8c-1.3-0.3-1.9-0.6-2.6-0.8c-0.3-0.2-0.5-0.3-0.8-0.6
						c-0.6-0.2-1.1-0.3-1.8-0.4c-0.5-0.2-0.9-0.4-1.3-0.7c-0.4-0.3-0.8-0.4-1.3-0.7c-0.3,0-0.4,0-0.8-0.1c-0.9-0.5-1.8-0.9-2.7-1.4
						c-0.2-0.3-0.3-0.5-0.6-0.7h0.1c0.5,0.3,1.1,0.6,1.7,0.9c0.6,0.3,1.1,0.6,1.7,0.8c0.2-0.1,0.3-0.1,0.4-0.2
						c-0.9-0.4-1.5-0.8-2-1.2c-0.5-0.3-1-0.6-1.6-0.8c-1.3-0.9-1.8-1-2.3-1.3c-0.7-0.4-1.3-0.8-1.9-1.3c-0.4-0.3-0.7-0.3-0.8-0.4
						c-0.2-0.1-0.3-0.1-0.5-0.2c-0.3-0.1-0.7-0.3-1.6-0.9c-0.4-0.3-0.8-0.6-1.2-0.9c0.1,0,0.2,0,0.3,0c0.4,0.2,0.8,0.3,1.1,0.4
						c-0.8-0.8-1.1-1.2-2.5-2.4c-0.4-0.4-0.9-0.8-1.3-1.1c-0.3-0.2-0.4-0.3-0.7-0.6c-0.3-0.2-0.4-0.4-0.6-0.6
						c-0.3-0.3-1-0.7-1.5-1.3c-0.8-0.8-1.5-1.7-2.4-2.5c-0.2-0.3-0.3-0.7-0.5-1.1c0.3,0.3,0.6,0.6,0.8,0.8
						C-189.2,441.5-188.9,441.8-188.5,442.1z"/>
				</g>
				<g id="XMLID_232_">
					<path id="XMLID_233_" class="st5" d="M-143.4,463.9c0.1-0.1,0.6-0.2,1-0.3c0.5,0,1,0,1.2,0c0,0.1,0.1,0.2,0.2,0.3
						C-141.8,463.9-142.7,464-143.4,463.9z"/>
				</g>
				<g id="XMLID_230_">
					<path id="XMLID_231_" class="st5" d="M-85.2,389.8c-0.1-0.5-0.2-0.9-0.3-1.3c-0.1-0.6-0.1-0.9-0.2-1.3
						c-0.1-0.3-0.1-0.5-0.2-0.6c-0.1-0.3-0.2-0.2-0.2-0.2c-0.2-0.7-0.3-1.3-0.6-2c-0.2-0.8-0.4-1.6-0.6-2.4
						c-0.4-1.3-0.6-2.2-0.8-2.9s-0.3-1.3-0.8-2.1c-0.4-0.8-0.7-1.5-1-2.3c-0.2-0.4-0.3-0.8-0.5-1.3c-0.2-0.4-0.4-0.8-0.7-1.3
						c-0.3-0.5-0.4-1-0.7-1.4c-0.2-0.4-0.4-0.8-0.6-1.2c-0.2-0.3-0.3-0.7-0.5-0.9c-0.2-0.3-0.3-0.6-0.6-0.8
						c-0.2-0.3-0.3-0.6-0.6-0.8c-0.2-0.3-0.3-0.5-0.5-0.8c-0.2-0.3-0.3-0.5-0.5-0.8c-0.6-0.6-0.8-0.8-1.4-1.7
						c-0.2-0.3-0.3-0.7-0.3-0.9c-0.3-0.5-0.8-0.9-1.1-1.4c-0.9-1.3-1.3-1.8-1.7-2.3c-0.6-0.8-1.2-1.4-1.8-2.1
						c-0.4-0.3-0.8-0.7-1.3-1.1c-0.4-0.4-0.9-0.8-1.3-1.3c-0.9-0.8-1.8-1.6-2.4-2.1c-0.3-0.3-0.9-0.8-1.3-1.2
						c-0.8-0.3-1.1-0.9-2-1.5c-2.7-2-6-4.1-9.5-5.5c-0.5-0.3-1.1-0.5-1.6-0.7c-2-1.3-5.4-1.9-8-2.9c-3.3-0.8-7.2-1.8-11.3-1.8
						c-1.5-0.2-3.5-0.3-5.4-0.2c-0.4,0-0.8,0-1.3,0s-0.8,0.1-1.3,0.1c-0.8,0.1-1.7,0.1-2.5,0.3c-1.2,0.1-2.4,0.2-3.4,0.3
						c-0.6,0.1-1.2,0.2-1.8,0.3c-0.6,0.1-1.1,0.3-1.7,0.3c-0.6,0.2-1.1,0.3-1.6,0.4c-0.5,0.2-1.1,0.3-1.6,0.4
						c-1,0.3-1.9,0.6-2.9,0.8c-3.8,1.3-7.6,2.9-11.3,5.1c-3.6,2.1-7,4.6-9.8,7.1c-0.3,0.2-0.9,0.8-1.3,1.2c-0.1,0.3-0.3,0.4-0.6,0.7
						c-0.3,0.2-0.6,0.4-1,0.9c-0.6,0.7-1.3,1.3-1.8,2c-0.6,0.7-1.3,1.3-1.8,2.1c-0.3,0.3-0.6,0.8-0.8,1.1c-0.2,0.2-0.3,0.3-0.4,0.5
						c-0.2,0.2-0.3,0.3-0.3,0.5c-0.5,0.7-0.9,1.3-1.3,1.9c-0.1,0.2-0.3,0.3-0.3,0.6c-0.3,0.5-0.7,0.9-1.1,1.4
						c-0.3,0.5-0.6,1-0.9,1.5c-0.3,0.5-0.6,1.1-0.8,1.7c-0.3,0.7-0.7,1.3-1,1.9c-0.2,0.3-0.3,0.7-0.5,0.9c-0.2,0.3-0.3,0.5-0.3,0.7
						c-0.2,0.4-0.3,0.8-0.4,1.1c-0.3,0.5-0.4,1-0.7,1.5c-0.2,0.5-0.4,0.9-0.6,1.4c-0.3,0.9-0.7,1.8-0.9,2.6
						c-0.1,0.2-0.2,0.4-0.3,0.6c-0.1,0.2-0.1,0.4-0.2,0.6c-0.1,0.4-0.3,0.8-0.3,1.2c-0.1,0.4-0.3,0.8-0.3,1.2
						c-0.1,0.4-0.2,0.8-0.3,1.2c-0.1,0.3-0.1,0.4-0.2,0.7c-0.1,0.3-0.2,0.7-0.3,1.1c-0.1,0.3-0.2,0.7-0.2,1.1
						c-0.3,1.8-0.5,3.1-0.8,4.2c-0.1,0.5-0.2,1-0.2,1.5s0,1,0,1.5c0,0.3,0,0.5-0.1,0.8c0,0.3,0,0.5,0,0.7c0,0.5,0,0.9-0.1,1.4
						c-0.1,1-0.1,1.9-0.1,2.9c0,0.4,0,0.8,0,1.3c0,0.4,0.1,0.8,0.1,1.2c0,0.4,0.1,0.8,0.1,1.2s0,0.8,0.1,1.2
						c0.1,0.8,0.2,1.6,0.3,2.4c0.2,1,0.4,2,0.6,3c0.3,1,0.5,2,0.8,3c0.2,0.9,0.3,1.6,0.5,2.2c0.2,0.5,0.3,0.9,0.4,1.3
						c0,0.2-0.1,0.3-0.1,0.4c0.3,0.8,0.4,1.7,0.7,2.4c0.3,0.5,0.8,1.6,1.2,2.7c0.3,0.6,0.5,1.1,0.7,1.6c0.3,0.5,0.4,0.9,0.6,1.2
						c0.8,1.3,0.3,1.3,1.2,2.5c0.3,0.5,0.8,1.3,1,1.3c0.2,0.3,0.3,0.5,0.3,0.7c0.3,0.4,0.7,0.9,1,1.3c1,1.7,1.3,1.9,1.9,2.8
						c0.3,0.5,0.5,1,0.8,1.4c0.6,0.4,1.3,1.7,1.8,2.1c0.3,0.2,0.6,0.6,1,1.1c0.4,0.5,0.8,1,1.1,1.3c0.8,0.9,1.6,1.8,2.5,2.6
						c0.3,0.3,0.7,0.7,1,1c0.6,0.3,1.3,1.1,1.8,1.4c0.3,0.3,0.5,0.4,0.8,0.7c0.3,0.3,0.5,0.4,0.8,0.7c0.5,0.4,1,0.8,1.5,1.3
						c0.9,0.6,1.2,0.8,1.6,1.1c0.3,0.2,0.4,0.3,0.7,0.6c0.3,0.2,0.4,0.3,0.7,0.5c0.4,0.3,0.8,0.4,1.6,1c0.6,0.3,1.3,0.8,1.8,1.2
						c0.4,0.3,0.8,0.5,1.3,0.7c0.6,0.3,1.3,0.7,2,1c0.2,0.1,0.4,0.3,0.6,0.3c0.4,0.1,1,0.3,1.5,0.6c0.5,0.3,1,0.5,1.4,0.6
						c0.2,0.1,0.3,0.3,0.5,0.3c0.7,0.3,1.3,0.6,2,0.8c0.5,0.3,1.1,0.4,1.7,0.7c0.3,0.1,0.6,0.2,0.9,0.3c0.3,0.1,0.6,0.2,0.9,0.3
						c0.6,0.2,1.3,0.4,1.9,0.6s1.3,0.3,2,0.5c0.3,0.1,0.7,0.2,1,0.3c0.3,0.1,0.7,0.1,1.1,0.2c0.1-0.1,0.1-0.1,0.2-0.1
						c0.3,0.1,0.7,0.1,1.1,0.2l0.8,0.2c0.3,0,0.5,0.1,0.8,0.1c0.5,0.1,1,0.1,1.4,0.2c0.3,0.1,0.4,0.2,0.7,0.2
						c0.6,0.1,1.3,0.1,1.8,0.2l0.1-0.1c0.2,0,0.3,0,0.3,0c0.3,0,0.8,0.1,1.1,0.1h1.1c0.8,0,1.4,0.1,2.2,0.1c0.9,0.1,1.8,0.2,2.8,0.2
						c0.1,0,0.3,0,0.4-0.1c1-0.1,2-0.3,3-0.3c0.4-0.1,2-0.3,2-0.4c0.6,0,1.1,0,1.7-0.1c1.1-0.1,1.6-0.3,1.9-0.4
						c1.9-0.3,3.7-0.7,5.6-1.2c0.3-0.1,0.4-0.1,0.7-0.2c0.6-0.3,1.6-0.7,2.2-0.8c0.5-0.2,0.9-0.3,1.3-0.4c0.6-0.4,1.7-0.8,2.2-1
						c0.8-0.3,1.6-0.6,2.4-0.9c0.4-0.2,0.8-0.3,1.2-0.5c0.4-0.2,0.8-0.3,1.2-0.5c0.5-0.3,0.9-0.5,1.3-0.8c1.3-0.9,1.8-1.2,2.3-1.4
						c0.6-0.4,1.3-0.8,1.8-1.2c0.3-0.2,0.6-0.4,0.9-0.6c0.3-0.3,0.6-0.4,0.9-0.7c0.2-0.3,0.5-0.5,0.8-0.8c0.3-0.3,0.7-0.5,0.9-0.6
						c0.8-0.6,1.6-1.2,2.4-1.8c0.3-0.6,1.3-1.2,1.7-1.6c0.6-0.5,1.3-1.1,1.8-1.6c2-2,4.3-4.5,5.7-6.5c0.3-0.5,0.7-1.1,1-1.6
						c0.4-0.5,0.8-1,1.2-1.5c0.3-0.6,0.7-1.3,1.1-1.8c0.3-0.3,0.4-0.7,0.6-0.9c0.2-0.3,0.3-0.6,0.4-0.8c0.8-1.3,1.3-2.7,2-4.1
						c0.3-0.7,0.6-1.4,0.9-2.1c0.1-0.2,0.2-0.3,0.3-0.6c0.1-0.2,0.2-0.3,0.3-0.6c0.2-0.4,0.3-0.8,0.5-1.2c0.3-0.8,1.2-2.9,0.8-2.9
						c0.2-0.4,0.3-0.8,0.5-1.3c0.1-0.4,0.3-0.8,0.3-1.2c0.1-0.4,0.2-0.8,0.3-1.1c0.1-0.2,0.1-0.3,0.2-0.5c0-0.2,0.1-0.3,0.1-0.5
						c0.2-0.8,0.3-1.4,0.4-2.2s0.3-1.6,0.5-2.5c0.2-0.8,0.2-1.3,0.2-1.8c0-0.6,0.1-1.1,0.2-1.9c0.1,0.3,0.2-0.2,0.3-0.4
						c0.1-1,0.2-2,0.3-2.9c0-1,0.1-1.9,0.1-2.9c0.2,0,0.3,0,0.5,0.1c0.1,0.1,0.3,0.3,0.3,0.4c0,0.5,0.1,0.7,0.2,1.3
						c0.2,0.6,0.4,1,0.6,1.5c0.1,0,0.3,0.1,0.3,0c0,0.5,0,1.1-0.1,1.6c-0.1,0.4-0.2,0.9-0.3,1.3c-0.1,0.4-0.3,0.9-0.3,1.3
						c0-0.2,0-0.4,0-0.5c-0.2,0-0.4,0-0.6,0.1c0-0.3-0.1-0.5-0.1-0.6c0.1-0.3,0.1-0.5,0.1-0.8c0.1-0.7,0.2-1.4,0.3-2.2
						c-0.2,0.4-0.3,0.8-0.4,1.3c-0.1,0.2-0.2,0.3-0.3,0.4c-0.2,0.3-0.3,0.5-0.4,0.8c0,0.8,0.1,1.4,0.1,2.3c0,0.1,0,0.3,0,0.3
						c0,0.3-0.1,0.6-0.1,0.8c-0.1,0.3-0.1,0.6-0.2,0.8c-0.1,0.6-0.2,1.1-0.3,1.7c-0.1,0.5-0.2,0.8-0.3,1.1c-0.1,0.3-0.1,0.4-0.1,0.5
						c0,0.3,0,0.3,0,0.7c-0.1,0.3-0.2,0.5-0.2,0.8c-0.1,0.2-0.1,0.3-0.2,0.5c-0.1,0.2-0.2,0.3-0.2,0.4c-0.2,0.6-0.3,1.1-0.4,1.7
						c-0.1,0.3-0.2,0.6-0.3,0.8c-0.1,0.3-0.2,0.6-0.3,0.8c-0.2,0.4-0.3,0.8-0.5,1.3c-0.1,0.3-0.2,0.4-0.3,0.7
						c-0.1,0.3-0.2,0.4-0.3,0.7c-0.2,0.5-0.3,1.1-0.4,1.6c-0.1,0.2-0.3,0.3-0.3,0.6c-0.2,0.4-0.4,0.9-0.6,1.3
						c-0.3,0.5-0.5,1.1-0.8,1.6c-1,1.6-0.4,1.3-0.9,2.4c-0.5,0.8-1,1.7-1.5,2.5c-0.3,0.3-0.5,0.7-0.7,1.1c-0.3,0.3-0.5,0.7-0.8,1.1
						c-0.5,0.8-1.1,1.7-1.7,2.5c-0.1,0.3-0.3,0.6-0.4,1c-0.1,0.1-0.2,0.3-0.3,0.3c-0.4,0.6-0.9,1.3-1.3,1.8c-0.7,0.8-1.3,1.7-2,2.5
						c-0.5,0.5-0.8,0.7-1.6,1.4c-0.3,0.1-0.5,0.3-0.8,0.7c-0.3,0.3-0.5,0.6-0.8,0.8c-0.4,0.4-0.9,0.9-1.3,1.3
						c-0.4,0.3-0.8,0.7-1.3,0.9c-0.4,0.3-0.8,0.7-1.3,0.9c0,0.1,0,0.2,0,0.3c-0.6,0.5-1.2,1-1.8,1.4c-0.3,0.1-0.4,0.1-0.6,0.2
						c-0.7,0.5-1.4,1-2.2,1.5c-0.8,0.4-1.6,0.8-2.4,1.3c-0.4,0.3-0.9,0.5-1.3,0.8c-0.3,0.3-0.8,0.6-1.1,0.9
						c-0.4,0.2-0.8,0.3-1.3,0.4c-0.6,0.3-1.1,0.6-1.7,0.9c-0.5,0.4-1.5,0.8-2.1,1c-0.3,0.1-0.4,0.2-0.7,0.3
						c-0.3,0.1-0.4,0.2-0.7,0.3c-0.5,0.2-0.9,0.3-1.4,0.6c-0.4,0.4-2.4,0.8-3.2,1.2c-1,0.3-2,0.6-2.9,0.8c-0.4,0.2-0.9,0.2-1.3,0.3
						c-0.4,0.1-0.8,0.2-1.3,0.3c-1,0.3-1.9,0.4-2.9,0.6s-1.9,0.3-2.9,0.4c-0.6,0.1-1.3,0.2-1.8,0.2c-0.8,0.1-0.1,0.3-1,0.3
						c-0.3,0-0.7,0-1.1,0.1c-0.3,0.1-0.7,0.2-1.1,0.2c-0.3,0-0.8,0.1-1,0.1c-0.7,0-1.2,0-1.3,0c0.1-0.3-0.4-0.3-0.8-0.3
						c-0.8,0-0.3,0.2-0.3,0.3c-0.8,0.1-1.7,0.1-2.4,0.2c-0.6-0.1-1.3-0.1-1.8-0.2c-0.3-0.1-0.6-0.2-1-0.2c-0.4-0.1-0.8-0.1-1.3-0.2
						s-1-0.1-1.5-0.2c-0.5-0.1-1-0.2-1.5-0.3c-0.6-0.1-1.2-0.2-1.8-0.3c-0.6-0.1-1.2-0.3-1.8-0.4c-0.6-0.1-1.2-0.3-1.7-0.3
						s-1-0.2-1.3-0.3c-0.4-0.2-0.8-0.3-1.2-0.4s-0.8-0.3-1.3-0.4c0.1,0,0.1-0.1,0.2-0.1c-1.8-0.8-1.5-0.4-2.2-0.7
						c-0.3-0.1-0.5-0.2-0.7-0.3c-0.5-0.3-1.3-0.8-1.9-1.1c-0.7-0.3-1.2-0.5-1.3-0.5c-1.8-0.9-1.5-0.6-2.1-0.9
						c-0.8-0.4-1.5-0.8-2.3-1.2c-1.4-1.1-1.3-1.2-1.3-1.3c-0.8-0.5-2.1-1.5-3.1-2c-0.4-0.2-0.8-0.4-1.2-0.7
						c-0.4-0.3-0.8-0.7-1.3-1.1c-0.7-0.5-1.6-1.3-1.9-1.3c-0.3-0.2-0.4-0.4-0.7-0.6c-0.2-0.2-0.4-0.4-0.6-0.6
						c-0.3-0.3-0.7-0.6-1-0.8c-0.3-0.3-0.7-0.6-1-0.9c-0.2-0.3-1.3-1.3-1-1.3c-0.6-0.5-1.1-1-1.6-1.6c-0.6-0.4-1.3-1-2-1.8
						c-0.3-0.4-0.8-0.8-1.2-1.3c-0.4-0.4-0.8-0.9-1.1-1.5c-0.3-0.3-0.4-0.7-0.7-0.9c-0.2-0.3-0.4-0.6-0.6-0.8
						c-0.3-0.5-0.7-0.9-1-1.3c-0.3-0.5-0.5-0.8-0.7-1.1c-0.2-0.3-0.3-0.3-0.3-0.4c-0.2-0.2-0.3-0.2-0.6-0.8
						c-0.2-0.3-0.3-0.5-0.4-0.8c-0.2-0.3-0.3-0.5-0.4-0.8c-0.3-0.6-0.5-0.9-0.8-1.3c-0.1-0.2-0.3-0.3-0.3-0.5
						c-0.1-0.2-0.3-0.3-0.3-0.6c-0.1-0.4-0.3-0.8-0.3-1.2c-0.2-0.4-0.4-0.8-0.6-1.2c-0.2-0.3-0.3-0.7-0.4-1
						c-0.3-0.6-0.6-1.2-0.9-1.7c-0.3-0.9-0.8-1.9-1.1-2.9c-0.3-1-0.7-2-0.9-2.9c-0.3-0.8-0.5-1.7-0.7-2.5c-0.2-0.8-0.3-1.7-0.6-2.5
						c-0.2-0.6-0.3-1.3-0.3-1.8c-0.1-0.6-0.2-1.3-0.3-1.8c0-0.3,0-0.5-0.1-0.8c0-0.3,0-0.8,0-1.3c0-0.5-0.1-1.1-0.2-1.5
						c0-0.7,0-1.2,0-1.8c0-0.3,0-0.5-0.1-0.8c0-1-0.1-2-0.1-2.9c0-1,0-2,0-3c0-0.4,0-0.8,0-1.3l0.1-1.3c-0.1,0-0.2-0.1-0.3-0.1
						c0,0.1-0.1,0.3-0.1,0.3c-0.1,0.8-0.2,1.5-0.3,3.4c0,0.6,0.1,1,0.1,1.4c0,0.4,0,0.8,0,1.1c0,0.6,0,1-0.1,1.2
						c-0.1-0.3-0.1-0.6-0.2-0.8c0-0.4,0-0.8,0-1.3c0-0.4,0-0.9,0.1-1.3c-0.1-0.7-0.1-1.3,0-2c0.1-0.7,0.2-1.3,0.2-2
						c0.1-1,0.3-2,0.4-3c0.1-0.2,0.3-0.4,0.3-0.6c0-0.2,0-0.3,0.1-0.4c0.1-0.8,0.3-1.4,0.3-2.2c0-0.4,0-0.8,0.1-1.1
						c0.3-0.8,0.4-1.4,0.7-2.1c0.1,0,0.2,0.1,0.2,0.1c0.1-0.2,0.1-0.3,0.2-0.3c0.1,0.1,0.2,0.1,0.3,0.2c0.1-0.4,0.2-0.8,0.3-1.3
						c0.1-0.4,0.3-0.8,0.3-1.3c0-0.1,0.1-0.3,0.1-0.3c0.1-0.2,0.1-0.3,0.2-0.5s0.2-0.3,0.2-0.5c0.2-0.3,0.3-0.7,0.4-1
						c0.1-0.3,0.2-0.5,0.3-0.7c0.2-0.6,0.3-1.2,0.6-1.8c0.2-0.6,0.3-1.1,0.5-1.5c0.2-0.5,0.3-0.9,0.5-1.3c0.3-0.8,0.7-1.4,1-1.8
						c0.1-0.2,0.3-0.4,0.4-0.7c0.3-0.7,0.6-1.3,0.9-2l1-1.9c-0.3,0.3-0.2-0.1,0.2-0.6c0.3-0.5,0.8-1.1,1-1.3
						c0.2-0.3,0.3-0.7,0.5-0.9c0.2-0.3,0.3-0.6,0.5-0.8c0.3-0.5,0.7-1,1-1.4c0.7-0.9,1.3-1.6,2-2.4c0.6-0.8,1.3-1.5,1.9-2.3
						c0.4-0.5,0.8-0.9,1.3-1.3c0.4-0.4,0.8-0.9,1.3-1.3c0.9-0.8,1.8-1.7,2.8-2.4c0.5-0.4,0.9-0.8,1.4-1.1c0.5-0.3,0.9-0.7,1.4-1.1
						c0.9-0.8,1.8-1.4,2.7-2.2c0.2-0.2,0.3-0.3,0.6-0.4c0.2-0.1,0.4-0.3,0.6-0.3c0.3-0.3,0.7-0.4,1-0.7c1.2-0.8,1.4-0.9,1.5-1.1
						c0.2-0.3-0.2-0.1-0.6,0.2c-0.4,0.3-0.9,0.6-1,0.8c-0.5,0.3-1,0.6-1.6,1c0-0.3-1.4,0.9-1.8,1.1c-0.6,0.4-1.2,0.9-1.8,1.4
						c-0.3,0.3-0.7,0.5-1,0.8c-0.3,0.3-0.7,0.5-0.9,0.8c0.2-0.4-1.4,1-1.8,1.3c0-0.1-0.1-0.1-0.1-0.2c0.8-0.7,1.5-1.3,2.3-1.9
						c0.8-0.6,1.6-1.3,2.4-1.8c0.8-0.4,1.8-1.3,2.4-1.8c0.5-0.3,1-0.7,1.6-1c0.5-0.3,1-0.7,1.6-1c1.1-0.6,2.2-1.2,3.3-1.6
						c0.4-0.2,0.9-0.4,1.3-0.7c0.6-0.3,1.3-0.6,2-0.9c0.9-0.4,1.9-0.8,2.9-1.2c0.9-0.4,1.9-0.7,2.9-1c1-0.3,1.9-0.4,2.7-0.6
						c0.4-0.1,0.8-0.2,1.1-0.3c0.3-0.1,0.7-0.2,0.9-0.3c0.7-0.2,1.4-0.3,2.1-0.5c0.8-0.2,1.5-0.3,2.2-0.3c1.1-0.3,1.2-0.2,1.4-0.1
						c-0.4,0.2-0.6,0.3-0.7,0.3c-0.1,0.1,0,0.1,0.2,0.1c0.3,0,1.1-0.1,2-0.3c0.4-0.1,1-0.2,1.4-0.2c0.7,0,1.4-0.1,2.2-0.1
						c0.7,0,1.2,0,1.8-0.1c0.6-0.1,1.2-0.1,1.9-0.1c1,0.1,1.9,0.1,2.9,0.2c0.5,0,1,0.1,1.5,0.1c0.5,0,0.9,0.1,1.4,0.1
						c2.4,0.3,4.1,0.7,5.1,0.7c0.6,0.1,1.2,0.3,1.8,0.3c0.4,0.2,0.9,0.3,1.3,0.5c0.4,0.1,0.8,0.2,1.3,0.3c0.4,0.1,0.8,0.3,1.2,0.3
						c0.7,0.2,1.3,0.4,1.9,0.6c0.7,0.3,1.3,0.4,1.9,0.7l0.9,0.3l0.9,0.3c0.6,0.3,1.3,0.5,1.8,0.8c0.4,0.2,0.8,0.3,1.4,0.5
						c0.5,0.3,1.1,0.6,1.5,0.9c-0.4,0,0.2,0.3,0.9,0.8c0.4,0.2,0.8,0.4,1.2,0.6c0.4,0.2,0.8,0.4,0.9,0.5c0.3,0.2,0.8,0.3,1.1,0.4
						c0.1,0,0.2,0.1,0.3,0.2c0.4,0.3,0.8,0.5,1.1,0.8c0.3,0.3,0.7,0.5,1,0.8c0.3,0.2,0.5,0.3,0.8,0.5c0.3,0.2,0.5,0.3,0.8,0.5
						c0.3,0.3,0.2,0.3,0.7,0.8c0.3,0.2,0.5,0.3,0.8,0.5c0.3,0.2,0.4,0.3,0.7,0.5c0.4,0.3,0.9,0.8,1.3,1.1c0.4,0.3,0.8,0.8,1.2,1.1
						c0.3,0.3,0.7,0.7,1,1c0.8,0.7,1.3,1.3,2.1,1.9c0.4,0.4,0.8,0.8,1.3,1.3c0.4,0.4,0.8,0.8,1.3,1.3c0.5,0.6,0.9,1.1,1.4,1.7
						c0.8,1.4,1,1.4,1.5,2c0.2,0.3,0.3,0.5,0.5,0.8l0.5,0.8c0.4,0.6,0.8,1.3,1.3,1.8c0.3,0.7,0.8,1.3,1.1,2c0.3,0.7,0.7,1.3,1.1,2
						c0.3,0.7,0.8,1.4,1.1,2.1c0.3,0.5,0.5,1,0.7,1.6c0.2,0.5,0.4,1,0.6,1.6c0.1,0.3,0.2,0.5,0.3,0.8c0.1,0.3,0.2,0.6,0.3,0.8
						c0.2,0.6,0.4,1.2,0.7,1.8c0.3,0.8,0.5,1.6,0.8,2.4l0.2,0.6l0.2,0.6c0.1,0.4,0.2,0.8,0.3,1.2c-0.1,0-0.2,0-0.3,0
						c0.1,0.4,0.2,0.8,0.3,1.2c0.1,0.4,0.1,0.8,0.2,1.2c0.1,0.5,0.3,1,0.3,1.4c0.1,0.5,0.2,0.9,0.3,1.4c0.2,0.9,0.3,1.8,0.3,2.7
						C-84.9,390.7-85.1,390.2-85.2,389.8z"/>
				</g>
				<g id="XMLID_228_">
					<path id="XMLID_229_" class="st5" d="M-112,344.2c-0.9-0.5-1.8-0.8-2.4-1.2c-0.6-0.3-1-0.6-1.2-0.8c1.1,0.4,1.8,0.8,2.4,1.1
						C-112.6,343.7-112.3,343.9-112,344.2z"/>
				</g>
				<g id="XMLID_226_">
					<path id="XMLID_227_" class="st5" d="M-125.4,338.2c-0.6-0.1-1.1-0.3-1.6-0.3s-0.9-0.2-1.3-0.3c-0.8-0.2-1.3-0.3-1.4-0.5
						c0.7,0.1,1.3,0.2,1.9,0.3c0.4,0.1,0.8,0.3,1.2,0.4L-125.4,338.2z"/>
				</g>
				<g id="XMLID_224_">
					<path id="XMLID_225_" class="st5" d="M-135,336c-0.6,0-1.1-0.1-1.5-0.1c-0.4,0-0.8,0-1.2,0c-0.8,0-1.3,0-1.8-0.1
						c-0.3-0.1-0.8-0.2-1.1-0.4c0.3,0,0.6-0.1,0.8-0.1s0.5,0,0.8,0c0.5,0.1,1,0.2,1.5,0.2c0.5,0.1,1,0.2,1.5,0.3
						C-135.6,335.9-135.3,336-135,336z"/>
				</g>
				<g id="XMLID_222_">
					<path id="XMLID_223_" class="st5" d="M-174.2,343.1c-0.7,0.4-0.8,0.7-1.6,1.1c-0.6,0.3-1.1,0.6-1.7,0.9
						c0.3-0.4,1.1-0.8,1.6-1.2C-175.1,343.4-174.8,343.4-174.2,343.1z"/>
				</g>
				<g id="XMLID_220_">
					<path id="XMLID_221_" class="st5" d="M-184.3,350c-0.4,0.5-0.9,1-1.3,1.5c-0.2,0.2-0.3,0.3-0.5,0.5c-0.4,0.3-0.8,0.6-1.3,0.9
						l-0.9,1c-0.3,0.3-0.6,0.7-0.8,1c-0.2,0.2-0.3,0.3-0.6,0.5l-0.3-0.3c0.4-0.4,0.8-0.8,1.2-1.3c0.4-0.4,0.8-0.8,1.3-1.2
						c0.5-0.5,0.9-0.9,1.3-1.4c0.6-0.5,1.3-1,1.8-1.4c0.7-0.5,1.3-1,2-1.5c0.3-0.3,0.7-0.5,1-0.8l1-0.7c-0.5,0.3-0.8,0.7-1.2,1
						c-0.3,0.3-0.7,0.7-1.3,1.1C-183.3,349.2-183.8,349.6-184.3,350z"/>
				</g>
				<g id="XMLID_218_">
					<path id="XMLID_219_" class="st5" d="M-204.1,379c-0.2,0.3-0.3,0.8-0.4,1.1c0,0.3,0.1,0.6,0.1,0.8c-0.3,1.2-0.8,2.5-1.2,3.1
						c-0.3,0.8-0.6,1.4-0.8,2.1c0-0.8,0.5-2.2,0.3-2.7c0.1-0.6,0.3-1,0.4-1.6c0.3-0.8,0.4-1.6,0.7-2.4c0.3-0.8,0.5-1.6,0.8-2.4
						c0.2-0.3,0.3-0.3,0.3-0.3L-204.1,379z"/>
				</g>
				<g id="XMLID_216_">
					<path id="XMLID_217_" class="st5" d="M-204.8,386.5c-0.1,0.5-0.2,1.1-0.3,1.9c-0.1,0.4-0.2,0.8-0.3,1.4
						c-0.1,0.5-0.2,1.2-0.3,1.8c0.1-0.4,0.1-0.9,0.2-1.3s0.1-0.9,0.2-1.3c0.2-0.8,0.3-1.8,0.4-2.7
						C-204.9,386.4-204.8,386.4-204.8,386.5z"/>
				</g>
				<g id="XMLID_214_">
					<path id="XMLID_215_" class="st5" d="M-206.7,387.4c0,1.2,0.4,0.3,0.2,2.4c-0.2,0.8-0.3,1.8-0.4,2.6c-0.1,0.1-0.1,0.3-0.2,0.3
						c-0.1,0.7-0.1,1.3-0.2,1.9c-0.1,0.7-0.2,1.3-0.2,1.9c0,0.5-0.1,1-0.1,1.5c-0.1-0.2-0.2-0.3-0.3-0.5c-0.1-0.4-0.1-1-0.1-1.7
						s0.1-1.5,0.1-2.6c0-0.3,0-0.5,0.1-0.8c0.1-0.4,0.1-0.8,0.2-1.2c0.2-0.7,0.3-1.4,0.5-2.2C-206.8,388.5-206.8,387.9-206.7,387.4z
						"/>
				</g>
				<g id="XMLID_212_">
					<path id="XMLID_213_" class="st5" d="M-206,396.6c-0.1,0.4-0.2,1-0.3,1.4c-0.1-0.4-0.1-1-0.1-1.6c0-0.2,0-0.3,0-0.4
						c0-0.2,0-0.3,0-0.4c0-0.3,0.1-0.6,0.1-0.8c0.1-0.3,0.2-0.4,0.3-0.7c0,0.4,0,0.9,0,1.3c0,0.3,0,0.4,0,0.7
						C-206,396.2-206,396.3-206,396.6z"/>
				</g>
				<g id="XMLID_210_">
					<path id="XMLID_211_" class="st5" d="M-204.7,418.9c0.5,1.3,0.8,2,1,2.5c0.3,0.5,0.3,0.8,0.4,1.3c-0.2-0.1-0.3-0.5-0.7-1.1
						c-0.3-0.6-0.5-1.3-0.7-1.7c-0.3-0.6,0.3,1.1,0,0.5c-0.2-0.4-0.3-1-0.5-1.4C-205,418.9-204.8,418.9-204.7,418.9z"/>
				</g>
				<g id="XMLID_208_">
					<path id="XMLID_209_" class="st5" d="M-198.1,428.2c0.1,0.3,0.3,0.4,0.3,0.6s0.3,0.3,0.3,0.5c0.3,0.3,0.5,0.7,0.8,1.3
						c0.2,0.3,0.3,0.5,0.4,0.8c0.2,0.3,0.3,0.5,0.4,0.8c0.3,0.6,0.4,0.6,0.6,0.8c0.1,0.1,0.2,0.2,0.3,0.4c0.2,0.3,0.3,0.6,0.7,1.1
						c0.3,0.3,0.6,0.8,1,1.3c0.2,0.3,0.3,0.5,0.6,0.8c0.2,0.3,0.4,0.6,0.7,0.9c0.4,0.5,0.8,1,1.1,1.5c0.4,0.4,0.8,0.8,1.2,1.3
						c0.8,0.8,1.4,1.4,2,1.8c0.5,0.6,1,1.1,1.6,1.6c-0.3,0,0.8,0.9,1,1.3c0.3,0.3,0.7,0.6,1,0.9c0.3,0.3,0.7,0.6,1,0.8
						c0.2,0.2,0.4,0.4,0.6,0.6c0.3,0.2,0.4,0.4,0.7,0.6c0.3,0.1,1.3,0.8,1.9,1.3c0.5,0.4,0.8,0.8,1.3,1.1c0.3,0.3,0.8,0.4,1.2,0.7
						c1.1,0.5,2.4,1.5,3.1,2c-0.1,0.1-0.2,0.2,1.3,1.3c0.8,0.4,1.5,0.8,2.3,1.2c0.6,0.3,0.3,0,2.1,0.9c0.1-0.1,0.7,0.2,1.3,0.5
						c0.7,0.3,1.4,0.7,1.9,1.1c-0.6-0.2-1.2-0.3-1.7-0.4c-0.4-0.2-0.9-0.4-1.3-0.6c-0.9-0.4-1.8-0.8-2.7-1.3l-1.1-0.6
						c-0.3-0.2-0.8-0.4-1.1-0.6c-0.4-0.3-0.8-0.5-1.3-0.8c-0.4-0.3-0.8-0.5-1.3-0.8c-0.6-0.4-1.2-0.8-1.8-1.3
						c-0.6-0.4-1.2-0.8-1.8-1.3c-0.3-0.2-0.6-0.4-0.8-0.6c-0.3-0.2-0.6-0.4-0.8-0.7c-0.5-0.4-1.1-0.8-1.7-1.3c-1-0.8-2.3-1.8-3-2.8
						l-1.3-1.3c-0.4-0.4-0.8-0.9-1.3-1.3c-0.3-0.3-0.6-0.6-0.9-0.8c-0.3-0.3-0.6-0.6-0.8-0.8c-0.3-0.3-0.5-0.6-0.8-0.8
						c-0.2-0.2-0.3-0.3-0.4-0.4l-0.4-0.5c-0.2-0.3-0.8-1.2-0.3-0.8c-0.3-0.3-0.4-0.6-0.7-0.8c-0.3-0.4-0.7-0.9-0.9-1.3
						c-0.3-0.4-0.6-0.9-0.9-1.3c-0.4-0.6-0.8-1.3-1.1-1.8c-0.1,0-0.2,0-0.3-0.1c-0.2-0.3-0.4-0.7-0.6-1l-0.6-1.1
						c-0.3-0.7-0.8-1.4-1.1-2.1l-0.6-1.3c-0.2-0.4-0.4-0.8-0.6-1.3c-0.3-0.8-0.7-1.7-1-2.5c0.3,0.6,0.7,1.1,0.9,1.7
						c0.2,0.3,0.3,0.6,0.4,1c0.2,0.3,0.3,0.8,0.6,1.2C-198.4,427.3-198.3,427.8-198.1,428.2z"/>
				</g>
				<g id="XMLID_206_">
					<path id="XMLID_207_" class="st5" d="M-195.8,432.4c0.3,0.6,0.8,1.3,1.1,1.8c0.3,0.5,0.6,0.9,0.9,1.3c0.3,0.4,0.6,0.9,0.9,1.3
						c-0.2-0.2-0.3-0.3-0.4-0.3c-0.2-0.1-0.3-0.3-0.4-0.3c-0.5-0.7-1-1.4-1.4-2.1s-0.7-1.3-0.9-1.8
						C-195.9,432.4-195.8,432.4-195.8,432.4z"/>
				</g>
				<g id="XMLID_204_">
					<path id="XMLID_205_" class="st5" d="M-188.3,446.1c0.4,0.4,0.8,0.9,1.3,1.3c0.8,0.8,1.7,1.3,2,1.5c0.1-0.1,0.3-0.2,0.4-0.3
						c1.4,1.3,2.9,2.4,4.5,3.5c-0.3,0-0.4,0.1-0.8,0.1c0.2,0.1,0.2,0.2,0.3,0.3c-0.4-0.1-0.8-0.1-1.2-0.2c-0.3-0.2-0.6-0.4-0.8-0.6
						c-0.3-0.2-0.5-0.4-0.8-0.6c-0.7-0.6-1.3-1.1-2-1.6c-0.7-0.6-1.3-1.1-1.8-1.7c-0.6-0.6-1.2-1.1-1.7-1.7
						c-0.3-0.3-0.6-0.5-0.8-0.8c-0.3-0.3-0.5-0.6-0.8-0.8c0-0.1,0.5,0.3,0.2-0.3c0.3,0.3,0.6,0.6,0.9,0.8
						C-188.9,445.5-188.6,445.7-188.3,446.1z"/>
				</g>
				<g id="XMLID_202_">
					<path id="XMLID_203_" class="st5" d="M-186.4,447.1c0.6,0.5,1.2,1,1.8,1.5c-0.1,0.1-0.3,0.2-0.4,0.3c-0.6-0.6-1.3-1.3-1.8-1.8
						C-186.6,447.1-186.4,447.1-186.4,447.1z"/>
				</g>
				<g id="XMLID_200_">
					<path id="XMLID_201_" class="st5" d="M-179.6,453.2c0.8,0.3,1.3,0.7,1.8,1c0.5,0.3,0.9,0.6,1.3,0.8c0.3,0.3,0.8,0.7,0.8,0.7
						c-0.6-0.3-1.1-0.6-1.5-0.8c-0.4-0.3-0.8-0.5-1.1-0.7C-178.9,453.8-179.3,453.5-179.6,453.2z"/>
				</g>
				<g id="XMLID_198_">
					<path id="XMLID_199_" class="st5" d="M-167.5,458.2c0.6,0.2,1.2,0.3,1.8,0.4c0.3,0.2,0.5,0.4,0.8,0.6c0.7,0.2,1.4,0.4,2.6,0.8
						c0.9,0.3,1.8,0.6,2.7,0.8c0.3,0.1,0.4,0.1,0.6,0.2c0.3,0,0.4,0.1,0.6,0.1c0.4,0.1,0.8,0.2,1.3,0.3c0.4,0.1,0.8,0.2,1.3,0.3
						c0.4,0.1,0.9,0.2,1.4,0.3s1,0.2,1.5,0.3c0.6,0.1,1.1,0.2,1.8,0.3c-0.5,0.1-1,0.2-1.6,0.2c-1.8-0.3-3.4-0.6-4.7-0.9
						c-0.7-0.2-1.3-0.3-1.8-0.4c-0.6-0.2-1.1-0.3-1.6-0.3c-0.6-0.3-1.3-0.5-1.9-0.8c-0.7-0.3-1.4-0.5-2.4-0.9
						c-0.8-0.3-1.8-0.7-2.5-1C-167.7,458.3-167.6,458.2-167.5,458.2z"/>
				</g>
				<g id="XMLID_196_">
					<path id="XMLID_197_" class="st5" d="M-151.2,462.4c0.5,0.1,1,0.2,1.6,0.3c0,0,0.1,0,0.1-0.1c0.8,0,1.6,0.1,2.3,0.1
						c0.2,0,0.3,0,0.4,0c0.3,0,0.6,0,0.9,0c0.3,0,0.6,0,0.9,0c0.6,0,1.2,0,1.8,0c0.9,0,1.8,0,2.6,0.1c0.3,0,0.5,0,0.8,0
						s0.5-0.1,0.8-0.1c0.5-0.1,1-0.1,1.5-0.2c0.2,0,0.3,0,0.4,0c0.1,0.1,0.2,0.2,0.2,0.3c0.2,0,0.3,0,0.5,0s0.3,0,0.5-0.1
						c0.3,0,0.6-0.1,0.8-0.1c0.5-0.1,0.9-0.1,1.3-0.2c0.8-0.1,1.3-0.3,2-0.4c0.4-0.1,0.8-0.1,1.2-0.2c0.3,0,0.5-0.1,0.7-0.1
						c0.6-0.2,1-0.3,1.6-0.4c0.4-0.1,0.8-0.2,1.3-0.3c0.4-0.1,0.8-0.3,1.3-0.3c0.4-0.1,0.8-0.2,1.3-0.3c0.4-0.1,0.8-0.2,1.3-0.3
						c-0.5,0.3-1.1,0.4-1.6,0.7c-1.8,0.5-3.4,0.9-5.3,1.3c-0.8,0.2-1.5,0.3-2.3,0.4l-0.6,0.1l-0.6,0.1l-1.2,0.2
						c-0.4,0-0.8,0.1-1.3,0.1c-0.4,0-0.9,0-1.3,0.1c-0.5,0-1,0.1-1.5,0.1c-0.5,0.1-1.1,0.1-1.6,0.1c-0.6,0-1.1,0-1.7,0.1
						c-0.6,0-1.1,0-1.7,0c-0.6,0-1.1,0-1.7,0s-1.3-0.1-1.8-0.2c-0.7-0.1-1.3-0.1-1.9-0.2c-0.2,0-0.3,0.1-0.5,0.1
						c-0.8-0.2-1.8-0.3-2.6-0.4C-152.2,462.6-151.7,462.5-151.2,462.4z"/>
				</g>
				<g id="XMLID_194_">
					<path id="XMLID_195_" class="st5" d="M-148.7,462.3c0.6,0.2,1,0.3,1.5,0.5c-0.8,0-1.6-0.1-2.3-0.1
						C-149.3,462.5-149,462.4-148.7,462.3z"/>
				</g>
				<g id="XMLID_192_">
					<path id="XMLID_193_" class="st5" d="M-132.1,462.1c-0.8,0.2-1.3,0.3-2,0.4c-0.3,0.1-0.8,0.1-1.3,0.2c-0.3,0-0.5,0.1-0.8,0.1
						c-0.2,0-0.3,0-0.5,0.1c-0.2,0-0.3,0-0.5,0c0-0.1-0.1-0.2-0.2-0.3c0.7,0,1.3-0.1,2.1-0.2C-134.4,462.4-133.4,462.3-132.1,462.1z
						"/>
				</g>
				<g id="XMLID_190_">
					<path id="XMLID_191_" class="st5" d="M-137.3,464.6c0.3-0.1,0.7-0.1,1-0.2s0.7-0.2,1-0.2c0.6-0.1,1-0.1,1.5-0.2
						c0.5-0.1,1-0.2,1.4-0.3c0.5-0.1,0.9-0.2,1.4-0.3c0.4-0.1,0.8-0.2,1.1-0.3c0.3-0.1,0.6-0.2,0.8-0.2c0.5-0.1,0.9-0.1,1.4-0.2
						c0.4-0.2,0.9-0.3,1.3-0.5c0.5-0.2,1.2-0.3,1.8-0.4c0.3-0.1,0.6-0.2,0.8-0.3c0.3-0.1,0.5-0.2,0.8-0.2c0,0.1,0.2,0.1,0.3,0.2
						c0.5-0.2,1-0.3,1.4-0.5c0.3-0.1,0.5-0.2,0.8-0.3c0.3-0.1,0.5-0.2,0.8-0.3c-0.1,0.2-0.2,0.3-0.3,0.5c-0.7,0.3-1.3,0.6-2,0.8
						c-0.3-0.1-0.8-0.1-1.1-0.2c-0.8,0.3-1.7,0.5-2.5,0.7c-0.4,0.1-0.8,0.3-1.3,0.3l-1.3,0.3c-0.1,0.2-0.2,0.3-0.3,0.4
						c-1.2,0.3-2.6,0.5-3.9,0.8c-0.4,0-0.3-0.1-0.9-0.2c-0.3,0-0.4,0-0.8,0c-0.4,0.1-0.8,0.3-1.3,0.3c-0.4,0-0.8,0.1-1.2,0.1
						c-0.4,0-0.8,0.1-1.2,0.1c-0.1,0-0.2-0.1-0.3-0.1C-137.7,464.8-137.5,464.7-137.3,464.6z"/>
				</g>
				<g id="XMLID_188_">
					<path id="XMLID_189_" class="st5" d="M-128.7,461.4c0.4-0.1,0.8-0.2,1.3-0.3c0.4-0.1,0.8-0.3,1.3-0.3c-0.4,0.1-0.8,0.3-1.3,0.3
						C-127.8,461.2-128.2,461.3-128.7,461.4z"/>
				</g>
				<g id="XMLID_186_">
					<path id="XMLID_187_" class="st5" d="M-121.8,459.7c0.5-0.3,1.4-0.7,2.3-1c0.4-0.2,0.8-0.3,1.3-0.5c0.3-0.2,0.7-0.3,0.9-0.5
						c1.5-0.8,1.3-0.4,2-0.6v0.1c-0.7,0.4-1.5,0.8-2.3,1.3c-0.7,0.3-1.6,0.6-2.4,0.9c-0.4,0.2-0.8,0.3-1.1,0.3
						C-121.4,459.7-121.7,459.7-121.8,459.7z"/>
				</g>
				<g id="XMLID_184_">
					<path id="XMLID_185_" class="st5" d="M-140.3,464.3c0.1-0.1,0.3-0.3,0.3-0.3c4.6-0.2,9.9-1.1,14.6-2.4c0.4-0.1,0.8-0.3,1.3-0.3
						c0.4-0.1,0.8-0.3,1.3-0.4c0.4-0.2,0.8-0.3,1.3-0.4c0.4-0.2,0.8-0.3,1.3-0.4c0.8-0.3,1.6-0.7,2.4-1c0.8-0.3,1.6-0.8,2.4-1.1
						c0.4-0.2,0.8-0.4,1.3-0.7c0.4-0.3,0.9-0.5,1.4-0.7c0.5-0.3,1-0.5,1.4-0.8c0.5-0.3,1-0.5,1.5-0.8c0.5-0.3,1-0.6,1.4-0.8
						c0.5-0.3,0.9-0.6,1.4-0.8c0.8-0.6,1.7-1.2,2.4-1.8c0.3-0.3,0.7-0.5,1.1-0.8c0.3-0.3,0.7-0.5,1.1-0.8c0.8-0.5,1.4-1.1,2.1-1.8
						c0.4-0.3,0.8-0.7,1.2-1c0.3-0.3,0.8-0.7,1.1-1c0.6-0.5,1.1-1,1.7-1.6c0.3-0.4,0.6-0.8,0.8-1.1c0.2-0.2,0.3-0.3,0.6-0.5
						c0.2-0.2,0.3-0.3,0.5-0.6c-0.2,0.7-0.4,1.3-0.6,1.8c-0.8,0.8-1.4,1.5-2.2,2.3c-0.8,0.8-1.5,1.5-2.4,2.2
						c-0.8,0.6-1.5,1.2-2.4,1.8c-1.2,0.8-1.7,1.5-2.3,2.1c-0.3,0.3-0.6,0.4-0.9,0.7c-0.3,0.2-0.6,0.3-0.9,0.5
						c-0.3,0.2-0.6,0.3-0.9,0.5c-1.3,0.7-1.7,1.3-2.7,1.8c-1.9,1.3-2.9,1.7-3.5,2.1c-1.2,0.6-2.4,1.1-3.5,1.6
						c-0.2,0.1-0.3,0.1-0.5,0.2s-0.3,0.1-0.5,0.2c-0.3,0.1-0.7,0.2-1,0.3c-1.6,0.5-2.5,1-3.8,1.5c-0.3,0-0.4,0.1-0.8,0.2
						c-0.3,0.1-0.6,0.2-0.8,0.3c-0.6,0.2-1.2,0.3-1.8,0.4c-0.4,0.2-0.9,0.3-1.3,0.5c-0.4,0-0.9,0.1-1.4,0.2c-0.3,0-0.5,0.1-0.8,0.2
						c-0.3,0.1-0.7,0.2-1.1,0.3c-0.4,0.1-0.9,0.2-1.4,0.3c-0.5,0.1-0.9,0.3-1.4,0.3c-0.5,0.1-0.9,0.1-1.5,0.2c-0.3,0-0.7,0-1.1,0
						c-0.3,0-0.8,0-1.1,0c-0.5,0-1,0.1-1.5,0.1c-0.3,0-0.5,0-0.8,0.1c-0.3,0-0.5,0-0.8,0C-140.3,464.4-140.3,464.4-140.3,464.3z"/>
				</g>
				<g id="XMLID_182_">
					<path id="XMLID_183_" class="st5" d="M-109.9,455.9c0.3-0.1,0.6-0.3,0.8-0.3c0.3-0.1,0.5-0.3,0.4-0.1c-0.4,0.4-1,0.8-1.8,1.2
						c-0.3,0.2-0.8,0.4-1.1,0.6s-0.8,0.3-1.1,0.5c-0.3,0.1-0.7,0.2-0.9,0.3C-112.8,457.6-111.9,457.1-109.9,455.9z"/>
				</g>
				<g id="XMLID_180_">
					<path id="XMLID_181_" class="st5" d="M-104,449.8c0.5-0.3,1-0.7,1.5-1c0.5-0.3,0.9-0.7,1.4-1.1c-1.1,1.3-2.4,2.1-3.4,2.9
						C-104.1,450.3-104.5,450.3-104,449.8z"/>
				</g>
				<g id="XMLID_178_">
					<path id="XMLID_179_" class="st5" d="M-93.3,441.8c0.2-0.2,0.4-0.5,0.7-0.8c0.3-0.3,0.5-0.7,0.8-1c0.5-0.6,0.9-1.1,1.1-1
						c-0.3,0.9-1.5,2.2-2,2.9c-0.8,0.9-1.3,1.3-1.8,1.8C-94.2,443-93.8,442.4-93.3,441.8z"/>
				</g>
				<g id="XMLID_176_">
					<path id="XMLID_177_" class="st5" d="M-88,434.1c0.3-0.5,0.8-1.1,1-1.6c0.3-0.7,0.7-1.3,1-1.8c0.3-0.6,0.6-1.2,0.8-1.7
						c0-0.2,0.2-0.5,0.4-0.9c0.1-0.2,0.3-0.4,0.3-0.7c0.1-0.3,0.2-0.4,0.3-0.6c0-0.1,0.1-0.3,0.2-0.3c0.2-0.1,0.4-0.3,0.7-0.5
						c0,0.5-0.4,1.2-0.6,1.6c-0.3,0.7-0.7,1.3-1,1.8c-0.2,0.3-0.3,0.6-0.5,0.9c-0.2,0.3-0.3,0.6-0.6,0.9c-0.1,0.2-0.3,0.4-0.4,0.7
						c-0.3,0.4-0.4,0.9-0.7,1.3c-0.3,0.4-0.5,0.8-0.7,1.3c-0.3,0.5-0.7,1-1,1.4c-0.3,0.4-0.7,0.9-1,1.3c0.3-0.6,0.6-1.1,0.8-1.6
						C-88.5,435.2-88.3,434.7-88,434.1z"/>
				</g>
				<g id="XMLID_174_">
					<path id="XMLID_175_" class="st5" d="M-84.5,399.2c-0.1-1.5-0.2-2.6-0.1-3.1c-0.1-1-0.2-2.1-0.3-3.1c-0.1-0.5-0.1-1-0.2-1.5
						c-0.1-0.5-0.1-1-0.2-1.5c0.2,0.4,0.3,0.9,0.4,1.4c0.1,0.3,0.1,0.8,0.1,1c0,0.3,0.1,0.7,0.1,0.9c0,0.3,0,0.7,0.1,0.9
						c0,0.7,0.1,1.3,0.1,1.9C-84.4,397.1-84.4,398.2-84.5,399.2z"/>
				</g>
				<g id="XMLID_172_">
					<path id="XMLID_173_" class="st5" d="M-87.5,384.7c-0.2-0.8-0.4-1.7-0.7-2.5c-0.3-0.8-0.6-1.7-0.7-2.4h0.3
						c-0.1-0.4-0.2-0.8-0.3-1.1c-0.1-0.3-0.1-0.5,0-0.6c-0.3-0.7-0.4-1.3-0.7-1.8s-0.4-1-0.7-1.4c-0.4-0.9-0.8-1.8-1.4-3.1
						c-0.3-0.5-0.6-1-0.8-1.5c-0.3-0.5-0.5-1-0.8-1.5c-0.3-0.4-0.5-0.8-0.8-1.2c-0.3-0.6-0.6-1-0.9-1.4c0.2-0.2-0.9-1.4-1.3-2.1
						c-0.6-0.8-1.1-1.4-1.7-2.2c-0.5-0.6-1.1-1.3-1.6-1.8c0.2,0.1,0.3-0.2-0.5-0.8c-0.4-0.4-0.7-0.8-1-1.2c-0.3-0.4-0.7-0.8-1.2-1.2
						c0,0.1-0.7-0.6-1-0.9c0.1,0-0.1-0.2-0.3-0.3c-0.2-0.2-0.3-0.3-0.3-0.4c-0.6-0.5-1.1-0.8-1.6-1.2c-0.5-0.3-1.1-0.7-1.8-1.4
						c-0.6-0.6-1.3-1.1-2-1.8c-0.8-0.7-1.7-1.2-2.7-1.8c-0.5-0.3-0.9-0.4-1.3-0.6c-0.3-0.2-0.6-0.3-0.8-0.5
						c-0.4-0.3-0.7-0.5-0.9-0.8c-0.5-0.4-0.8-0.8-2.6-1.3c-0.8-0.3-0.8-0.5-1.5-0.8c-0.3-0.2-0.7-0.3-1-0.4
						c-0.3-0.2-0.7-0.3-1.1-0.4c-0.3-0.2-0.8-0.3-1.1-0.4l-0.5-0.2l-0.6-0.2c-0.3-0.2-1-0.4-1.8-0.8c-0.8-0.3-1.6-0.4-1.8-0.7
						c-0.5-0.1-1-0.3-1.6-0.3c-0.6-0.1-1.1-0.3-1.5-0.4c-0.5-0.2-0.9-0.3-1.3-0.3c-0.4-0.1-0.8-0.2-1.3-0.3
						c-0.4-0.1-0.8-0.2-1.3-0.3c-0.4-0.1-0.8-0.2-1.3-0.3c-0.5,0-1.1-0.2-1.5-0.3c-0.5-0.1-0.9-0.2-1.3-0.1c-0.1,0.1-0.6,0.1-1.2,0
						c-0.3,0-0.6-0.1-0.8-0.1c-0.3,0-0.6,0-0.8,0c-0.3-0.1-1.2-0.2-2.1-0.2c-0.9,0-1.8,0-2.1-0.1c-0.4,0-0.8,0-1.3,0s-0.8,0-1.3,0.1
						c-0.8,0.1-1.7,0.1-2.5,0.2c-0.6,0.2-1.2,0.3-1.8,0.4c-4.4,0.6-8.1,1.5-11.9,2.8c-3.8,1.3-7.5,3-11.5,5.5
						c-0.6,0.3-1.1,0.6-1.5,0.8c-0.4,0.3-0.8,0.6-1.2,0.9c-0.3,0.3-0.8,0.6-1.2,0.9c-0.4,0.3-0.8,0.7-1.4,1
						c-0.3,0.3-0.6,0.4-0.9,0.7c-0.3,0.3-0.6,0.5-0.8,0.8c-0.6,0.5-1.1,0.9-1.6,1.4s-1,0.9-1.5,1.4l-0.4,0.3l-0.3,0.3l-0.8,0.8
						c-0.8,0.6-0.9,1.1-1.4,1.7c-0.5,0.7-1,1.2-1.5,1.8c-0.4,0.5-0.8,1-1.3,1.5c-0.4,0.4-0.8,0.9-1.2,1.4c-0.3,0.5-0.8,0.9-1.2,1.5
						c0.3-0.6,0.8-1.3,1.3-1.9c0.1-0.2,0.3-0.3,0.3-0.5c0.2-0.2,0.3-0.3,0.4-0.5c0.3-0.3,0.6-0.7,0.8-1.1c0.6-0.8,1.2-1.4,1.8-2.1
						c0.6-0.7,1.3-1.3,1.8-2c0.4-0.4,0.8-0.7,1-0.9c0.3-0.2,0.4-0.3,0.6-0.7c0.4-0.4,1-1,1.3-1.2c2.9-2.5,6.2-5,9.8-7.1
						s7.5-3.9,11.3-5.1c0.8-0.3,1.8-0.6,2.9-0.8c0.5-0.2,1-0.3,1.6-0.4c0.5-0.2,1.1-0.3,1.6-0.4c0.6-0.1,1.1-0.3,1.7-0.3
						c0.6-0.1,1.2-0.2,1.8-0.3c1.2-0.2,2.4-0.3,3.4-0.3c0.8-0.1,1.7-0.2,2.5-0.3c0.4,0,0.8-0.1,1.3-0.1c0.4,0,0.8,0,1.3,0
						c1.8-0.2,3.8,0,5.4,0.2c4.1,0.1,8.1,1,11.3,1.8c2.6,0.9,6,1.6,8,2.9c0.6,0.2,1.1,0.5,1.6,0.7c3.4,1.4,6.8,3.5,9.5,5.5
						c0.9,0.6,1.1,1.2,2,1.5c0.4,0.3,1.1,0.8,1.3,1.2c0.6,0.4,1.4,1.3,2.4,2.1c0.5,0.4,0.9,0.8,1.3,1.3c0.4,0.4,0.9,0.8,1.3,1.1
						c0.6,0.8,1.2,1.4,1.8,2.1c0.3,0.5,0.8,0.9,1.7,2.3c0.3,0.5,0.8,0.9,1.1,1.4c0.1,0.3,0.2,0.6,0.3,0.9c0.7,0.8,0.8,1,1.4,1.7
						c0.2,0.3,0.3,0.5,0.5,0.8c0.2,0.3,0.3,0.5,0.5,0.8c0.2,0.3,0.3,0.6,0.6,0.8c0.2,0.3,0.4,0.5,0.6,0.8c0.2,0.3,0.3,0.6,0.5,0.9
						c0.2,0.3,0.3,0.8,0.6,1.2c0.3,0.4,0.4,0.9,0.7,1.4c0.3,0.4,0.5,0.8,0.7,1.3c0.2,0.4,0.3,0.8,0.5,1.3c0.3,0.8,0.6,1.5,1,2.3
						c0.4,0.8,0.7,1.4,0.8,2.1s0.3,1.5,0.8,2.9c0.2,0.8,0.4,1.6,0.6,2.4c-0.1-0.2-0.3-0.4-0.3-0.7c-0.1,0-0.3,0-0.3,0
						c0.1,0.4,0.2,0.8,0.2,1.2c0.1,0.4,0.1,0.8,0.2,1.2c0.2,0.8,0.4,1.6,0.3,2C-86.8,388.1-87.2,385.6-87.5,384.7z"/>
				</g>
				<g id="XMLID_170_">
					<path id="XMLID_171_" class="st5" d="M-85.4,388.4c-0.1-0.3-0.2-0.6-0.3-1c-0.1-0.3-0.2-0.8-0.3-1.1c0.1,0,0.1,0,0.2,0.2
						c0.1,0.1,0.1,0.3,0.2,0.6C-85.6,387.4-85.5,387.9-85.4,388.4z"/>
				</g>
				<g id="XMLID_168_">
					<path id="XMLID_169_" class="st5" d="M-102.8,352.5c-0.5-0.3-0.9-0.8-1.4-1c-0.5-0.3-0.9-0.7-1.3-1c-0.8-0.7-1.8-1.3-2.5-1.8
						c-1.7-1.2-3.4-2.3-5.1-3.2c-0.7-0.5-1.1-0.7-1.4-0.8c-0.3-0.2-0.5-0.3-0.8-0.3c-0.3-0.2-0.6-0.3-0.9-0.5
						c-0.3-0.2-0.6-0.3-0.8-0.4c-0.5-0.3-1-0.5-1.4-0.7c-0.2-0.1-0.4-0.2-0.6-0.3c-0.2-0.1-0.3-0.2-0.5-0.3
						c-0.3-0.2-0.5-0.3-0.7-0.4c-0.7-0.3-1.3-0.5-1.8-0.8c-0.7-0.3-1.3-0.4-1.9-0.7c-0.3-0.1-0.5-0.2-0.8-0.3
						c-0.3-0.1-0.5-0.2-0.7-0.2c-0.4-0.2-0.8-0.3-1.3-0.4c-0.8-0.3-1.8-0.5-3-0.7c-0.3-0.1-0.4-0.1-0.7-0.2
						c-0.5-0.2-0.9-0.3-1.4-0.5c-0.6-0.1-1.2-0.1-1.8-0.2c-0.9-0.2-1.7-0.3-2.3-0.4c-0.3,0-0.5-0.1-0.8-0.1c-0.3,0-0.4,0-0.7,0
						c-0.9-0.1-1.9-0.3-2.9-0.3c-1.4,0-2.9-0.1-4.5-0.1c-0.5,0-0.9,0-1.4,0c-1.8,0-2.8,0-3.3,0.1c-0.8,0.3-0.6-0.1-1.8,0.2
						c-1.3,0.2-2.9,0.4-4.5,0.8c-0.7,0.2-1.4,0.3-2.1,0.4c-0.3,0-0.5,0-0.8,0c-0.7,0.2-1.3,0.4-2,0.6c-0.3,0.1-0.7,0.2-1,0.3
						c-0.3,0.1-0.7,0.3-1,0.3c-1,0.3-2,0.7-2.9,1c-1,0.4-1.9,0.8-2.9,1.2c-0.7,0.3-1.4,0.6-2,0.9c-0.4,0.3-0.9,0.4-1.3,0.7
						c-1.1,0.5-2.2,1.1-3.3,1.6c-0.5,0.3-1.1,0.7-1.6,1c-0.5,0.3-1,0.7-1.6,1c-0.6,0.5-1.7,1.3-2.4,1.8c-0.8,0.6-1.5,1.2-2.4,1.8
						c-0.8,0.7-1.5,1.3-2.3,1.9c-0.1,0-0.2,0.1-0.3,0.2c-1.8,1.4-1.5,1.5-1.8,1.8c-1,1.1-2,2.2-2.9,3.4c-0.3,0.3-0.6,0.7-0.8,0.9
						c-0.3,0.3-0.5,0.7-0.8,1c-0.6,0.7-1.3,1.3-1.8,2.1l-0.8,1.1l-0.4,0.5l-0.4,0.6c-0.2,0.3-0.4,0.7-0.6,1c0,0.1-0.1,0.3-0.2,0.3
						c-0.2,0.3-0.3,0.6-0.5,0.8l-0.5,0.8c-0.3,0.6-0.7,1.2-1,1.7c-0.3,0.6-0.6,1.2-0.9,1.8c-0.2,0.3-0.3,0.6-0.4,0.8
						c-0.2,0.3-0.3,0.6-0.4,0.8c0,0-0.1,0-0.1-0.1c-0.7,1.3-0.8,1.6-1,2c-0.3,0.3-0.5,0.6-0.7,0.8c-0.1,0.7-0.2,1.3-0.3,2
						c-0.3,0.8-0.5,1.5-0.8,2.1c-0.1,0-0.1-0.1-0.2-0.1c0.2-0.5,0.2-0.8,0.2-1.2c0-0.3,0.1-0.5,0.2-0.8c0.1-0.3,0.3-0.8,0.4-1.4
						c0.1-0.2,0.2-0.4,0.3-0.7c0.2-0.4,0.3-1,0.5-1.4c0.5-0.8,0.9-1.7,1.4-2.5c0.5-0.9,0.9-1.8,1.4-2.7c0.3-0.4,0.5-0.8,0.8-1.3
						c0.2-0.3,0.4-0.8,0.8-1.4c0.4-0.6,0.9-1.3,1.7-2.4c2.4-3.5,5.2-6.8,8.3-9.7c0.3-0.3,0.8-0.7,1.1-1c0.2-0.2,0.3-0.3,0.5-0.5
						s0.3-0.3,0.6-0.5c1.2-1.2,3.2-2.9,5.3-4.1c0.6-0.5,1.1-0.9,1.8-1.3c0.7-0.3,1.4-0.8,2.4-1.3c0.5-0.3,1-0.5,1.5-0.8
						c0.3-0.2,0.5-0.3,0.8-0.4c0.3-0.2,0.6-0.3,0.9-0.4c0.5-0.3,1-0.5,1.5-0.8c0.5-0.3,1-0.4,1.5-0.7c0.7-0.3,1.3-0.6,2-0.8
						c0.7-0.3,1.3-0.6,2.1-0.8c0.3-0.2,0.7-0.3,1.1-0.4c0.3-0.1,0.8-0.3,1.1-0.4c0.3-0.2,0.8-0.3,1.1-0.4c0.3-0.1,0.8-0.3,1.1-0.3
						c0.8-0.2,1.4-0.3,2.2-0.3c0.5-0.2,1-0.3,1.6-0.5c0.6-0.2,1.2-0.3,1.8-0.4s1.3-0.3,1.9-0.3c0.2,0,0.3-0.1,0.5-0.1s0.3,0,0.5-0.1
						c0.3,0,0.7-0.1,0.9-0.1c3.7-0.4,7.4-0.5,11.1-0.2c1,0.1,2.2,0.3,2.9,0.2c0.4,0,0.8,0.1,1.2,0.2c1.1,0.2,1.8,0.3,2.3,0.3
						c0.5,0.1,0.8,0.1,1.1,0.2c0.6,0.1,1.2,0.3,1.8,0.3c0.6,0.1,1.2,0.3,1.8,0.4c0.6,0.2,1.2,0.3,1.8,0.4l1.8,0.5l0.9,0.3
						c0.3,0.1,0.6,0.2,0.8,0.3c0.2,0.2,0.3,0.3,0.6,0.4c0.6,0.2,1.2,0.3,1.8,0.5c0.4,0.2,0.9,0.3,1.3,0.5c0.4,0.2,0.8,0.3,1.2,0.5
						c0.4,0.2,0.8,0.3,1.2,0.5c0.2,0.1,0.5,0.3,0.8,0.4c0.2,0.1,0.4,0.2,0.6,0.3c0.2,0.1,0.4,0.3,0.7,0.3c0.8,0.4,1.8,0.9,2.2,1.2
						c0.8,0.6,1.8,1.1,2.7,1.7c0.4,0.3,0.9,0.6,1.4,0.9c0.3,0.2,0.5,0.3,0.7,0.5c0.3,0.2,0.4,0.3,0.7,0.5c0.9,0.7,1.8,1.3,2.7,2.1
						c0.4,0.3,0.8,0.7,1.3,1.1C-103.5,351.7-103.2,352.2-102.8,352.5z"/>
				</g>
				<g id="XMLID_166_">
					<path id="XMLID_167_" class="st5" d="M-123.2,340.3c-0.3-0.2-0.4-0.3-0.6-0.4c0.7,0.1,2.5,0.7,2.4,1
						C-121.9,340.7-122.6,340.5-123.2,340.3z"/>
				</g>
				<g id="XMLID_164_">
					<path id="XMLID_165_" class="st5" d="M-127.7,337.3c-0.7-0.1-1.3-0.2-1.9-0.3c-0.3-0.1-0.4-0.1-0.7-0.2
						c-0.3-0.1-0.4-0.1-0.7-0.2c-0.4-0.1-0.8-0.2-1.3-0.3c-0.4-0.1-0.8-0.2-1.3-0.3c-0.4-0.1-0.8-0.2-1.3-0.2
						c-0.3-0.1-0.7-0.2-1.1-0.3c-0.5-0.1-1-0.2-1.5-0.3c-0.5-0.1-1-0.2-1.5-0.2c0,0,0,0,0-0.1c0.8,0.1,1.5,0.1,2.3,0.2
						c0.8,0.1,1.6,0.2,2.3,0.3c0.4,0,0.7,0.1,0.9,0.2c0.3,0.1,0.4,0.2,0.6,0.2c0.3,0.2,0.6,0.3,1,0.4c0.7,0,0.3-0.3,1.3-0.1
						c0.6,0.1,1.3,0.3,1.8,0.4c0.3,0.1,0.8,0.3,1.1,0.3l0,0C-127.7,337.2-127.7,337.2-127.7,337.3z"/>
				</g>
				<g id="XMLID_162_">
					<path id="XMLID_163_" class="st5" d="M-136,337.1c0.4,0,1.2,0.1,1.9,0.2c0.7,0.1,1.3,0.3,1.4,0.4c-0.3,0-0.6-0.1-1.1-0.2
						C-134.3,337.4-135,337.3-136,337.1z"/>
				</g>
				<g id="XMLID_160_">
					<path id="XMLID_161_" class="st5" d="M-193.4,358.6c-0.5,0.8-1.1,1.5-1.6,2.3c-0.1,0.1-0.2,0.2-0.3,0.3
						c-0.4,0.5-0.8,1.1-1.3,1.6c-0.4,0.5-0.8,1.1-1.3,1.7c-0.3,0.5-0.5,0.9-0.8,1.4c-0.5,0.7-1,1.7-1.5,2.6
						c-0.5,0.9-0.9,1.8-1.3,2.4c-0.5,1-1,2-1.5,3.1l-1,2.4c-0.1,0.2-0.1,0.3-0.2,0.3c0,0-0.1-0.1-0.3,0.3c0.2-0.7,0.3-1.3,0.5-1.9
						c0.2-0.4,0.3-0.9,0.5-1.3c0.2-0.4,0.4-0.8,0.6-1.1c0.4-0.8,0.8-1.6,1.2-2.4c0.3-0.8,0.7-1.4,1-2.1c0.2-0.6,1-1.8,1.4-2.7
						c0.3-0.3,0.5-0.6,1-1.3c0.3-0.7,0.7-1.2,0.9-1.6c0.3-0.4,0.5-0.7,0.8-1c0.3-0.3,0.7-0.8,0.7-0.4c0.1-0.1,0.2-0.2,0.2-0.3
						c0.3-0.5,0.5-0.9,0.8-1.4c0.5-0.6,1.1-1.4,1.4-1.7C-193.6,358.5-192.9,357.9-193.4,358.6z"/>
				</g>
				<g id="XMLID_158_">
					<path id="XMLID_159_" class="st5" d="M-193.9,365.8c-0.3,0.4-0.5,0.8-0.7,1.2c-0.3,0.3-0.4,0.7-0.7,1.1
						c-0.4,0.7-0.8,1.4-1.4,2.4c-0.3,0.7-0.7,1.3-1,1.9c-0.3,0.4-0.4,0.8-0.7,1.3l-0.6,1.3c-1.5,3.3-2.7,6.7-3.5,10.2
						c0.1-0.4,0.2-0.8,0.3-1.2c0.1-0.4,0.2-0.8,0.3-1.2c0.1-0.4,0.3-0.8,0.3-1.2c0.1-0.2,0.1-0.4,0.2-0.6s0.2-0.4,0.3-0.6
						c0.3-0.8,0.6-1.7,0.9-2.6c0.2-0.4,0.3-0.9,0.6-1.4c0.2-0.5,0.4-1,0.7-1.5c0.1-0.3,0.3-0.7,0.4-1.1c0.1-0.2,0.3-0.4,0.3-0.7
						c0.2-0.3,0.3-0.6,0.5-0.9c0.3-0.6,0.7-1.3,1-1.9c0.3-0.6,0.6-1.1,0.8-1.7c0.3-0.5,0.6-1.1,0.9-1.5
						C-194.6,366.8-194.2,366.3-193.9,365.8z"/>
				</g>
				<g id="XMLID_156_">
					<path id="XMLID_157_" class="st5" d="M-202.6,385.9c0,0.4-0.1,0.8-0.1,1.1c-0.1,0.3-0.1,0.7-0.2,1.1c0,0.4,0,0.8,0,1.1
						c-0.1,0.8-0.2,1.2-0.3,1.5c-0.1,0.3-0.2,0.6-0.3,1.3c-0.1,0.3-0.2,0.6-0.2,1c0,0.4,0,0.8-0.1,1.2c0,0.8-0.1,1.3-0.3,1
						c-0.1-0.5-0.1-1,0-1.5c0-0.5,0.1-0.9,0.2-1.5c0.3-1.1,0.4-2.4,0.8-4.2c0.1-0.3,0.2-0.8,0.2-1.1
						C-202.7,386.7-202.6,386.4-202.6,385.9z"/>
				</g>
				<g id="XMLID_154_">
					<path id="XMLID_155_" class="st5" d="M-204,400.8c0,0.3,0.1,0.6,0.1,0.9c0,0.2,0,0.3,0.1,0.6c0,0.2,0.1,0.4,0.1,0.6
						c0.1,0.8,0.2,1.8,0.3,2.8c0.2,0.9,0.3,1.9,0.3,2.9c0.2,0.9,0.3,1.8,0.3,2.7c0.2,0.3,0.3,0.8,0.4,1.4c0.1,0.6,0.2,1.2,0.3,1.8
						c-0.1,0-0.3,0-0.3,0c-0.3-1-0.5-2-0.8-3c-0.2-1-0.4-2-0.6-3c-0.1-0.8-0.2-1.7-0.3-2.4c-0.1-0.4-0.1-0.8-0.1-1.2
						c0-0.4-0.1-0.8-0.1-1.2c0-0.4,0-0.8-0.1-1.2c0-0.4,0-0.8,0-1.3c0-0.8,0-1.8,0.1-2.9c0,0.4,0,0.8,0,1.3
						C-204,399.9-204,400.4-204,400.8z"/>
				</g>
				<g id="XMLID_152_">
					<path id="XMLID_153_" class="st5" d="M-201.2,418.2c0.3,1,0.6,2,1,3c0.2,0.5,0.4,1,0.6,1.5c0.2,0.5,0.4,1,0.7,1.5
						c0.3,0.5,0.4,1,0.7,1.5c0.3,0.5,0.5,1,0.7,1.5c0.3,0.5,0.4,1,0.7,1.4c0.3,0.5,0.5,0.9,0.8,1.3c-0.2-0.1-0.7-0.8-1-1.3
						c-0.9-1.3-0.4-1.3-1.2-2.5c-0.2-0.3-0.4-0.7-0.6-1.2c-0.3-0.5-0.5-1.1-0.7-1.6c-0.4-1.1-0.8-2.3-1.2-2.7
						c-0.3-0.8-0.4-1.7-0.7-2.4c0.1-0.1,0.1-0.3,0.1-0.4C-201.4,418-201.3,418.2-201.2,418.2z"/>
				</g>
				<g id="XMLID_150_">
					<path id="XMLID_151_" class="st5" d="M-192.7,433.9c0.4,0.6,0.8,1.2,1.3,1.8c-0.3-0.2,0.2,0.4,0.5,0.8c0.3,0.4,0.7,1,1.2,1.6
						c0.5,0.6,1,1.3,1.6,1.8s1.2,1.3,1.8,1.8c0.2,0.2,0.3,0.3,0.4,0.4c0.2,0.2,0.3,0.3,0.4,0.4c0.3,0.3,0.5,0.5,0.8,0.7
						c0.4,0.4,0.6,0.8,0.8,1.1c0.3,0.3,0.5,0.7,1.1,1.2c0.4,0.3,0.8,0.7,1.2,1s0.8,0.7,1.3,1c0.8,0.8,1.7,1.4,2.6,2.1
						c2.7,1.6,5,3.2,6.8,4.2c0.3,0.2,0.5,0.3,0.7,0.3c0.3,0.1,0.7,0.3,1,0.4c0.3,0.2,0.7,0.3,1.1,0.5c0.8,0.3,1.4,0.7,2.1,0.9
						c0.4,0.2,0.9,0.3,1.3,0.6c0.4,0.2,0.8,0.3,1.3,0.5c0.6,0.2,1.3,0.4,2,0.7c0.8,0.3,1.6,0.5,2.4,0.8c0.8,0.3,1.6,0.4,2.4,0.7
						c0.8,0.2,1.5,0.3,2.1,0.4c-0.2,0.1,1,0.3,0.4,0.3c-0.1,0-0.1,0.1-0.2,0.1c-0.3-0.1-0.7-0.1-1.1-0.2c-0.3-0.1-0.7-0.2-1-0.3
						c-0.7-0.2-1.3-0.3-2-0.5c-0.7-0.2-1.3-0.4-1.9-0.6c-0.3-0.1-0.6-0.2-0.9-0.3c-0.3-0.1-0.6-0.2-0.9-0.3
						c-0.5-0.3-1.1-0.4-1.7-0.7c-0.7-0.3-1.3-0.6-2-0.8c-0.2-0.1-0.3-0.2-0.5-0.3c-0.3-0.1-0.8-0.3-1.4-0.6
						c-0.5-0.3-1.1-0.5-1.5-0.6c-0.2-0.1-0.4-0.2-0.6-0.3c-0.7-0.3-1.3-0.7-2-1c-0.4-0.2-0.9-0.5-1.3-0.7c-0.7-0.4-1.3-0.8-1.8-1.2
						c-0.8-0.6-1.2-0.7-1.6-1c-0.3-0.2-0.4-0.3-0.7-0.5c-0.3-0.2-0.4-0.3-0.7-0.6c-0.4-0.3-0.7-0.4-1.6-1.1c-0.5-0.4-1-0.8-1.5-1.3
						c-0.3-0.2-0.5-0.4-0.8-0.7c-0.3-0.3-0.5-0.4-0.8-0.7c-0.4-0.4-1.2-1.2-1.8-1.4c-0.3-0.3-0.7-0.7-1-1c-0.8-0.8-1.7-1.8-2.5-2.6
						c-0.3-0.4-0.8-0.9-1.1-1.3c-0.4-0.5-0.8-0.9-1-1.1c-0.5-0.4-1.2-1.6-1.8-2.1c-0.3-0.5-0.5-0.9-0.8-1.4
						c-0.6-0.8-0.9-1.1-1.9-2.8c0.3,0.3,0.5,0.4,0.8,0.8c-0.1-0.3-0.2-0.6-0.3-0.8c0.3,0.3,0.4,0.3,0.7,0.6c0.1,0.1,0.3,0.3,0.4,0.5
						C-193,433.2-192.8,433.5-192.7,433.9z"/>
				</g>
				<g id="XMLID_148_">
					<path id="XMLID_149_" class="st5" d="M-190.6,435.5c0.5,1.1,4.5,5.4,2.1,3.3c-0.5-0.6-0.9-1.1-1.3-1.7
						c-0.2-0.2-0.3-0.3-0.4-0.6c-0.3-0.5-0.8-1.1-1.2-1.7c0-0.2,0.2,0,0.3,0.3C-190.8,435.2-190.6,435.5-190.6,435.5z"/>
				</g>
				<g id="XMLID_146_">
					<path id="XMLID_147_" class="st5" d="M-191.1,442.7c0.3-0.1,0.7,0.3,1.8,1.4c0.6,0.5,1.3,1.1,1.7,1.5c0.5,0.4,0.8,0.8,0.8,1
						c0.2,0.2,0.3,0.3,0.4,0.5c-0.2,0-0.3,0-0.4,0c-0.4-0.3-0.9-0.8-1.3-1.1c-0.5-0.6-1-1.1-1.4-1.7
						C-190,443.9-190.6,443.3-191.1,442.7z"/>
				</g>
				<g id="XMLID_144_">
					<path id="XMLID_145_" class="st5" d="M-164.8,460.5c0.1-0.3,0.8-0.1,2.8,0.5c0.3,0,0.6,0.1,0.9,0.1c0.8,0.3,1.7,0.8,2.6,1.1
						c-0.1,0.1-0.3,0.2-0.4,0.3c-0.5-0.2-1-0.3-1.5-0.4c-0.4-0.2-0.8-0.3-1.3-0.5s-1-0.3-1.5-0.5
						C-163.8,460.8-164.3,460.8-164.8,460.5z"/>
				</g>
				<g id="XMLID_142_">
					<path id="XMLID_143_" class="st5" d="M-158.6,462.3c0.3,0.1,0.8,0.2,1.2,0.3c0.6,0.2,1.2,0.3,1.8,0.5c0.7,0.1,1.3,0.2,2.4,0.3
						c0.1-0.1,0.2-0.1,0.2-0.1c0.7,0.1,1.5,0.3,2.3,0.3c0.3,0.1,0.8,0.1,1.1,0.2c0.3,0,0.8,0.1,1.1,0.1c0.7,0,1.3,0.1,2.3,0.2
						c0.8,0,1.8,0,3,0c0.8,0,1.5,0,2.4,0c0.3,0,0.7,0,1.1,0c-0.1,0.1-0.3,0.3-0.3,0.3c-0.1,0.1-0.1,0.1-0.2,0.2
						c-0.2,0.1-0.4,0.2-0.6,0.3c-0.4,0-0.8,0-1.1,0c-0.5,0-1,0-1.5-0.1c-1.1,0-2.1-0.1-3.2-0.1c-0.8-0.1-1.6-0.1-2.4-0.2
						c-0.7-0.1-1.3-0.2-2.1-0.3c-0.7-0.1-1.4-0.2-2.1-0.3c-1.1-0.2-2.2-0.3-3.2-0.5c-1-0.3-1.8-0.4-2.4-0.8
						C-158.9,462.4-158.7,462.4-158.6,462.3z"/>
				</g>
				<g id="XMLID_140_">
					<path id="XMLID_141_" class="st5" d="M-157.2,462.4c0.3,0.1,0.7,0.2,1,0.3s0.7,0.2,1,0.3c0.7,0.2,1.3,0.3,2,0.4
						c-0.1,0-0.1,0.1-0.2,0.1c-1.1-0.2-1.8-0.3-2.4-0.3c-0.6-0.2-1.2-0.3-1.8-0.5C-157.4,462.4-157.3,462.4-157.2,462.4z"/>
				</g>
				<g id="XMLID_138_">
					<path id="XMLID_139_" class="st5" d="M-153.3,459.9c0.9,0,1.4,0,1.8,0.1s0.8,0.2,1.1,0.3c0.3-0.1,0.7,0,1.1,0
						c0.4,0.1,0.9,0.2,1.4,0.3c0.2,0,0.3,0,0.3,0c-0.2,0-0.3,0.1-0.5,0.1c-0.6-0.1-1.3-0.1-1.8-0.2c-0.2-0.1-0.3-0.1-0.7-0.2
						c-0.4-0.1-0.9-0.1-1.4-0.2c-0.3,0-0.5-0.1-0.8-0.1L-153.3,459.9z"/>
				</g>
				<g id="XMLID_136_">
					<path id="XMLID_137_" class="st5" d="M-140.5,464.5c0.3,0,0.5,0,0.8,0c0.3,0,0.5,0,0.8-0.1c0.5,0,1-0.1,1.5-0.1
						c0.4,0,0.8,0,1.1,0c0.3,0,0.8,0,1.1,0c-0.3,0.1-0.7,0.2-1,0.2c-0.3,0.1-0.7,0.1-1,0.2c-0.2,0.1-0.4,0.2-0.7,0.3
						c0.2,0,0.3,0.1,0.3,0.1c-0.5,0.1-0.9,0.2-1.3,0.2c-0.4,0-0.8,0-1.3-0.1c0,0,0,0,0-0.1c0.1-0.1,0.2-0.2,0.3-0.3
						c-0.3,0-0.8-0.1-1.1-0.1C-140.8,464.6-140.6,464.5-140.5,464.5z"/>
				</g>
				<g id="XMLID_134_">
					<path id="XMLID_135_" class="st5" d="M-128.2,463.4c0.2-0.1,0.3-0.1,0.4-0.2c0.3-0.1,0.8-0.2,1.2-0.3c0.4-0.1,0.8-0.2,1.2-0.3
						c0.8-0.2,1.5-0.4,2.3-0.6c0.3,0.1,0.8,0.1,1.1,0.2c-0.5,0.2-1,0.4-1.4,0.5c-0.4,0.2-0.8,0.3-1.2,0.3c-0.7,0.2-1.3,0.3-1.7,0.4
						c0.1-0.2-1.2,0.1-2.2,0.3C-128.3,463.6-128.2,463.5-128.2,463.4z"/>
				</g>
				<g id="XMLID_132_">
					<path id="XMLID_133_" class="st5" d="M-122.9,461.6c1.3-0.5,2.2-1,3.8-1.5c0.3-0.1,0.7-0.2,1-0.3c0.2-0.1,0.3-0.1,0.5-0.2
						c0.2-0.1,0.3-0.1,0.5-0.2c-0.4,0.3-0.8,0.5-1.3,0.8c0.3,0,0.4,0,0.6,0.1c-0.8,0.7-2,0.8-2.3,0.9c0.1-0.2,0.2-0.3,0.3-0.5
						c-0.3,0.1-0.5,0.2-0.8,0.3s-0.5,0.2-0.8,0.3c-0.5,0.2-0.9,0.3-1.4,0.5C-122.8,461.8-122.9,461.7-122.9,461.6z"/>
				</g>
				<g id="XMLID_130_">
					<path id="XMLID_131_" class="st5" d="M-109.9,455.9c1.1-0.6,1.4-1.2,2.7-1.8c0.3-0.2,0.7-0.3,0.9-0.5c0.3-0.2,0.6-0.3,0.9-0.5
						c-0.9,0.8-1.5,1.2-2,1.5c-0.5,0.3-0.8,0.6-1.3,0.8c0.1-0.1-0.1,0-0.4,0.1C-109.3,455.6-109.8,455.8-109.9,455.9z"/>
				</g>
				<g id="XMLID_128_">
					<path id="XMLID_129_" class="st5" d="M-104.4,452.4c0.6-0.6,1.2-1.3,2.3-2.1c0.8-0.6,1.6-1.2,2.4-1.8c-0.3,0.3-0.6,0.7-0.9,1
						c-0.6,0.5-1.3,0.9-1.8,1.4S-103.8,452-104.4,452.4z"/>
				</g>
				<g id="XMLID_126_">
					<path id="XMLID_127_" class="st5" d="M-81.9,421.9c0.1-0.1,0.2-0.1,0.3-0.3c-0.3,1-0.5,1.8-0.8,2.5c-0.3,0.7-0.6,1.3-0.8,1.8
						c-0.3,0.2-0.4,0.4-0.7,0.5c0.3-0.8,0.7-1.4,1-2.2C-82.6,423.5-82.2,422.7-81.9,421.9z"/>
				</g>
				<g id="XMLID_124_">
					<path id="XMLID_125_" class="st5" d="M-80.8,419.2c0.3-0.5,0.4-1,0.6-1.5s0.4-1,0.6-1.6c0.1-0.3,0.2-0.8,0.2-1.3
						c0.4-1.8,0.3-2.3,0.7-3.6c0.1-0.6,0.3-1.1,0.3-1.7c0.1-0.6,0.2-1.2,0.3-1.8c0.1-0.6,0.2-1.1,0.3-1.7c0.1-0.5,0.1-1.1,0.1-1.5
						c0-0.4,0-0.8,0.1-1.3c0-0.3,0.1-0.5,0.1-0.7c0-0.3,0-0.5,0-0.7c0,0,0,0,0.1,0.1c0,0.4,0,0.8,0,1.1c0,0.3,0,0.6,0,0.8
						c0,0.5,0,0.9,0,1.3c0,0.8,0,1.4-0.2,2.5c0,0.3-0.1,0.8-0.2,1.4c-0.1,0.6-0.3,1.3-0.4,2.1c-0.1,0.5-0.1,1.2-0.2,1.7
						c-0.2,0.5-0.3,1-0.3,1.5c-0.1,0.3-0.1,0.5-0.2,0.8c-0.1,0.3-0.1,0.6-0.2,0.9c-0.3,0.9-0.4,1.8-0.7,2.8
						c-0.5,0.6-0.3-0.3-0.9,0.6C-80.9,419.4-80.8,419.3-80.8,419.2z"/>
				</g>
				<g id="XMLID_122_">
					<path id="XMLID_123_" class="st5" d="M-80.1,406.8c0.1-0.4,0.3-0.9,0.3-1.3c0.1-0.4,0.2-0.9,0.3-1.3c0.1,0.1,0.2,0.2,0.3,0.3
						c0.1-0.5,0.1-1,0.2-1.5c0-0.5,0-1.1,0-1.6c0.1-1.4,0.2-1.4,0.3-1.3c0.1,0,0.3-0.1,0.3,0c0.2-0.2,0.3-0.4,0.6-0.5
						c0,0.7,0,1.3,0.1,2.1c-0.1,0.3-0.1,0.7-0.2,1c-0.1,0.3-0.2,0.7-0.3,0.9c0,0.5-0.1,1.1-0.1,1.6l-0.1,0.8c0,0.3-0.1,0.5-0.1,0.8
						c-0.1,0-0.2,0.1-0.2,0.2c-0.1-0.6-0.1-1.1-0.2-1.7c-0.1,0.2-0.2,0.3-0.3,0.6c0-0.1-0.1-0.1-0.1-0.2c-0.2,0.8-0.3,1.6-0.5,2.4
						c-0.1,0-0.3,0-0.3-0.1C-80.1,407.6-80.1,407.3-80.1,406.8z"/>
				</g>
				<g id="XMLID_120_">
					<path id="XMLID_121_" class="st5" d="M-79.5,404.1c0-0.5,0-1.1,0.1-1.6c0.1-0.3,0.3-0.8,0.3-1.2c0,0.5,0,1.1,0,1.6
						c-0.1,0.5-0.1,1-0.2,1.5C-79.4,404.2-79.4,404.2-79.5,404.1z"/>
				</g>
				<g id="XMLID_118_">
					<path id="XMLID_119_" class="st5" d="M-95.2,362.4c-0.4-0.6-0.7-0.7-1.5-2C-96.2,361-95.7,361.7-95.2,362.4z"/>
				</g>
				<g id="XMLID_116_">
					<path id="XMLID_117_" class="st5" d="M-98.1,358.7c-0.4-0.4-0.8-0.8-1.3-1.3c-0.4-0.4-0.8-0.8-1.3-1.3
						c-0.7-0.7-1.3-1.3-2.1-1.9c-0.3-0.3-0.7-0.7-1-1c-0.3-0.3-0.8-0.8-1.2-1.1c-0.4-0.3-0.8-0.8-1.3-1.1c-0.3-0.2-0.4-0.3-0.7-0.5
						c-0.3-0.2-0.5-0.3-0.8-0.5c-0.5-0.4-0.4-0.5-0.7-0.8c-0.3-0.2-0.5-0.3-0.8-0.5c-0.3-0.2-0.5-0.3-0.8-0.5
						c-1.5-0.8-1.5-1-2.4-1.7c-0.3-0.2-0.8-0.3-1.1-0.4c-0.3-0.1-0.6-0.3-0.9-0.5c-0.4-0.2-0.8-0.4-1.2-0.6
						c-0.8-0.4-1.3-0.8-0.9-0.8c-0.5-0.3-1-0.6-1.5-0.9c-0.6-0.3-0.9-0.3-1.4-0.5c-0.6-0.3-1.3-0.5-1.8-0.8l-0.9-0.3l-0.9-0.3
						c-0.7-0.3-1.3-0.4-1.9-0.7c-0.7-0.2-1.3-0.4-1.9-0.6c-0.3,0-0.8-0.2-1.2-0.3c-0.4-0.1-0.9-0.3-1.3-0.3
						c-0.4-0.2-0.9-0.3-1.3-0.5c-0.6-0.1-1.2-0.3-1.8-0.3c-1.1,0-2.8-0.3-5.1-0.7c-0.4,0-0.9-0.1-1.4-0.1c-0.5,0-1-0.1-1.5-0.1
						c-1-0.1-1.8-0.2-2.9-0.2c-0.8,0-1.3,0.1-1.9,0.1c-0.6,0.1-1.2,0.1-1.8,0.1c-0.8,0-1.5,0.1-2.2,0.1c-0.4,0-1,0.1-1.4,0.2
						c-0.9,0.2-1.7,0.3-2,0.3c-0.2,0-0.3,0-0.2-0.1c0.1-0.1,0.3-0.2,0.7-0.3c-0.3-0.1-0.3-0.2-1.4,0.1c-0.7,0.1-1.4,0.2-2.2,0.3
						c-0.7,0.2-1.4,0.3-2.1,0.5c-0.3,0.1-0.6,0.2-0.9,0.3c-0.3,0.1-0.7,0.2-1.1,0.3c-0.8,0.2-1.7,0.3-2.7,0.6c0.3-0.1,0.7-0.3,1-0.3
						s0.7-0.3,1-0.3c0.7-0.2,1.3-0.4,2-0.6c0.3,0,0.4,0,0.8,0c0.7-0.2,1.4-0.3,2.1-0.4c1.5-0.3,3-0.6,4.5-0.8c1.3-0.3,1,0.1,1.8-0.2
						c0.6-0.1,1.4-0.2,3.3-0.1c0.5,0,1,0,1.4,0c1.5-0.1,3,0,4.5,0.1c1,0.1,2,0.2,2.9,0.3c0.2,0,0.4,0,0.7,0c0.3,0,0.5,0.1,0.8,0.1
						c0.6,0.1,1.3,0.2,2.3,0.4c0.7,0.1,1.3,0.1,1.8,0.2c0.5,0.2,0.9,0.3,1.4,0.5c0.7,0.1,1.4,0.3,2.2,0.3c0.3,0.1,0.5,0.1,0.7,0.2
						c0.3,0.1,0.4,0.2,0.7,0.2c0.4,0.2,0.7,0.3,0.8,0.3c0.7,0.3,1.4,0.3,2.2,0.6c0.7,0.3,1.3,0.4,1.9,0.7c0.6,0.3,1.3,0.5,1.8,0.8
						c0.2,0.1,0.4,0.3,0.7,0.4c0.2,0.1,0.3,0.2,0.5,0.3s0.3,0.2,0.6,0.3c0.4,0.2,0.8,0.4,1.4,0.7c0.3,0.2,0.6,0.3,0.8,0.4
						c0.3,0.2,0.6,0.3,0.9,0.5c0.3,0.2,0.5,0.3,0.8,0.3c0.3,0.2,0.8,0.3,1.4,0.8c1.8,0.9,3.4,2,5.1,3.2c0.8,0.6,1.7,1.2,2.5,1.8
						c0.4,0.3,0.9,0.7,1.3,1c0.5,0.3,0.9,0.7,1.4,1c0.3,0.3,0.5,0.4,0.8,0.7l0.4,0.3l0.3,0.3c0.5,0.4,1,0.9,1.4,1.3
						c0.1,0.1,0.3,0.3,0.3,0.3c0.1,0.1,0.2,0.3,0.3,0.3c0.2,0.3,0.3,0.4,0.6,0.7c0.6,0.7,1.2,1.3,1.7,1.9c0.1,0.3,0.3,0.9,0,0.8
						C-97.3,359.1-97.8,358.9-98.1,358.7z"/>
				</g>
				<g id="XMLID_114_">
					<path id="XMLID_115_" class="st5" d="M-119,340.6c-2.6-0.9-4.3-1.4-4.6-1.8c0.4,0,1.1,0.3,1.9,0.5
						C-120.8,339.7-119.9,340.1-119,340.6z"/>
				</g>
				<g id="XMLID_112_">
					<path id="XMLID_113_" class="st5" d="M-157.9,337c-0.3,0.1-0.7,0.2-1.2,0.3c-0.5,0.2-1.2,0.3-2.2,0.5c0.4-0.2,1.1-0.4,1.8-0.6
						C-158.8,337.1-158.2,337-157.9,337z"/>
				</g>
				<g id="XMLID_110_">
					<path id="XMLID_111_" class="st5" d="M-172.2,344.9c-0.1-0.3,1-0.8,2.3-1.3C-169.2,343.4-171.5,344.4-172.2,344.9z"/>
				</g>
				<g id="XMLID_108_">
					<path id="XMLID_109_" class="st5" d="M-176.1,347c-0.3,0.3-0.6,0.4-1,0.7c-0.2,0.1-0.3,0.3-0.6,0.3c-0.2,0.1-0.3,0.3-0.6,0.4
						c-0.8,0.8-1.8,1.4-2.7,2.2c-0.4,0.3-0.9,0.8-1.4,1.1c-0.4,0.3-0.9,0.8-1.4,1.1c-0.9,0.8-1.8,1.6-2.8,2.4
						c-0.5,0.4-0.8,0.8-1.3,1.3c-0.4,0.4-0.8,0.9-1.3,1.3c-0.7,0.8-1.3,1.5-1.9,2.3c-0.6,0.8-1.3,1.5-2,2.4c-0.3,0.4-0.7,0.9-1,1.4
						c-0.2,0.3-0.3,0.5-0.5,0.8c-0.2,0.3-0.3,0.6-0.5,0.9c-0.2,0.2-0.7,0.8-1,1.3s-0.5,0.9-0.2,0.6l-1,1.9c-0.3,0.7-0.7,1.3-0.9,2
						c-0.2,0.3-0.3,0.4-0.4,0.7c-0.3,0.5-0.7,1.1-1,1.8c-0.2,0.4-0.3,0.8-0.5,1.3c-0.2,0.5-0.3,1-0.5,1.5c-0.2,0.6-0.4,1.2-0.6,1.8
						c-0.1,0.3-0.2,0.4-0.3,0.7c-0.1,0.3-0.3,0.7-0.4,1c-0.1,0.2-0.2,0.3-0.2,0.5c-0.1,0.2-0.1,0.3-0.2,0.5c0,0.1-0.1,0.3-0.1,0.3
						c-0.1,0.4-0.3,0.8-0.3,1.3c-0.1,0.4-0.3,0.8-0.3,1.3c-0.1-0.1-0.2-0.1-0.3-0.2c0,0.1-0.1,0.2-0.2,0.3c-0.1,0-0.2-0.1-0.2-0.1
						c-0.2,0.7-0.4,1.3-0.7,2.1c0,0.3,0,0.8-0.1,1.1c-0.2,0.8-0.3,1.4-0.3,2.2c0,0.1,0,0.3-0.1,0.4s-0.3,0.4-0.3,0.6
						c0.1-0.3,0.1-0.8,0.2-1.1l0.2-1.1c0.2-0.8,0.3-1.4,0.4-2.2c0.3-0.9,0.5-1.9,0.8-2.9c0.1-0.6,0.3-1.3,0.5-2
						c0.1-0.3,0.3-0.8,0.3-1.1c0.2-0.3,0.3-0.8,0.4-1.1c0.1-0.3,0.2-0.7,0.3-1c0.1-0.3,0.2-0.7,0.3-1c0.3-0.7,0.4-1.3,0.7-1.9
						c1.3-2.4,2.5-5.6,4.4-8.1c0.1-0.3,0.3-0.5,0.6-1.5c-0.1,0.1-0.2,0.2-0.2,0.3c0-0.1,0.1-0.3,0.2-0.3c0.2-0.3,0.4-0.7,0.6-1
						l0.4-0.6l0.4-0.5l0.8-1.1c0.6-0.8,1.2-1.3,1.8-2.1c0.3-0.3,0.5-0.7,0.8-1c0.3-0.3,0.6-0.7,0.8-0.9c0.9-1.3,2-2.3,2.9-3.4
						c0.4-0.4,0.1-0.4,1.8-1.8c0.1-0.1,0.2-0.2,0.3-0.2c0,0.1,0.1,0.1,0.1,0.2c0.3-0.3,1.9-1.6,1.8-1.3c0.3-0.3,0.6-0.6,0.9-0.8
						c0.3-0.3,0.7-0.5,1-0.8c0.7-0.5,1.3-1,1.8-1.4c0.4-0.2,1.8-1.3,1.8-1.1c0.6-0.3,1-0.7,1.6-1c0.1-0.2,0.6-0.5,1-0.8
						c0.4-0.3,0.8-0.3,0.6-0.2C-174.7,346-174.8,346.2-176.1,347z"/>
				</g>
				<g id="XMLID_106_">
					<path id="XMLID_107_" class="st5" d="M-184.9,352c-0.2,0.2-0.4,0.3-0.6,0.5c-0.2,0.2-0.3,0.3-0.5,0.5c-0.3,0.3-0.7,0.7-1.1,1
						c0,0,0,0,0-0.1c0.3-0.3,0.8-0.7,1.1-1c0.2-0.2,0.3-0.3,0.5-0.5C-185.3,352.3-185.1,352.2-184.9,352z"/>
				</g>
				<g id="XMLID_104_">
					<path id="XMLID_105_" class="st5" d="M-189.8,355.4c-0.4,0.4-0.6,0.8-1.5,1.8c-0.5,0.5-1,1.1-1.5,1.7c-0.6,0.8-1.3,1.7-1.8,2.5
						c0.1,0.1,0.1,0.1,0.2,0.2c-0.4,0.6-0.9,1.2-1.3,1.8c-0.4,0.6-0.8,1.3-1.3,1.8c-0.3,0.3-0.5,0.8-0.7,1.2
						c-0.3,0.4-0.4,0.8-0.7,1.2c-0.3,0.4-0.5,0.9-0.8,1.3c-0.2,0.2-0.3,0.3-0.6,0.5c-0.3,0.6-0.6,1.2-1,2.1c0.1,0.1,0.1,0.1,0.2,0.2
						c-0.3,0.8-0.5,1.8-0.8,2.6c-0.2,0.4-0.3,0.9-0.5,1.4c-0.2,0.3-0.3,0.5-0.3,0.7c-0.3,0.3-0.5,0.6-0.7,0.8
						c-0.3,0.9-0.5,1.6-0.8,2.6c-0.1,0.2-0.2,0.4-0.3,0.7c-0.1,0.3-0.2,0.5-0.3,0.7c0-0.3-0.1-0.6-0.1-0.8c0.2-0.3,0.3-0.8,0.4-1.1
						l0.2-2.1c0-0.1,0.1-0.3,0.2-0.3l1-2.4c0.5-1.1,1-2.1,1.5-3.1c0.7-1.3,1.3-2.5,2-3.7c0.4-0.5,0.6-0.9,0.8-1.3
						c0.2-0.4,0.4-0.8,0.8-1.4c0.4-0.5,0.8-1.1,1.3-1.7c0.4-0.5,0.8-1.1,1.3-1.6c0.1-0.2,0.2-0.3,0.3-0.3c0.5-0.8,1.1-1.5,1.6-2.3
						c0.4-0.6,1-1.1,1.6-1.7c0.2-0.3,0.5-0.6,0.8-1c0.3-0.3,0.7-0.7,1-1L-189.8,355.4z"/>
				</g>
				<g id="XMLID_102_">
					<path id="XMLID_103_" class="st5" d="M-202.9,379.6c-0.1,0.3-0.3,0.7-0.3,1s-0.2,0.7-0.3,1c-0.2,0.7-0.4,1.3-0.6,2
						c-0.3,1-0.4,1.9-0.7,2.9c-0.1,0-0.2-0.1-0.2-0.1c0.3-1,0.4-1.9,0.7-2.9c0.2-0.7,0.4-1.3,0.6-2c0.1-0.3,0.2-0.7,0.3-1
						C-203.2,380.2-203.1,379.9-202.9,379.6C-203.1,379.6-203,379.6-202.9,379.6z"/>
				</g>
				<g id="XMLID_100_">
					<path id="XMLID_101_" class="st5" d="M-207.5,398.1c-0.1,1,0,2,0,3c0,0.5,0,1,0.1,1.5c0,0.5,0.1,1,0.1,1.5
						c-0.2,0.1-0.1,1.8-0.3,1.4h-0.1c-0.3-1.1-0.3-1.9-0.3-2.9c0-0.9,0.1-1.8,0-2.9c0-0.8,0.1-1.5,0.2-2.3
						C-207.7,397.8-207.6,397.9-207.5,398.1z"/>
				</g>
				<g id="XMLID_98_">
					<path id="XMLID_99_" class="st5" d="M-188.1,446.1c0.4,0.3,0.9,0.8,1.3,1.1c0.6,0.6,1.2,1.3,1.8,1.8c0,0.1,0.1,0.2,0.3,0.3
						c-0.6-0.3-1.3-0.9-1.8-1.4c-0.3-0.3-0.6-0.6-0.9-0.8c-0.3-0.3-0.6-0.6-0.8-0.8c-0.3-0.3-0.7-0.6-1-0.8
						c-0.3-0.3-0.6-0.6-0.9-0.8c-0.3-0.4-0.8-0.8-1.1-1.3c-0.3-0.4-0.7-0.9-1-1.3c0.1-0.1,0.5,0.2,1.2,0.9
						C-190,443.8-189.1,445-188.1,446.1z"/>
				</g>
				<g id="XMLID_96_">
					<path id="XMLID_97_" class="st5" d="M-170.2,457c0.4,0.3,0.8,0.4,1.3,0.7c0.4,0.3,0.8,0.4,1.3,0.7c-0.1,0-0.2,0.1-0.3,0.1
						c-1-0.4-2.1-1-3-1.4C-170.6,456.9-170.5,456.9-170.2,457z"/>
				</g>
				<g id="XMLID_94_">
					<path id="XMLID_95_" class="st5" d="M-172.2,457.6c2.5,1,4.1,1.8,5.5,2.4c0.7,0.3,1.3,0.5,1.9,0.7c0.5,0.2,1,0.3,1.4,0.5
						c0.5,0.2,0.9,0.3,1.5,0.5c0.5,0.2,0.9,0.3,1.3,0.5c-0.1,0.1-0.2,0.1-0.3,0.2c-0.3-0.1-0.5-0.1-0.8-0.2
						c-0.9-0.3-1.8-0.6-2.7-0.9c-0.4-0.2-0.9-0.3-1.3-0.5s-0.8-0.3-1.3-0.6c-0.6-0.3-1.2-0.4-1.8-0.7c-0.5-0.3-1-0.4-1.5-0.7
						c-0.4-0.3-0.8-0.4-1.2-0.6C-171.7,457.9-172,457.7-172.2,457.6z"/>
				</g>
				<g id="XMLID_92_">
					<path id="XMLID_93_" class="st5" d="M-101.3,445.6c0.5-0.4,0.9-0.9,1.3-1.3c0.3-0.3,0.5-0.6,0.8-0.8c0.3-0.3,0.5-0.5,0.8-0.7
						c0.7-0.8,1-0.9,1.6-1.4c0.7-0.8,1.3-1.7,2-2.5c0.2-0.1,0.4-0.3,0.7-0.5c0.4-0.5,0.8-1,1.2-1.6c0.5-0.7,0.8-1.3,1.3-1.9
						s1-1.3,1.4-2c0.2-0.3,0.4-0.7,0.7-1.1c0.3-0.4,0.4-0.8,0.7-1.2c0.4-0.8,0.9-1.4,1.3-1.9c0.2-0.4,0.3-0.7,0.5-1.1
						c-0.1-0.2-0.1-0.3-0.2-0.4c0.2-0.3,0.3-0.8,0.5-1.1c0.4-0.8,0.8-1.4,1.2-2.1c0.3-0.5,0.3-1,0.6-1.4c0.3-0.7,0.6-1.3,0.8-2.1
						c0.3-0.7,0.5-1.3,0.8-2c0-0.3,0-0.3,0-0.6c0.3-1,0.7-2.2,0.9-3.2c-0.1-0.1-0.2-0.3-0.3-0.4c0.1-0.3,0.1-0.4,0.2-0.8
						c0.1-0.3,0-0.4,0-0.7c0-0.1,0-0.3,0.1-0.5c0.1-0.3,0.2-0.6,0.3-1.1c0.1-0.6,0.2-1.1,0.3-1.7c0.1-0.3,0.1-0.6,0.2-0.8
						c0.1-0.3,0.1-0.6,0.1-0.8c0-0.1,0-0.3,0-0.3c0-0.2,0.1-0.3,0.1-0.3c0.1-0.4,0.1-0.9,0.2-1.3c0.1-0.4,0.1-0.9,0.1-1.3
						c0.1-0.2,0.2-0.3,0.3-0.4c0.1,0.3,0.1,0.7,0.2,1c0,0.3,0,0.4-0.1,0.8c0.1,0.2,0.1,0.4,0.1,0.6c0.3-0.1,0.4-0.1,0.6-0.1
						c0,0.1,0,0.3,0,0.5c0,0.4,0,0.8-0.1,1.2c-0.1,0.3-0.1,0.4-0.2,0.7c-0.3,0.7-0.6,1.3-0.9,1.8c-0.1,0.6-0.2,1-0.3,1.6l-0.3,0.6
						c-0.2,0.8-0.3,1.5-0.5,2.3c-0.2,0.6-0.3,1.2-0.5,1.8l-0.3,0.9c-0.1,0.3-0.2,0.6-0.3,0.9c-0.1,0.4-0.3,0.9-0.3,1.3
						c-0.1,0.5-0.3,0.9-0.4,1.4c0.1-0.2,0.2-0.3,0.3-0.5c0.1-0.2,0.2-0.3,0.3-0.5c0.2-0.3,0.3-0.7,0.5-1c-0.2,0.7-0.2,1.2-0.6,1.9
						c-0.3,0.5-0.5,1-0.8,1.4c-0.3,0.5-0.3,1-0.6,1.4c-0.2,0.5-0.4,1-0.7,1.5c-0.1,0.3-0.3,0.6-0.3,0.8c-0.2,0.3-0.3,0.6-0.5,0.8
						c-0.2,0.3-0.4,0.8-0.6,1.2c-0.3,0.4-0.4,0.8-0.7,1.2c-0.3,0.8-0.9,1.4-1.3,2.3c-0.3,0.4-0.5,0.9-0.8,1.4c-0.3,0.5-0.7,1-1,1.5
						c-0.8,1-1.4,2.1-2,2.9c-0.4,0.6-0.8,1.2-1.3,1.7c-0.4,0.5-0.9,1.1-1.4,1.6c-0.2,0.3-0.3,0.4-0.5,0.7c-0.2,0.3-0.3,0.4-0.5,0.7
						c-0.3,0.3-0.6,0.5-0.8,0.7c-0.4,0.5-0.8,1-1.3,1.4c-0.7,0.5-1.3,1.1-1.9,1.6c-0.2,0.1-0.3,0.1-0.6,0.2c0.3-0.3,0.4-0.4,0.6-0.6
						c0.2-0.2,0.3-0.3,0.3-0.4c0.3-0.3,0.4-0.4,0.8-0.8c0.3-0.5-0.3,0-1.1,0.7c-0.8,0.8-1.9,1.6-2.5,1.9
						C-102.5,446.8-102,446.5-101.3,445.6z"/>
				</g>
				<g id="XMLID_90_">
					<path id="XMLID_91_" class="st5" d="M-99.9,444.4c0.3-0.3,0.5-0.6,0.8-0.8c0.3-0.3,0.5-0.5,0.8-0.7c-0.3,0.1-0.5,0.3-0.8,0.7
						C-99.3,443.8-99.7,444.1-99.9,444.4z"/>
				</g>
				<g id="XMLID_88_">
					<path id="XMLID_89_" class="st5" d="M-95.2,444.1c0.2-0.6,0.3-1.2,0.6-1.8c0.5-0.5,0.9-1.1,1.4-1.6c0.4-0.5,0.8-1.1,1.3-1.7
						c0.3-0.4,0.6-0.8,0.8-1.2c0.3-0.4,0.5-0.8,0.8-1.3c0.9-1.3,1.3-2.2,1.7-2.8c0.3-0.3,0.5-0.8,0.8-1.1c0.3-0.3,0.5-0.7,0.7-1
						c-0.2,0.5-0.3,0.8-0.4,1.2c-0.2,0.3-0.3,0.8-0.7,1.4c0.1-0.1,0.2-0.2,0.3-0.2c-0.3,0.6-0.5,1.1-0.8,1.7
						c-0.3,0.5-0.6,1.1-0.8,1.6c-0.4,0.5-0.8,1.1-1.2,1.6c-0.1-0.1-0.5,0.4-1.1,1c-0.3,0.3-0.5,0.7-0.8,1c-0.3,0.3-0.5,0.6-0.7,0.8
						c-0.4,0.6-0.8,1.3-1.3,1.8C-94.9,443.8-95.1,444-95.2,444.1z"/>
				</g>
				<g id="XMLID_86_">
					<path id="XMLID_87_" class="st5" d="M-94.8,438.9c0.4-0.6,0.9-1.3,1.3-1.8c0.1-0.2,0.2-0.3,0.3-0.3c0.2-0.3,0.3-0.7,0.4-1
						c0.4-0.6,0.8-1.3,1.3-1.9c0.2-0.2,0.3-0.4,0.4-0.6c0.3-0.3,0.5-0.7,0.8-1.1c0.3-0.3,0.5-0.7,0.7-1.1c0.5-0.8,1-1.6,1.5-2.5
						c0.5-1.1-0.1-0.8,0.9-2.4c0.3-0.5,0.5-1.1,0.8-1.6c0.2-0.4,0.4-0.9,0.6-1.3c0.2-0.3,0.3-0.4,0.3-0.6c0.2-0.5,0.3-1.1,0.4-1.6
						c0.1-0.3,0.2-0.4,0.3-0.7c0.1-0.3,0.2-0.4,0.3-0.7c0.2-0.4,0.3-0.8,0.5-1.3c0.1-0.3,0.2-0.6,0.3-0.8c0.1-0.3,0.2-0.6,0.3-0.8
						c0.2-0.6,0.3-1.1,0.4-1.7c0.1-0.2,0.1-0.3,0.2-0.4c0.1-0.2,0.1-0.3,0.2-0.5c0.1,0.1,0.2,0.3,0.3,0.4c-0.3,1.1-0.6,2.2-0.9,3.2
						c0,0.3,0,0.3,0,0.6c-0.3,0.7-0.5,1.3-0.8,2c-0.3,0.7-0.6,1.3-0.8,2.1c-0.2,0.4-0.3,0.9-0.6,1.4c-0.4,0.7-0.8,1.4-1.2,2.1
						c-0.2,0.3-0.3,0.8-0.5,1.1c0,0.2,0.1,0.3,0.2,0.4c-0.2,0.4-0.3,0.7-0.5,1.1c-0.3,0.4-0.8,1.2-1.3,1.9c-0.3,0.4-0.4,0.8-0.7,1.2
						c-0.3,0.3-0.4,0.8-0.7,1.1c-0.5,0.7-0.9,1.3-1.4,2c-0.4,0.7-0.8,1.3-1.3,1.9c-0.4,0.5-0.8,1-1.2,1.6
						C-94.3,438.6-94.6,438.8-94.8,438.9z"/>
				</g>
				<g id="XMLID_84_">
					<path id="XMLID_85_" class="st5" d="M-86.3,432c0.2-0.3,0.3-0.5,0.4-0.7c0.2-0.3,0.3-0.6,0.6-0.9c0.2-0.3,0.3-0.6,0.5-0.9
						c0.3-0.6,0.7-1.3,1-1.8c-0.2,0.6-0.4,1.2-0.7,1.8c-0.3,0.6-0.6,1.3-1.1,2c-0.4,0.8-0.8,1.4-1.1,2s-0.7,1-0.9,1.3
						c0.3-0.4,0.5-0.8,0.7-1.3C-86.8,432.9-86.5,432.5-86.3,432z"/>
				</g>
				<g id="XMLID_82_">
					<path id="XMLID_83_" class="st5" d="M-86.2,429.9c0.4-1.3,1.3-2.7,1.8-3.9c0.2-0.3,0.3-0.8,0.4-1.1c0.1-0.2,0.2-0.4,0.3-0.6
						c0.1-0.2,0.2-0.4,0.2-0.6c0.1,0.1,0.1,0.3,0.2,0.3c-0.3,0.8-0.6,1.6-0.9,2.4c-0.2,0.3-0.3,0.7-0.5,1s-0.3,0.7-0.6,1
						c-0.4,0.7-0.8,1.3-1.1,1.9C-86.3,430.2-86.2,430.1-86.2,429.9z"/>
				</g>
				<g id="XMLID_80_">
					<path id="XMLID_81_" class="st5" d="M-80.5,417.3c0.3-0.7,0.5-1.4,0.7-2.1c0.2-0.2,0.3-0.3,0.4-0.3c-0.1,0.5-0.1,0.9-0.2,1.3
						c-0.2,0.5-0.4,1.1-0.6,1.6c-0.2,0.5-0.3,1-0.6,1.5C-80.6,418.4-80.8,418.3-80.5,417.3z"/>
				</g>
				<g id="XMLID_78_">
					<path id="XMLID_79_" class="st5" d="M-131.3,459.7c0.1-0.2,0.3-0.3,0.8-0.3c0.3-0.1,0.8-0.2,0.9-0.3c1.6-0.3,3.5-0.8,5.4-1.3
						c0.9-0.3,1.8-0.6,2.7-0.9c0.8-0.3,1.7-0.7,2.4-0.9c0.9-0.4,1.8-0.8,2.7-1.2c0.9-0.4,1.8-0.8,2.6-1.3c0.2-0.3,0.9-0.6,1-0.8
						c4.4-2.4,8-4.9,11.1-7.9c0.7-0.6,1.3-1.3,2-1.9c0.7-0.7,1.3-1.4,2-2.1c0.7-0.8,1.3-1.5,1.9-2.3c0.6-0.8,1.2-1.5,1.8-2.3
						c0.7-0.6,1.2-1.5,1.8-2.4c0.5-0.8,0.9-1.6,1.4-2c0.4-1.3,2.7-4,2.1-4.3c1.4-2.8,2.6-5.5,3.4-8.5c-0.3,0.3,0.5-1.3,0.5-1.9
						c0.2-0.6,0.3-1.1,0.4-1.7c0.1-0.6,0.3-1.2,0.5-2c0.2-1.1,0.4-2.1,0.7-3.2c0.1-0.6,0.3-1.1,0.3-1.7c0.1-0.6,0.2-1.3,0.3-1.9
						c-0.1,0-0.1-0.5-0.1-1c0-0.5,0-1.1-0.1-1.2c0.1-1.2,0.2-1.5,0.3-1.8c0.1-0.1,0.1-0.2,0.2-0.3c0.1-0.2,0.1-0.4,0.1-0.8
						c0-0.6,0-1.3,0-1.8c0.1,0.1,0.2,0.2,0.3,0.7c0.2-0.4,0.3-0.8,0.4-1c0-0.7,0.2-0.1,0.3-0.1c0,0.9-0.1,1.9-0.1,2.9
						c-0.1,1-0.2,1.9-0.3,2.9c-0.2,0.3-0.3,0.8-0.3,0.4c-0.1,0.8-0.2,1.4-0.2,1.9c-0.1,0.6-0.1,1.1-0.2,1.8
						c-0.3,0.9-0.3,1.8-0.5,2.5s-0.3,1.5-0.4,2.2c0,0.2-0.1,0.3-0.1,0.5c-0.1,0.2-0.1,0.3-0.2,0.5c-0.1,0.3-0.2,0.8-0.3,1.1
						c-0.1,0.4-0.3,0.8-0.3,1.2c-0.2,0.4-0.3,0.8-0.5,1.3c0.4-0.2-0.5,2-0.8,2.9c-0.2,0.4-0.3,0.8-0.5,1.2c-0.1,0.2-0.2,0.4-0.3,0.6
						s-0.2,0.3-0.3,0.6c-0.3,0.8-0.7,1.4-0.9,2.1c-0.7,1.3-1.3,2.8-2,4.1c-0.1,0.3-0.3,0.5-0.4,0.8s-0.3,0.6-0.6,0.9
						c-0.4,0.7-0.8,1.3-1.1,1.8c-0.3,0.4-0.8,0.9-1.2,1.5c-0.4,0.5-0.8,1.1-1,1.6c-1.4,1.9-3.6,4.5-5.7,6.5
						c-0.6,0.5-1.3,1.1-1.8,1.6c-0.4,0.3-1.3,1-1.7,1.6c-0.8,0.7-1.5,1.3-2.4,1.8c-0.3,0.2-0.6,0.4-0.9,0.6
						c-0.3,0.3-0.7,0.5-0.8,0.8c-0.3,0.3-0.6,0.4-0.9,0.7c-0.3,0.3-0.6,0.4-0.9,0.6c-0.6,0.4-1.3,0.8-1.8,1.2
						c-0.5,0.3-1,0.5-2.3,1.4c-0.4,0.3-0.8,0.5-1.3,0.8c-0.4,0.2-0.8,0.3-1.2,0.5c-0.4,0.2-0.8,0.3-1.2,0.5
						c-0.8,0.3-1.6,0.6-2.4,0.9c-0.5,0.3-1.6,0.6-2.2,1c-0.4,0.2-0.8,0.3-1.3,0.4c-0.6,0.1-1.6,0.4-2.2,0.8
						c-0.3,0.1-0.4,0.1-0.7,0.2C-127.6,459-129.3,459.3-131.3,459.7z"/>
				</g>
				<g id="XMLID_76_">
					<path id="XMLID_77_" class="st5" d="M-82.5,413.5c0.1-0.3,0-0.4,0-0.7c0-0.1,0-0.3,0.1-0.5c0.1-0.3,0.2-0.6,0.3-1.1
						c-0.1,0.5-0.2,0.8-0.3,1.1c-0.1,0.3-0.1,0.4-0.1,0.5C-82.5,413.1-82.4,413.1-82.5,413.5z"/>
				</g>
				<g id="XMLID_74_">
					<path id="XMLID_75_" class="st5" d="M-81.5,405.2c0-0.2,0-0.3,0-0.3c0.2-0.2,0.3-0.3,0.3-0.4c0,0.4,0,0.9-0.1,1.3
						c-0.1,0.4-0.1,0.9-0.2,1.3c0,0.3-0.1,0.4-0.1,0.7c0-0.1,0-0.3,0-0.3C-81.5,406.7-81.5,406-81.5,405.2z"/>
				</g>
				<g id="XMLID_72_">
					<path id="XMLID_73_" class="st5" d="M-80.9,404.1c0.2-0.4,0.3-0.8,0.4-1.3c-0.1,0.8-0.2,1.5-0.3,2.2
						C-80.8,404.7-80.9,404.3-80.9,404.1z"/>
				</g>
				<g id="XMLID_70_">
					<path id="XMLID_71_" class="st5" d="M-88.3,434.3c0.3-0.7,0.5-1,0.7-1.4c0.2-0.3,0.3-0.7,0.4-1.2c0.3-0.4,0.5-0.9,0.8-1.3
						c0.1-0.2,0.2-0.3,0.2-0.4c0.3-0.5,0.6-1,0.9-1.5c0.2-0.3,0.4-0.8,0.7-1.2c0.2-0.4,0.3-0.8,0.4-0.8c0.1,0.2,0.1,0.3,0.1,0.3
						c-0.1,0.2-0.2,0.4-0.3,0.6c-0.1,0.3-0.3,0.4-0.3,0.7c-0.3,0.4-0.4,0.8-0.4,0.9c-0.3,0.5-0.5,1.1-0.8,1.7s-0.7,1.3-1,1.8
						c-0.3,0.6-0.7,1.1-1,1.6C-88.1,434.1-88.2,434.2-88.3,434.3z"/>
				</g>
				<g id="XMLID_68_">
					<path id="XMLID_69_" class="st5" d="M-83.3,418.6c0.1-0.3,0.3-0.6,0.3-0.9l0.3-0.9c0.2-0.6,0.3-1.2,0.5-1.8
						c0.2-0.8,0.3-1.5,0.5-2.3l0.3-0.6c0.2-0.5,0.2-1,0.3-1.6c0.3-0.6,0.6-1.3,0.9-1.8c-0.1,0.6-0.3,1.3-0.3,1.8l-0.2,0.9
						c-0.1,0.3-0.1,0.6-0.2,0.9c-0.1,0.6-0.3,1.3-0.4,1.8c-0.1,0.3-0.2,0.6-0.2,0.8c-0.1,0.3-0.1,0.3,0,0.5
						c-0.4,1.3-0.8,2.6-1.3,3.9c-0.2,0.3-0.3,0.7-0.5,1c-0.1,0.2-0.2,0.3-0.3,0.5c-0.1,0.2-0.2,0.3-0.3,0.5c0.2-0.5,0.3-0.9,0.4-1.4
						C-83.6,419.5-83.4,419.1-83.3,418.6z"/>
				</g>
				<g id="XMLID_66_">
					<path id="XMLID_67_" class="st5" d="M-84.1,426.4c0.3-0.8,0.6-1.5,0.9-2.4c-0.1-0.1-0.1-0.3-0.2-0.3c0.3-0.6,0.5-1.2,0.8-1.8
						c0.3-0.5,0.4-1.1,0.6-1.6c0.2-0.6,0.3-1.1,0.6-1.7c0-0.1,0.1-0.3,0.2-0.3c0.3-0.8,0.6-1.5,0.8-2.4c0-0.2,0-0.4,0-0.6
						s0-0.3,0-0.5c-0.1,0.1-0.2,0.1-0.2,0.2c0.3-1.1,0.4-2.1,0.7-3c0.1,0.1,0.1,0.2,0.2,0.3c0.1,0.2,0.2,0.3,0.3,0.5
						c0.1-0.1,0.2-0.2,0.2-0.2c0.3-1.2,0.5-2.4,0.7-3.4c0.2-1,0.3-1.8,0.3-2.4c0-0.3,0.1-0.5,0.1-0.8l0.1-0.8c0-0.5,0.1-1.1,0.1-1.6
						c0.1-0.3,0.2-0.7,0.3-0.9c0.1-0.3,0.1-0.7,0.2-1c0.1,0.1,0.2,0.2,0.3,0.3c0,0.3,0,0.5,0,0.7c0,0.3-0.1,0.5-0.1,0.7
						c-0.1,0.5-0.1,0.9-0.1,1.3c0,0.5-0.1,1-0.1,1.5c-0.1,0.5-0.2,1.1-0.3,1.7c-0.1,0.6-0.2,1.2-0.3,1.8c-0.1,0.6-0.3,1.2-0.3,1.7
						c-0.3,1.3-0.3,1.7-0.7,3.6c-0.2,0.1-0.3,0.2-0.4,0.3c-0.2,0.7-0.4,1.4-0.7,2.1c-0.3,1.1-0.2,1.3-0.3,1.9c0,0.1-0.1,0.3-0.1,0.3
						c-0.3,0.8-0.6,1.5-0.8,2.2c-0.1,0.1-0.2,0.2-0.3,0.3c-0.3,0.8-0.7,1.6-1,2.4c-0.3,0.8-0.7,1.5-1,2.2c-0.1,0.2-0.2,0.3-0.2,0.3
						C-84.1,426.7-84.1,426.6-84.1,426.4z"/>
				</g>
				<g id="XMLID_64_">
					<path id="XMLID_65_" class="st5" d="M-81.5,418.3c0.3-1,0.2-1.2,0.7-3.2c0.1-0.1,0.2-0.1,0.2-0.2c0,0.2,0,0.3,0,0.5
						s0,0.3,0,0.6C-80.9,416.7-81.1,417.5-81.5,418.3z"/>
				</g>
				<g id="XMLID_62_">
					<path id="XMLID_63_" class="st5" d="M-79.9,412.2c-0.1-0.1-0.1-0.2-0.2-0.3c0.1-0.6,0.1-1.2,0.2-1.8c0.2-0.6,0.4-1.3,0.6-1.9
						c0.1-1,0.1-1.4,0.2-2.5c0.1-0.3,0.2-0.4,0.3-0.6c0.1,0.6,0.2,1.1,0.2,1.7c0.1-0.1,0.2-0.2,0.2-0.2c0,0.6-0.1,1.4-0.3,2.4
						c-0.2,1-0.4,2.2-0.7,3.4c-0.1,0-0.2,0.1-0.2,0.2C-79.8,412.6-79.9,412.4-79.9,412.2z"/>
				</g>
				<g id="XMLID_60_">
					<path id="XMLID_61_" class="st5" d="M-198.4,367.5c0.3-0.4,0.4-0.8,0.7-1.2c0.3-0.4,0.5-0.8,0.7-1.2c-0.3,0.3-0.5,0.8-0.7,1.2
						C-198,366.6-198.3,367-198.4,367.5z"/>
				</g>
				<g id="XMLID_58_">
					<path id="XMLID_59_" class="st5" d="M-200.6,371.5c-0.1,0-0.1-0.1-0.2-0.2c0.4-0.9,0.7-1.4,1-2.1c0.3-0.3,0.4-0.3,0.6-0.5
						C-199.7,369.6-200.1,370.6-200.6,371.5z"/>
				</g>
				<g id="XMLID_56_">
					<path id="XMLID_57_" class="st5" d="M-165.6,457.7c0.3,0.1,0.4,0.2,0.7,0.3c0.7,0.3,1.3,0.5,2,0.8c0.2,0.2,0.3,0.3,0.4,0.4
						c-1.2-0.4-2.4-0.8-3.6-1.3c-0.4-0.2-0.8-0.4-1.3-0.6C-166.8,457.5-166.1,457.7-165.6,457.7z"/>
				</g>
				<g id="XMLID_54_">
					<path id="XMLID_55_" class="st5" d="M-135.4,462c0.4-0.2,1.3-0.3,3.8-0.6c0.5-0.1,1-0.2,1.4-0.3c0.4-0.1,0.8-0.3,1.3-0.3
						c0.8-0.2,1.5-0.3,2.2-0.6c0.7-0.2,1.3-0.4,2-0.6c0.7-0.2,1.3-0.4,2.1-0.7c0.6-0.1,1.1-0.3,1.7-0.3c-0.3,0.2-0.8,0.4-1.3,0.7
						c-0.8,0.3-1.4,0.5-2.2,0.8c-0.8,0.2-1.5,0.4-2.2,0.6c-0.8,0.3-1.5,0.3-2.2,0.5c-0.8,0.2-1.5,0.3-2.2,0.5c-0.1,0-0.2,0-0.3,0
						c-0.7,0.1-1.3,0.3-2,0.3s-1.4,0.2-2.1,0.3C-135.4,462-135.4,462-135.4,462z"/>
				</g>
				<g id="XMLID_52_">
					<path id="XMLID_53_" class="st5" d="M-119.8,457.9c0.5-0.2,1-0.3,1.6-0.6c0.5-0.3,1-0.4,1.5-0.7c0.1-0.2,0.6-0.3,1.1-0.6
						c0.5-0.3,1.1-0.5,1.4-0.8c0.3-0.2,0.8-0.3,1.1-0.5s0.8-0.3,1.1-0.5c-0.3,0.3-0.7,0.4-0.9,0.6s-0.5,0.3-0.8,0.5
						c-0.3,0.2-0.7,0.4-1.2,0.7c-0.3,0.1-0.5,0.3-0.8,0.4s-0.7,0.3-1.1,0.4c-0.5,0.3-1,0.5-1.8,0.8c-0.6,0.2-1.1,0.3-1.7,0.5
						C-120.1,458.2-119.9,458-119.8,457.9z"/>
				</g>
				<g id="XMLID_50_">
					<path id="XMLID_51_" class="st5" d="M-105.6,449.3c0.6-0.5,1.2-1,1.8-1.4c0.1,0,0.3,0,0.3,0c-0.1,0.2-0.7,0.8-2,1.7
						C-105.6,449.4-105.6,449.4-105.6,449.3z"/>
				</g>
				<g id="XMLID_48_">
					<path id="XMLID_49_" class="st5" d="M-79.9,410.2c0.1-0.8,0.1-1.4,0.1-2.2c0.2-0.8,0.3-1.6,0.5-2.4c0,0,0.1,0.1,0.1,0.2
						c-0.1,1.1-0.1,1.5-0.2,2.5C-79.4,408.9-79.7,409.6-79.9,410.2z"/>
				</g>
				<g id="XMLID_46_">
					<path id="XMLID_47_" class="st5" d="M-204.4,407.9c0,0.3,0,0.4,0.1,0.8C-204.4,408.4-204.4,408.1-204.4,407.9z"/>
				</g>
				<g id="XMLID_44_">
					<path id="XMLID_45_" class="st5" d="M-174.1,454.8c0-0.1-0.1-0.2-0.2-0.3C-174.2,454.6-174.1,454.7-174.1,454.8z"/>
				</g>
				<g id="XMLID_42_">
					<path id="XMLID_43_" class="st5" d="M-147.4,460.6c0.4-0.1,0.9-0.1,1.4-0.1c0.5,0,1,0,1.3,0c0.2-0.1,2.2,0,1.7,0.2
						c0.8-0.1,1.3-0.1,1.9-0.2c0.4,0,0.8,0,1.2,0c0.4,0,0.8-0.1,1-0.1c0-0.1,1-0.1,1.5-0.2c-0.1,0.3,1.7-0.1,2.4-0.1
						c0,0.1-1.6,0.3-2,0.4c-1,0.1-2,0.3-3,0.3c-0.2,0-0.3,0-0.4,0.1c-0.9-0.1-1.8-0.2-2.8-0.2c-0.8,0-1.4-0.1-2.2-0.1h-1.1
						C-146.7,460.7-147,460.6-147.4,460.6z"/>
				</g>
				<g id="XMLID_40_">
					<path id="XMLID_41_" class="st5" d="M-201.9,375.5c0.3-0.2,0.5-0.5,0.7-0.8c0.2-0.3,0.3-0.8,1-2l0.1,0.1
						c-0.2,0.4-0.3,0.8-0.5,1.3s-0.3,0.8-0.5,1.3c-0.3,0.8-0.8,1.5-1.1,2.3C-202.1,376.9-202,376.2-201.9,375.5z"/>
				</g>
				<g id="XMLID_38_">
					<path id="XMLID_39_" class="st5" d="M-202,375.4C-202,375.5-201.9,375.5-202,375.4C-201.9,375.5-202,375.5-202,375.4z"/>
				</g>
				<g id="XMLID_36_">
					<path id="XMLID_37_" class="st5" d="M-80.1,406.8c0-0.2,0-0.4,0-0.5C-80.1,406.4-80.1,406.6-80.1,406.8z"/>
				</g>
				<g id="XMLID_34_">
					<path id="XMLID_35_" class="st5" d="M-104.4,452.4c0.7-0.4,1.3-0.9,1.9-1.3c0.6-0.5,1.3-0.9,1.8-1.4c-0.4,0.6-0.9,1-1.6,1.5
						c-0.6,0.5-0.9,0.7-1.3,0.8C-103.8,452.1-104.1,452.2-104.4,452.4z"/>
				</g>
				<g id="XMLID_32_">
					<path id="XMLID_33_" class="st5" d="M-134.9,460.2c0.3-0.1,0.8-0.2,1.1-0.3c0.3-0.1,0.7-0.2,0.9-0.2c0.6-0.1,1.2-0.1,1.6-0.1
						c-0.3,0.1-0.8,0.3-1.9,0.4C-133.7,460.2-134.3,460.2-134.9,460.2z"/>
				</g>
			</g>
		</g>
	</g>
	<path id="XMLID_22_" class="st2" d="M-149.5,392.8c0.2,0,0.3,0.1,0.5,0.1"/>
	<path id="XMLID_20_" class="st5" d="M-131.3,393.9c-0.3,1-1.4,1.4-2.3,1.1c-0.6-0.2-1.2-0.6-1.7-1.1c-0.2-0.2-0.4-0.3-0.6-0.6
		c-2.9-2.9-5-6.3-6.7-10.3c-0.1-0.1-0.1-0.3-0.2-0.3c-0.4-0.9-0.9-2.2-0.8-3.1c0-0.3,0.2-0.7,0.3-1c0.8-1,2.2-1,3.3-1.2
		c0.3-0.1,0.6-0.1,0.8-0.1c0.4,0,0.8,0.2,1.3,0.6c0.2,0.2,0.3,0.4,0.4,0.8c0.2,0.4,0.2,0.8,0.3,1.3c0,0.4,0.1,0.8,0.2,1.3
		c0.2,0.9,0.4,1.8,0.7,2.8c0.7,1.8,1.4,3.7,2.4,5.5c0.5,0.8,1,1.7,1.5,2.5c0.2,0.2,0.4,0.5,0.8,0.9
		C-131.4,393.2-131.2,393.7-131.3,393.9z"/>
	<path id="XMLID_19_" class="st5" d="M-135,395.3c0,0.2-0.3,0.3-0.3,0.4c-0.3,0.3-0.7,0.4-1,0.4c-0.7,0.2-1.5,0.1-2.2-0.2
		c-0.9-0.3-1.8-0.7-2.7-1.3c-0.3-0.3-0.7-0.5-1-0.9c-0.9-0.9-2.1-2.4-3.9-4.8c0,0-0.4-0.6-1.4-2.4l0,0c-0.3-0.5-0.6-1.1-1-1.8
		c-0.1-0.3-0.3-0.5-0.3-0.8c-0.2-0.5-0.3-1-0.3-1.5c0.1-0.4,0.3-0.7,0.5-1.1c0.6-0.8,1.3-1.1,1.8-1.3c0.6-0.3,0.9-0.3,1.3-0.3
		c0.3,0.1,0.5,0.3,0.7,0.5c0.5,0.7,0.8,1.6,0.8,1.7c0.2,0.3,0.3,0.6,0.4,0.9c0.3,0.8,0.8,1.6,1.3,2.5c0.5,1,1.2,2.3,2.2,3.8
		c0.7,1,1.3,1.8,2.5,3.4c0.2,0.2,0.3,0.4,0.5,0.6c0.3,0.3,0.7,0.7,1,0.9c0.1,0.1,0.4,0.3,0.8,0.5C-135.2,394.9-135,394.9-135,395.3z
		"/>
	<path id="XMLID_18_" class="st5" d="M-141.3,396.3c-1.1,0.2-2.3,0.3-3.4,0.1c-1.8-0.3-3.4-2-4.9-3.5c-0.2-0.2-0.3-0.3-0.5-0.5
		c-0.5-0.6-1.2-1.2-1.8-1.9c-0.6-0.8-1.2-1.6-1.3-2.6c0-0.2-0.1-0.4-0.1-0.7c0-0.6,0.3-1,0.5-1.4c0.4-0.7,1-1.4,1.7-1.5
		c0.5-0.1,0.9,0.2,1.3,0.6c0.3,0.3,0.4,0.7,0.6,1c0.3,0.5,0.4,1,0.6,1.4c0,0.1,0.1,0.2,0.1,0.3c0.7,1.7,1.6,3.2,2.7,4.5
		c0.5,0.6,1,1.1,1.5,1.6C-143.3,394.7-142.2,395.4-141.3,396.3z"/>
	<g id="XMLID_3_">
		<path id="XMLID_14_" class="st5" d="M-138.1,422.2C-138.1,422.2-138.1,422.3-138.1,422.2c-0.1,0.3-0.2,0.6-0.3,0.8
			c-0.1,0-0.1,0-0.2-0.1c0.2-0.1,0.2-0.2,0.2-0.3c0-0.1-0.1-0.2,0-0.2c0,0,0-0.1,0.1-0.1C-138.3,422.5-138.2,422.4-138.1,422.2
			C-138.1,422.3-138.1,422.3-138.1,422.2z"/>
		<path id="XMLID_13_" class="st5" d="M-118.8,425.9c0,0.2,0,0.3,0,0.5l0,0l0,0l0,0l0,0l0,0l0,0c0,0,0,0,0-0.1c0,0,0,0,0-0.1
			c0-0.1,0-0.1,0-0.1l0,0l0,0l0,0l0,0l0,0l0,0l0,0C-118.7,426-118.7,426-118.8,425.9C-118.7,426-118.7,425.9-118.8,425.9
			L-118.8,425.9C-118.7,425.9-118.7,425.9-118.8,425.9C-118.7,425.9-118.7,425.9-118.8,425.9L-118.8,425.9
			C-118.7,425.8-118.7,425.8-118.8,425.9l0.1-0.2l0,0v-0.1l0,0l0,0l0,0l0,0l0,0l0,0l0,0l0,0l0,0l0,0l0,0l0,0l0,0c0,0,0,0-0.1,0.1
			C-118.8,425.8-118.7,425.8-118.8,425.9c0.1,0.1,0.1,0.1,0.1,0.2C-118.7,425.8-118.7,425.8-118.8,425.9z"/>
		<path id="XMLID_12_" class="st5" d="M-140.4,428.5L-140.4,428.5L-140.4,428.5C-140.5,428.4-140.5,428.4-140.4,428.5l-0.2-0.1l0,0
			c0,0,0,0-0.1,0h-0.1h-0.1l0,0h-0.1c0,0,0,0-0.1,0l0,0l0,0h-0.1c-0.1,0-0.2,0-0.2,0l0,0l0,0l0,0l0,0l0,0c-0.1,0-0.1,0-0.2,0
			c-0.1,0-0.1,0-0.2,0l0,0l0,0l0,0l0,0h-0.1l0,0l0,0c0.2-0.4,0.3-0.8,0.3-1.3c0-0.9-0.3-1.1-1-1.6c-0.8-0.6-1.2-1.2-0.9-2.3
			c0.1-0.3,0.3-0.7,0.5-1c0.1-0.1,0.3-0.3,0.7-0.3c0.6,0,0.3,0.4,0,0.7l0,0l-0.5,0.2l0,0l0,0v0.1l0,0l0,0c0,0,0,0,0,0.1s0,0.1,0,0.1
			l-0.1,0.1h-0.1l0,0c0.1,0,0.2,0.1,0.3,0.1h0.1c0.1,0,0.1,0,0.2,0h0.1l0,0l0,0c0.1,0,0.2-0.1,0.3-0.1c0.1-0.1,0.2-0.1,0.3-0.2
			c0.3-0.2,0.7-0.4,0.9-0.7l0.1-0.1l0,0c0,0,0,0,0.1-0.1c0.2-0.2,0.3-0.3,0.3-0.5l-0.2-0.4c-0.1-0.1-0.3-0.2-0.5-0.3
			c0,0-0.1,0-0.1-0.1h-0.1h-0.1c0,0-0.1,0-0.2,0h-0.1c0,0-0.1,0-0.2,0h-0.1h-0.1c-0.1,0-0.1,0-0.1,0l0,0c0,0,0,0-0.1,0l-0.1,0.1
			h-0.1l0,0l0,0c-0.6,0.1-1.2,0.4-1.6,0.8c-0.3,0.3-0.6,0.8-0.8,1.2l0,0c-0.2,0.4-0.3,0.8-0.3,1.2l0.1,0.1c0,0,0,0.1,0,0.2
			c0.1,0.1,0.1,0.1,0,0.1v0.1c0.1,0.1,0.1,0.2,0.1,0.2l0.1,0.1c0,0,0,0.1,0.1,0.1l0.1,0.1c0,0.1,0,0.2,0.1,0.3l0.1,0.1
			c0,0,0,0,0,0.1l0,0l0,0v0.1l0.1,0.1c0,0,0,0,0,0.1s0.1,0.1,0.1,0.2l0.1,0.1l0,0c0,0.1,0.1,0.1,0.1,0.2l0.1,0.1l0.1,0.1l0,0
			l0.1,0.1l0.1,0.1l0.1,0.1c0,0,0,0,0.1,0c0,0,0,0,0,0.1l0.1,0.1l0.1,0.1c0.1,0,0.1,0,0.2,0.1v0.1c0,0,0,0,0.1,0l0,0c0,0,0,0.1,0,0
			c0.1,0.3,0.1,0.7-0.1,1.2c0,0.1-0.1,0.2-0.1,0.3l0,0l0,0l0,0l0,0v0.1l0,0c0,0,0,0.1-0.1,0.2c0.1-0.1,0.2-0.1,0.2-0.1l0,0l0,0
			c0.1,0,0.1,0,0.1,0.1c-0.3,0.2-0.3,0.3-0.3,0.3l-0.1,0.1l-0.1,0.1l0,0h-0.1l-0.1,0.1c0,0,0,0-0.1,0.1h-0.1l-0.1,0.1l-0.1,0.1l0,0
			v-0.1v-0.1c-0.1,0.1-0.2,0.2-0.2,0.2l0,0l0,0c-0.1,0-0.1,0-0.2,0c0.2-0.1,0.2-0.2,0.3-0.3c0,0,0,0,0-0.1c0,0,0-0.1-0.1-0.1V429
			l0.1-0.1l0,0h0.1l0.1-0.1c0,0,0,0,0.1-0.1c-0.1-0.1-0.1-0.1,0-0.2l0,0c-0.4,0.2-0.8,0.4-1.2,0.6c-0.1,0-0.1,0.1-0.2,0.1
			c-0.2,0.1-0.3,0.2-0.3,0.3c-0.1,0.1-0.2,0.3-0.2,0.3s0,0.1,0.1,0.2s0.1,0.1,0.3,0.2c0,0,0.1,0,0.1,0.1l0,0l0,0c0,0,0,0,0,0.1h0.1
			c0.1,0,0.2,0,0.2,0h0.1h0.1c0,0,0,0,0.1,0h0.1c0,0,0,0,0.1,0h0.1l0,0l0,0h0.1h0.1h0.1h0.1c0,0,0.1,0,0.2,0h0.1c0.1,0,0.1,0,0.2,0
			h0.1l0,0c0.1-0.1,0.2-0.1,0.3-0.2h-0.1c0,0,0,0,0.1,0c0.3-0.2,0.7-0.5,0.9-0.8l0.1-0.1c0-0.1,0.1-0.1,0.1-0.2
			c0.3-0.1,0.4-0.1,0.6-0.1c0,0,0,0,0.1,0s0.2,0,0.2-0.1l0,0h0.1c0.1,0,0.3,0,0.3,0c0.2,0,0.3-0.1,0.5-0.2l0,0l0,0
			C-140.5,428.7-140.4,428.6-140.4,428.5C-140.5,428.7-140.5,428.6-140.4,428.5C-140.4,428.6-140.4,428.6-140.4,428.5L-140.4,428.5z
			 M-142.6,429.5c-0.2,0.1-0.2,0.1-0.2,0C-142.8,429.5-142.7,429.5-142.6,429.5C-142.5,429.4-142.5,429.4-142.6,429.5
			C-142.5,429.5-142.5,429.5-142.6,429.5z"/>
		<g id="XMLID_9_">
			<path id="XMLID_11_" class="st5" d="M-118.5,422.5C-118.5,422.5-118.5,422.5-118.5,422.5C-118.5,422.5-118.5,422.5-118.5,422.5
				C-118.5,422.5-118.5,422.5-118.5,422.5z"/>
			<path id="XMLID_10_" class="st5" d="M-117.1,421.7c-0.2-0.1-0.4,0.2-0.9,0.3c-0.1,0-0.2,0-0.3,0.1c0,0-0.1,0.1-0.2,0.2l-0.1,0.1
				l0,0l0,0l0,0c0,0,0,0.1,0.1,0.2c0,0,0,0,0,0.1c0,0-0.1,0-0.1,0.1l0,0l0,0c0,0,0,0-0.1,0.1l0,0l0,0v0.1l0,0l0,0c0,0,0,0-0.1,0l0,0
				v0.1c0,0.1,0,0.1,0,0.1c-0.1,0.1-0.1,0.3-0.2,0.3c0-0.1,0,0,0,0c0,0.1,0,0.2,0,0.3c0,0.3,0,0.4,0,0.6s0,0.3,0,0.3s0,0.2-0.1,0.2
				c0,0.1,0,0.3,0,0.4c0,0.2,0,0.4,0,0.8c0,0.2,0,0.3,0,0.4l0,0l0,0l0,0l0,0l0,0l0,0l0,0l0,0l0,0l0,0l0,0c0,0,0,0,0,0.1l0,0v0.1l0,0
				l0,0l0,0l0,0l0,0l0,0l0,0l0,0l0,0l0,0l0,0l0,0l0,0v0.1c0,0.1,0,0.2-0.1,0.3l-0.2,0.1v0.1v0.3c0,0.1,0,0.3,0,0.3
				c0,0.2,0,0.3,0,0.4c0,0.1,0.1,0.2,0.1,0.3v0.1v0.1c-0.1,0.3-0.2,0.7-0.2,0.8l0,0c0,0.1,0,0.3,0.2,0.3s0.2,0,0.3-0.1l0.1,0.1
				l0.1,0.1v-0.1l0,0c0.1,0.2,0.2,0.3,0.2,0.3l0,0l0,0l0,0c0,0,0,0.1,0.1,0.1l0,0l0,0l0,0h0.1h0.1c0.1,0,0.1,0,0.1,0s0,0,0.1-0.1
				c0-0.1,0.1-0.1,0.1-0.1s0-0.1,0-0.2s0-0.1,0-0.2s0.1-0.2,0-0.3c-0.1-0.5-0.1-0.8,0-0.8c0.1-0.3,0.1-0.4,0-0.5c0-0.1,0-0.1,0-0.1
				v-0.3v-0.1c0-0.1,0.1-0.2,0-0.3l0,0c0-0.1,0-0.2,0.1-0.3c0.1-0.3,0.1-0.5,0.2-1c0.1-0.4,0.2-1,0.3-1.8
				C-116.9,423.2-116.7,421.8-117.1,421.7z M-118.7,426.8c0-0.1,0-0.2,0-0.3c0-0.5,0-1,0-1.6c0,0.2,0,0.3,0,0.5v0.1v0.1v0.1v0.1
				c0,0.2,0,0.3,0,0.3v0.1c0,0.2,0,0.3,0,0.5C-118.7,426.8-118.7,426.8-118.7,426.8C-118.7,426.8-118.7,426.8-118.7,426.8
				c0.1,0,0.1,0.1,0.1,0.3c0,0.1,0,0.2,0,0.3v0.2l0,0l0,0l0,0l0,0l0,0l0,0c0-0.1,0-0.3,0-0.3C-118.7,427.2-118.7,427-118.7,426.8z
				 M-118.8,426.6C-118.8,426.6-118.8,426.7-118.8,426.6c0,0.1,0,0.2,0,0.2C-118.8,426.7-118.8,426.7-118.8,426.6z"/>
		</g>
		<path id="XMLID_8_" class="st5" d="M-134.2,424.9c0-0.1,0.1-0.2,0.1-0.2c0.2-0.4,0.5-2.1,0.6-2.4c0,0,0-0.1,0-0.2
			c-0.1-0.1-0.3,0-0.3-0.1c-0.2-0.1-0.2-0.2-0.3-0.2s-0.1,0.1-0.1,0.2c-0.1,0-0.1,0-0.2,0c-0.1,0-0.2,0.1-0.4,0.4
			c-0.2,0.3-0.2,0.3-0.2,0.3c-0.1,0.3-0.2,0.4-0.2,0.5c-0.1,1.3-0.4,4.6-1.8,5.2c-0.1,0-0.3,0.1-0.6,0.1c-0.7-0.2-1-1.1-1.2-1.8
			c-0.2-1.2-0.1-2.3,0.3-3.4c0.1-0.3,0.2-0.5,0.3-0.8v-0.1c0-0.3-1.2-0.2-1.3,0.3c-0.1,0.3-0.3,0.8-0.3,1.3l0,0
			c-0.1,0.2-0.1,0.3-0.1,0.3c0,0,0,0,0,0.1s0,0.1,0,0.2l-0.1,0.1c0,0,0,0.1,0.1,0.2c-0.3,2.1,0,4.7,2.4,4.8c0.8,0,1.4-0.2,1.8-0.6
			c0,0.1,0,0.2,0,0.3c0.1,0.1,0.2,0.2,0.3,0.3c0,0.1,0,0.3,0,0.3c0.1,0.1,0.2,0.2,0.2,0.3c-0.1,0-0.1-0.1-0.2-0.1l0,0
			c0.3,0.3,1.3,0,1.3-0.4c0-0.1,0-0.1-0.1-0.1c-0.3-0.4-0.3-0.8-0.3-1.1c0-0.2,0-0.3,0-0.5c0-0.1,0.1-0.2,0.1-0.3c0-0.1,0-0.2,0-0.2
			c0-0.3,0.1-0.3,0.2-0.7c0-0.2,0-0.2,0-0.3c0-0.1-0.1-0.2-0.1-0.3c0-0.1,0.2-0.1,0.2-0.2s-0.1-0.1-0.1-0.2
			c-0.1-0.1-0.1-0.2-0.1-0.3c0-0.1,0-0.1,0-0.2C-134.2,425-134.2,425-134.2,424.9z"/>
		<path id="XMLID_7_" class="st5" d="M-127.2,428.5L-127.2,428.5L-127.2,428.5C-127.3,428.4-127.3,428.4-127.2,428.5l-0.2-0.1l0,0
			c0,0,0,0-0.1,0h-0.1h-0.1l0,0h-0.1c0,0,0,0-0.1,0l0,0l0,0h-0.1c-0.1,0-0.2,0-0.2,0l0,0l0,0l0,0l0,0l0,0c-0.1,0-0.1,0-0.2,0
			c-0.1,0-0.1,0-0.2,0l0,0l0,0l0,0l0,0h-0.1l0,0l0,0c0.2-0.4,0.3-0.8,0.3-1.3c0-0.9-0.3-1.1-1-1.6c-0.8-0.6-1.2-1.2-0.9-2.3
			c0.1-0.3,0.3-0.7,0.5-1c0.1-0.1,0.3-0.3,0.7-0.3c0.6,0,0.3,0.4,0,0.7l0,0l-0.5,0.2l0,0l0,0v0.1l0,0l0,0c0,0,0,0,0,0.1s0,0.1,0,0.1
			l-0.1,0.1h-0.1l0,0c0.1,0,0.2,0.1,0.3,0.1h0.1c0.1,0,0.1,0,0.2,0h0.1l0,0l0,0c0.1,0,0.2-0.1,0.3-0.1c0.1-0.1,0.2-0.1,0.3-0.2
			c0.3-0.2,0.7-0.4,0.9-0.7l0.1-0.1l0,0c0,0,0,0,0.1-0.1c0.2-0.2,0.3-0.3,0.3-0.5l-0.2-0.4c-0.1-0.1-0.3-0.2-0.5-0.3
			c0,0-0.1,0-0.1-0.1h-0.1h-0.1c0,0-0.1,0-0.2,0h-0.1c0,0-0.1,0-0.2,0h-0.1h-0.1c-0.1,0-0.1,0-0.1,0l0,0c0,0,0,0-0.1,0l-0.1,0.1
			h-0.1l0,0l0,0c-0.6,0.1-1.2,0.4-1.6,0.8c-0.3,0.3-0.6,0.8-0.8,1.2l0,0c-0.2,0.4-0.3,0.8-0.3,1.2l0.1,0.1c0,0,0,0.1,0,0.2
			c0.1,0.1,0.1,0.1,0,0.1v0.1c0.1,0.1,0.1,0.2,0.1,0.2l0.1,0.1c0,0,0,0.1,0.1,0.1l0.1,0.1c0,0.1,0,0.2,0.1,0.3l0.1,0.1
			c0,0,0,0,0,0.1l0,0l0,0v0.1l0.1,0.1c0,0,0,0,0,0.1s0.1,0.1,0.1,0.2l0.1,0.1l0,0c0,0.1,0.1,0.1,0.1,0.2l0.1,0.1l0.1,0.1l0,0
			l0.1,0.1l0.1,0.1l0.1,0.1c0,0,0,0,0.1,0c0,0,0,0,0,0.1l0.1,0.1l0.1,0.1c0.1,0,0.1,0,0.2,0.1v0.1c0,0,0,0,0.1,0l0,0c0,0,0,0.1,0,0
			c0.1,0.3,0.1,0.7-0.1,1.2c0,0.1-0.1,0.2-0.1,0.3l0,0l0,0l0,0l0,0v0.1l0,0c0,0,0,0.1-0.1,0.2c0.1-0.1,0.2-0.1,0.2-0.1l0,0l0,0
			c0.1,0,0.1,0,0.1,0.1c-0.3,0.2-0.3,0.3-0.3,0.3l-0.1,0.1l-0.1,0.1l0,0h-0.1l-0.1,0.1c0,0,0,0-0.1,0.1h-0.1l-0.1,0.1l-0.1,0.1l0,0
			v-0.1v-0.1c-0.1,0.1-0.2,0.2-0.2,0.2l0,0l0,0c-0.1,0-0.1,0-0.2,0c0.2-0.1,0.2-0.2,0.3-0.3c0,0,0,0,0-0.1c0,0,0-0.1-0.1-0.1V429
			l0.1-0.1l0,0h0.1l0.1-0.1c0,0,0,0,0.1-0.1c-0.1-0.1-0.1-0.1,0-0.2l0,0c-0.4,0.2-0.8,0.4-1.2,0.6c-0.1,0-0.1,0.1-0.2,0.1
			c-0.2,0.1-0.3,0.2-0.3,0.3c-0.1,0.1-0.2,0.3-0.2,0.3s0,0.1,0.1,0.2c0.1,0.1,0.1,0.1,0.3,0.2c0.1,0.1,0.2,0.1,0.3,0.1l0,0
			c0.4,0.3,1.3,0.1,1.6-0.1c0.3-0.2,0.7-0.5,0.9-0.8l0.1-0.1c0-0.1,0.1-0.1,0.1-0.2c0.3-0.1,0.4-0.1,0.6-0.1c0,0,0,0,0.1,0
			s0.2,0,0.2-0.1l0,0h0.1c0.1,0,0.3,0,0.3,0c0.2,0,0.3-0.1,0.5-0.2l0,0l0,0C-127.4,428.7-127.3,428.6-127.2,428.5
			C-127.3,428.7-127.3,428.6-127.2,428.5C-127.3,428.6-127.3,428.6-127.2,428.5C-127.3,428.5-127.2,428.5-127.2,428.5z
			 M-129.4,429.5c-0.2,0.1-0.2,0.1-0.2,0C-129.7,429.5-129.6,429.5-129.4,429.5C-129.4,429.4-129.3,429.4-129.4,429.5L-129.4,429.5z
			"/>
		<path id="XMLID_6_" class="st5" d="M-120.3,422.4c-0.1-0.1-0.2-0.3-0.3-0.3l0,0c0-0.1,0-0.2,0-0.3c0,0,0,0,0-0.1l0,0l0,0
			c0,0-0.1,0-0.1-0.1c0,0-0.1,0-0.1-0.1h-0.1c-0.1,0-0.1,0-0.1,0h-0.3c0,0-0.1,0-0.2,0h-0.1l0,0v0.1l0,0v0.1v0.1c0,0,0,0,0,0.1l0,0
			c-0.1,0.2-0.1,0.3-0.1,0.5l0,0l-0.1,0.1c0,0.1-0.1,0.1-0.1,0.2s-0.1,0.1-0.1,0.2s0.1,0.1,0.1,0.1l0,0c0,0,0,0,0.1,0.1v0.1l0,0l0,0
			c0,0.2-0.1,0.3-0.1,0.5c0,0.1,0,0.2-0.1,0.3v0.1c0,0.1-0.1,0.4-0.2,0.8c0,0.1,0,0.2-0.1,0.4c0,0.1,0,0.2,0,0.3l0,0l0,0l0,0l0,0
			c0,0-0.1,0-0.2,0h-0.1l0,0c0.1-0.1,0-0.1-0.1-0.1v0.1c-0.1,0-0.1,0-0.1,0h-0.1h-0.1h-0.1h-0.1h-0.1c-0.1,0-0.2-0.1-0.3-0.1
			s-0.2,0-0.3,0c-0.1,0-0.3,0-0.3,0h-0.4h-0.1h-0.1c-0.2,0.1-0.4,0.1-0.6,0.2h-0.1c0-0.2,0-0.4,0-0.7c0-0.1,0-0.2,0-0.3l0,0l0,0
			c0-0.1,0-0.2,0-0.2v-0.6v-0.4c0-0.3,0-0.3,0-0.4v-1.3v-0.1c0,0,0,0,0-0.1l0,0l0,0l0,0c0,0,0,0,0-0.1l0,0c0,0-0.1,0-0.1-0.1
			c0,0,0,0-0.1-0.1c-0.1,0-0.1,0-0.2-0.1h-0.1h-0.1h-0.1c0,0,0,0-0.1,0l0,0l0,0h-0.1l-0.1,0.1c-0.1,0-0.2,0.1-0.3,0.2
			c-0.1,0.1-0.2,0.2-0.2,0.3v0.1c-0.1,0.2-0.1,0.3-0.1,0.3s0,0.1,0,0.2c0,0,0,0.1,0,0.2v0.1l0,0c0,0.1,0,0.1,0,0.2s0,0.2,0,0.3v0.9
			c0,0,0,0.1,0,0.2c0,0.2,0,0.3,0,0.3s0,0,0,0.1s0,0.1,0,0.1s0,0,0,0.1c0,0,0,0.1,0,0.2s0,0.2,0,0.2v0.5c0,0.2,0,0.3,0,0.4
			s0,0.2,0,0.2s0,0.1,0,0.3c0,0.1,0,0.1,0,0.2v0.1c0,0.1,0,0.1,0,0.2s0,0.2,0,0.2c0,0.1,0,0.1,0.1,0.2l0,0c0,0.1,0,0.2,0,0.2l0,0
			l0,0c0,0,0,0,0,0.1v0.1c0.1,0.1,0.1,0.2,0.1,0.3v1.3v0.1v0.1c0,0.1,0,0.1,0,0.2v0.1c0,0.1,0,0.1,0,0.1v0.2c0,0,0,0,0,0.1v0.1l0,0
			l0,0l0,0v0.1l0,0v0.1v0.1v0.1l0,0v0.1l0,0l0,0v0.1v0.1v0.1c0,0,0,0,0,0.1l0,0h0.1c0,0,0,0,0.1,0.1v0.1c0,0,0,0,0,0.1l0,0l0,0h0.1
			l0.1-0.1c0,0,0.1,0,0.1-0.1h0.1l0,0c0,0,0.1,0,0.1-0.1l0.1-0.1c0,0,0.1-0.1,0.1-0.2c0,0,0-0.1,0.1-0.2c0,0,0,0,0-0.1s0-0.1,0-0.1
			v-0.2c0,0,0-0.1,0.1-0.2c0-0.1,0-0.1,0-0.2v-0.1v-0.1c0-0.1,0-0.1,0-0.3v-0.1c0-0.1,0-0.2,0-0.2c0-0.2,0-0.3,0-0.6
			c0-0.1,0-0.1,0-0.2s0-0.1,0-0.1v-1c0,0,0.1,0,0.1-0.1h0.1c0.1,0,0.1,0,0.1,0l0.1-0.1l0.2-0.1c0,0,0,0,0-0.1c0.1,0,0.2-0.1,0.3-0.1
			h0.1h0.1h0.1h0.1c0.1,0,0.2,0,0.2,0h0.3c0.1,0,0.2,0,0.3,0c0.1,0,0.2,0,0.2,0h0.2c0.1,0,0.2,0,0.1-0.1h0.1h0.1l0.1-0.1h0.1l0,0
			h0.1l0.1-0.1c0,0,0,0,0.1,0l0,0l0,0c0,0.2-0.1,0.3-0.1,0.4c0,0.1,0,0.1,0,0.2l-0.1,0.3c0,0.2,0,0.3-0.1,0.6v0.3
			c0.1,0,0.1,0.1,0.1,0.2v0.1v0.3v0.3c0,0,0,0.1-0.1,0.1v0.6v0.1c0,0,0,0.1,0,0.2s0.1,0.2,0.1,0.3c0,0.1,0,0.3,0,0.3
			c0-0.1,0.1-0.2,0.1-0.2c0,0.1,0.1,0.2,0.1,0.2l0,0l0,0l0,0v0.1l0,0c0,0,0,0,0,0.1c0,0.1,0.1,0.1,0.1,0.1l0,0c0,0,0,0,0,0.1
			c0,0,0,0.1,0.1,0.1c0.1,0.1,0.1,0.1,0.2,0.2h0.1c0.1,0,0.1,0.1,0.1,0.1h0.1l0,0l0,0h0.1c0.1,0,0.1,0,0.1-0.1l0,0l0,0
			c0,0,0,0,0.1,0l0,0l0,0l0,0l0,0v-0.1v-0.1c0,0,0-0.1,0-0.3c0-0.1,0-0.2,0-0.3c0-0.2,0-0.3,0-0.7v-0.1v-0.2v-0.3v-0.3v-0.1
			c0-0.1,0-0.2,0-0.2v-0.1l0,0l0,0c0,0,0,0,0-0.1v-0.1c0,0,0,0,0-0.1l0,0l0,0v-0.1v-0.2c0-0.1,0-0.2,0-0.3v-0.2l0,0v-0.2
			c0,0,0,0,0-0.1l0,0l0,0c0,0,0.1-0.2,0.1-0.6v-0.1l0,0v-0.2l0,0v-0.2V426c0,0,0,0,0-0.1v-0.1v-0.1l0,0l0,0l0,0c0,0,0,0,0-0.1v-0.1
			c0-0.1,0-0.1,0-0.1v-0.2v-0.2l0,0l0,0v-0.1l0,0l0,0V425L-120.3,422.4L-120.3,422.4z"/>
		<path id="XMLID_5_" class="st5" d="M-121.4,422.9L-121.4,422.9C-121.4,422.7-121.4,422.7-121.4,422.9
			C-121.4,422.8-121.5,422.8-121.4,422.9C-121.4,422.8-121.4,422.9-121.4,422.9L-121.4,422.9z"/>
		<path id="XMLID_4_" class="st5" d="M-121.4,423.7L-121.4,423.7L-121.4,423.7C-121.4,423.6-121.4,423.7-121.4,423.7z"/>
	</g>
	<path id="XMLID_1_" class="st1" d="M-180.6,398.3c0.2,0,0.4,0.4,0.5,0.5c0.3,0.5,0.2,1,0.2,1.2c-0.3,1.9-0.5,2.9-0.5,2.9
		c-0.7,2.4-0.6,2.3-0.7,2.4c-0.8,2.4-1.9,4.9-2.6,6.3c-1.4,3.3-2.6,5.8-3,8.9c-0.3,2-0.5,3.6,0.4,4.9c0.4,0.5,1.1,1.1,0.8,1.6
		c-0.2,0.4-0.9,0.6-1.3,0.7c-0.7,0.2-1.3,0.1-1.6,0c-0.3-0.1-1.2-0.3-1.8-1.1c-0.3-0.4-0.6-0.9-0.8-1.7c-0.3-2,0.3-3.8,0.6-4.4
		c1.8-4.5,2.7-6.2,2.7-6.2c1.1-2.1,4.3-8.1,5.6-11.1c0.6-1.3,0.8-1.8,1-2.7C-181,399.4-181,398.4-180.6,398.3z"/>
</g>
</svg>
