<?xml version="1.0" encoding="utf-8"?>
<!-- Generator: Adobe Illustrator 19.0.0, SVG Export Plug-In . SVG Version: 6.00 Build 0)  -->
<svg version="1.1" id="Layer_1" xmlns="http://www.w3.org/2000/svg" xmlns:xlink="http://www.w3.org/1999/xlink" x="0px" y="0px"
	 viewBox="-255 347 100 100" style="enable-background:new -255 347 100 100;" xml:space="preserve">
<style type="text/css">
	.st0{fill:#BB141E;}
</style>
<g>
	<path class="st0" d="M-176.3,427.6L-176.3,427.6C-176.3,427.6-176.2,427.9-176.3,427.6z"/>
	<path class="st0" d="M-161.3,423.4c-3.7-0.7-7.1-2.2-10.3-4.1v-2.4h-0.9v1.8c-1.9-1.1-3.7-2.4-5.5-3.6v-0.7h-1
		c-1.9-1.4-3.8-2.7-5.6-4.1v-0.5h-0.7v0c-1.6-1.1-3.2-2.1-4.8-3.1v-1.7h-1v1.1c-1.5-0.8-3-1.5-4.5-2.2v-1.9h-1v1.6
		c-1.6-0.6-3.3-1-5.1-1.3v-1.7h-1v1.6c-1.2-0.1-2.4-0.2-3.6-0.2c-0.4,0-0.9,0-1.3,0.1v-2.2h-1v2.3c-1.7,0.2-3.3,0.6-4.8,1.1v-2.7
		h-1.3v3.1c-1.5,0.6-3,1.3-4.5,2.1v-3.5h-1v4c-1.8,1-3.5,2.2-5.1,3.4v-2.5h-1v3.2c-1.7,1.3-3.4,2.6-5.1,3.9v-2.3h-1.1v3.1
		c-1.3,1-2.7,2-4,2.9v-2.8h-1.1v3.6c-1.8,1.2-3.7,2.3-5.7,3.1v-3.1h-0.7v3.4c-1.5,0.6-3.1,1.2-4.8,1.6c-0.8,0.2-0.5,1.5,0.4,1.3
		c3.9-0.9,7.4-2.7,10.8-4.9v2c-1.7,1.2-3.4,2.4-4.8,3.9c0,0,4.8,1.6,4.9,1.6c-0.4-0.1,0.4-1.9,0.5-2.1c0.4-1.2,1.1-2.3,2.3-2.7
		c1.2-0.5,2.6-0.4,4-0.3c2.8,0.2,3.6,2.6,4,5c0.1,0.7,0.6,2.2,0.3,2.9h3.8c-0.1,0,0.2-3.9,0.2-4.2c0.2-1.5,0.5-2.9,1-4.3
		c1.8-5.5,6.8-10.9,13-10.9c3.2,0,6.5,1.1,9,3.2c2.7,2.3,4.2,5.6,5.2,8.9c0.6,2.2,1.1,4.5,1.2,6.7c0,0.9,0,1.9,0,2.8
		c0.7-0.4,1.6-0.9,2.8-1.2c2-0.5,3-0.2,3.4-0.9c0.5-0.8-0.7-1.7-0.4-3.4c0.1-0.7,0.5-1.5,0.5-1.5c0.2-0.3,0.4-0.7,0.7-1
		c1.2-1.5,2.8-2.2,4.7-1.8c2,0.5,3.7,1.8,4.7,3.7c0.2,0.4,0.3,0.7,0.4,0.8l6.1-1l1.2-0.4c-0.2,0.1-1.5-0.9-1.7-1
		c-0.3-0.2-0.6-0.3-0.9-0.5v-3.9c3.1,1.7,6.4,3.1,9.9,3.8C-160.8,424.8-160.5,423.5-161.3,423.4z M-208.6,403.6v2.8
		c-1.6,0.1-3.2,0.4-4.8,0.8v-2.5C-211.9,404.2-210.3,403.8-208.6,403.6z M-233.3,419.7c-1.1,0.7-2.1,1.3-3.2,2v-2
		c1.4-0.9,2.7-1.9,4-2.9v2.3C-232.7,419.3-233,419.5-233.3,419.7z M-226.4,414.4c-1.6,1.3-3.2,2.7-4.8,3.9V416
		c1.7-1.3,3.4-2.6,5.1-3.9v2.2C-226.3,414.3-226.4,414.4-226.4,414.4z M-225.3,413.5v-2.1c1.7-1.2,3.4-2.4,5.1-3.5v1.9
		C-222,410.8-223.6,412.1-225.3,413.5z M-219.2,409.3v-2c1.5-0.8,2.9-1.6,4.5-2.2v2.4C-216.2,408-217.7,408.6-219.2,409.3z
		 M-207.6,406.3v-2.8c0.4,0,0.9-0.1,1.3-0.1c1.2,0,2.4,0.1,3.6,0.2v2.8C-204.3,406.3-206,406.3-207.6,406.3z M-201.8,406.6v-2.8
		c1.8,0.3,3.4,0.8,5.1,1.4v2.8C-198.3,407.4-200,406.9-201.8,406.6z M-195.6,408.4c0,0-0.1,0-0.1-0.1v-2.8c1.6,0.6,3.1,1.4,4.5,2.2
		v3C-192.6,409.9-194.1,409.1-195.6,408.4z M-187.3,413.8c-1-0.8-2-1.5-3-2.2v-3.2c1.6,1,3.2,2,4.8,3.1v3.9
		C-186,414.8-186.6,414.3-187.3,413.8z M-183.2,417.4c-0.5-0.4-1-0.9-1.5-1.3V412c1.9,1.3,3.8,2.7,5.6,4v4.2
		C-180.5,419.4-181.9,418.4-183.2,417.4z M-172.5,424.2C-172.5,424.1-172.6,424.1-172.5,424.2c-1.3-0.8-2.5-1.5-3.8-2.2
		c-0.6-0.4-1.2-0.7-1.8-1.1h0v-4.1c1.8,1.3,3.6,2.5,5.5,3.6V424.2z"/>
</g>
</svg>
